<?xml version="1.0" encoding="UTF-8" standalone="no"?>
<svg width="54px" height="63px" viewBox="0 0 54 63" version="1.1" xmlns="http://www.w3.org/2000/svg" xmlns:xlink="http://www.w3.org/1999/xlink" xmlns:sketch="http://www.bohemiancoding.com/sketch/ns">
    <!-- Generator: Sketch 3.4.1 (15681) - http://www.bohemiancoding.com/sketch -->
    <title>Untitled</title>
    <desc>Created with Sketch.</desc>
    <defs></defs>
    <g id="Page-1" stroke="none" stroke-width="1" fill="none" fill-rule="evenodd" sketch:type="MSPage">
        <path d="M11.302322,58.1501161 L10.2845975,61.0037152 L3.92956656,61.0037152 L3.92956656,41.6284056 L6.4247678,27.9403251 L7.6618034,7.48668731 C7.6618034,7.48668731 7.82271672,1 13.7347136,1 L39.7117647,1 C45.918421,1 46.2486068,7.35294118 46.2486068,7.35294118 L47.476548,28.1994582 L49.935178,41.6284056 L49.935178,61.0037152 L43.3356424,61.0037152 L42.5801857,57.7593266 M8.58862229,53.1180341 L12.8089396,54.0114164 L40.1516641,54.0114164 L45.5098684,52.9769737 M6.07294892,26.0732972 L1,26.0732972 L1,21.7547601 M47.840596,25.9732972 L52.9125,25.9732972 L52.9125,21.65476 M9.2505805,42.0453173 L14.9880805,42.9669118 L14.9880805,45.558243 M44.6796827,42.0453173 L38.9411378,42.9669118 L38.9411378,45.7327399 M19.9497291,47.9521672 L33.7757353,47.9521672 L34.2814628,42.944969 L19.6832817,42.944969 C19.6832817,43.1685759 19.9497291,47.9521672 19.9497291,47.9521672 Z M46.6477554,14.7652864 C46.6477554,14.7652864 40.5361842,12.435178 27.0487229,12.435178 C13.9760836,12.435178 7.9376548,14.7652864 7.9376548,14.7652864 M14.5873452,32.9808823 L39.4306889,32.9808823" id="Truck-Blue-52px" stroke="#11A3EB" stroke-width="2" stroke-linecap="round" stroke-linejoin="round" sketch:type="MSShapeGroup"></path>
    </g>
</svg>