<?xml version="1.0" encoding="UTF-8" standalone="no"?>
<svg width="81px" height="64px" viewBox="0 0 81 64" version="1.1" xmlns="http://www.w3.org/2000/svg" xmlns:xlink="http://www.w3.org/1999/xlink" xmlns:sketch="http://www.bohemiancoding.com/sketch/ns">
    <!-- Generator: Sketch 3.4.1 (15681) - http://www.bohemiancoding.com/sketch -->
    <title>Untitled</title>
    <desc>Created with Sketch.</desc>
    <defs></defs>
    <g id="Page-1" stroke="none" stroke-width="1" fill="none" fill-rule="evenodd" sketch:type="MSPage">
        <g id="Icons/Vehicle/Car/77" sketch:type="MSLayerGroup" transform="translate(2.000000, 2.000000)" stroke="#11A3EB" stroke-width="3" stroke-linecap="round" stroke-linejoin="round">
            <path d="M14.6183896,55.4508812 L13.1224528,59.6372549 L3.7745098,59.6372549 L3.7745098,30.7703775 L13.0080967,9.516174 C13.0080967,9.516174 16.546486,0 25.2415357,0 L50.2416319,0 C59.3715005,0 63.1585477,9.3211813 63.1585477,9.3211813 L72.4705882,30.7703775 L72.4705882,59.6372549 L62.7636204,59.6372549 L61.6519731,54.8765149 M11.3235294,49.0098039 L17.6226482,50.3137255 L58.4346764,50.3137255 L66.4313725,48.8039216 M8.30392157,20.3823529 L1.13686838e-13,20.3823529 L8.30392157,20.3823529 Z M68.6960784,20.3823529 L77,20.3823529 L68.6960784,20.3823529 Z M12.0784314,31.7058824 L20.10977,33.1801596 L21.1372549,38.5 M64.9215686,31.7058824 L57.0475132,33.0825389 L55.8627451,38.5 M27.9005341,37.745098 L48.8764677,37.745098 L50.5784314,30.9509804 L26.4215686,30.9509804 C26.4215686,31.3436019 27.9005341,37.745098 27.9005341,37.745098 Z" id="Car-Blue-77px" sketch:type="MSShapeGroup"></path>
        </g>
    </g>
</svg>