<?xml version="1.0" encoding="UTF-8" standalone="no"?>
<svg width="60px" height="47px" viewBox="0 0 60 47" version="1.1" xmlns="http://www.w3.org/2000/svg" xmlns:xlink="http://www.w3.org/1999/xlink" xmlns:sketch="http://www.bohemiancoding.com/sketch/ns">
    <!-- Generator: Sketch 3.4.1 (15681) - http://www.bohemiancoding.com/sketch -->
    <title>Untitled</title>
    <desc>Created with Sketch.</desc>
    <defs></defs>
    <g id="Page-1" stroke="none" stroke-width="1" fill="none" fill-rule="evenodd" sketch:type="MSPage">
        <path d="M12.284,42.803 L11.159,45.96 L4.129,45.96 L4.129,23.997 L11.073,8.175 C11.073,8.175 13.734,1 20.273,1 L39.073,1 C45.94,1 48.787,8.027 48.787,8.027 L55.19,23.997 L55.19,45.96 L47.891,45.96 L47.055,42.37 M9.615,37.062 L14.282,38.05 L44.527,38.05 L50.453,36.906 M7.304,15.924 L1,15.924 M52.158,15.924 L58.462,15.924 M9.794,24.543 L16.141,25.562 L16.953,29.239 M50.087,24.543 L43.741,25.562 L42.786,29.573 M21.79,29.078 L38.157,29.078 L39.484,24.077 L20.635,24.077 C20.635,24.366 21.79,29.078 21.79,29.078 Z" id="Car-Blue-57px" stroke="#11A3EB" stroke-width="2" stroke-linecap="round" stroke-linejoin="round" sketch:type="MSShapeGroup"></path>
    </g>
</svg>