<?xml version="1.0" encoding="UTF-8" standalone="no"?>
<svg width="47px" height="37px" viewBox="0 0 47 37" version="1.1" xmlns="http://www.w3.org/2000/svg" xmlns:xlink="http://www.w3.org/1999/xlink" xmlns:sketch="http://www.bohemiancoding.com/sketch/ns">
    <!-- Generator: Sketch 3.4.1 (15681) - http://www.bohemiancoding.com/sketch -->
    <title>Untitled</title>
    <desc>Created with Sketch.</desc>
    <defs></defs>
    <g id="Page-1" stroke="none" stroke-width="1" fill="none" fill-rule="evenodd" sketch:type="MSPage">
        <g id="Icons/Vehicle/Car/44" sketch:type="MSLayerGroup" transform="translate(1.000000, 1.000000)" stroke="#11A3EB" stroke-width="2" stroke-linecap="round" stroke-linejoin="round">
            <path d="M9.43068051,32.250547 L8.57029996,34.6372549 L3.19387755,34.6372549 L3.19387755,18.1798604 L8.50452865,6.06255351 C8.50452865,6.06255351 10.5396154,0.637254902 15.5405295,0.637254902 L29.9192092,0.637254902 C35.1702072,0.637254902 37.3483084,5.95138555 37.3483084,5.95138555 L42.7040816,18.1798604 L42.7040816,34.6372549 L37.1211679,34.6372549 L36.4818095,31.9230931 M7.68367347,28.7066329 L11.1734844,29.4793602 L33.7839902,29.4793602 L38.2142857,28.5846233 M4.98979592,12.2688338 L0.5,12.2688338 L4.98979592,12.2688338 Z M40.0102041,12.2688338 L44.5,12.2688338 L40.0102041,12.2688338 Z M6.78571429,17.6372549 L11.5623705,18.4138621 L12.1734694,21.2162023 M39.1122449,17.6372549 L34.4291332,18.3624383 L33.7244898,21.2162023 M16.6449241,22.1109391 L29.1204064,22.1109391 L30.1326531,17.6372549 L15.7653061,17.6372549 C15.7653061,17.8957821 16.6449241,22.1109391 16.6449241,22.1109391 Z" id="Car-Blue-44px" sketch:type="MSShapeGroup"></path>
        </g>
    </g>
</svg>