<?xml version="1.0" encoding="UTF-8" standalone="no"?>
<svg width="86px" height="85px" viewBox="0 0 86 85" version="1.1" xmlns="http://www.w3.org/2000/svg" xmlns:xlink="http://www.w3.org/1999/xlink" xmlns:sketch="http://www.bohemiancoding.com/sketch/ns">
    <!-- Generator: Sketch 3.4.1 (15681) - http://www.bohemiancoding.com/sketch -->
    <title>Untitled</title>
    <desc>Created with Sketch.</desc>
    <defs>
        <linearGradient x1="50%" y1="100%" x2="50%" y2="-43.4604779%" id="linearGradient-1">
            <stop stop-color="#11A3EB" offset="0%"></stop>
            <stop stop-color="#24BDFD" offset="100%"></stop>
        </linearGradient>
    </defs>
    <g id="Page-1" stroke="none" stroke-width="1" fill="none" fill-rule="evenodd" sketch:type="MSPage">
        <g id="UI/Pin/Bike" sketch:type="MSLayerGroup">
            <circle id="Oval-128" fill="url(#linearGradient-1)" sketch:type="MSShapeGroup" cx="42.5" cy="42.5" r="42.5"></circle>
            <path d="M40.4205361,49.7504114 C42.0612983,49.7504114 43.3920306,48.4196791 43.3920306,46.7789169 C43.3920306,45.1381546 42.0612983,43.8074223 40.4205361,43.8074223 L36.6417655,44.2949331 L28.1391574,45.3920197 C27.3738178,45.3920197 26.7522603,46.0128284 26.7522603,46.7789169 C26.7522603,47.5442564 27.3738178,48.1650651 28.1391574,48.1650651 L40.4205361,49.7504114 L40.4205361,49.7504114 Z M37.1539889,49.5137702 C36.628286,51.1230801 35.6892098,52.5466716 34.4633185,53.6587355 C32.752163,55.209634 30.4816057,56.154701 27.9901334,56.154701 C22.6657064,56.154701 18.35,51.8389946 18.35,46.5145677 C18.35,41.1908896 22.6657064,36.8744343 27.9901334,36.8744343 C28.3975157,36.8744343 28.8004048,36.8998957 29.1950564,36.9493208 M59.6071947,37.0062345 C64.1707753,37.7670808 67.65,41.7345652 67.65,46.5145677 C67.65,51.8389946 63.3342936,56.154701 58.0106155,56.154701 C52.6861885,56.154701 48.3697333,51.8389946 48.3697333,46.5145677 C48.3697333,42.2565238 51.1315457,38.6425035 54.961239,37.3664383 L59.6071947,37.0062345 Z M48.2094763,25.3119656 L52.5693657,26.9707006 L53.6349999,30.9037372 L41.4884169,43.5265981 M54.8975856,35.3332711 L58.0106155,46.5145677 L54.8975856,35.3332711 Z M31.2634203,31.3890015 L37.3749039,43.759495 L31.2634203,31.3890015 Z M28.9172277,30.9007418 L35.2945582,30.9007418 L28.9172277,30.9007418 Z" id="Imported-Layers" stroke="#FDFEFF" stroke-width="2.5" stroke-linecap="round" stroke-linejoin="round" sketch:type="MSShapeGroup"></path>
        </g>
    </g>
</svg>