<?xml version="1.0" encoding="UTF-8" standalone="no"?>
<svg width="86px" height="85px" viewBox="0 0 86 85" version="1.1" xmlns="http://www.w3.org/2000/svg" xmlns:xlink="http://www.w3.org/1999/xlink" xmlns:sketch="http://www.bohemiancoding.com/sketch/ns">
    <!-- Generator: Sketch 3.4.1 (15681) - http://www.bohemiancoding.com/sketch -->
    <title>Untitled</title>
    <desc>Created with Sketch.</desc>
    <defs>
        <linearGradient x1="50%" y1="100%" x2="50%" y2="-43.4604779%" id="linearGradient-1">
            <stop stop-color="#11A3EB" offset="0%"></stop>
            <stop stop-color="#24BDFD" offset="100%"></stop>
        </linearGradient>
    </defs>
    <g id="Page-1" stroke="none" stroke-width="1" fill="none" fill-rule="evenodd" sketch:type="MSPage">
        <g id="UI/Pin/Car" sketch:type="MSLayerGroup">
            <ellipse id="Oval-128" fill="url(#linearGradient-1)" sketch:type="MSShapeGroup" cx="42.5" cy="42.5" rx="42.5" ry="42.5"></ellipse>
            <path d="M26.9455306,57.2325029 L25.9873795,59.9 L20,59.9 L20,41.5064414 L25.9141342,27.963569 C25.9141342,27.963569 28.1804808,21.9 33.7496806,21.9 L49.7623011,21.9 C55.6100035,21.9 58.0356161,27.8393225 58.0356161,27.8393225 L64,41.5064414 L64,59.9 L57.7826642,59.9 L57.0706515,56.8665251 L26.9455306,57.2325029 Z M25,51.0363636 L28.8863803,51.9 L54.0662618,51.9 L59,50.9 M22,34.9 L17,34.9 L22,34.9 Z M61,34.9 L66,34.9 L61,34.9 Z M24,40.9 L29.319458,41.7679727 L30,44.9 M60,40.9 L54.7847165,41.7104991 L54,44.9 M34.9795745,45.9 L48.8727253,45.9 L50,40.9 L34,40.9 C34,41.1889422 34.9795745,45.9 34.9795745,45.9 Z" id="Imported-Layers" stroke="#FFFFFF" stroke-width="2.5" stroke-linecap="round" stroke-linejoin="round" sketch:type="MSShapeGroup"></path>
        </g>
    </g>
</svg>