<?xml version="1.0" encoding="UTF-8" standalone="no"?>
<svg width="57px" height="37px" viewBox="0 0 57 37" version="1.1" xmlns="http://www.w3.org/2000/svg" xmlns:xlink="http://www.w3.org/1999/xlink" xmlns:sketch="http://www.bohemiancoding.com/sketch/ns">
    <!-- Generator: Sketch 3.4.1 (15681) - http://www.bohemiancoding.com/sketch -->
    <title>Untitled</title>
    <desc>Created with Sketch.</desc>
    <defs></defs>
    <g id="Page-1" stroke="none" stroke-width="1" fill="none" fill-rule="evenodd" sketch:type="MSPage">
        <g id="Icons/Vehicles/Bicycle/53" sketch:type="MSLayerGroup" transform="translate(1.000000, 1.000000)" stroke="#11A3EB" stroke-width="2" stroke-linecap="round" stroke-linejoin="round">
            <path d="M24.6871809,27.5854891 C26.4763772,27.5854891 27.9274962,26.1127816 27.9274962,24.2969672 C27.9274962,22.4811527 26.4763772,21.0084452 24.6871809,21.0084452 L20.5665581,21.5479683 L11.2947485,22.7621026 C10.4601713,22.7621026 9.78238361,23.4491451 9.78238361,24.2969672 C9.78238361,25.1439605 10.4601713,25.831003 11.2947485,25.831003 L24.6871809,27.5854891 L24.6871809,27.5854891 Z M21.1251205,27.3236008 C20.5518591,29.1046073 19.527828,30.6800812 18.1910346,31.9107906 C16.3250768,33.6271538 13.84911,34.6730496 11.1322428,34.6730496 C5.3261334,34.6730496 0.62,29.8969024 0.62,24.0044147 C0.62,18.1127557 5.3261334,13.3357797 11.1322428,13.3357797 C11.5764796,13.3357797 12.0158167,13.3639576 12.4461711,13.4186558 M45.60959,13.4816416 C50.5860219,14.3236623 54.38,18.7144359 54.38,24.0044147 C54.38,29.8969024 49.6738666,34.6730496 43.8685738,34.6730496 C38.0624644,34.6730496 33.3555144,29.8969024 33.3555144,24.0044147 C33.3555144,19.292082 36.3671785,15.2924834 40.5433309,13.8802754 M33.1807595,0.539716312 L37.935073,2.375421 L39.0971115,6.72807158 L25.8516692,20.6976599 M40.4739189,11.6301904 L43.8685738,24.0044147 L40.4739189,11.6301904 Z M14.7016527,7.26510844 L21.366021,20.9554045 L14.7016527,7.26510844 Z M12.1432081,6.72475654 L19.0974736,6.72475654 L12.1432081,6.72475654 Z" id="Bicycle-Blue-53-px" sketch:type="MSShapeGroup"></path>
        </g>
    </g>
</svg>