<?xml version="1.0" encoding="UTF-8" standalone="no"?>
<svg width="95px" height="62px" viewBox="0 0 95 62" version="1.1" xmlns="http://www.w3.org/2000/svg" xmlns:xlink="http://www.w3.org/1999/xlink" xmlns:sketch="http://www.bohemiancoding.com/sketch/ns">
    <!-- Generator: Sketch 3.4.1 (15681) - http://www.bohemiancoding.com/sketch -->
    <title>Untitled</title>
    <desc>Created with Sketch.</desc>
    <defs></defs>
    <g id="Page-1" stroke="none" stroke-width="1" fill="none" fill-rule="evenodd" sketch:type="MSPage">
        <g id="Icons/Vehicles/Bicycle/91" sketch:type="MSLayerGroup" transform="translate(2.000000, 2.000000)" stroke="#11A3EB" stroke-width="3" stroke-linecap="round" stroke-linejoin="round">
            <path d="M40.7387177,45.9566843 C43.7673052,45.9566843 46.2236264,43.454232 46.2236264,40.3687661 C46.2236264,37.2833002 43.7673052,34.7808479 40.7387177,34.7808479 L33.7637051,35.6976157 L18.0692358,37.7606954 C16.65654,37.7606954 15.5092431,38.9281309 15.5092431,40.3687661 C15.5092431,41.807993 16.65654,42.9754285 18.0692358,42.9754285 L40.7387177,45.9566843 L40.7387177,45.9566843 Z M34.7091884,45.5116787 C33.738824,48.5379983 32.005438,51.2150731 29.7426367,53.3063177 C26.5841143,56.2227942 22.3930248,58 17.794161,58 C7.96611122,58 0,49.8842811 0,39.8716554 C0,29.860438 7.96611122,21.7433108 17.794161,21.7433108 C18.5461243,21.7433108 19.2897939,21.7911912 20.0182583,21.8841354 M76.1542539,21.991162 C84.5779017,23.4219395 91,30.8828243 91,39.8716554 C91,49.8842811 83.0338888,58 73.2072213,58 C63.3791715,58 55.411678,49.8842811 55.411678,39.8716554 C55.411678,31.8643714 60.5095469,25.0681785 67.5785548,22.6685281 M55.1158689,0 L63.163535,3.11926383 L65.1305272,10.5153693 L42.7098568,34.2527558 M67.4610606,18.8451416 L73.2072213,39.8716554 L67.4610606,18.8451416 Z M23.8361308,11.4279124 L35.1169626,34.6907201 L23.8361308,11.4279124 Z M19.5054304,10.5097363 L31.2769736,10.5097363 L19.5054304,10.5097363 Z" id="Bicycle-Blue-91px" sketch:type="MSShapeGroup"></path>
        </g>
    </g>
</svg>