<?xml version="1.0" encoding="UTF-8" standalone="no"?>
<svg width="40px" height="45px" viewBox="0 0 40 45" version="1.1" xmlns="http://www.w3.org/2000/svg" xmlns:xlink="http://www.w3.org/1999/xlink" xmlns:sketch="http://www.bohemiancoding.com/sketch/ns">
    <!-- Generator: Sketch 3.4.1 (15681) - http://www.bohemiancoding.com/sketch -->
    <title>Untitled</title>
    <desc>Created with Sketch.</desc>
    <defs></defs>
    <g id="Page-1" stroke="none" stroke-width="1" fill="none" fill-rule="evenodd" sketch:type="MSPage">
        <g id="UI/General/Share/Android" sketch:type="MSLayerGroup" transform="translate(1.000000, 1.000000)" stroke="#11A3EB" stroke-width="2" stroke-linecap="round" stroke-linejoin="round">
            <path d="M12,22 C12,25.3138 9.3138,28 6,28 C2.6862,28 0,25.3138 0,22 C0,18.6862 2.6862,16 6,16 C9.3138,16 12,18.6862 12,22 L12,22 Z M38,6 C38,9.3138 35.3138,12 32,12 C28.6862,12 26,9.3138 26,6 C26,2.6862 28.6862,0 32,0 C35.3138,0 38,2.6862 38,6 L38,6 Z M38,37 C38,40.3138 35.3138,43 32,43 C28.6862,43 26,40.3138 26,37 C26,33.6862 28.6862,31 32,31 C35.3138,31 38,33.6862 38,37 L38,37 Z M11,26 L26,35 L11,26 Z M26,9 L12,18 L26,9 Z" id="Share-Android" sketch:type="MSShapeGroup"></path>
        </g>
    </g>
</svg>