<?xml version="1.0" encoding="UTF-8" standalone="no"?>
<svg width="70px" height="44px" viewBox="0 0 70 44" version="1.1" xmlns="http://www.w3.org/2000/svg" xmlns:xlink="http://www.w3.org/1999/xlink" xmlns:sketch="http://www.bohemiancoding.com/sketch/ns">
    <!-- Generator: Sketch 3.4.1 (15681) - http://www.bohemiancoding.com/sketch -->
    <title>Untitled</title>
    <desc>Created with Sketch.</desc>
    <defs>
        <radialGradient cx="0%" cy="0%" fx="0%" fy="0%" r="125.529864%" id="radialGradient-1">
            <stop stop-color="#93D3F6" offset="0%"></stop>
            <stop stop-color="#2E77BE" offset="100%"></stop>
        </radialGradient>
        <linearGradient x1="96.0722082%" y1="92.9129464%" x2="6.12936581%" y2="5.71521595%" id="linearGradient-2">
            <stop stop-color="#2E77BE" offset="0%"></stop>
            <stop stop-color="#8ECEF3" offset="100%"></stop>
        </linearGradient>
        <rect id="path-3" x="0" y="0" width="51" height="14"></rect>
    </defs>
    <g id="Page-1" stroke="none" stroke-width="1" fill="none" fill-rule="evenodd" sketch:type="MSPage">
        <g id="UI/Payment/Amex/Big" sketch:type="MSLayerGroup" transform="translate(1.000000, 1.000000)">
            <g id="Group-Copy-4" stroke="url(#linearGradient-2)" fill="url(#radialGradient-1)" sketch:type="MSShapeGroup">
                <rect id="Mask-Copy-2" x="0" y="0" width="68" height="42" rx="3"></rect>
            </g>
            <g id="Imported-Layers" transform="translate(9.000000, 14.000000)">
                <mask id="mask-4" sketch:name="Mask" fill="white">
                    <use xlink:href="#path-3"></use>
                </mask>
                <use id="Mask" sketch:type="MSShapeGroup" xlink:href="#path-3"></use>
                <g mask="url(#mask-4)" stroke="#FFFFFF" stroke-width="2" sketch:type="MSShapeGroup">
                    <g transform="translate(3.000000, 2.000000)">
                        <path d="M7.91054981,7.79850746 L8.74456019,10 L13.2968668,10 L13.2968668,2.1641791 L16.5634075,10 L18.4746813,10 L21.7412219,2.1641791 L21.7412219,10 L24,10 L24,0 L20.3512046,0 L17.6059204,6.79104478 L14.6868841,0 L11.1075896,0 L11.1075896,9.44029851 L7.28504203,0 L3.98375096,0 L0,10 L2.38523107,10 L3.21924144,7.79850746 L7.91054981,7.79850746 Z M5.58227084,1.71641791 L7.11128987,5.67164179 L4.01850139,5.67164179 L5.58227084,1.71641791 L5.58227084,1.71641791 Z" id="Fill-1"></path>
                        <path d="M40.1709623,0.000518215267 L37.3705102,3.28393014 L34.7387601,0.000518215267 L26,0.000518215267 L26,10 L34.6037986,10 L37.3705102,6.71658807 L40.0360008,10 L42.8125534,10 L38.7538661,5.00025911 L42.0941643,1.08255169 L43,0 L40.1709623,0.000518215267 L40.1709623,0.000518215267 Z M33.4903658,7.94786754 L28.1256443,7.94786754 L28.1256443,5.93304659 L32.9167792,5.93304659 L32.9167792,3.91822563 L28.1256443,3.91822563 L28.1256443,2.08996217 L33.5578466,2.08996217 L35.953414,5.00025911 L33.4903658,7.94786754 L33.4903658,7.94786754 Z" id="Fill-2"></path>
                    </g>
                </g>
            </g>
        </g>
    </g>
</svg>