<?xml version="1.0" encoding="UTF-8" standalone="no"?>
<svg width="70px" height="44px" viewBox="0 0 70 44" version="1.1" xmlns="http://www.w3.org/2000/svg" xmlns:xlink="http://www.w3.org/1999/xlink" xmlns:sketch="http://www.bohemiancoding.com/sketch/ns">
    <!-- Generator: Sketch 3.4.1 (15681) - http://www.bohemiancoding.com/sketch -->
    <title>Untitled</title>
    <desc>Created with Sketch.</desc>
    <defs>
        <linearGradient x1="50%" y1="0%" x2="50%" y2="100%" id="linearGradient-1">
            <stop stop-color="#FFB603" offset="0%"></stop>
            <stop stop-color="#FEAF46" offset="100%"></stop>
        </linearGradient>
        <rect id="path-2" x="0" y="0" width="68" height="42" rx="3"></rect>
    </defs>
    <g id="Page-1" stroke="none" stroke-width="1" fill="none" fill-rule="evenodd" sketch:type="MSPage">
        <g id="UI/Payment/Discover/Big" sketch:type="MSLayerGroup" transform="translate(1.000000, 1.000000)">
            <rect id="Mask-Copy-9" stroke="#D2D3DE" fill="#FFFFFF" sketch:type="MSShapeGroup" x="0" y="0" width="68" height="42" rx="3"></rect>
            <g id="Imported-Layers" transform="translate(5.000000, 16.000000)" sketch:type="MSShapeGroup">
                <g>
                    <path d="M30.5061351,0 C28.0183781,0 26,1.98800625 26,4.44159322 C26,7.04998326 27.9306866,9 30.5061351,9 C33.0172875,9 35,7.024378 35,4.49280375 C35,1.97629142 33.0305393,0 30.5061351,0" id="Fill-1" fill="url(#linearGradient-1)"></path>
                    <path d="M2.43735892,0 L0,0 L0,9 L2.42452032,9 C3.71084932,9 4.64131866,8.67725821 5.45739278,7.96171943 C6.42571953,7.11129829 7,5.82939297 7,4.5044438 C7,1.84722626 5.12507054,0 2.43735892,0 L2.43735892,0 Z M4.37549379,6.75945396 C3.85141554,7.26012199 3.17689522,7.47638687 2.10470749,7.47638687 L1.65914221,7.47638687 L1.65914221,1.52396166 L2.10470749,1.52396166 C3.17689522,1.52396166 3.82573834,1.72663375 4.37549379,2.25239617 C4.94911588,2.79227418 5.29098476,3.62823119 5.29098476,4.49154807 C5.29098476,5.35660761 4.94911588,6.22184142 4.37549379,6.75945396 L4.37549379,6.75945396 Z" id="Fill-2" fill="#0B1015"></path>
                    <path d="M8,0 L10,0 L10,9 L8,9 L8,0 Z" id="Fill-3" fill="#0B1015"></path>
                    <path d="M14.5017369,3.46113922 C13.4849843,3.08594389 13.1857911,2.83849245 13.1857911,2.37339088 C13.1857911,1.82842845 13.7184558,1.41388868 14.4486217,1.41388868 C14.9562416,1.41388868 15.3727589,1.62115857 15.8166741,2.11237815 L16.7006387,0.960339311 C15.9718176,0.32362899 15.0997871,0 14.1485881,0 C12.6141304,0 11.4417302,1.06347198 11.4417302,2.47551901 C11.4417302,3.66924622 11.9880099,4.2781643 13.5765912,4.85008185 C14.2408673,5.08229779 14.5785522,5.23716422 14.7481511,5.34280824 C15.0865083,5.56330456 15.2564433,5.87337227 15.2564433,6.23634571 C15.2564433,6.93734653 14.6962125,7.45535382 13.9401614,7.45535382 C13.1331802,7.45535382 12.4830233,7.05387306 12.0922232,6.30197559 L11,7.35339311 C11.7794151,8.49254037 12.716831,9 14.0068915,9 C15.7640632,9 17,7.83138626 17,6.15949847 C17,4.78495424 16.4286755,4.16214004 14.5017369,3.46113922" id="Fill-4" fill="#0B1015"></path>
                    <path d="M18,4.50425197 C18,7.03775822 20.0932448,9 22.7844592,9 C23.5452563,9 24.1974433,8.85726725 25,8.49693377 L25,6.52035201 C24.2923675,7.19232978 23.6672014,7.46295507 22.8651711,7.46295507 C21.0854744,7.46295507 19.8209299,6.23588698 19.8209299,4.49191292 C19.8209299,2.83981473 21.124953,1.53537749 22.7844592,1.53537749 C23.6256172,1.53537749 24.2653465,1.81934229 25,2.5036591 L25,0.527077351 C24.225517,0.153737842 23.5857877,0 22.8248151,0 C20.1472866,0 18,2.00192682 18,4.50425197" id="Fill-5" fill="#0B1015"></path>
                    <path d="M39.492568,5.89498726 L36.9935952,0 L35,0 L38.9743202,9 L39.9562538,9 L44,0 L42.0210876,0 L39.492568,5.89498726" id="Fill-6" fill="#0B1015"></path>
                    <path d="M50.0367647,9 L50.0367647,7.47638687 L46.7792816,7.47638687 L46.7792816,5.04554168 L49.9121471,5.04554168 L49.9121471,3.52158002 L46.7792816,3.52158002 L46.7792816,1.52396166 L50.0367647,1.52396166 L50.0367647,0 L45.0073529,0 L45.0073529,9 L50.0367647,9 Z" id="Fill-7" fill="#0B1015"></path>
                    <path d="M56.9062678,2.65617194 C56.9062678,0.970142318 55.7239121,0 53.6575005,0 L51,0 L51,9 L52.7915774,9 L52.7915774,5.38292187 L53.0258797,5.38292187 L55.5029426,9 L57.7058824,9 L54.8128351,5.20882951 C56.1640734,4.93819344 56.9062678,4.03357537 56.9062678,2.65617194 L56.9062678,2.65617194 Z M53.3126246,4.14249201 L52.7915774,4.14249201 L52.7915774,1.41521929 L53.3412457,1.41521929 C54.4588928,1.41521929 55.0643812,1.87545745 55.0643812,2.75132152 C55.0643812,3.65489399 54.4588928,4.14249201 53.3126246,4.14249201 L53.3126246,4.14249201 Z" id="Fill-8" fill="#0B1015"></path>
                </g>
            </g>
            <g id="Imported-Layers">
                <path d="M68,26 C68,26 52.4606806,37.0510199 24,42 L68,42 L68,26" fill="#FFAF46" sketch:type="MSShapeGroup"></path>
                <mask id="mask-3" sketch:name="Mask Copy 2" fill="white">
                    <use xlink:href="#path-2"></use>
                </mask>
                <use id="Mask-Copy-2" stroke="#D2D3DE" sketch:type="MSShapeGroup" xlink:href="#path-2"></use>
            </g>
        </g>
    </g>
</svg>