<?xml version="1.0" encoding="UTF-8" standalone="no"?>
<svg width="45px" height="28px" viewBox="0 0 45 28" version="1.1" xmlns="http://www.w3.org/2000/svg" xmlns:xlink="http://www.w3.org/1999/xlink" xmlns:sketch="http://www.bohemiancoding.com/sketch/ns">
    <!-- Generator: Sketch 3.4.1 (15681) - http://www.bohemiancoding.com/sketch -->
    <title>Untitled</title>
    <desc>Created with Sketch.</desc>
    <defs>
        <linearGradient x1="50%" y1="0%" x2="50%" y2="100%" id="linearGradient-1">
            <stop stop-color="#FFB603" offset="0%"></stop>
            <stop stop-color="#FEAF46" offset="100%"></stop>
        </linearGradient>
        <rect id="path-2" x="0" y="0" width="42.0952381" height="26" rx="1"></rect>
    </defs>
    <g id="Page-1" stroke="none" stroke-width="1" fill="none" fill-rule="evenodd" sketch:type="MSPage">
        <g id="UI/Payment/Discover/Small" sketch:type="MSLayerGroup" transform="translate(1.000000, 1.000000)">
            <rect id="Mask-Copy-10" stroke="#D2D3DE" fill="#FFFFFF" sketch:type="MSShapeGroup" x="0" y="0" width="42.0952381" height="26" rx="1"></rect>
            <g id="Imported-Layers" transform="translate(2.095238, 9.904762)" sketch:type="MSShapeGroup">
                <g>
                    <path d="M19.4081703,0.0952380952 C18.0260831,0.0952380952 16.9047619,1.19968601 16.9047619,2.56278988 C16.9047619,4.01189546 17.9773656,5.0952381 19.4081703,5.0952381 C20.8032549,5.0952381 21.9047619,3.99767032 21.9047619,2.59124018 C21.9047619,1.19317777 20.8106171,0.0952380952 19.4081703,0.0952380952" id="Fill-1" fill="url(#linearGradient-1)"></path>
                    <path d="M2.29753843,0.0952380952 L0.904761905,0.0952380952 L0.904761905,5.0952381 L2.29020209,5.0952381 C3.02524723,5.0952381 3.556944,4.9159371 4.02327206,4.51841556 C4.57660163,4.04595937 4.9047619,3.33378975 4.9047619,2.59770687 C4.9047619,1.1214749 3.83337364,0.0952380952 2.29753843,0.0952380952 L2.29753843,0.0952380952 Z M3.40504407,3.8504903 C3.10557078,4.1286392 2.7201306,4.24878636 2.1074519,4.24878636 L1.85284317,4.24878636 L1.85284317,0.941883463 L2.1074519,0.941883463 C2.7201306,0.941883463 3.0908981,1.05447907 3.40504407,1.3465693 C3.73282812,1.64650153 3.92818177,2.11092209 3.92818177,2.59054258 C3.92818177,3.07113121 3.73282812,3.55181666 3.40504407,3.8504903 L3.40504407,3.8504903 Z" id="Fill-2" fill="#0B1015"></path>
                    <path d="M5.9047619,0.0952380952 L6.9047619,0.0952380952 L6.9047619,5.0952381 L5.9047619,5.0952381 L5.9047619,0.0952380952 Z" id="Fill-3" fill="#0B1015"></path>
                    <path d="M9.65563035,2.01809322 C9.14725406,1.80965137 8.99765747,1.67217834 8.99765747,1.41378858 C8.99765747,1.11103168 9.26398983,0.880731808 9.62907275,0.880731808 C9.8828827,0.880731808 10.0911413,0.995881744 10.313099,1.26878151 L10.7550813,0.628759935 C10.3906707,0.275031979 9.95465545,0.0952380952 9.47905594,0.0952380952 C8.71182712,0.0952380952 8.12562699,0.686055864 8.12562699,1.47052644 C8.12562699,2.13370822 8.39876684,2.47199604 9.19305751,2.78972801 C9.52519557,2.91873687 9.69403801,3.00477377 9.77883743,3.0634649 C9.94801605,3.18596285 10.0329836,3.35822269 10.0329836,3.5598746 C10.0329836,3.9493195 9.75286814,4.23710133 9.37484259,4.23710133 C8.971352,4.23710133 8.64627356,4.01405646 8.45087351,3.59633565 L7.9047619,4.18045649 C8.29446944,4.81331608 8.76317741,5.0952381 9.40820767,5.0952381 C10.2867935,5.0952381 10.9047619,4.44600824 10.9047619,3.51718169 C10.9047619,2.75354601 10.6190996,2.40753812 9.65563035,2.01809322" id="Fill-4" fill="#0B1015"></path>
                    <path d="M11.9047619,2.5976003 C11.9047619,4.00510377 13.1009018,5.0952381 14.6387386,5.0952381 C15.0734798,5.0952381 15.4461581,5.01594212 15.9047619,4.81575685 L15.9047619,3.71765588 C15.5004005,4.09097686 15.1431627,4.24132425 14.6848597,4.24132425 C13.6678901,4.24132425 12.9452933,3.55961975 12.9452933,2.59074527 C12.9452933,1.67291294 13.6904493,0.948225589 14.6387386,0.948225589 C15.1194003,0.948225589 15.4849599,1.10598381 15.9047619,1.48615982 L15.9047619,0.388058846 C15.4622002,0.180648007 15.0966406,0.0952380952 14.6617991,0.0952380952 C13.1317828,0.0952380952 11.9047619,1.20741966 11.9047619,2.5976003" id="Fill-5" fill="#0B1015"></path>
                    <path d="M25.400633,3.37023102 L24.0123148,0.0952380952 L22.9047619,0.0952380952 L25.1127176,5.0952381 L25.6582362,5.0952381 L27.9047619,0.0952380952 L26.8053661,0.0952380952 L25.400633,3.37023102" id="Fill-6" fill="#0B1015"></path>
                    <path d="M31.9047619,5.0952381 L31.9047619,4.24878636 L29.9617018,4.24878636 L29.9617018,2.89831681 L31.8304286,2.89831681 L31.8304286,2.05167144 L29.9617018,2.05167144 L29.9617018,0.941883463 L31.9047619,0.941883463 L31.9047619,0.0952380952 L28.9047619,0.0952380952 L28.9047619,5.0952381 L31.9047619,5.0952381 Z" id="Fill-7" fill="#0B1015"></path>
                    <path d="M36.4277989,1.57088917 C36.4277989,0.63420605 35.722534,0.0952380952 34.4899377,0.0952380952 L32.9047619,0.0952380952 L32.9047619,5.0952381 L33.9734221,5.0952381 L33.9734221,3.08575025 L34.1131814,3.08575025 L35.5907277,5.0952381 L36.9047619,5.0952381 L35.1790846,2.98903227 C35.9850864,2.83867889 36.4277989,2.3361133 36.4277989,1.57088917 L36.4277989,1.57088917 Z M34.2842222,2.39662255 L33.9734221,2.39662255 L33.9734221,0.881471032 L34.3012944,0.881471032 C34.9679611,0.881471032 35.3291296,1.1371589 35.3291296,1.62375005 C35.3291296,2.12573476 34.9679611,2.39662255 34.2842222,2.39662255 L34.2842222,2.39662255 Z" id="Fill-8" fill="#0B1015"></path>
                </g>
            </g>
            <g id="Imported-Layers">
                <path d="M42.0952381,16.0952381 C42.0952381,16.0952381 32.4756594,22.9363457 14.8571429,26 L42.0952381,26 L42.0952381,16.0952381" fill="#FFAF46" sketch:type="MSShapeGroup"></path>
                <mask id="mask-3" sketch:name="Mask Copy 2" fill="white">
                    <use xlink:href="#path-2"></use>
                </mask>
                <use id="Mask-Copy-2" stroke="#D2D3DE" sketch:type="MSShapeGroup" xlink:href="#path-2"></use>
            </g>
        </g>
    </g>
</svg>