<?xml version="1.0" encoding="UTF-8" standalone="no"?>
<svg width="45px" height="28px" viewBox="0 0 45 28" version="1.1" xmlns="http://www.w3.org/2000/svg" xmlns:xlink="http://www.w3.org/1999/xlink" xmlns:sketch="http://www.bohemiancoding.com/sketch/ns">
    <!-- Generator: Sketch 3.4.1 (15681) - http://www.bohemiancoding.com/sketch -->
    <title>Untitled</title>
    <desc>Created with Sketch.</desc>
    <defs></defs>
    <g id="Page-1" stroke="none" stroke-width="1" fill="none" fill-rule="evenodd" sketch:type="MSPage">
        <g id="UI/Payment/JCB/Small" sketch:type="MSLayerGroup" transform="translate(1.000000, 1.000000)">
            <rect id="Mask-Copy-2" stroke="#D2D3DE" fill="#FFFFFF" sketch:type="MSShapeGroup" x="0" y="0" width="42.0952381" height="26" rx="1"></rect>
            <path d="M11.7336267,22.0000004 L11.7660997,22.0000004 L11.7948614,21.9964727 L11.824551,21.9964727 C11.8347568,21.9964727 11.8458903,21.9964727 11.8570239,21.9938269 L11.8857857,21.9938269 L11.9145474,21.9902992 C11.925681,21.9902992 11.9368146,21.9867716 11.9470203,21.9867716 C11.9581539,21.9867716 11.9692875,21.9867716 11.9767099,21.9832439 C11.9869157,21.9832439 11.9980492,21.9832439 12.0091828,21.9797162 C12.0203164,21.9797162 12.026811,21.9797162 12.0379446,21.9761885 L12.0704175,21.9726608 C12.0815511,21.9691331 12.0889735,21.9691331 12.0991793,21.9691331 C12.1103128,21.9656055 12.1214464,21.9656055 12.1288688,21.9620778 C12.1390746,21.9620778 12.1502082,21.9585501 12.1613417,21.9585501 L12.1901035,21.9559043 C12.2012371,21.9523767 12.2123706,21.9523767 12.2225764,21.948849 C12.23371,21.9453213 12.2411324,21.9453213 12.252266,21.9417936 C12.2624717,21.9417936 12.2736053,21.9382659 12.2847389,21.9347382 L12.3135007,21.9312106 L12.3459736,21.9241552 C12.3571072,21.9215094 12.3645296,21.9179817 12.3747353,21.9144541 C12.3858689,21.9144541 12.3970025,21.9109264 12.4044249,21.9073987 C12.4146307,21.9073987 12.4257642,21.903871 12.4368978,21.9003433 C12.4471036,21.8968157 12.4582372,21.8968157 12.4656596,21.893288 L12.4981325,21.8862326 L12.5268943,21.8765315 C12.5380278,21.8730038 12.5491614,21.8730038 12.560295,21.8694761 C12.5705008,21.8659484 12.5779232,21.8624207 12.5890567,21.8588931 C12.6001903,21.8553654 12.6103961,21.8518377 12.6215297,21.84831 L12.6790532,21.8280258 C12.6938979,21.8244982 12.7013203,21.8209705 12.7124539,21.8174428 C12.7226597,21.8139151 12.7337933,21.8112694 12.7412157,21.8077417 C12.7560604,21.804214 12.762555,21.8006863 12.7736886,21.7971586 C12.7848222,21.7936309 12.795028,21.7901033 12.8024503,21.7830479 C12.8135839,21.7795202 12.8247175,21.7759925 12.8349233,21.7733468 L12.8646128,21.759236 L12.8970858,21.748653 C12.9082193,21.7415976 12.9147139,21.7380699 12.9258475,21.7354242 C12.9369811,21.7318965 12.9481147,21.7248411 12.9583204,21.7213134 C12.9657428,21.7177858 12.9768764,21.7107304 12.98801,21.7072027 C12.9982158,21.703675 13.0093494,21.6975016 13.0167717,21.6939739 C13.0269775,21.6869185 13.0381111,21.6833909 13.0492447,21.6798632 C13.0603783,21.6728078 13.070584,21.6692801 13.0780064,21.6631067 L13.1104794,21.648996 C13.1216129,21.6454683 13.1327465,21.6384129 13.1401689,21.6313575 C13.1503747,21.6278299 13.1615083,21.6216564 13.1726418,21.6181287 C13.1800642,21.6110734 13.19027,21.6075457 13.2014036,21.6004903 C13.2125372,21.5969626 13.222743,21.5907892 13.2338765,21.5837338 C13.2412989,21.5802061 13.2524325,21.5731508 13.2626383,21.5660954 C13.2737719,21.55904 13.2849054,21.5555124 13.2923278,21.5493389 C13.3025336,21.5422836 13.3136672,21.5352282 13.3248008,21.5317005 C13.3350065,21.5246451 13.3461401,21.5175898 13.3535625,21.5114163 L13.3860354,21.4937779 C13.397169,21.4867226 13.4045914,21.4805491 13.4147972,21.4734937 C13.4259308,21.4664384 13.4370644,21.459383 13.4481979,21.4523276 C13.4546925,21.4452723 13.4658261,21.4390988 13.4769597,21.4320435 C13.4880933,21.4249881 13.498299,21.4179327 13.5057214,21.4108774 C13.516855,21.4047039 13.5279886,21.3976486 13.5381944,21.3905932 C13.5493279,21.3835378 13.5604615,21.3729548 13.5669561,21.3667813 C13.5780897,21.359726 13.5892233,21.3526706 13.6003568,21.3456153 C13.6105626,21.3350322 13.617985,21.3288588 13.6291186,21.3218034 C13.6402522,21.3112203 13.650458,21.304165 13.6615915,21.2971096 C13.6690139,21.2874085 13.6801475,21.2803531 13.6903533,21.2732978 C13.7014869,21.2627147 13.7126204,21.2565413 13.7200428,21.2459582 C13.7302486,21.2353752 13.7413822,21.2283198 13.7525158,21.2221464 C13.7627215,21.2115633 13.7701439,21.2009803 13.7812775,21.1939249 C13.7924111,21.1842238 13.8026169,21.1736407 13.8137504,21.1665854 C13.8211728,21.1560023 13.8323064,21.1463012 13.8425122,21.1357181 L13.8722017,21.1083786 C13.8824075,21.0977955 13.8935411,21.0872125 13.9046747,21.0766295 C13.9158083,21.070456 13.926014,21.059873 13.9334364,21.0492899 C13.94457,21.0395888 13.9547758,21.0290057 13.9659094,21.0184227 C13.9770429,21.004312 13.9844653,20.9946108 13.9946711,20.9840278 C14.0058047,20.9734447 14.0169383,20.9637436 14.0280718,20.9496329 C14.0382776,20.9390498 14.0457,20.9293487 14.0568336,20.915238 C14.0679672,20.9046549 14.078173,20.8940719 14.0893065,20.8808431 C14.0967289,20.87026 14.1078625,20.8561493 14.1180683,20.8429205 C14.1292019,20.8323374 14.1366242,20.8191086 14.1477578,20.8085256 C14.1579636,20.7944148 14.1690972,20.781186 14.1802308,20.7670753 C14.1904365,20.7529646 14.1978589,20.7397358 14.2089925,20.725625 C14.2201261,20.7115143 14.2303319,20.6982855 14.2414654,20.6841748 C14.2488878,20.670946 14.2600214,20.6568352 14.2702272,20.6427245 C14.2813608,20.625968 14.2924943,20.6118573 14.3027001,20.5986285 C14.3101225,20.5809901 14.3212561,20.5668793 14.3323897,20.5501228 C14.3425955,20.5324844 14.353729,20.5192556 14.3611514,20.5016172 C14.372285,20.4848607 14.3824908,20.4672223 14.3936244,20.4504658 C14.4047579,20.4328274 14.4121803,20.415189 14.4223861,20.3949048 C14.4335197,20.3781483 14.4446533,20.3569822 14.4557868,20.3402257 C14.4622814,20.3190596 14.473415,20.3023031 14.4845486,20.281137 C14.4947544,20.2608529 14.505888,20.2396868 14.5133103,20.2194026 C14.5244439,20.1947088 14.5346497,20.170897 14.5457833,20.1506128 C14.5569169,20.125919 14.5680504,20.1021071 14.574545,20.0782953 C14.5856786,20.0500738 14.5968122,20.026262 14.6079458,19.9989224 C14.6181515,19.9715829 14.6255739,19.9398337 14.6367075,19.9124942 C14.6478411,19.881627 14.6580469,19.8472321 14.6654693,19.8163649 C14.680314,19.7784423 14.6877364,19.7405197 14.6979422,19.7025971 C14.7090758,19.6576191 14.7202093,19.6126412 14.7267039,19.5685452 C14.7415487,19.5094565 14.7526823,19.4512497 14.7601047,19.3886333 C14.7777328,19.2616368 14.7851552,19.1337583 14.7851552,19.003234 L14.8,4 L10.081218,4 C10.0700845,4.00352768 10.0626621,4.00352768 10.0515285,4.00352768 L10.0190555,4.00352768 L9.9902938,4.00352768 C9.97916022,4.00352768 9.97266564,4.00705537 9.96153206,4.00705537 L9.92905912,4.00705537 C9.91792554,4.01058305 9.91050315,4.01058305 9.89936957,4.01058305 L9.86689663,4.01411073 L9.83813489,4.01763841 L9.80566195,4.01763841 L9.7769002,4.0211661 L9.74349946,4.02469378 C9.73700488,4.02733954 9.7258713,4.02733954 9.71473772,4.03086722 C9.70360414,4.03086722 9.69339836,4.03086722 9.68597597,4.03439491 C9.67484239,4.03439491 9.66370881,4.03792259 9.65350303,4.03792259 L9.62381349,4.04145027 C9.61360771,4.04497795 9.60247413,4.04497795 9.59134055,4.04850564 C9.58113477,4.05203332 9.57371238,4.05203332 9.5625788,4.055561 C9.55144522,4.055561 9.54123944,4.05908868 9.53010586,4.05908868 L9.50134412,4.06526213 L9.46887118,4.07231749 C9.4577376,4.07584518 9.45031521,4.07584518 9.43918163,4.07937286 C9.42897585,4.07937286 9.41784227,4.08290054 9.4067087,4.08642822 C9.39928631,4.08642822 9.38908053,4.08995591 9.37794695,4.09348359 C9.36681337,4.09348359 9.35567979,4.09701127 9.3491852,4.09965703 L9.31578447,4.1067124 C9.30557868,4.11024008 9.2981563,4.11376776 9.28702272,4.11729545 C9.27681694,4.11729545 9.26568336,4.12082313 9.25454978,4.12435081 C9.2434162,4.12787849 9.23692161,4.13140618 9.22578803,4.13493386 C9.21465445,4.13757962 9.20352088,4.1411073 9.19331509,4.1411073 L9.16362555,4.15169035 L9.13115261,4.1622734 C9.12373022,4.16580108 9.11352444,4.16932876 9.10239086,4.17285645 C9.09125729,4.17550221 9.0810515,4.17902989 9.07362912,4.18255757 C9.06249554,4.18608526 9.05136196,4.18961294 9.04115618,4.19314062 L9.01146663,4.20372367 L8.96136553,4.22753553 C8.95023195,4.23106321 8.93909837,4.23459089 8.93167598,4.23811857 C8.9214702,4.24517394 8.91033662,4.2478197 8.89920305,4.25134738 C8.88899726,4.25487507 8.87786369,4.26193043 8.8704413,4.26545811 C8.85930772,4.2689858 8.84910194,4.27251348 8.83796836,4.27956884 C8.82683478,4.28309653 8.81941239,4.28574229 8.80920661,4.29279765 C8.79807303,4.29632534 8.78693946,4.3033807 8.77580588,4.30690838 L8.74704413,4.32013719 C8.73591055,4.32719256 8.72570477,4.33072024 8.71828238,4.33424792 C8.7071488,4.34130329 8.69601523,4.34483097 8.68580944,4.35188634 C8.67467587,4.35541402 8.66354229,4.36158746 8.6570477,4.36511515 C8.64591412,4.37217051 8.63478054,4.37922588 8.62364696,4.38275356 C8.61344118,4.38628124 8.60601879,4.39333661 8.59488521,4.39951005 C8.58375164,4.40303773 8.57354585,4.4100931 8.56241228,4.41362078 C8.5512787,4.42067615 8.54385631,4.42773151 8.53365053,4.43037727 C8.52251695,4.43743264 8.51138337,4.44448801 8.50117759,4.44801569 C8.4937552,4.45507105 8.48262162,4.46212642 8.47148805,4.46829986 C8.46128226,4.47182755 8.45014869,4.47888291 8.4427263,4.48593828 C8.43159272,4.49299364 8.42138694,4.50004901 8.41025336,4.50357669 C8.39911978,4.50975013 8.3879862,4.5168055 8.38149161,4.52386086 C8.37035803,4.53091623 8.35922446,4.53797159 8.34901867,4.54414504 C8.3378851,4.5512004 8.32675152,4.55825577 8.31932913,4.56531113 L8.28685619,4.58559531 C8.27943381,4.59265067 8.26922802,4.59970604 8.25809445,4.61028909 C8.24696087,4.61646253 8.23582729,4.6235179 8.22562151,4.63057326 C8.21819912,4.63762863 8.20706554,4.64468399 8.19593196,4.65438512 C8.18572618,4.66144048 8.17830379,4.66849585 8.16717022,4.67555121 C8.15603664,4.68613426 8.14583086,4.69230771 8.13469728,4.70289075 C8.1235637,4.70994612 8.11706911,4.71700148 8.10593553,4.72670261 C8.09480195,4.73375798 8.08366837,4.74081334 8.07346259,4.75139639 C8.06232901,4.75845175 8.05490663,4.76815288 8.04377305,4.77520825 C8.03356727,4.78579129 8.02243369,4.79284666 8.01130011,4.80254779 C8.00016653,4.81313083 7.99367194,4.8201862 7.98253836,4.83076925 L7.95006542,4.85810879 L7.92130368,4.88897601 C7.9101701,4.89955906 7.90274771,4.90661442 7.89161413,4.91631555 C7.88140835,4.9268986 7.87027477,4.93748165 7.85914119,4.94718277 C7.84800761,4.95776582 7.84151302,4.96834887 7.83037945,4.97893192 C7.81924587,4.98863304 7.80811229,4.99921609 7.79790651,5.00979914 C7.78677293,5.02302795 7.77935054,5.033611 7.76821696,5.04419404 C7.75801118,5.05477709 7.7468776,5.06447822 7.73574402,5.07858895 C7.72553824,5.089172 7.71811586,5.09887312 7.70698228,5.11298385 C7.6958487,5.1235669 7.68564292,5.13679571 7.67450934,5.14737876 C7.66708695,5.16148949 7.65595337,5.1747183 7.64574759,5.18530135 C7.63461401,5.19941208 7.62348043,5.21264089 7.61327465,5.22675162 C7.60585227,5.23733467 7.59471869,5.25056347 7.58358511,5.26467421 C7.57337933,5.27790301 7.56595694,5.29201375 7.55482336,5.30612448 C7.54368978,5.31935329 7.533484,5.33346402 7.52235042,5.35022051 C7.51121684,5.36433124 7.50379446,5.37844197 7.49358868,5.39167078 C7.4824551,5.40930919 7.47132152,5.422538 7.46018794,5.44017641 C7.44998216,5.45781483 7.44255977,5.47104364 7.43142619,5.48868205 C7.42122041,5.50543854 7.41008683,5.52307695 7.39895325,5.53983345 C7.39153087,5.55747186 7.38132509,5.57422835 7.37019151,5.59186676 C7.35905793,5.60862326 7.34792435,5.62978935 7.34142976,5.64654584 C7.33029618,5.66771194 7.3191626,5.68446843 7.30802902,5.70563453 C7.29782324,5.7259187 7.29040086,5.7470848 7.27926728,5.76736897 C7.2681337,5.78853507 7.25792792,5.81234693 7.24679434,5.8326311 C7.23566076,5.85732488 7.22823837,5.88113674 7.21803259,5.90494859 C7.20689901,5.92964237 7.19576543,5.95698191 7.18927085,5.98079377 C7.17442607,6.00901523 7.16700369,6.03988245 7.15587011,6.06722199 C7.14566433,6.09808922 7.13453075,6.12895644 7.12710836,6.15982366 C7.11597478,6.19421857 7.105769,6.22949539 7.09463542,6.26741798 C7.08350184,6.30798633 7.07236826,6.3494366 7.06587368,6.39088687 C7.02226716,6.59108286 7,6.7939246 7,7.00117596 L7,14.4110732 C7.02226716,14.4216563 7.04360652,14.4313574 7.06587368,14.4419404 L7.09463542,14.4560512 L7.12710836,14.46928 L7.15587011,14.4833907 L7.20689901,14.5036749 L7.23566076,14.5177856 L7.2681337,14.5318963 L7.29782324,14.5451252 L7.33029618,14.5557082 L7.38781967,14.5830477 L7.42122041,14.5936308 L7.44998216,14.6077415 L7.4824551,14.6174426 L7.51121684,14.6315534 L7.54368978,14.6421364 L7.57337933,14.6553652 L7.60214107,14.6659483 L7.63461401,14.680059 L7.66337576,14.6897601 L7.6958487,14.7003432 L7.72553824,14.7109262 L7.75801118,14.7206274 L7.78677293,14.7347381 L7.81924587,14.7453211 L7.84800761,14.7559042 L7.88140835,14.7656053 L7.9101701,14.7761884 L7.93893184,14.7832437 L7.97140478,14.7929449 L8.00016653,14.8035279 L8.03356727,14.814111 L8.06232901,14.824694 L8.09480195,14.8308674 L8.1235637,14.8414505 L8.15603664,14.8485059 L8.18572618,14.8590889 L8.21448793,14.8661443 L8.24696087,14.8758454 L8.27572261,14.8829008 L8.30912335,14.8899561 L8.3378851,14.9005392 L8.37035803,14.9067126 L8.39911978,14.913768 L8.43159272,14.9208233 L8.46128226,14.9278787 L8.49004401,14.9384618 L8.52251695,14.9446352 L8.5512787,14.9516906 L8.58375164,14.9587459 L8.61344118,14.9658013 L8.64591412,14.969329 L8.67467587,14.9763844 L8.7071488,14.9825578 L8.73591055,14.9896132 L8.7656001,14.9931408 L8.79807303,15.0001962 L8.82683478,15.0037239 L8.85930772,15.0107793 L8.88899726,15.013425 L8.9214702,15.0204804 L8.95023195,15.0240081 L8.9789937,15.0310634 L9.01146663,15.0345911 L9.05878435,15.0381188 L9.09125729,15.0416465 L9.12094683,15.0451742 L9.15341977,15.0487018 L9.18218152,15.0513476 L9.21465445,15.0548753 L9.27310575,15.0619307 L9.30557868,15.0619307 L9.33434043,15.0654583 L9.36681337,15.068986 L9.39557512,15.068986 L9.42897585,15.0725137 L9.4577376,15.0725137 L9.49021054,15.0760414 L9.55144522,15.0760414 L9.58113477,15.0795691 L9.79452837,15.0795691 L9.82329012,15.0795691 C9.83442369,15.0760414 9.84555727,15.0760414 9.85576305,15.0760414 L9.8854526,15.0760414 C9.89565838,15.0760414 9.90679196,15.0725137 9.91792554,15.0725137 L9.94668728,15.0725137 C9.95782086,15.068986 9.96895444,15.068986 9.97916022,15.068986 L10.0088498,15.0654583 C10.0190555,15.0654583 10.0301891,15.0619307 10.0413227,15.0619307 C10.0487451,15.0619307 10.0589509,15.058403 10.0700845,15.058403 L10.0988462,15.0548753 C10.1099798,15.0513476 10.1211134,15.0513476 10.1313191,15.0487018 C10.1424527,15.0487018 10.1498751,15.0451742 10.1610087,15.0451742 C10.1712145,15.0416465 10.182348,15.0416465 10.1934816,15.0381188 C10.2046152,15.0345911 10.2111098,15.0345911 10.2222434,15.0310634 C10.2333769,15.0310634 10.2435827,15.0275357 10.2547163,15.0240081 C10.2621387,15.0240081 10.2732723,15.0204804 10.2834781,15.0169527 C10.2946116,15.013425 10.302034,15.013425 10.3131676,15.0107793 C10.3233734,15.0072516 10.334507,15.0037239 10.3456405,15.0037239 C10.3567741,15.0001962 10.3632687,14.9966685 10.3744023,14.9931408 C10.3855359,14.9896132 10.3966694,14.9860855 10.4068752,14.9825578 C10.4180088,14.9790301 10.4254312,14.9763844 10.4365648,14.9728567 C10.4467705,14.969329 10.4579041,14.9658013 10.4690377,14.9622736 C10.4755323,14.9587459 10.4866659,14.9552183 10.4977995,14.9516906 C10.508933,14.9481629 10.5191388,14.9446352 10.5302724,14.9411075 C10.5376948,14.9349341 10.5488284,14.9314064 10.5590341,14.9278787 C10.5701677,14.924351 10.5775901,14.9172957 10.5887237,14.913768 C10.5989295,14.9102403 10.610063,14.9031849 10.6211966,14.9005392 C10.6314024,14.8970115 10.6388248,14.8899561 10.6499584,14.8864284 C10.6610919,14.8793731 10.6712977,14.8758454 10.6824313,14.86879 C10.6935649,14.8661443 10.7009873,14.8590889 10.7111931,14.8520335 C10.7223266,14.8485059 10.7334602,14.8414505 10.7445938,14.8343951 C10.7510884,14.8308674 10.762222,14.824694 10.7733555,14.8176386 C10.7835613,14.8105833 10.7909837,14.8035279 10.8021173,14.7964725 C10.8132509,14.7902991 10.8234566,14.7832437 10.8345902,14.7761884 C10.8457238,14.769133 10.8531462,14.7620776 10.863352,14.7559042 C10.8744855,14.7488488 10.8856191,14.7417935 10.8930415,14.7312104 C10.9032473,14.724155 10.9143809,14.7179816 10.9255145,14.7073986 C10.936648,14.7003432 10.9468538,14.6897601 10.9542762,14.6827048 C10.9654098,14.6730036 10.9765434,14.6659483 10.9867491,14.6553652 C10.9978827,14.6456641 11.0090163,14.6350811 11.0155109,14.624498 C11.0266445,14.613915 11.037778,14.6042138 11.0489116,14.5936308 C11.0591174,14.5830477 11.070251,14.5724647 11.0776734,14.5592359 C11.0888069,14.5486528 11.0990127,14.535424 11.1101463,14.524841 C11.1212799,14.5142579 11.1287023,14.5001472 11.1389081,14.4869184 C11.1500416,14.4728077 11.1611752,14.4595789 11.171381,14.4454681 C11.1825146,14.4278297 11.189937,14.4146009 11.2010705,14.3969625 C11.2112763,14.380206 11.2224099,14.3660953 11.2298323,14.3493388 C11.2409659,14.3281727 11.2511716,14.3114162 11.2623052,14.2902501 C11.2734388,14.2699659 11.2845724,14.2487998 11.291067,14.2285156 C11.3022005,14.2047038 11.3133341,14.18001 11.3244677,14.1561982 C11.3346735,14.1253309 11.3458071,14.0971095 11.3532295,14.0662422 C11.364363,14.0283197 11.3745688,13.9903971 11.3819912,13.9524745 C11.4005472,13.8872124 11.4070418,13.8219502 11.4144641,13.7566881 C11.4181753,13.7011271 11.4218865,13.6499757 11.4218865,13.5944147 L11.4218865,10.1117101 L14.1728084,10.1117101 L14.1728084,13.5944147 C14.1728084,13.6940717 14.1690972,13.7946107 14.1579636,13.8942677 C14.1505412,13.9630575 14.1403354,14.0318473 14.1292019,14.1006371 C14.1180683,14.1456151 14.1078625,14.1905931 14.0967289,14.235571 C14.0893065,14.2699659 14.078173,14.3078885 14.0679672,14.3422834 C14.0568336,14.3731506 14.0457,14.4040179 14.0345664,14.4313574 C14.0280718,14.4595789 14.0169383,14.4833907 14.0058047,14.5107302 C13.9946711,14.5318963 13.9844653,14.5557082 13.9733317,14.5795201 C13.9659094,14.6006862 13.9547758,14.6209703 13.94457,14.6421364 C13.9334364,14.6624206 13.9223028,14.680059 13.9120971,14.7003432 C13.9046747,14.7179816 13.8935411,14.7347381 13.8824075,14.7523765 C13.8722017,14.769133 13.8610682,14.7867714 13.8536458,14.8035279 C13.8425122,14.8176386 13.8323064,14.8343951 13.8211728,14.8485059 C13.8137504,14.8626166 13.8026169,14.8793731 13.7924111,14.8934838 C13.7812775,14.9067126 13.7701439,14.9208233 13.7599381,14.9349341 C13.7525158,14.9446352 13.7413822,14.9587459 13.7302486,14.9728567 C13.7200428,14.9860855 13.7126204,14.9966685 13.7014869,15.0107793 C13.6903533,15.0204804 13.6801475,15.0310634 13.6690139,15.0451742 C13.6615915,15.0548753 13.650458,15.0654583 13.6402522,15.0795691 C13.6291186,15.0892702 13.617985,15.0998532 13.6068514,15.1104363 C13.5966457,15.1210193 13.5892233,15.1307205 13.5780897,15.1413035 C13.5669561,15.1483589 13.5567503,15.1589419 13.5456167,15.1686431 C13.5381944,15.1792261 13.5279886,15.1898091 13.516855,15.1968645 C13.5057214,15.2065656 13.4945878,15.2171487 13.4880933,15.2242041 C13.4769597,15.2339052 13.4658261,15.2409605 13.4546925,15.2515436 C13.4444867,15.258599 13.4370644,15.269182 13.4259308,15.2753554 C13.4147972,15.2824108 13.4045914,15.2929939 13.3934578,15.3000492 C13.3823243,15.3071046 13.3749019,15.3168057 13.3646961,15.3238611 C13.3535625,15.3309164 13.3424289,15.3379718 13.3322231,15.3441453 C13.3248008,15.3512006 13.3136672,15.358256 13.3025336,15.368839 C13.2923278,15.3723667 13.2811942,15.3820678 13.2737719,15.3855955 C13.2626383,15.3961786 13.2524325,15.4032339 13.2412989,15.4067616 C13.2301653,15.413817 13.222743,15.4199904 13.2125372,15.4270458 C13.2014036,15.4341012 13.19027,15.4411565 13.1800642,15.4446842 C13.1726418,15.4517396 13.1615083,15.457913 13.1503747,15.4649684 C13.1401689,15.4684961 13.1290353,15.4755514 13.1179017,15.4826068 C13.1104794,15.4896622 13.1002736,15.4923079 13.08914,15.4993633 C13.0780064,15.502891 13.070584,15.5099463 13.0566671,15.5170017 C13.0492447,15.5205294 13.0381111,15.5275848 13.0269775,15.5302305 C13.0167717,15.5372859 13.0093494,15.5443412 12.9982158,15.5478689 C12.98801,15.5513966 12.9768764,15.558452 12.9657428,15.5619797 C12.9546093,15.5681531 12.9481147,15.5716808 12.9369811,15.5787362 C12.9258475,15.5822638 12.9147139,15.5893192 12.9045081,15.5928469 C12.8970858,15.5963746 12.8859522,15.602548 12.8748186,15.6060757 C12.8646128,15.6096034 12.8534792,15.6166587 12.8423457,15.6201864 L12.7848222,15.647526 C12.7736886,15.6510536 12.762555,15.658109 12.7523492,15.6616367 C12.7412157,15.6651644 12.7300821,15.6686921 12.7226597,15.6722197 L12.6901867,15.6854485 L12.661425,15.6960316 C12.6502914,15.6995593 12.6391578,15.703087 12.6289521,15.7066146 C12.6178185,15.7101423 12.6103961,15.7163158 12.6001903,15.7198435 C12.5890567,15.7233711 12.5779232,15.7268988 12.5705008,15.7304265 L12.5380278,15.7410095 C12.5268943,15.7445372 12.5166885,15.7480649 12.5092661,15.7507107 C12.4981325,15.7542384 12.4869989,15.757766 12.4767931,15.7612937 L12.4471036,15.7718768 L12.4146307,15.7824598 C12.4044249,15.7851056 12.3932913,15.7851056 12.3858689,15.7886333 L12.353396,15.7992163 L12.3246342,15.8062717 C12.3135007,15.8097994 12.3023671,15.813327 12.2921613,15.8168547 L12.2624717,15.8230282 C12.252266,15.8265559 12.2411324,15.8300835 12.23371,15.8300835 C12.2188652,15.8336112 12.2123706,15.8371389 12.2012371,15.8406666 L12.1724753,15.8477219 C12.1613417,15.8512496 12.1502082,15.8547773 12.1390746,15.8547773 C12.1288688,15.858305 12.1177352,15.8609508 12.1103128,15.8644784 L12.0778399,15.8715338 C12.0667063,15.8715338 12.0602117,15.8750615 12.0490781,15.8785892 L12.0166052,15.8821169 L11.9869157,15.8891722 C11.9767099,15.8926999 11.9655763,15.8953457 11.9581539,15.8953457 L11.925681,15.902401 L11.8969192,15.9059287 C11.8857857,15.9094564 11.8746521,15.9129841 11.8644463,15.9129841 L11.805995,15.9270948 L11.7735221,15.9306225 C11.7623885,15.9332683 11.7549661,15.9332683 11.7447603,15.9367959 C11.7336267,15.9367959 11.7224932,15.9403236 11.7113596,15.9403236 L11.6825978,15.9438513 C11.6723921,15.947379 11.6612585,15.947379 11.6501249,15.9509067 L11.5926014,15.957962 L11.5592007,15.9650174 C11.5489949,15.9650174 11.5378613,15.9685451 11.5304389,15.9685451 L11.497966,15.9711908 L11.4692042,15.9747185 L11.4367313,15.9782462 L11.4070418,15.9817739 L11.3745688,15.9853016 L11.3170453,15.9923569 L11.2845724,15.9958846 L11.2548828,15.9994123 L11.2224099,16.00294 L11.1936482,16.0055857 L11.1648864,16.0055857 L11.1324135,16.0091134 L11.1027239,16.0126411 L11.070251,16.0161688 L11.0414892,16.0161688 L11.0090163,16.0196965 L10.9793268,16.0196965 L10.9468538,16.0232242 L10.9180921,16.0232242 L10.8856191,16.0267518 L10.8568574,16.0267518 L10.8271678,16.0302795 L10.7659332,16.0302795 L10.7334602,16.0338072 L10.6712977,16.0338072 L10.642536,16.0373349 L10.5516118,16.0373349 L10.5191388,16.0408626 L9.91050315,16.0408626 L9.87803021,16.0373349 L9.78710598,16.0373349 L9.75834424,16.0338072 L9.66370881,16.0338072 L9.63494707,16.0302795 L9.60247413,16.0302795 L9.57371238,16.0267518 L9.5115499,16.0267518 L9.48278815,16.0232242 L9.45031521,16.0232242 L9.42155347,16.0196965 L9.38908053,16.0196965 L9.35939098,16.0161688 L9.32691804,16.0161688 L9.2981563,16.0126411 L9.26568336,16.0126411 L9.20723207,16.0055857 L9.17475913,16.0055857 L9.14599738,16.00294 L9.11352444,15.9994123 L9.0838349,15.9994123 L9.05136196,15.9958846 L9.02260021,15.9923569 L8.99012727,15.9923569 L8.93167598,15.9853016 L8.89920305,15.9817739 L8.8704413,15.9817739 L8.83796836,15.9747185 L8.80920661,15.9747185 L8.77580588,15.9711908 L8.71828238,15.9650174 L8.68580944,15.9614897 L8.6570477,15.957962 L8.62364696,15.9544343 L8.59488521,15.9509067 L8.56241228,15.947379 L8.53365053,15.9438513 L8.50117759,15.9403236 L8.4427263,15.9332683 L8.41025336,15.9306225 L8.38149161,15.9270948 L8.34901867,15.9235671 L8.31932913,15.9165118 L8.28685619,15.9129841 L8.25809445,15.9094564 L8.22562151,15.9059287 L8.16717022,15.8988733 L8.13469728,15.8926999 L8.10593553,15.8891722 L8.07346259,15.8856445 L8.04377305,15.8785892 L8.01130011,15.8750615 L7.98253836,15.8715338 L7.95006542,15.8644784 L7.92130368,15.8609508 L7.89161413,15.8547773 L7.85914119,15.8512496 L7.83037945,15.8477219 L7.79790651,15.8406666 L7.76821696,15.8371389 L7.73574402,15.8300835 L7.70698228,15.8265559 L7.67450934,15.8203824 L7.64574759,15.8168547 L7.61327465,15.8097994 L7.58358511,15.802744 L7.55482336,15.7992163 L7.52235042,15.7921609 L7.49358868,15.7851056 L7.46018794,15.7789321 L7.43142619,15.7754045 L7.39895325,15.7683491 L7.34142976,15.7542384 L7.30802902,15.7507107 L7.27926728,15.7445372 L7.24679434,15.7374819 L7.18927085,15.7233711 L7.15587011,15.7163158 L7.12710836,15.7101423 L7.09463542,15.703087 L7.06587368,15.6960316 C7.02226716,15.6854485 7,15.6783932 7,15.6783932 L7,22.0000004 L11.6723921,22.0000004 L11.704865,22.0000004 L11.7336267,22.0000004 Z" id="Imported-Layers" fill="#0099CC" sketch:type="MSShapeGroup"></path>
            <path d="M17.1257442,10.7946295 C17.1371755,10.787612 17.1486068,10.7814718 17.1600381,10.7744543 C17.1705168,10.7674369 17.1781377,10.7604195 17.1895689,10.753402 C17.2010002,10.7472618 17.2114789,10.7402443 17.2229102,10.7332269 C17.2305311,10.7262095 17.2419624,10.719192 17.2524411,10.7130518 L17.2829245,10.6919995 C17.2934032,10.6849821 17.3048345,10.6779646 17.3162658,10.6753331 L17.3457966,10.6542808 C17.3572279,10.6472634 17.3677066,10.6411231 17.3791379,10.6376144 C17.3905692,10.630597 17.39819,10.6235795 17.4086687,10.6200708 C17.4201,10.6130534 17.4315313,10.6060359 17.44201,10.6034044 C17.4534413,10.596387 17.4610622,10.5893695 17.4724935,10.5858608 C17.4829721,10.5788434 17.4944034,10.571826 17.5058347,10.5683172 C17.5134556,10.562177 17.5239343,10.5586683 17.5353656,10.5516508 L17.5648964,10.537616 L17.5991903,10.5209496 C17.609669,10.5174408 17.6172898,10.5104234 17.6287211,10.503406 C17.6391998,10.4998973 17.6506311,10.4963886 17.6620624,10.4902483 L17.6915932,10.4762134 L17.7249345,10.4621786 L17.755418,10.4455122 C17.7658966,10.4420034 17.7773279,10.4384947 17.7887592,10.434986 L17.8478209,10.4077935 L17.8811622,10.3937586 L17.9116456,10.3806009 L17.9411765,10.3700748 L17.9745177,10.3560399 L18.0040486,10.3463909 L18.0373899,10.3358648 L18.0678733,10.3218299 C18.078352,10.3183212 18.0897833,10.3148125 18.1012146,10.3121809 L18.1307454,10.3016548 C18.1421767,10.2981461 18.153608,10.2946374 18.1602763,10.2911286 C18.1717075,10.2876199 18.1831388,10.2841112 18.1945701,10.2806025 L18.224101,10.2709535 L18.2574422,10.2604274 C18.2688735,10.2569187 18.2755418,10.2534099 18.2869731,10.2499012 L18.3203144,10.2393751 C18.3317457,10.2367435 18.3393665,10.2332348 18.3507978,10.2297261 L18.3803286,10.2227087 L18.4136699,10.2121825 L18.4432008,10.2051651 L18.476542,10.1955161 L18.5070255,10.1884987 L18.5403668,10.1779725 L18.5698976,10.1709551 L18.6032389,10.1648148 L18.6327697,10.1542887 L18.7223148,10.1332364 L18.7556561,10.1270961 L18.8156704,10.1130613 L18.8490117,10.1060438 L18.8785425,10.0990264 L18.9118838,10.0928862 L18.9423672,10.0858687 L18.9757085,10.08236 L19.0347702,10.0683251 L19.0681115,10.0648164 L19.0985949,10.057799 L19.1319362,10.0516587 L19.161467,10.04815 L19.1948083,10.0446413 L19.2252917,10.0376239 L19.258633,10.0341152 L19.2881638,10.0270977 L19.3215051,10.023589 L19.351036,10.0200803 L19.3815194,10.01394 L19.4148607,10.0104313 L19.4443915,10.0069226 L19.4701119,9.99639645 L19.5044058,9.99288774 L19.5634675,9.9858703 L19.5968088,9.98323877 L19.6263396,9.97973005 L19.6606335,9.97622133 L19.7196952,9.9692039 L19.7530364,9.96569518 L19.7825673,9.96218647 L19.8168612,9.96218647 L19.8759228,9.95516903 L19.9092641,9.95166032 L19.9397476,9.95166032 L19.9730888,9.9481516 L20.0026197,9.94552006 L20.0359609,9.94552006 L20.0654918,9.94201135 L20.0959752,9.94201135 L20.1293165,9.93850263 L20.1588473,9.93850263 L20.1921886,9.93499392 L20.2560133,9.93499392 L20.2855442,9.9314852 L20.315075,9.9314852 L20.3484163,9.92797648 L20.4417719,9.92797648 L20.4751131,9.92446777 L20.6313408,9.92446777 L20.6608716,9.92095905 L21.1305073,9.92095905 L21.1638485,9.92446777 L21.2229102,9.92446777 L21.2562515,9.92797648 L21.4124792,9.92797648 L21.4429626,9.9314852 L21.4763039,9.9314852 L21.5058347,9.93499392 L21.5696594,9.93499392 L21.5991903,9.93850263 L21.6287211,9.93850263 L21.6620624,9.94201135 L21.6915932,9.94201135 L21.7220767,9.94552006 L21.755418,9.94552006 L21.7849488,9.9481516 L21.8182901,9.95166032 L21.8478209,9.95166032 L21.8783044,9.95516903 L21.9116456,9.95516903 L21.9411765,9.95867775 L21.9745177,9.96218647 L22.0050012,9.96569518 L22.034532,9.96569518 L22.0678733,9.9692039 L22.0974041,9.97271262 L22.1240772,9.97973005 L22.153608,9.98323877 L22.1831388,9.98323877 L22.2164801,9.9858703 L22.246011,9.98937902 L22.2803048,9.99288774 L22.3098357,9.99639645 L22.3431769,9.99990517 L22.4022386,10.0069226 L22.4365325,10.0104313 L22.4660633,10.01394 L22.4994046,10.0174488 L22.5289355,10.0200803 L22.5622767,10.023589 L22.5927602,10.0270977 L22.6261015,10.0341152 L22.6851631,10.0411326 L22.719457,10.04815 L22.7489879,10.0516587 L22.7823291,10.0551675 L22.81186,10.057799 L22.8452012,10.0613077 L22.8756847,10.0683251 L22.909026,10.0718339 L22.9385568,10.0753426 L22.9680876,10.08236 L23.0014289,10.0858687 L23.0319124,10.0893774 L23.0652536,10.0955177 L23.0947845,10.0990264 L23.1281257,10.1060438 L23.1576566,10.1095526 L23.18814,10.11657 L23.2214813,10.1200787 L23.2510121,10.1270961 L23.2843534,10.1297277 L23.3148369,10.1367451 L23.3481781,10.1402538 L23.4072398,10.1542887 L23.4405811,10.1613061 L23.4710645,10.1648148 L23.5044058,10.1709551 L23.5339367,10.1744638 L23.5634675,10.1814812 L23.5968088,10.1884987 L23.6272922,10.1955161 L23.6606335,10.1990248 L23.6901643,10.2051651 L23.7235056,10.2121825 L23.7530364,10.2191999 L23.797809,10.2332348 L23.8282925,10.2393751 L23.8616337,10.2463925 L23.8911646,10.2534099 L23.9245058,10.2569187 L23.9845201,10.2709535 L24.0178614,10.2770938 L24.0473922,10.2841112 L24.0807335,10.2911286 L24.1102643,10.2981461 L24.1102643,11.5621612 L24.0807335,11.5490035 L24.0473922,11.5349686 L24.0178614,11.5183022 L23.9845201,11.5042674 L23.9245058,11.4770748 L23.8911646,11.4630399 L23.8616337,11.4490051 L23.8282925,11.4358474 L23.797809,11.4218125 L23.7644677,11.4086548 L23.7349369,11.39462 L23.7015956,11.3805851 L23.6720648,11.3709361 L23.6415813,11.3569013 L23.6082401,11.3428664 L23.5787092,11.3332174 L23.5453679,11.3191826 L23.5148845,11.3086564 L23.4815432,11.2954987 L23.4520124,11.2849726 L23.4186711,11.2709377 L23.3586568,11.2507626 L23.3253156,11.2402364 L23.2957847,11.2262016 L23.2624434,11.2165526 L23.2329126,11.2060265 L23.1986187,11.1955003 L23.139557,11.1753252 L23.1062158,11.1683078 L23.0766849,11.1577816 L23.042391,11.1481326 L23.0128602,11.1411152 L22.9795189,11.1305891 L22.9499881,11.1200629 L22.9195046,11.1139227 L22.8861634,11.1033965 L22.8566325,11.0963791 L22.8232913,11.0858529 L22.7937604,11.0797127 L22.7604191,11.0726952 L22.7299357,11.0621691 L22.6965944,11.0551516 L22.6375327,11.041994 L22.6032389,11.0349765 L22.573708,11.0279591 L22.5403668,11.0209417 L22.5108359,11.0139242 L22.4774946,11.0069068 L22.4470112,11.0007665 L22.4136699,10.9972578 L22.3546082,10.983223 L22.321267,10.9797142 L22.2907835,10.9726968 L22.2574422,10.9700653 L22.2279114,10.9630478 L22.1945701,10.9595391 L22.1640867,10.9525217 L22.1345558,10.949013 L22.1012146,10.9455043 L22.0716837,10.9384868 L22.0383425,10.9349781 L22.007859,10.9323466 L21.9745177,10.9288379 L21.9449869,10.9253291 L21.9116456,10.9218204 L21.8516313,10.914803 L21.8182901,10.9112943 L21.7592284,10.9042768 L21.7258871,10.9042768 L21.6954037,10.9007681 L21.6620624,10.8972594 L21.6325316,10.8972594 L21.6030007,10.8946279 L21.5696594,10.8946279 L21.539176,10.8911192 L21.4763039,10.8911192 L21.4429626,10.8876104 L21.1600381,10.8876104 L21.1305073,10.8876104 C21.119076,10.8911192 21.1076447,10.8911192 21.0962134,10.8911192 L21.0666825,10.8911192 L21.0371517,10.8946279 L21.0038104,10.8946279 L20.973327,10.8972594 L20.9399857,10.8972594 C20.9333175,10.9007681 20.9218862,10.9007681 20.9104549,10.9007681 L20.880924,10.9042768 L20.8475828,10.9077856 L20.8170993,10.9112943 L20.783758,10.914803 L20.7542272,10.9183117 L20.7246964,10.9253291 C20.7132651,10.9253291 20.7018338,10.9253291 20.6913551,10.9288379 C20.6799238,10.9288379 20.6684925,10.9323466 20.6608716,10.9323466 C20.650393,10.9349781 20.6389617,10.9349781 20.6275304,10.9384868 C20.6170517,10.9384868 20.6056204,10.9419955 20.5979995,10.9419955 C20.5865682,10.9455043 20.5760895,10.949013 20.5646583,10.949013 C20.553227,10.9525217 20.5456061,10.9525217 20.5351274,10.9560304 C20.5236961,10.9595391 20.5122648,10.9595391 20.5008335,10.9630478 L20.4713027,10.9700653 C20.4598714,10.9700653 20.4493927,10.9726968 20.4417719,10.9762055 C20.4303406,10.9797142 20.4189093,10.9797142 20.4084306,10.983223 C20.3969993,10.9867317 20.385568,10.9902404 20.3788997,10.9902404 L20.3446059,11.0007665 C20.3341272,11.0042753 20.3226959,11.0069068 20.315075,11.0069068 C20.3036437,11.0104155 20.293165,11.0139242 20.2817337,11.0174329 C20.2741129,11.0209417 20.2626816,11.0244504 20.2522029,11.0279591 C20.2407716,11.0314678 20.2293403,11.0349765 20.2217195,11.0384852 C20.2112408,11.041994 20.1998095,11.0446255 20.1883782,11.0481342 C20.1778995,11.0516429 20.1702786,11.0551516 20.1588473,11.0586604 C20.1474161,11.0621691 20.1369374,11.0656778 20.1255061,11.0691865 C20.1140748,11.0726952 20.1064539,11.0762039 20.0959752,11.0797127 C20.0845439,11.0858529 20.0731126,11.0893616 20.0616814,11.0928704 C20.0550131,11.0963791 20.0435818,11.1033965 20.0321505,11.1069052 C20.0207192,11.1104139 20.0102405,11.1139227 20.0026197,11.1200629 C19.9911884,11.1235716 19.9807097,11.1270803 19.9692784,11.1340978 C19.9578471,11.1376065 19.9502262,11.1411152 19.9397476,11.1481326 C19.9283163,11.1516414 19.916885,11.1577816 19.9054537,11.1612903 C19.894975,11.1683078 19.8873541,11.1718165 19.8759228,11.1753252 C19.8644915,11.1823426 19.8540129,11.1893601 19.8425816,11.1919916 C19.8349607,11.199009 19.8235294,11.2025177 19.8130507,11.2095352 C19.8016194,11.2165526 19.7939986,11.2200613 19.7825673,11.2262016 C19.7720886,11.233219 19.7606573,11.2402364 19.749226,11.2437452 C19.7387473,11.2507626 19.7311265,11.25778 19.7196952,11.2639203 C19.7082639,11.2709377 19.6977852,11.2779551 19.6863539,11.2814639 C19.678733,11.2884813 19.6673017,11.2954987 19.6568231,11.301639 C19.6453918,11.3086564 19.6339605,11.3156738 19.6234818,11.3226913 C19.6158609,11.3332174 19.6044296,11.3393577 19.5929983,11.3463751 C19.5825196,11.3533925 19.5710884,11.3639187 19.5634675,11.3709361 C19.5520362,11.3770764 19.5415575,11.3840938 19.5301262,11.39462 C19.5186949,11.4016374 19.5110741,11.4086548 19.5005954,11.4183038 C19.4891641,11.42883 19.4777328,11.4358474 19.4663015,11.4454964 C19.4596332,11.4560225 19.448202,11.4630399 19.4367707,11.4735661 C19.426292,11.4832151 19.4148607,11.4902325 19.4072398,11.5007586 C19.3958085,11.5112848 19.3853298,11.5209338 19.3738985,11.5314599 C19.3624673,11.5419861 19.3548464,11.5525122 19.3443677,11.5621612 C19.3329364,11.576196 19.3215051,11.5867222 19.3138843,11.5963712 C19.3034056,11.6068973 19.2919743,11.6209322 19.280543,11.6305812 C19.2691117,11.644616 19.258633,11.6586509 19.2510121,11.6682999 C19.2395809,11.6823347 19.2281496,11.6963696 19.2176709,11.7095273 C19.2062396,11.7235621 19.1948083,11.737597 19.18814,11.7507547 C19.1767087,11.7682983 19.1652774,11.781456 19.1538462,11.7954908 C19.1433675,11.8121572 19.1319362,11.8297008 19.1243153,11.8437357 C19.112884,11.8604021 19.1024053,11.8779457 19.090974,11.8946121 C19.0795427,11.9156644 19.0681115,11.9323308 19.0614432,11.9533831 C19.0500119,11.9735582 19.0385806,11.9937333 19.0281019,12.0147856 C19.0166706,12.0384694 19.0090498,12.0595217 18.9976185,12.0832056 C18.9871398,12.1068894 18.9757085,12.1349591 18.9680876,12.158643 C18.9566563,12.1893442 18.9461777,12.2165368 18.9347464,12.2481153 C18.9233151,12.2823252 18.9118838,12.3165352 18.9052155,12.3542539 C18.8899738,12.3981129 18.8823529,12.442849 18.8709216,12.4875851 C18.8566325,12.5560051 18.8490117,12.6279338 18.8413908,12.6998625 C18.8299595,12.7823173 18.8271017,12.8709124 18.8271017,12.956876 C18.8271017,13.0463482 18.8299595,13.1314346 18.8413908,13.2173982 C18.8490117,13.2893269 18.860443,13.3577468 18.8709216,13.4261668 C18.8823529,13.4744117 18.8899738,13.5191478 18.9052155,13.5638839 C18.9118838,13.6016026 18.9233151,13.6358126 18.9347464,13.6700226 C18.9461777,13.7007239 18.9566563,13.7279164 18.9680876,13.7586177 C18.9757085,13.7831787 18.9871398,13.8068625 18.9976185,13.8340551 C19.0090498,13.8577389 19.0166706,13.8787912 19.0281019,13.9024751 C19.0385806,13.9235274 19.0500119,13.9437025 19.0614432,13.9647548 C19.0719219,13.9814212 19.0795427,14.0024735 19.090974,14.0191399 C19.1024053,14.0366835 19.112884,14.0533499 19.1243153,14.0708935 C19.1357466,14.0875599 19.1433675,14.1051034 19.1538462,14.1182611 C19.1652774,14.1358047 19.1767087,14.1498396 19.18814,14.166506 C19.1986187,14.1805408 19.2062396,14.1936985 19.2176709,14.2077334 C19.2281496,14.2217683 19.2395809,14.2314172 19.2510121,14.2454521 C19.2624434,14.259487 19.2691117,14.2691359 19.280543,14.2831708 C19.2919743,14.2963285 19.3034056,14.3068546 19.3138843,14.3173808 C19.3215051,14.3314157 19.3329364,14.3410646 19.3443677,14.3515908 C19.3548464,14.3621169 19.3624673,14.3717659 19.3738985,14.382292 C19.3853298,14.3928182 19.3958085,14.4033443 19.4072398,14.4129933 C19.4148607,14.4235195 19.426292,14.4340456 19.4367707,14.4436946 C19.448202,14.450712 19.4596332,14.4612382 19.4663015,14.4717643 C19.4777328,14.4787817 19.4891641,14.4884307 19.5005954,14.4954482 C19.5110741,14.5059743 19.5186949,14.5129917 19.5301262,14.5226407 C19.5415575,14.5296581 19.5520362,14.5366756 19.5634675,14.5472017 C19.5710884,14.553342 19.5825196,14.5603594 19.5929983,14.5673768 C19.6044296,14.577903 19.6158609,14.5849204 19.6234818,14.5910607 L19.6568231,14.612113 C19.6673017,14.6191304 19.678733,14.6252707 19.6863539,14.6322881 C19.6977852,14.6393055 19.7082639,14.646323 19.7196952,14.6533404 C19.7311265,14.6568491 19.7387473,14.6629894 19.749226,14.6700068 C19.7606573,14.6770242 19.7720886,14.6805329 19.7825673,14.6875504 C19.7939986,14.6945678 19.8016194,14.7007081 19.8130507,14.7042168 C19.8235294,14.7112342 19.8349607,14.7147429 19.8425816,14.7217604 C19.8540129,14.7252691 19.8644915,14.7322865 19.8759228,14.7384268 C19.8873541,14.7419355 19.894975,14.7489529 19.9054537,14.7524616 C19.916885,14.7559703 19.9283163,14.7629878 19.9397476,14.7664965 C19.9502262,14.7726368 19.9578471,14.7761455 19.9692784,14.7796542 C19.9807097,14.7866716 19.9911884,14.7901803 20.0026197,14.7936891 C20.014051,14.8007065 20.0207192,14.8042152 20.0321505,14.8077239 C20.0435818,14.8138642 20.0550131,14.8173729 20.0616814,14.8208816 C20.0731126,14.8243903 20.0845439,14.827899 20.0959752,14.8349165 C20.1064539,14.8384252 20.1178852,14.8419339 20.1255061,14.8445654 C20.1369374,14.8480742 20.1474161,14.8515829 20.1588473,14.8550916 C20.1702786,14.8586003 20.1778995,14.862109 20.1883782,14.8656177 C20.1998095,14.8691265 20.2112408,14.8726352 20.2217195,14.8761439 C20.2293403,14.8796526 20.2407716,14.8822841 20.2522029,14.8857929 C20.2626816,14.8893016 20.2741129,14.8928103 20.2817337,14.896319 C20.293165,14.8998277 20.3036437,14.9033364 20.315075,14.9068452 C20.3265063,14.9068452 20.3379376,14.9103539 20.3446059,14.9138626 C20.3560372,14.9173713 20.3674684,14.9200028 20.3788997,14.9235116 C20.3893784,14.9235116 20.3969993,14.9270203 20.4084306,14.930529 C20.4189093,14.930529 20.4303406,14.9340377 20.4417719,14.9375464 C20.4493927,14.9375464 20.4598714,14.9410551 20.4713027,14.9445639 L20.5008335,14.9515813 C20.5122648,14.9542128 20.5236961,14.9542128 20.5351274,14.9577215 C20.5456061,14.9612303 20.553227,14.9612303 20.5646583,14.964739 C20.5760895,14.964739 20.5865682,14.9682477 20.5979995,14.9682477 C20.6056204,14.9717564 20.6170517,14.9717564 20.6275304,14.9752651 C20.6389617,14.9752651 20.650393,14.9787738 20.6608716,14.9822826 C20.6684925,14.9822826 20.6799238,14.9822826 20.6913551,14.9857913 C20.7018338,14.9857913 20.7132651,14.9893 20.7246964,14.9893 C20.7323172,14.9919315 20.7427959,14.9919315 20.7542272,14.9919315 L20.783758,14.998949 L20.8170993,15.0024577 L20.8475828,15.0059664 L20.880924,15.0094751 L20.9104549,15.0129838 L20.9399857,15.0129838 C20.951417,15.0164925 20.9628483,15.0164925 20.973327,15.0164925 L21.0038104,15.0200013 L21.0371517,15.0200013 L21.0666825,15.02351 L21.0962134,15.02351 L21.1305073,15.02351 C21.1409859,15.0270187 21.1486068,15.0270187 21.1600381,15.0270187 L21.4124792,15.0270187 L21.4429626,15.02351 L21.5058347,15.02351 L21.5353656,15.0200013 L21.5696594,15.0200013 L21.5991903,15.0164925 L21.6439628,15.0164925 L21.6915932,15.0129838 L21.7258871,15.0094751 L21.7849488,15.0024577 L21.8373422,15.0024577 L21.8706835,14.998949 L21.9297452,14.9919315 L21.9640391,14.9893 L21.9935699,14.9857913 L22.0269112,14.9822826 L22.056442,14.9787738 L22.0897833,14.9717564 L22.1202667,14.9682477 L22.153608,14.964739 L22.1831388,14.9612303 L22.2126697,14.9542128 L22.246011,14.9515813 L22.2764944,14.9445639 L22.3098357,14.9410551 L22.3393665,14.9340377 L22.3727078,14.930529 L22.4327221,14.9173713 L22.4660633,14.9103539 L22.4955942,14.9068452 L22.5289355,14.8998277 L22.5594189,14.8928103 L22.5927602,14.8857929 L22.622291,14.8796526 L22.6556323,14.8726352 L22.7156466,14.8586003 L22.7489879,14.8480742 L22.7785187,14.8419339 L22.81186,14.8349165 L22.8413908,14.8243903 L22.8756847,14.8173729 L22.9052155,14.8103555 L22.9385568,14.8007065 L22.9680876,14.7936891 L22.9985711,14.7831629 L23.0319124,14.7761455 L23.0614432,14.7664965 L23.0947845,14.7559703 L23.1243153,14.7454442 L23.1576566,14.7349181 L23.18814,14.7287778 L23.2176709,14.7182516 L23.2510121,14.7077255 L23.280543,14.6980765 L23.3148369,14.6875504 L23.3443677,14.6735155 L23.377709,14.6629894 L23.4367707,14.6428142 L23.4710645,14.6322881 L23.5005954,14.6191304 L23.5301262,14.6086043 L23.5634675,14.5945694 L23.5929983,14.5849204 L23.6272922,14.5708856 L23.6568231,14.5603594 L23.6901643,14.5472017 L23.7196952,14.5331669 L23.7530364,14.5226407 L23.7835199,14.509483 L23.8168612,14.4954482 L23.846392,14.4814133 L23.8797333,14.4682556 L23.9397476,14.441063 L23.9730888,14.4270282 L24.0026197,14.4129933 L24.0359609,14.3998356 L24.0664444,14.3858008 L24.0997857,14.3717659 L24.1293165,14.3550995 L24.1293165,15.6191146 L24.0997857,15.626132 L24.0664444,15.6331495 L24.0359609,15.6401669 L24.0026197,15.6471843 L23.9730888,15.6533246 L23.9397476,15.660342 L23.9102167,15.6673595 L23.8797333,15.6708682 L23.846392,15.6778856 L23.8168612,15.684903 L23.7835199,15.6910433 L23.7530364,15.6980607 L23.7196952,15.7015694 L23.6901643,15.7085869 L23.6568231,15.7156043 L23.6272922,15.7217446 L23.5929983,15.728762 L23.5634675,15.7322707 L23.5301262,15.7392881 L23.5005954,15.7463056 L23.4710645,15.7498143 L23.4367707,15.7568317 L23.4072398,15.7594633 L23.377709,15.7664807 L23.3443677,15.7734981 L23.3148369,15.7770068 L23.280543,15.7840243 L23.2510121,15.787533 L23.2176709,15.7945504 L23.18814,15.797182 L23.1576566,15.8041994 L23.1243153,15.8077081 L23.0947845,15.8147255 L23.0614432,15.8182343 L23.0319124,15.821743 L22.9985711,15.8287604 L22.9680876,15.8313919 L22.9385568,15.8384094 L22.9052155,15.8419181 L22.8756847,15.8454268 L22.8413908,15.8489355 L22.81186,15.855953 L22.7785187,15.8594617 L22.7489879,15.8629704 L22.7156466,15.8691107 L22.6556323,15.8761281 L22.622291,15.8796368 L22.5927602,15.8831455 L22.5594189,15.8901629 L22.5289355,15.8936717 L22.4955942,15.8971804 L22.4660633,15.9006891 L22.4327221,15.9041978 L22.3727078,15.9103381 L22.3393665,15.9138468 L22.3098357,15.9173555 L22.2764944,15.9208642 L22.246011,15.9243729 L22.2126697,15.9278817 L22.1831388,15.9278817 L22.153608,15.9313904 L22.1202667,15.9348991 L22.0897833,15.9384078 L22.056442,15.9384078 L22.0269112,15.9410393 L21.9935699,15.9445481 L21.9640391,15.9480568 L21.9297452,15.9480568 L21.8706835,15.9550742 L21.8373422,15.9550742 L21.8078114,15.9585829 L21.7735175,15.9585829 L21.7439867,15.9620916 L21.7144558,15.9620916 L21.6811146,15.9656004 L21.6506311,15.9656004 L21.6172898,15.9691091 L21.5248869,15.9691091 L21.490593,15.9726178 L21.4315313,15.9726178 L21.39819,15.9761265 L21.3048345,15.9761265 L21.2714932,15.978758 L20.553227,15.978758 L20.5198857,15.9761265 L20.4265301,15.9761265 L20.3931889,15.9726178 L20.363658,15.9726178 L20.3341272,15.9691091 L20.2703025,15.9691091 L20.2369612,15.9656004 L20.2074303,15.9656004 L20.1778995,15.9620916 L20.1436056,15.9620916 L20.1140748,15.9585829 L20.0807335,15.9585829 L20.0512027,15.9550742 L20.0178614,15.9550742 L19.9873779,15.9515655 L19.9540367,15.9515655 L19.894975,15.9445481 L19.8616337,15.9410393 L19.8311503,15.9410393 L19.797809,15.9384078 L19.7387473,15.9313904 L19.7044534,15.9278817 L19.6749226,15.9243729 L19.6415813,15.9208642 L19.6120505,15.9173555 L19.5787092,15.9138468 L19.5186949,15.9068294 L19.4853537,15.9041978 L19.4558228,15.9006891 L19.4224815,15.8971804 L19.3919981,15.8936717 L19.3624673,15.8866542 L19.329126,15.8831455 L19.2995951,15.8796368 L19.2662539,15.8726194 L19.2357704,15.8691107 L19.2024291,15.8629704 L19.1728983,15.8594617 L19.139557,15.8524442 L19.1090736,15.8489355 L19.0795427,15.8419181 L19.0462015,15.8384094 L19.0166706,15.8313919 L18.9833294,15.8252517 L18.9528459,15.821743 L18.9195046,15.8147255 L18.8899738,15.8077081 L18.8566325,15.8006907 L18.8271017,15.7945504 L18.7966182,15.7910417 L18.763277,15.7840243 L18.7337461,15.7770068 L18.7004049,15.7664807 L18.670874,15.7594633 L18.6365801,15.753323 L18.6070493,15.7463056 L18.573708,15.7357794 L18.5136937,15.7217446 L18.4803525,15.7120956 L18.4508216,15.7050782 L18.4174804,15.694552 L18.3879495,15.6875346 L18.3536556,15.6778856 C18.3469874,15.6743769 18.3355561,15.6708682 18.3241248,15.6673595 C18.3136461,15.6638507 18.3060252,15.660342 18.294594,15.6568333 L18.2612527,15.6471843 L18.2317218,15.6401669 C18.2202905,15.6331495 18.2088593,15.6331495 18.197428,15.6296408 C18.1869493,15.626132 18.1793284,15.6191146 18.1678971,15.6156059 L18.1383663,15.6059569 C18.126935,15.6024482 18.1155037,15.5989395 18.105025,15.5954308 L18.0754942,15.5849046 L18.0412003,15.5752556 L18.0116694,15.5612208 L17.9783282,15.5506946 L17.9183139,15.5235021 L17.8849726,15.5129759 L17.8554418,15.4998182 L17.8221005,15.4857834 L17.7925697,15.4717485 C17.7811384,15.4682398 17.7697071,15.4656083 17.7592284,15.4585908 L17.7287449,15.444556 L17.6954037,15.4305211 L17.6658728,15.4173634 C17.6544415,15.410346 17.6430102,15.4068373 17.636342,15.3998198 C17.6249107,15.3963111 17.6134794,15.3901709 17.6020481,15.3866621 L17.5725173,15.3691186 L17.539176,15.3559609 L17.5096452,15.3384173 C17.4982139,15.3349086 17.4867826,15.3278911 17.4801143,15.3208737 C17.468683,15.3182422 17.4572517,15.3112247 17.4458204,15.3042073 L17.4162896,15.2866637 C17.4048583,15.283155 17.3943796,15.2770147 17.3829483,15.2699973 C17.371517,15.2629799 17.3638962,15.2559624 17.3534175,15.2524537 L17.3200762,15.2322786 C17.3086449,15.2252612 17.3010241,15.2182437 17.2895928,15.214735 L17.2562515,15.1945599 C17.2486306,15.1875425 17.2381519,15.180525 17.2267206,15.1735076 C17.2152894,15.1673674 17.2038581,15.1603499 17.1971898,15.1533325 C17.1857585,15.1463151 17.1743272,15.1392976 17.1628959,15.1331574 C17.1524172,15.1261399 17.1447964,15.1191225 17.1333651,15.1121051 C17.1228864,15.1015789 17.1114551,15.0954387 17.1000238,15.0884212 C17.092403,15.0814038 17.0819243,15.0743864 17.070493,15.0638602 C17.0476304,15.0471938 17.0257204,15.0296502 17.0038104,15.0129838 L17.0038104,21.9032258 L21.804001,21.9032258 L21.8335318,21.9032258 L21.8630626,21.9032258 L21.8964039,21.9032258 L21.9259347,21.8997171 L21.9602286,21.8997171 C21.9668969,21.8970856 21.9783282,21.8970856 21.9897595,21.8970856 L22.0192903,21.8970856 L22.0526316,21.8935768 C22.0640629,21.8900681 22.0754942,21.8900681 22.083115,21.8900681 C22.0935937,21.8900681 22.105025,21.8865594 22.1164563,21.8865594 C22.126935,21.8865594 22.1345558,21.8830507 22.1459871,21.8830507 C22.1574184,21.8830507 22.1678971,21.879542 22.1793284,21.879542 L22.2088593,21.8760333 C22.2202905,21.8725245 22.2317218,21.8725245 22.2431531,21.8725245 C22.2536318,21.8690158 22.2612527,21.8690158 22.272684,21.8655071 C22.2841153,21.8655071 22.294594,21.8619984 22.3060252,21.8619984 L22.3355561,21.8558581 L22.3650869,21.8523494 C22.3765182,21.8488407 22.3879495,21.8488407 22.3993808,21.845332 C22.4098595,21.8418233 22.4174804,21.8418233 22.4289116,21.8383146 L22.4622529,21.8312971 L22.4917838,21.8251569 C22.5032151,21.8251569 22.5146463,21.8216481 22.525125,21.8181394 C22.5327459,21.8181394 22.5441772,21.8146307 22.5556085,21.811122 C22.5660872,21.8076133 22.573708,21.8076133 22.5889497,21.8041046 C22.5965706,21.8005958 22.6070493,21.8005958 22.6184806,21.7970871 L22.6480114,21.7874382 L22.6813527,21.7804207 C22.692784,21.776912 22.7004049,21.7734033 22.7118362,21.7698946 C22.7223148,21.7698946 22.7337461,21.7663859 22.7451774,21.7628771 C22.7566087,21.7593684 22.763277,21.7558597 22.7747083,21.752351 L22.8080495,21.742702 L22.838533,21.7321759 C22.8490117,21.7286672 22.860443,21.7251584 22.8680638,21.7216497 C22.8785425,21.718141 22.8899738,21.7155095 22.9014051,21.7120008 C22.9128364,21.708492 22.9195046,21.7049833 22.9309359,21.7014746 C22.9423672,21.6944572 22.9537985,21.6909485 22.9642772,21.6874397 L22.9947607,21.6777908 L23.0281019,21.6637559 L23.0576328,21.6532298 C23.0690641,21.6462123 23.0795427,21.6427036 23.0871636,21.6400721 C23.0985949,21.6330546 23.1100262,21.6295459 23.1205049,21.6260372 C23.1319362,21.6190198 23.1433675,21.6155111 23.1509883,21.6120023 C23.161467,21.6058621 23.1728983,21.6023534 23.1843296,21.5953359 C23.1957609,21.5918272 23.2024291,21.5883185 23.2138604,21.5813011 C23.2252917,21.5777924 23.236723,21.5707749 23.2472017,21.5681434 L23.2767326,21.5505998 L23.307216,21.5365649 L23.3405573,21.5198985 C23.3519886,21.5163898 23.3586568,21.5093724 23.3700881,21.5058637 C23.3815194,21.4988462 23.3929507,21.492706 23.4034294,21.4891973 C23.4148607,21.4821798 23.4224815,21.4751624 23.4339128,21.468145 C23.4443915,21.4646362 23.4558228,21.458496 23.4634437,21.4514786 C23.474875,21.4479698 23.4853537,21.4409524 23.4967849,21.433935 C23.5082162,21.4269175 23.5186949,21.4234088 23.5263158,21.4172686 C23.5377471,21.4102511 23.5491784,21.4032337 23.5596571,21.3962163 C23.5710884,21.3891988 23.5825196,21.3830586 23.5901405,21.3760412 C23.6006192,21.3690237 23.6120505,21.365515 23.6234818,21.3584976 C23.6339605,21.3514801 23.6415813,21.3453399 23.6530126,21.3383225 C23.6644439,21.331305 23.6749226,21.3207789 23.6863539,21.3137614 C23.6977852,21.3076212 23.705406,21.3006038 23.7158847,21.2935863 C23.727316,21.2865689 23.7387473,21.2795515 23.7501786,21.2734112 C23.7606573,21.2628851 23.7682782,21.2558676 23.7797095,21.2488502 C23.7911407,21.2418328 23.8016194,21.2321838 23.8092403,21.2251663 C23.824482,21.2181489 23.8311503,21.2076228 23.8425816,21.2014825 C23.8540129,21.1944651 23.8654442,21.1839389 23.8721124,21.1769215 C23.8835437,21.1672725 23.894975,21.1602551 23.9064063,21.1532377 C23.916885,21.1427115 23.9283163,21.1356941 23.9359371,21.1260451 C23.9473684,21.115519 23.9578471,21.1085015 23.9692784,21.0979754 C23.9807097,21.0883264 23.9883306,21.081309 23.9988092,21.0707828 C24.0102405,21.0637654 24.0216718,21.0541164 24.0321505,21.0435903 C24.0397714,21.0330641 24.0512027,21.022538 24.062634,21.0163977 C24.0731126,21.0058716 24.0845439,20.9953454 24.0921648,20.9848193 C24.1035961,20.9751703 24.1140748,20.9646441 24.1255061,20.954118 C24.1369374,20.944469 24.1483687,20.9339429 24.1550369,20.9234167 C24.1664682,20.9128906 24.1778995,20.9032416 24.1893308,20.8927155 C24.1998095,20.8786806 24.2112408,20.8690316 24.2188616,20.8585055 C24.2293403,20.8479793 24.2407716,20.8348216 24.2522029,20.8242955 C24.2598238,20.8137693 24.2703025,20.8006117 24.2817337,20.7900855 C24.293165,20.7760506 24.3045963,20.7655245 24.3112646,20.7523668 C24.3226959,20.7418407 24.3341272,20.728683 24.3455585,20.7146481 C24.3560372,20.704122 24.3674684,20.6909643 24.3750893,20.6769294 C24.3865206,20.6628945 24.3969993,20.6497368 24.4084306,20.635702 C24.4198619,20.6216671 24.4274827,20.6085094 24.4379614,20.5944746 C24.4493927,20.5813169 24.460824,20.567282 24.4713027,20.5497384 C24.4789236,20.5365807 24.4903548,20.5225459 24.5017861,20.5058795 C24.5122648,20.4918446 24.5236961,20.474301 24.531317,20.4611433 C24.5427483,20.4435998 24.553227,20.4304421 24.5646583,20.4128985 C24.5760895,20.3962321 24.5865682,20.3786885 24.5941891,20.3620221 C24.6056204,20.3444785 24.6170517,20.3243034 24.6275304,20.3067598 C24.6389617,20.2900934 24.650393,20.2690411 24.6580138,20.2523747 C24.6684925,20.2313224 24.6799238,20.2111473 24.6913551,20.1936037 C24.6989759,20.1734286 24.7094546,20.1488676 24.7208859,20.1286924 C24.7323172,20.1076402 24.7437485,20.0839563 24.7504168,20.0637812 C24.7618481,20.0392202 24.7732794,20.0155363 24.783758,19.9918525 C24.7951893,19.9637828 24.8066206,19.9365902 24.8142415,19.9129064 C24.8247202,19.8822051 24.8361515,19.8541354 24.8475828,19.8269428 C24.8590141,19.7927328 24.8694927,19.7620316 24.8771136,19.7313303 C24.8885449,19.6936116 24.8999762,19.6558929 24.9104549,19.6181742 C24.9218862,19.5734381 24.9333175,19.5287019 24.9409383,19.484843 C24.951417,19.426072 24.9628483,19.3681782 24.9742796,19.3058984 C24.9885687,19.1795846 25,19.0523937 25,18.9225712 L25,4 L20.1702786,4 C20.1588473,4 20.1474161,4.00350872 20.1407478,4.00350872 L20.1064539,4.00350872 L20.0769231,4.00350872 C20.0654918,4.00350872 20.0550131,4.00701743 20.0435818,4.00701743 L20.014051,4.00701743 C20.0026197,4.00701743 19.9911884,4.01052615 19.9835675,4.01052615 L19.9502262,4.01403487 L19.9206954,4.01403487 C19.9092641,4.01754358 19.8987854,4.01754358 19.8873541,4.01754358 L19.8578233,4.0210523 L19.8235294,4.02456102 C19.8130507,4.02719255 19.8054299,4.02719255 19.7939986,4.02719255 C19.7825673,4.03070127 19.7720886,4.03070127 19.7644677,4.03070127 C19.7530364,4.03420999 19.7425578,4.03420999 19.7311265,4.0377187 L19.7015956,4.04122742 L19.6673017,4.04824485 C19.6568231,4.04824485 19.6492022,4.05175357 19.6377709,4.05175357 C19.6263396,4.05526228 19.6158609,4.05526228 19.6044296,4.058771 C19.5929983,4.058771 19.5853775,4.06227972 19.5748988,4.06491125 L19.5444153,4.06841997 C19.5339367,4.07192869 19.5225054,4.0754374 19.5110741,4.0754374 C19.5005954,4.07894612 19.4929745,4.08245484 19.4815432,4.08245484 C19.4701119,4.08596355 19.4596332,4.08947227 19.448202,4.08947227 C19.4405811,4.09298099 19.4291498,4.0964897 19.4186711,4.0964897 L19.3881877,4.10613867 C19.377709,4.10964739 19.3662777,4.10964739 19.3548464,4.11315611 C19.3443677,4.11666482 19.3367468,4.12017354 19.3253156,4.12368226 C19.3138843,4.12368226 19.3034056,4.12719097 19.2919743,4.13069969 C19.2843534,4.13420841 19.2729221,4.13683994 19.2624434,4.14034866 L19.2281496,4.15087481 C19.2214813,4.15438352 19.21005,4.15789224 19.1986187,4.15789224 C19.18814,4.16490967 19.1767087,4.16841839 19.1652774,4.17192711 C19.1576566,4.17455864 19.1471779,4.17806736 19.1357466,4.18157608 C19.1243153,4.18157608 19.112884,4.18859351 19.1062158,4.19210223 C19.0947845,4.19561094 19.0833532,4.19911966 19.0719219,4.20262838 C19.0614432,4.20613709 19.0500119,4.20876863 19.042391,4.21227735 L19.0090498,4.22631221 C18.9976185,4.22982093 18.9899976,4.23332965 18.9795189,4.23683836 C18.9680876,4.24034708 18.9566563,4.24648733 18.9461777,4.24999605 C18.9385568,4.25350477 18.9271255,4.25701348 18.9156942,4.26403091 C18.9052155,4.26753963 18.8937842,4.27104835 18.8861634,4.27455706 C18.8747321,4.2815745 18.8642534,4.28420603 18.8528221,4.29122347 C18.8413908,4.29473218 18.8299595,4.2982409 18.8232913,4.30525833 L18.78995,4.31841602 L18.7594665,4.33245089 C18.7489879,4.33946832 18.7375566,4.34297704 18.7261253,4.34999447 C18.714694,4.35350318 18.7080257,4.35613472 18.6965944,4.36315216 C18.6851631,4.36666087 18.6737318,4.3736783 18.6632532,4.38069574 C18.6556323,4.38420445 18.644201,4.38771317 18.6327697,4.39385342 C18.622291,4.40087086 18.6108597,4.40437957 18.6032389,4.41139701 C18.5918076,4.41841444 18.5813289,4.42192316 18.5698976,4.42806341 C18.5584663,4.43508084 18.551798,4.43858956 18.5403668,4.44560699 C18.5289355,4.45262443 18.5175042,4.45964186 18.5070255,4.46315057 C18.4955942,4.46929083 18.4879733,4.47630826 18.476542,4.48332569 C18.4660633,4.49034313 18.4546321,4.49385184 18.4432008,4.50086928 C18.4355799,4.50700953 18.4251012,4.51402696 18.4136699,4.5210444 C18.4022386,4.52806183 18.3917599,4.53507926 18.3803286,4.54121952 C18.3727078,4.54823695 18.3612765,4.55525438 18.3507978,4.56227181 C18.3393665,4.56928925 18.3279352,4.5754295 18.3203144,4.58244693 C18.3098357,4.58946437 18.2984044,4.5964818 18.2869731,4.60349923 C18.2755418,4.61051667 18.2688735,4.61665692 18.2574422,4.62367435 C18.246011,4.6342005 18.2355323,4.64121794 18.224101,4.64735819 C18.2126697,4.65437562 18.2050488,4.66490177 18.1945701,4.6719192 C18.1831388,4.67893664 18.1717075,4.68858561 18.1602763,4.69560304 C18.153608,4.70262047 18.1421767,4.71314662 18.1307454,4.72016406 C18.1193141,4.72981303 18.1126459,4.73683046 18.1012146,4.74384789 C18.0897833,4.75437404 18.078352,4.76402301 18.0678733,4.77104045 C18.056442,4.78156659 18.0488211,4.78858403 18.0373899,4.798233 C18.0269112,4.80875915 18.0154799,4.81577658 18.0040486,4.82630273 L17.9745177,4.85349528 L17.9411765,4.88068783 C17.9335556,4.89121398 17.9221243,4.90174013 17.9116456,4.9113891 C17.9002143,4.92191525 17.8925935,4.9324414 17.8811622,4.94209037 C17.8706835,4.95261652 17.8592522,4.96314267 17.8478209,4.97366882 C17.8373422,4.98331779 17.8297214,4.99384394 17.8182901,5.00437009 C17.8068588,5.01401906 17.7963801,5.02454521 17.7887592,5.03858008 C17.7735175,5.04910623 17.7658966,5.0587552 17.755418,5.07279006 C17.7439867,5.08331621 17.7325554,5.09296518 17.7249345,5.10700005 C17.7106454,5.1175262 17.7030245,5.13068388 17.6915932,5.14121003 C17.6801619,5.1552449 17.6696833,5.16489387 17.6620624,5.17892874 C17.6506311,5.1929636 17.6391998,5.20612129 17.6287211,5.22015615 C17.6172898,5.2306823 17.6058585,5.24383999 17.5991903,5.25787486 C17.587759,5.27103254 17.5763277,5.28506741 17.5648964,5.29910227 C17.5544177,5.31225996 17.5467969,5.32629483 17.5353656,5.34296123 C17.5239343,5.3569961 17.5134556,5.37103096 17.5058347,5.38769737 C17.4944034,5.40173223 17.4829721,5.41839863 17.4724935,5.4324335 C17.4610622,5.44997708 17.4534413,5.46664349 17.44201,5.48067835 C17.4315313,5.49734476 17.4201,5.51488834 17.4086687,5.53155474 C17.39819,5.54909832 17.3905692,5.56576473 17.3791379,5.58330831 C17.3677066,5.60348343 17.3572279,5.62102701 17.3457966,5.64120213 C17.3343653,5.65874571 17.3267445,5.67892083 17.3162658,5.69997313 C17.3048345,5.72014825 17.2934032,5.73769183 17.2829245,5.76137567 C17.2714932,5.78155079 17.2638724,5.80260309 17.2524411,5.82628692 C17.2419624,5.85084794 17.2305311,5.87453178 17.2229102,5.89821561 C17.2114789,5.92277663 17.2010002,5.94646046 17.1895689,5.97365302 C17.1781377,6.00084557 17.1667064,6.0289153 17.1600381,6.05610785 C17.1486068,6.08680912 17.1371755,6.11751039 17.1257442,6.14821166 C17.1152655,6.18593036 17.1076447,6.22014035 17.0962134,6.25522751 C17.0847821,6.29557775 17.0743034,6.33680517 17.0666825,6.38154131 C17.02191,6.57715225 17,6.77890345 17,6.98767208 L17,10.8946279 C17.0180995,10.8770843 17.0409621,10.8604179 17.0666825,10.8428743 C17.0743034,10.8358569 17.0847821,10.8253307 17.0962134,10.8191905 C17.1076447,10.812173 17.1152655,10.8051556 17.1257442,10.7946295 Z" id="Imported-Layers" fill="#EB1450" sketch:type="MSShapeGroup"></path>
            <g id="Imported-Layers" transform="translate(26.619048, 3.714286)" sketch:type="MSShapeGroup">
                <g transform="translate(0.380952, 0.285714)">
                    <path d="M4.90350877,17.9964723 L4.9370485,17.9964723 C4.94854784,17.9964723 4.9590889,17.9964723 4.96675512,17.9929446 L5.00029485,17.9929446 C5.01179419,17.9929446 5.01946042,17.9929446 5.03095975,17.9902989 L5.06449948,17.9902989 C5.07504054,17.9867712 5.08270677,17.9867712 5.0942061,17.9867712 C5.10570544,17.9867712 5.1162465,17.9832435 5.12774584,17.9832435 C5.13541206,17.9832435 5.1469114,17.9797158 5.15745245,17.9797158 C5.16895179,17.9797158 5.18045113,17.9797158 5.19195046,17.9761881 C5.19865841,17.9761881 5.21015775,17.9761881 5.22165708,17.9726605 L5.2513637,17.9691328 L5.28490344,17.9656051 L5.31461005,17.9620774 L5.34910806,17.955022 C5.35964912,17.955022 5.36731535,17.9523763 5.37881468,17.9523763 L5.41235442,17.9453209 L5.44206103,17.9382656 C5.45356037,17.9382656 5.46505971,17.9347379 5.47560077,17.9312102 C5.4871001,17.9312102 5.49476633,17.9276825 5.50626566,17.9276825 L5.5398054,17.9206271 L5.56951202,17.910926 L5.59921863,17.9038707 C5.61071797,17.9038707 5.62221731,17.900343 5.63371664,17.8968153 C5.6442577,17.8932876 5.65192393,17.8932876 5.66342326,17.8897599 C5.67396432,17.8862322 5.68546366,17.8827046 5.696963,17.8800588 L5.72666962,17.8730034 L5.76020935,17.8624204 L5.79087424,17.855365 C5.8014153,17.8518373 5.81291464,17.8483097 5.82441398,17.844782 C5.83495503,17.8421362 5.84262126,17.8386085 5.8541206,17.8350808 C5.86561993,17.8315532 5.87616099,17.8280255 5.88766033,17.8244978 L5.91736695,17.8139147 C5.92886628,17.8103871 5.94036562,17.8077413 5.94803184,17.8042136 C5.9585729,17.8006859 5.97007224,17.7936306 5.98157158,17.7901029 C5.99211263,17.7865752 5.99977886,17.7830475 6.0112782,17.7795198 C6.02277753,17.7759922 6.03331859,17.7724645 6.04481793,17.766291 C6.05248415,17.7627634 6.06398349,17.7592357 6.07452455,17.755708 C6.08602388,17.7486526 6.09752322,17.7451249 6.10518944,17.7415973 L6.13872918,17.7283684 L6.1684358,17.7142577 C6.17993513,17.71073 6.19143447,17.7036747 6.20197553,17.700147 C6.21347486,17.6975012 6.22114109,17.6904459 6.23168215,17.6869182 C6.24318148,17.6798628 6.25468082,17.6763351 6.26618016,17.6692798 C6.27672121,17.6657521 6.28438744,17.6595786 6.29588678,17.656051 C6.30738611,17.6525233 6.31792717,17.6454679 6.3255934,17.6419402 C6.34092584,17.6348849 6.34859207,17.6313572 6.35913313,17.6243018 C6.37063246,17.6216561 6.3821318,17.6146007 6.38979802,17.6075453 C6.40033908,17.6040176 6.41183842,17.5969623 6.42333776,17.5934346 L6.44921126,17.5731504 C6.4607106,17.5660951 6.47125166,17.5590397 6.47891788,17.555512 C6.49041722,17.5493386 6.50191656,17.5422832 6.51245761,17.5387555 C6.52395695,17.5317001 6.53162318,17.5246448 6.54312251,17.5175894 C6.55366357,17.5140617 6.56516291,17.5078883 6.57666224,17.5008329 C6.58432847,17.4937776 6.59486953,17.4867222 6.60636886,17.4796668 C6.6178682,17.4770211 6.62936754,17.466438 6.63607548,17.4593827 C6.64757482,17.455855 6.65907416,17.4487996 6.67057349,17.4417442 C6.68111455,17.4355708 6.69261389,17.4285154 6.70028011,17.4214601 L6.73381984,17.3976482 C6.74531918,17.3905928 6.75586024,17.3835375 6.76352646,17.3764821 C6.7750258,17.3694268 6.78652514,17.3632533 6.79706619,17.3526703 C6.80856553,17.3456149 6.82006487,17.3385595 6.82773109,17.3315042 C6.83827215,17.321803 6.84977149,17.3147477 6.86127082,17.3076923 C6.87181188,17.2971093 6.88331122,17.2909358 6.89097744,17.2838805 C6.90247678,17.2732974 6.91301784,17.266242 6.92451718,17.2565409 C6.9321834,17.2494855 6.94368274,17.2424302 6.95422379,17.2318471 C6.96572313,17.2212641 6.97722247,17.2150906 6.9887218,17.2045076 C6.99542975,17.1974522 7.00692909,17.1868692 7.01842842,17.1771681 C7.02992776,17.1701127 7.04046882,17.1595296 7.04813504,17.1489466 C7.05963438,17.1392455 7.07113372,17.1321901 7.08167478,17.1216071 C7.09317411,17.111024 7.10084034,17.1013229 7.11138139,17.0942675 C7.12288073,17.0836845 7.13438007,17.0731014 7.1458794,17.0634003 C7.15642046,17.0528172 7.16408669,17.0422342 7.17558602,17.0325331 C7.18708536,17.02195 7.19762642,17.011367 7.20912576,17.0007839 C7.21679198,16.9910828 7.22829132,16.9804998 7.23883238,16.966389 C7.25033171,16.9566879 7.26183105,16.9461049 7.26949727,16.9319941 C7.28003833,16.922293 7.29153767,16.9117099 7.303037,16.8975992 C7.31357806,16.8878981 7.3250774,16.8737874 7.33274362,16.8632043 C7.34424296,16.8499755 7.35478402,16.8393925 7.36628336,16.8252817 C7.37778269,16.8120529 7.38928203,16.8014699 7.39598997,16.7873591 C7.40748931,16.7741303 7.41898865,16.7600196 7.42952971,16.7494366 C7.44102904,16.7326801 7.44869527,16.7185693 7.4601946,16.7053405 C7.47073566,16.6912298 7.482235,16.6771191 7.49373434,16.6638902 C7.50140056,16.6497795 7.51194162,16.6356688 7.52344096,16.6189123 C7.53494029,16.6048016 7.54643963,16.5880451 7.55314757,16.5739343 C7.56464691,16.5571779 7.57614625,16.5430671 7.58764558,16.5254287 C7.59818664,16.5086722 7.60585287,16.4910338 7.6173522,16.477805 C7.62885154,16.4601666 7.6393926,16.4398824 7.65089194,16.422244 C7.66239127,16.4054875 7.66909922,16.3878491 7.68059856,16.3710926 C7.69209789,16.3499265 7.70359723,16.3296423 7.71413829,16.3120039 C7.72180451,16.2917197 7.73330385,16.2705537 7.74480318,16.2502695 C7.75534424,16.2291034 7.76684358,16.2052915 7.7745098,16.1850073 C7.78600914,16.1603136 7.7965502,16.1400294 7.80804954,16.1162175 C7.81954887,16.0915238 7.8272151,16.0677119 7.83775616,16.0403724 C7.84925549,16.0121509 7.86075483,15.9848114 7.87129589,15.9574718 C7.88279522,15.9301323 7.89046145,15.8983831 7.90196078,15.8675159 C7.91250184,15.833121 7.92400118,15.7987261 7.93550052,15.7643312 C7.94699985,15.7264086 7.9537078,15.6849584 7.96520714,15.6435081 C7.97670647,15.5958844 7.98820581,15.5438511 7.99874687,15.4953454 C8.0102462,15.4195002 8.02174554,15.344537 8.02941176,15.2651641 C8.03611971,15.1787359 8.03995282,15.08878 8.03995282,14.999706 L8.04761905,0 L3.19681557,0 C3.18531623,0 3.17765001,0.00352768251 3.16615067,0.00352768251 L3.13261094,0.00352768251 L3.10290432,0.00352768251 L3.06936459,0.00352768251 C3.06169836,0.00705536502 3.05019903,0.00705536502 3.03869969,0.00705536502 L3.00515996,0.00705536502 L2.97545334,0.0105830475 C2.963954,0.01411073 2.95724606,0.01411073 2.94574672,0.01411073 C2.93424738,0.01411073 2.92274805,0.0176384125 2.91220699,0.0176384125 L2.88154209,0.0211660951 C2.87100103,0.0211660951 2.8595017,0.0211660951 2.84800236,0.0238118569 C2.8374613,0.0238118569 2.82979508,0.0238118569 2.81829574,0.0273395394 C2.8067964,0.0273395394 2.79625534,0.030867222 2.78475601,0.030867222 C2.77325667,0.030867222 2.76559045,0.0343949045 2.75504939,0.0343949045 L2.72055138,0.0414502695 C2.71001032,0.0414502695 2.7023441,0.044977952 2.69084476,0.044977952 C2.67934542,0.0485056345 2.66880436,0.0485056345 2.66113814,0.052033317 C2.6496388,0.052033317 2.63813947,0.0555609995 2.62759841,0.0555609995 L2.59789179,0.0617344439 L2.56339378,0.0687898089 C2.55285272,0.0687898089 2.5451865,0.0723174914 2.53368716,0.0758451739 C2.52218782,0.0758451739 2.51164676,0.0793728564 2.50014743,0.082900539 C2.48864809,0.082900539 2.48098187,0.0864282215 2.47044081,0.089955904 L2.43977591,0.0961293484 C2.42540174,0.0996570309 2.41773552,0.103184713 2.40623618,0.103184713 C2.39569512,0.106712396 2.38419578,0.110240078 2.37652956,0.113767761 C2.36503022,0.113767761 2.35448916,0.117295443 2.34298983,0.120823126 C2.33149049,0.124350808 2.31999115,0.127878491 2.31328321,0.131406173 C2.30178387,0.131406173 2.29028453,0.134051935 2.27974348,0.137579618 L2.24907858,0.148162665 C2.23853752,0.151690348 2.22703818,0.15521803 2.21553885,0.158745713 L2.18583223,0.16932876 C2.17433289,0.171974522 2.16283355,0.175502205 2.1522925,0.179029887 C2.14079316,0.18255757 2.13312693,0.186085252 2.1216276,0.189612935 L2.08808787,0.200195982 L2.05838125,0.209897109 C2.04688191,0.213424792 2.03634085,0.220480157 2.02484152,0.224007839 C2.01334218,0.227535522 2.00567595,0.231063204 1.9951349,0.234590887 C1.98363556,0.238118569 1.97213622,0.244292014 1.96447,0.247819696 C1.95009583,0.251347379 1.9424296,0.254875061 1.93093027,0.261930426 C1.91943093,0.265458109 1.90888987,0.268985791 1.90122365,0.272513474 C1.88972431,0.279568839 1.87918325,0.282214601 1.86768392,0.289269966 L1.8379773,0.303380696 C1.82647796,0.306908378 1.81497862,0.313963743 1.80347929,0.316609505 C1.79293823,0.320137188 1.785272,0.327192553 1.77377267,0.330720235 C1.76227333,0.3377756 1.75173227,0.341303283 1.74023294,0.348358648 C1.7287336,0.35188633 1.72106737,0.358059775 1.71052632,0.361587457 C1.69902698,0.368642822 1.68752764,0.372170505 1.67986142,0.37922587 C1.66932036,0.382753552 1.65782102,0.389808917 1.64632169,0.392454679 C1.63578063,0.399510044 1.6281144,0.406565409 1.61661507,0.410093092 L1.58307534,0.426849584 C1.571576,0.433904949 1.56390977,0.440960314 1.55336872,0.444487996 L1.51982898,0.464772171 L1.48916409,0.482410583 L1.45562436,0.500048996 L1.42591774,0.52033317 C1.4144184,0.527388535 1.40291906,0.5344439 1.392378,0.540617344 L1.36171311,0.561783439 C1.35117205,0.568838805 1.33967271,0.575012249 1.33200649,0.582067614 C1.32146543,0.589122979 1.30996609,0.596178344 1.29846676,0.603233709 L1.26876014,0.627045566 L1.2352204,0.64732974 C1.22755418,0.657912788 1.21605484,0.664968153 1.20455551,0.672023518 C1.19401445,0.682606565 1.18251511,0.68878001 1.17484889,0.695835375 C1.16334955,0.706418422 1.15280849,0.713473787 1.14130916,0.720529152 L1.11160254,0.747868692 C1.1001032,0.754924057 1.08860386,0.764625184 1.0780628,0.771680549 C1.06656347,0.782263596 1.05506413,0.789318961 1.04739791,0.799020088 C1.03685685,0.809603136 1.02535751,0.816658501 1.01385817,0.827241548 C1.00235884,0.833414993 0.99181778,0.84399804 0.984151555,0.854581088 C0.972652219,0.865164135 0.961152882,0.87133758 0.950611824,0.881920627 C0.939112487,0.892503675 0.931446263,0.903086722 0.920905204,0.912787849 C0.909405868,0.923370897 0.897906531,0.933953944 0.886407194,0.943655071 C0.879699248,0.954238119 0.868199912,0.964821166 0.856700575,0.975404214 C0.845201238,0.985105341 0.83466018,0.995688388 0.826993955,1.00627144 C0.815494619,1.01597256 0.803995282,1.02655561 0.793454224,1.03713866 C0.781954887,1.05124939 0.770455551,1.06095051 0.762789326,1.07506124 C0.752248268,1.08564429 0.740748931,1.09534542 0.729249595,1.10945615 C0.718708536,1.1200392 0.711042312,1.13326801 0.699542975,1.14385105 C0.688043639,1.15796178 0.67750258,1.16766291 0.666003243,1.18177364 C0.658337019,1.19588437 0.646837682,1.2055855 0.636296624,1.21969623 C0.624797287,1.23380696 0.613297951,1.24703577 0.605631726,1.2611465 C0.595090668,1.27437531 0.583591331,1.28848604 0.572091995,1.30259677 C0.561550936,1.31582558 0.5500516,1.32993631 0.542385375,1.34404704 C0.530886039,1.36080353 0.52034498,1.37491426 0.508845644,1.38814307 C0.497346307,1.40578148 0.489680083,1.41901029 0.479139024,1.4366487 C0.467639687,1.45428711 0.456140351,1.46751592 0.444641014,1.48515434 C0.434099956,1.50191083 0.426433731,1.51954924 0.414934395,1.53277805 C0.403435058,1.55394415 0.392894,1.57070064 0.381394663,1.58833905 C0.373728439,1.60509554 0.36318738,1.62626164 0.351688044,1.64301813 C0.340188707,1.66418422 0.32868937,1.68094072 0.318148312,1.70210681 C0.310482088,1.72239098 0.298982751,1.74355708 0.287483414,1.76384125 C0.276942356,1.78500735 0.269276132,1.80881921 0.257776795,1.82910338 C0.246277458,1.85379716 0.2357364,1.87760902 0.224237063,1.90142087 C0.212737727,1.92611465 0.205071502,1.95345419 0.194530444,1.97726605 C0.183031107,2.00548751 0.171531771,2.03635473 0.160990712,2.06369427 C0.149491375,2.09456149 0.141825151,2.12542871 0.130325815,2.15629593 C0.119784756,2.19069084 0.108285419,2.22596766 0.0967860829,2.26389025 C0.0852867463,2.3044586 0.0785787999,2.34590887 0.0670794634,2.38735914 C0.0220403951,2.58755512 0,2.79039686 0,3.00029397 L0,6 L4.68981277,6 L4.7233525,6.11876531 L4.78755713,6.11876531 L4.81726375,6.12229299 L4.8805101,6.12229299 L4.911175,6.12493876 L4.94471473,6.12846644 L4.97442135,6.12846644 L5.00796108,6.13199412 L5.0376677,6.13199412 L5.07216571,6.1355218 L5.13157895,6.14257717 L5.16511868,6.14610485 L5.1948253,6.14963253 L5.2254902,6.14963253 L5.25902993,6.15316022 C5.26669615,6.1566879 5.27723721,6.1566879 5.28873655,6.15933366 L5.31844317,6.16286134 C5.3299425,6.16638902 5.34144184,6.16638902 5.35294118,6.16991671 C5.36348223,6.16991671 5.37114846,6.17344439 5.3826478,6.17697207 L5.41618753,6.18049976 C5.42768686,6.18402744 5.43439481,6.18755512 5.44589415,6.18755512 C5.45739348,6.1910828 5.46889282,6.19461049 5.47943388,6.19461049 L5.51009878,6.20078393 C5.52063983,6.20431161 5.53213917,6.20783929 5.54363851,6.20783929 C5.55417957,6.21136698 5.56184579,6.21489466 5.57334513,6.21842234 C5.58484446,6.22195002 5.59538552,6.22547771 5.60688486,6.22900539 C5.61455108,6.22900539 5.62605042,6.23253307 5.63659148,6.23517883 C5.64809082,6.23870652 5.65575704,6.2422342 5.66725638,6.24576188 C5.67779743,6.24928956 5.68929677,6.25281725 5.70079611,6.25634493 C5.71229544,6.25987261 5.71900339,6.26340029 5.73050273,6.26692798 L5.76404246,6.2766291 C5.7755418,6.28015679 5.78320802,6.28368447 5.79374908,6.28721215 C5.80524842,6.29426752 5.81674775,6.2977952 5.82824709,6.30132288 C5.83878815,6.30485056 5.84645437,6.30749633 5.85795371,6.31455169 C5.86945304,6.31807937 5.8799941,6.32160706 5.89149344,6.32513474 C5.90299278,6.3321901 5.910659,6.33571779 5.92120006,6.34277315 C5.9326994,6.34541891 5.94419873,6.34894659 5.95473979,6.35600196 C5.96240602,6.35952964 5.97390535,6.36658501 5.98540469,6.37011269 C5.99594575,6.37716805 6.00744508,6.37981382 6.01894442,6.38686918 C6.02661064,6.39039686 6.0371517,6.39745223 6.04865104,6.40450759 C6.06015038,6.40803528 6.07164971,6.41509064 6.07835766,6.42126409 C6.089857,6.42479177 6.10135633,6.43184713 6.11285567,6.4389025 C6.12339673,6.44595786 6.13106295,6.45301323 6.14256229,6.45918667 C6.15310335,6.46271436 6.16460268,6.46976972 6.17610202,6.47682509 C6.18760136,6.48740813 6.1943093,6.49358158 6.20580864,6.50063694 C6.21730798,6.50769231 6.22880731,6.51474767 6.23934837,6.52180304 C6.2470146,6.53150416 6.25851393,6.53855953 6.27001327,6.54561489 C6.28055433,6.55619794 6.29205366,6.56325331 6.29971989,6.57295443 C6.31121922,6.5800098 6.32176028,6.59059285 6.33325962,6.60029397 C6.34475896,6.60734934 6.35242518,6.61793239 6.36296624,6.62851543 C6.37446558,6.63821656 6.38596491,6.64879961 6.39650597,6.65938266 C6.40800531,6.6699657 6.41567153,6.67966683 6.42717087,6.69024988 C6.43771193,6.70083293 6.44921126,6.71053405 6.4607106,6.72464478 C6.47125166,6.73522783 6.47891788,6.74845664 6.49041722,6.76256737 C6.50191656,6.7766781 6.51245761,6.78990691 6.52395695,6.80401764 C6.53545629,6.81812837 6.54312251,6.83135718 6.55366357,6.84899559 C6.56516291,6.86575208 6.57666224,6.87986281 6.58432847,6.8966193 C6.59486953,6.91425772 6.60636886,6.93454189 6.6178682,6.95570799 C6.62936754,6.97599216 6.6399086,6.99715826 6.64757482,7.02097011 C6.66290727,7.04478197 6.67057349,7.07300343 6.68111455,7.10034297 C6.69261389,7.13121019 6.70411322,7.1656051 6.71082117,7.2 C6.72615362,7.25908868 6.73765296,7.31729544 6.74531918,7.3755022 C6.74915229,7.42400784 6.75202713,7.47251347 6.75202713,7.52013719 C6.75202713,7.56864282 6.74915229,7.61714846 6.74531918,7.66212641 C6.73765296,7.72033317 6.72615362,7.77589417 6.71082117,7.83410093 C6.70411322,7.86849584 6.69261389,7.90289074 6.68111455,7.93375796 C6.67057349,7.9610975 6.65907416,7.98931896 6.64757482,8.01313082 C6.6399086,8.03694268 6.62936754,8.05810877 6.6178682,8.08192063 C6.60636886,8.09955904 6.59486953,8.11984321 6.58432847,8.13748163 C6.57666224,8.15423812 6.56516291,8.17187653 6.55366357,8.18863302 C6.54312251,8.20627144 6.53545629,8.21950024 6.52395695,8.23361098 C6.51245761,8.25124939 6.50191656,8.2644782 6.49041722,8.27858893 C6.47891788,8.28917197 6.47125166,8.30240078 6.4607106,8.31651151 C6.44921126,8.32709456 6.43771193,8.34032337 6.42717087,8.35090642 C6.41567153,8.36413523 6.40800531,8.37471828 6.39650597,8.38530132 C6.38596491,8.39588437 6.37446558,8.4055855 6.36296624,8.41616854 L6.33325962,8.44703577 C6.32176028,8.45761881 6.31121922,8.46467418 6.29971989,8.47437531 C6.29205366,8.48495835 6.28055433,8.49201372 6.27001327,8.50259677 C6.25851393,8.50965213 6.2470146,8.51935326 6.23934837,8.52640862 C6.22880731,8.53346399 6.21730798,8.54404704 6.20580864,8.55022048 C6.1943093,8.55727585 6.18376824,8.56433121 6.17610202,8.57138658 C6.16460268,8.57844194 6.15310335,8.58461538 6.14256229,8.59167075 C6.13106295,8.59872611 6.12339673,8.60578148 6.11285567,8.61283684 C6.10135633,8.61989221 6.089857,8.62606565 6.07835766,8.63312102 C6.07164971,8.64017638 6.06015038,8.64370407 6.04865104,8.65075943 C6.0371517,8.6578148 6.02661064,8.66046056 6.01894442,8.66751592 C6.00744508,8.67457129 5.99594575,8.67809897 5.98540469,8.68515434 C5.97390535,8.68868202 5.96240602,8.69485546 5.95473979,8.69838315 C5.94419873,8.70543851 5.9326994,8.70896619 5.92120006,8.71602156 C5.910659,8.71954924 5.90299278,8.72307692 5.89149344,8.73013229 C5.8799941,8.73277805 5.86945304,8.73983341 5.85795371,8.7433611 C5.84645437,8.74688878 5.83878815,8.75041646 5.82824709,8.75747183 C5.81674775,8.76099951 5.80524842,8.76452719 5.79374908,8.76805488 C5.78320802,8.77422832 5.7755418,8.777756 5.76404246,8.78128368 C5.75254312,8.78481137 5.74200206,8.78833905 5.73050273,8.79186673 C5.71900339,8.79539441 5.71229544,8.7989221 5.70079611,8.80244978 C5.68929677,8.80509554 5.67779743,8.80862322 5.66725638,8.81215091 C5.65575704,8.81567859 5.64809082,8.81920627 5.63659148,8.82273395 C5.62605042,8.82626164 5.61455108,8.82978932 5.60688486,8.833317 C5.59538552,8.83684468 5.58484446,8.83684468 5.57334513,8.84037237 C5.56184579,8.84301813 5.55417957,8.84654581 5.54363851,8.84654581 C5.53213917,8.85007349 5.52063983,8.85360118 5.51009878,8.85712886 C5.49859944,8.85712886 5.49093322,8.86065654 5.47943388,8.86418422 C5.46889282,8.86418422 5.45739348,8.86771191 5.44589415,8.87123959 L5.41618753,8.87476727 C5.40468819,8.87829495 5.39414713,8.88094072 5.3826478,8.88094072 L5.35294118,8.88799608 C5.34144184,8.89152376 5.3299425,8.89152376 5.31844317,8.89152376 L5.28873655,8.89857913 L5.25902993,8.90210681 L5.28873655,8.93650171 L5.31844317,8.9400294 L5.35294118,8.94355708 L5.3826478,8.94708476 L5.41618753,8.95061244 L5.44589415,8.95325821 L5.47943388,8.95678589 C5.49093322,8.95678589 5.49859944,8.95678589 5.51009878,8.96031357 L5.54363851,8.96384125 C5.55417957,8.96736894 5.56184579,8.96736894 5.57334513,8.97089662 L5.60688486,8.9744243 L5.63659148,8.98147967 C5.64809082,8.98147967 5.65575704,8.98500735 5.66725638,8.98500735 C5.67779743,8.98853503 5.68929677,8.98853503 5.70079611,8.99118079 C5.71229544,8.99470848 5.71900339,8.99470848 5.73050273,8.99823616 C5.74200206,9.00176384 5.75254312,9.00176384 5.76404246,9.00529152 C5.7755418,9.00881921 5.78320802,9.01234689 5.79374908,9.01234689 C5.80524842,9.01587457 5.81674775,9.01940225 5.82824709,9.01940225 C5.83878815,9.02292994 5.84645437,9.0255757 5.85795371,9.02910338 L5.89149344,9.03615875 C5.89915966,9.03968643 5.910659,9.04321411 5.92120006,9.04674179 C5.9326994,9.05026948 5.94419873,9.05379716 5.95473979,9.05732484 C5.96240602,9.06085252 5.97390535,9.06085252 5.98540469,9.06702597 C5.99594575,9.06702597 6.00744508,9.07408133 6.01894442,9.07408133 C6.02661064,9.07760902 6.0371517,9.0811367 6.04865104,9.08466438 C6.06015038,9.09171975 6.0678166,9.09524743 6.07835766,9.09877511 C6.089857,9.10142087 6.10135633,9.10494855 6.11285567,9.10847624 C6.12339673,9.11200392 6.13106295,9.11905928 6.14256229,9.12258697 C6.15310335,9.12611465 6.16460268,9.12964233 6.17610202,9.13317001 C6.18760136,9.13934346 6.1943093,9.14287114 6.20580864,9.14639882 C6.21730798,9.15345419 6.22880731,9.15698187 6.23934837,9.16050955 C6.2470146,9.16756492 6.25851393,9.1710926 6.27001327,9.17726605 C6.28055433,9.18079373 6.28822055,9.18784909 6.29971989,9.19137678 C6.31121922,9.19490446 6.32176028,9.20195982 6.33325962,9.20548751 C6.34475896,9.21166095 6.35242518,9.21871632 6.36296624,9.222244 C6.37446558,9.22929936 6.38596491,9.23282705 6.39650597,9.23988241 C6.40800531,9.24605585 6.41567153,9.25311122 6.42717087,9.2566389 C6.43771193,9.26369427 6.44921126,9.27074963 6.4607106,9.277805 C6.47125166,9.28133268 6.47891788,9.28750612 6.49041722,9.29456149 C6.50191656,9.30161685 6.51245761,9.30867222 6.52395695,9.31572758 C6.53545629,9.32190103 6.54312251,9.32895639 6.55366357,9.33601176 C6.56516291,9.34306712 6.57666224,9.35365017 6.58432847,9.35982362 C6.59486953,9.36687898 6.60636886,9.37393435 6.6178682,9.38451739 C6.62936754,9.39157276 6.6399086,9.3977462 6.64757482,9.40832925 C6.65907416,9.41538462 6.67057349,9.42596766 6.68111455,9.43214111 C6.69261389,9.44272415 6.70028011,9.4533072 6.71082117,9.46036257 C6.72232051,9.47006369 6.73381984,9.48064674 6.74531918,9.49122979 C6.75586024,9.50181284 6.76735958,9.51151396 6.7750258,9.52209701 C6.78652514,9.53268006 6.79706619,9.54238119 6.80856553,9.55296423 C6.82006487,9.56707496 6.82773109,9.57677609 6.83827215,9.58735914 C6.84977149,9.60146987 6.86127082,9.61469868 6.87181188,9.62880941 C6.88331122,9.63939245 6.89097744,9.65262126 6.90247678,9.66673199 C6.91301784,9.68437041 6.92451718,9.69759922 6.9321834,9.71170995 C6.94751585,9.72846644 6.95422379,9.74610485 6.96572313,9.76021558 C6.97722247,9.78049976 6.9887218,9.79725625 6.99542975,9.81842234 C7.00692909,9.83870652 7.01842842,9.85987261 7.02992776,9.88015679 C7.04046882,9.90485056 7.05196816,9.92866242 7.05963438,9.95600196 C7.07113372,9.98686918 7.08167478,10.0177364 7.09317411,10.0494855 C7.10467345,10.0971093 7.11521451,10.1456149 7.12288073,10.1976482 C7.13438007,10.255855 7.13821318,10.3211171 7.13821318,10.3837335 C7.13821318,10.4525233 7.13438007,10.5142577 7.12288073,10.5759922 C7.11521451,10.6280255 7.10467345,10.6791769 7.09317411,10.7276825 C7.08167478,10.7620774 7.07113372,10.7929446 7.05963438,10.8273395 C7.05196816,10.8520333 7.04046882,10.8793729 7.02992776,10.9031847 C7.01842842,10.9278785 7.0107622,10.9481627 6.99542975,10.9693288 C6.9887218,10.9896129 6.97722247,11.0098971 6.96572313,11.0275355 C6.95422379,11.0451739 6.94751585,11.0619304 6.9321834,11.0795688 C6.92451718,11.0927976 6.91301784,11.1104361 6.90247678,11.1236649 C6.89097744,11.1377756 6.88331122,11.155414 6.87181188,11.1686428 C6.86127082,11.1792259 6.84977149,11.1933366 6.83827215,11.2065654 C6.82773109,11.2206761 6.82006487,11.2303773 6.80856553,11.244488 C6.79706619,11.255071 6.78652514,11.2656541 6.7750258,11.2788829 C6.76352646,11.2894659 6.75586024,11.300049 6.74531918,11.3097501 C6.73381984,11.3203332 6.72232051,11.3273885 6.71082117,11.3406173 C6.70028011,11.3476727 6.69261389,11.3582558 6.68111455,11.3688388 C6.67057349,11.3758942 6.65907416,11.3855953 6.64757482,11.3961783 C6.6399086,11.4032337 6.62936754,11.4102891 6.6178682,11.4199902 C6.60636886,11.4270456 6.59486953,11.4376286 6.58432847,11.444684 C6.57666224,11.4508574 6.56516291,11.4614405 6.55366357,11.4684958 C6.54312251,11.4755512 6.53545629,11.4826066 6.52395695,11.48878 C6.51245761,11.4958354 6.50191656,11.5028907 6.49041722,11.5099461 C6.47891788,11.5170015 6.47125166,11.5240568 6.4607106,11.5302303 C6.44921126,11.5372856 6.43771193,11.544341 6.42717087,11.5513964 C6.41567153,11.5549241 6.40800531,11.5610975 6.39650597,11.5681529 C6.38596491,11.5752082 6.37446558,11.5787359 6.36296624,11.5857913 C6.35242518,11.589319 6.34475896,11.5963743 6.33325962,11.6025478 C6.32176028,11.6060755 6.31121922,11.6131308 6.29971989,11.6166585 C6.28822055,11.6237139 6.28055433,11.6307692 6.27001327,11.6342969 C6.25851393,11.6369427 6.2470146,11.643998 6.23934837,11.6475257 C6.22880731,11.6545811 6.21730798,11.6581088 6.20580864,11.6616365 C6.1943093,11.6686918 6.18376824,11.6713376 6.17610202,11.6748653 C6.16460268,11.6819206 6.15310335,11.6854483 6.14256229,11.688976 C6.13106295,11.6960314 6.12339673,11.699559 6.11285567,11.7030867 C6.10135633,11.7066144 6.089857,11.7092602 6.07835766,11.7127878 C6.0678166,11.7198432 6.06015038,11.7233709 6.04865104,11.7268986 C6.0371517,11.7304263 6.02661064,11.7339539 6.01894442,11.7374816 L5.98540469,11.7471828 C5.97390535,11.7507104 5.96240602,11.7542381 5.95473979,11.7577658 C5.94419873,11.7612935 5.9326994,11.7648212 5.92120006,11.7683488 L5.89149344,11.7754042 C5.8799941,11.7789319 5.86945304,11.7815777 5.85795371,11.7851053 C5.84645437,11.7851053 5.83878815,11.788633 5.82824709,11.7921607 C5.81674775,11.7956884 5.80524842,11.7992161 5.79374908,11.7992161 C5.78320802,11.8027438 5.7755418,11.8062714 5.76404246,11.8062714 C5.75254312,11.8097991 5.74200206,11.8133268 5.73050273,11.8168545 C5.71900339,11.8168545 5.71229544,11.8195002 5.70079611,11.8195002 C5.67396432,11.8300833 5.66342326,11.833611 5.65192393,11.833611 C5.64042459,11.8371387 5.63371664,11.8371387 5.62221731,11.8406663 L5.58867758,11.844194 L5.55801268,11.8477217 C5.54747162,11.8512494 5.53597228,11.8512494 5.52447295,11.8547771 C5.51297361,11.8547771 5.50626566,11.8547771 5.49476633,11.8574228 C5.48326699,11.8574228 5.47272593,11.8609505 5.4612266,11.8609505 L5.43151998,11.8644782 C5.42002064,11.8644782 5.4085213,11.8680059 5.39702197,11.8680059 C5.39031402,11.8680059 5.37881468,11.8680059 5.36731535,11.8715336 L5.33377562,11.8715336 L5.304069,11.8750612 L5.2734041,11.8750612 L5.23986437,11.8785889 L5.21015775,11.8785889 C5.19865841,11.8785889 5.18811735,11.8821166 5.17661802,11.8821166 C5.16511868,11.8821166 5.15745245,11.8821166 5.1469114,12 L0,12 L0,18 L4.7798909,18 L4.80959752,17.9964723 L4.90350877,17.9964723 Z" id="Fill-2" fill="#3FBC11"></path>
                    <path d="M3.05239521,8 L3.09169162,8 C3.10516467,8 3.11751497,7.997586 3.12649701,7.997586 C3.13997006,7.997586 3.15344311,7.997586 3.16579341,7.995172 L3.20172156,7.995172 C3.21407186,7.992758 3.22305389,7.992758 3.23203593,7.992758 L3.24101796,7.990344 C3.25,7.990344 3.2623503,7.98792999 3.27582335,7.98792999 C3.28929641,7.98551599 3.30164671,7.98551599 3.31062874,7.98310199 L3.34992515,7.97646349 C3.3633982,7.97404949 3.37687126,7.97163549 3.38585329,7.97163549 C3.39820359,7.96922148 3.41167665,7.96439348 3.4251497,7.96197948 C3.43862275,7.95956548 3.45097305,7.95715148 3.45995509,7.95473748 C3.47342814,7.95232348 3.4869012,7.94809897 3.4992515,7.94568497 C3.51272455,7.94085697 3.52170659,7.93844297 3.53405689,7.93361497 C3.54752994,7.93120097 3.56100299,7.92637296 3.57447605,7.92214846 C3.58233533,7.91973446 3.59580838,7.91490646 3.60928144,7.91007846 C3.62275449,7.90525045 3.63510479,7.90102595 3.64408683,7.89619795 C3.65755988,7.89136995 3.67103293,7.88654194 3.68338323,7.87929994 C3.69685629,7.87507544 3.71032934,7.86783343 3.71931138,7.86300543 C3.73166168,7.85576343 3.74513473,7.84912492 3.75860778,7.84188292 C3.77095808,7.83464092 3.78443114,7.82739891 3.79341317,7.82076041 C3.80688623,7.81110441 3.81923653,7.8038624 3.83270958,7.7948099 C3.84618263,7.78515389 3.85516467,7.77549789 3.86751497,7.76403138 C3.88098802,7.75196138 3.89446108,7.74049487 3.90681138,7.72842486 C3.92028443,7.71454436 3.93375749,7.69824985 3.94273952,7.68376584 C3.95508982,7.66264333 3.96856287,7.63910682 3.97754491,7.61557031 C3.99550898,7.57996379 4,7.54013277 4,7.49969825 C4,7.45986723 3.99550898,7.42245021 3.97754491,7.38442969 C3.96856287,7.36330718 3.95508982,7.33977067 3.94273952,7.31864816 C3.92926647,7.30175015 3.92028443,7.28786964 3.90681138,7.27157514 C3.89446108,7.25950513 3.88098802,7.24743512 3.86751497,7.23596862 C3.85516467,7.22631261 3.84618263,7.21726011 3.83270958,7.2076041 C3.81923653,7.1979481 3.80688623,7.18889559 3.79341317,7.18165359 C3.78443114,7.17199759 3.77095808,7.16535908 3.75860778,7.15811708 C3.74513473,7.15087508 3.73166168,7.14665057 3.71931138,7.13940857 C3.71032934,7.13216657 3.69685629,7.12733856 3.68338323,7.12070006 C3.67103293,7.11587206 3.65755988,7.11104406 3.64408683,7.10621605 C3.63510479,7.10138805 3.62275449,7.09474955 3.60928144,7.08992154 C3.59580838,7.08509354 3.58233533,7.08267954 3.57447605,7.07785154 C3.56100299,7.07302354 3.54752994,7.07121304 3.53405689,7.06638503 C3.52170659,7.06397103 3.51272455,7.05914303 3.4992515,7.05672903 C3.4869012,7.05190103 3.47342814,7.04948702 3.45995509,7.04707302 C3.45097305,7.04284852 3.43862275,7.04043452 3.4251497,7.03802052 C3.41167665,7.03560652 3.39820359,7.03319252 3.38585329,7.03077852 C3.37687126,7.02836451 3.3633982,7.02595051 3.34992515,7.02353651 C3.33757485,7.02112251 3.3241018,7.01931201 3.31062874,7.01931201 C3.30164671,7.01689801 3.28929641,7.01448401 3.27582335,7.01448401 C3.2623503,7.01207001 3.25,7.009656 3.24101796,7.009656 L3.23203593,7.007242 L3.20172156,7.007242 C3.19273952,7.004828 3.17926647,7.004828 3.16579341,7.004828 C3.15344311,7.002414 3.13997006,7.002414 3.12649701,7.002414 C3.11751497,7.002414 3.10516467,7.002414 3.09169162,7 L3.05239521,7 L1,7 L1,8 L3.01758982,8 L3.05239521,8" id="Fill-3" fill="#3FBB11"></path>
                    <path d="M3.05239521,11 L3.09169162,11 C3.10516467,11 3.11751497,10.997586 3.12649701,10.997586 C3.13997006,10.997586 3.15344311,10.997586 3.16579341,10.995172 L3.20172156,10.995172 C3.21407186,10.992758 3.22305389,10.992758 3.23203593,10.992758 L3.24101796,10.990344 C3.25,10.990344 3.2623503,10.98793 3.27582335,10.98793 C3.28929641,10.985516 3.30164671,10.985516 3.31062874,10.983102 L3.34992515,10.9764635 C3.3633982,10.9740495 3.37687126,10.9716355 3.38585329,10.9716355 C3.39820359,10.9692215 3.41167665,10.9643935 3.4251497,10.9619795 C3.43862275,10.9595655 3.45097305,10.9571515 3.45995509,10.9547375 C3.47342814,10.9523235 3.4869012,10.948099 3.4992515,10.945685 C3.51272455,10.940857 3.52170659,10.938443 3.53405689,10.933615 C3.54752994,10.931201 3.56100299,10.926373 3.57447605,10.9221485 C3.58233533,10.9197345 3.59580838,10.9149065 3.60928144,10.9100785 C3.62275449,10.9052505 3.63510479,10.901026 3.64408683,10.8961979 C3.65755988,10.8913699 3.67103293,10.8865419 3.68338323,10.8792999 C3.69685629,10.8750754 3.71032934,10.8678334 3.71931138,10.8630054 C3.73166168,10.8557634 3.74513473,10.8491249 3.75860778,10.8418829 C3.77095808,10.8346409 3.78443114,10.8273989 3.79341317,10.8207604 C3.80688623,10.8111044 3.81923653,10.8038624 3.83270958,10.7948099 C3.84618263,10.7851539 3.85516467,10.7754979 3.86751497,10.7640314 C3.88098802,10.7519614 3.89446108,10.7404949 3.90681138,10.7284249 C3.92028443,10.7145444 3.93375749,10.6982498 3.94273952,10.6837658 C3.95508982,10.6626433 3.96856287,10.6391068 3.97754491,10.6155703 C3.99550898,10.5799638 4,10.5401328 4,10.4996982 C4,10.4598672 3.99550898,10.4224502 3.97754491,10.3844297 C3.96856287,10.3633072 3.95508982,10.3397707 3.94273952,10.3186482 C3.92926647,10.3017502 3.92028443,10.2878696 3.90681138,10.2715751 C3.89446108,10.2595051 3.88098802,10.2474351 3.86751497,10.2359686 C3.85516467,10.2263126 3.84618263,10.2172601 3.83270958,10.2076041 C3.81923653,10.1979481 3.80688623,10.1888956 3.79341317,10.1816536 C3.78443114,10.1719976 3.77095808,10.1653591 3.75860778,10.1581171 C3.74513473,10.1508751 3.73166168,10.1466506 3.71931138,10.1394086 C3.71032934,10.1321666 3.69685629,10.1273386 3.68338323,10.1207001 C3.67103293,10.1158721 3.65755988,10.1110441 3.64408683,10.1062161 C3.63510479,10.1013881 3.62275449,10.0947495 3.60928144,10.0899215 C3.59580838,10.0850935 3.58233533,10.0826795 3.57447605,10.0778515 C3.56100299,10.0730235 3.54752994,10.071213 3.53405689,10.066385 C3.52170659,10.063971 3.51272455,10.059143 3.4992515,10.056729 C3.4869012,10.051901 3.47342814,10.049487 3.45995509,10.047073 C3.45097305,10.0428485 3.43862275,10.0404345 3.4251497,10.0380205 C3.41167665,10.0356065 3.39820359,10.0331925 3.38585329,10.0307785 C3.37687126,10.0283645 3.3633982,10.0259505 3.34992515,10.0235365 C3.33757485,10.0211225 3.3241018,10.019312 3.31062874,10.019312 C3.30164671,10.016898 3.28929641,10.014484 3.27582335,10.014484 C3.2623503,10.01207 3.25,10.009656 3.24101796,10.009656 L3.23203593,10.007242 L3.20172156,10.007242 C3.19273952,10.004828 3.17926647,10.004828 3.16579341,10.004828 C3.15344311,10.002414 3.13997006,10.002414 3.12649701,10.002414 C3.11751497,10.002414 3.10516467,10.002414 3.09169162,10 L3.05239521,10 L1,10 L1,11 L3.01758982,11 L3.05239521,11" id="Fill-3-Copy" fill="#3FBB11"></path>
                </g>
            </g>
        </g>
    </g>
</svg>