<?xml version="1.0" encoding="UTF-8" standalone="no"?>
<svg width="70px" height="44px" viewBox="0 0 70 44" version="1.1" xmlns="http://www.w3.org/2000/svg" xmlns:xlink="http://www.w3.org/1999/xlink" xmlns:sketch="http://www.bohemiancoding.com/sketch/ns">
    <!-- Generator: Sketch 3.4.1 (15681) - http://www.bohemiancoding.com/sketch -->
    <title>Untitled</title>
    <desc>Created with Sketch.</desc>
    <defs></defs>
    <g id="Page-1" stroke="none" stroke-width="1" fill="none" fill-rule="evenodd" sketch:type="MSPage">
        <g id="UI/Payment/Mastercard/Big" sketch:type="MSLayerGroup" transform="translate(1.000000, 1.000000)">
            <rect id="Mask-Copy-3" stroke="#D2D3DE" fill="#FFFFFF" sketch:type="MSShapeGroup" x="0" y="0" width="68" height="42" rx="3"></rect>
            <path d="M43,36 C51.2842712,36 58,29.2842712 58,21 C58,12.7157288 51.2842712,6 43,6 C34.7157288,6 28,12.7157288 28,21 C28,29.2842712 34.7157288,36 43,36 Z" id="Oval-1-Copy-5" fill="#FFBF10" sketch:type="MSShapeGroup"></path>
            <circle id="Oval-1-Copy-3" fill="#D41A1A" sketch:type="MSShapeGroup" cx="25" cy="21" r="15"></circle>
            <rect id="Rectangle-8" fill="#FFBF10" sketch:type="MSShapeGroup" x="32" y="12" width="8" height="2" rx="2"></rect>
            <rect id="Rectangle-8-Copy-4" fill="#FFBF10" sketch:type="MSShapeGroup" x="32" y="28" width="8" height="2" rx="2"></rect>
            <rect id="Rectangle-8-Copy" fill="#FFBF10" sketch:type="MSShapeGroup" x="30" y="16" width="12" height="2" rx="2"></rect>
            <rect id="Rectangle-8-Copy-3" fill="#FFBF10" sketch:type="MSShapeGroup" x="30" y="24" width="12" height="2" rx="2"></rect>
            <rect id="Rectangle-8-Copy-2" fill="#FFBF10" sketch:type="MSShapeGroup" x="28.4000244" y="20" width="13" height="2" rx="2"></rect>
            <rect id="Rectangle-12" fill="#FFFFFF" sketch:type="MSShapeGroup" x="16" y="19" width="36" height="4" rx="2"></rect>
        </g>
    </g>
</svg>