<?xml version="1.0" encoding="UTF-8" standalone="no"?>
<svg width="45px" height="30px" viewBox="0 0 45 30" version="1.1" xmlns="http://www.w3.org/2000/svg" xmlns:xlink="http://www.w3.org/1999/xlink" xmlns:sketch="http://www.bohemiancoding.com/sketch/ns">
    <!-- Generator: Sketch 3.4.1 (15681) - http://www.bohemiancoding.com/sketch -->
    <title>Untitled</title>
    <desc>Created with Sketch.</desc>
    <defs>
        <linearGradient x1="2.14084935%" y1="6.58001078%" x2="96.562566%" y2="93.5109106%" id="linearGradient-1">
            <stop stop-color="#505A64" offset="0%"></stop>
            <stop stop-color="#1B1C1D" offset="100%"></stop>
        </linearGradient>
        <linearGradient x1="5.07668888%" y1="6.59179688%" x2="96.9094669%" y2="92.6432292%" id="linearGradient-2">
            <stop stop-color="#505A63" offset="0%"></stop>
            <stop stop-color="#1B1C1D" offset="100%"></stop>
        </linearGradient>
        <linearGradient x1="78.8725142%" y1="10.1740057%" x2="19.1796875%" y2="85.9943182%" id="linearGradient-3">
            <stop stop-color="#6E94A1" offset="0%"></stop>
            <stop stop-color="#538794" offset="52.598852%"></stop>
            <stop stop-color="#315271" offset="100%"></stop>
        </linearGradient>
        <linearGradient x1="84.2329545%" y1="8.06285511%" x2="16.7027699%" y2="92.4254261%" id="linearGradient-4">
            <stop stop-color="#DED3ED" offset="0%"></stop>
            <stop stop-color="#CFF5FA" offset="41.0495057%"></stop>
            <stop stop-color="#E8F4F7" offset="100%"></stop>
        </linearGradient>
        <filter x="-50%" y="-50%" width="200%" height="200%" filterUnits="objectBoundingBox" id="filter-5">
            <feOffset dx="0" dy="0" in="SourceAlpha" result="shadowOffsetInner1"></feOffset>
            <feGaussianBlur stdDeviation="0" in="shadowOffsetInner1" result="shadowBlurInner1"></feGaussianBlur>
            <feComposite in="shadowBlurInner1" in2="SourceAlpha" operator="arithmetic" k2="-1" k3="1" result="shadowInnerInner1"></feComposite>
            <feColorMatrix values="0 0 0 0 0.552941176   0 0 0 0 0.596078431   0 0 0 0 0.654901961  0 0 0 0.7 0" in="shadowInnerInner1" type="matrix" result="shadowMatrixInner1"></feColorMatrix>
            <feMerge>
                <feMergeNode in="SourceGraphic"></feMergeNode>
                <feMergeNode in="shadowMatrixInner1"></feMergeNode>
            </feMerge>
        </filter>
        <circle id="path-6" cx="8.04761905" cy="8.04761905" r="8.04761905"></circle>
        <circle id="path-8" cx="8.04761905" cy="8.04761905" r="8.04761905"></circle>
        <linearGradient x1="89.6421301%" y1="45.9856093%" x2="5.21393992%" y2="54.9440086%" id="linearGradient-10">
            <stop stop-color="#CBC5D7" offset="0%"></stop>
            <stop stop-color="#D7B2C9" offset="17.8172832%"></stop>
            <stop stop-color="#E5F1C6" offset="34.3451052%"></stop>
            <stop stop-color="#BFF0C6" offset="50.9885204%"></stop>
            <stop stop-color="#A5D5EF" offset="68.9951371%"></stop>
            <stop stop-color="#DEC0F1" offset="85.5050223%"></stop>
            <stop stop-color="#A1AFD3" offset="100%"></stop>
        </linearGradient>
        <path d="M4.82857143,6.86974026 C4.82857143,6.74852452 4.93545387,6.65025974 5.04064967,6.65025974 L7.10393908,6.65025974 C7.22106665,6.65025974 7.31601732,6.75206955 7.31601732,6.86974026 C7.31601732,6.990956 7.20913488,7.08922078 7.10393908,7.08922078 L5.04064967,7.08922078 C4.92352209,7.08922078 4.82857143,6.98741097 4.82857143,6.86974026 Z M1.68268398,6.86974026 C1.68268398,6.74852452 1.78956642,6.65025974 1.89476222,6.65025974 L3.95805163,6.65025974 C4.07517921,6.65025974 4.17012987,6.75206955 4.17012987,6.86974026 C4.17012987,6.990956 4.06324743,7.08922078 3.95805163,7.08922078 L1.89476222,7.08922078 C1.77763464,7.08922078 1.68268398,6.98741097 1.68268398,6.86974026 Z M8.04761905,6.86974026 C8.04761905,6.74852452 8.15450149,6.65025974 8.25969728,6.65025974 L10.3229867,6.65025974 C10.4401143,6.65025974 10.5350649,6.75206955 10.5350649,6.86974026 C10.5350649,6.990956 10.4281825,7.08922078 10.3229867,7.08922078 L8.25969728,7.08922078 C8.14256971,7.08922078 8.04761905,6.98741097 8.04761905,6.86974026 Z M11.2666667,6.86974026 C11.2666667,6.74852452 11.3735491,6.65025974 11.4787449,6.65025974 L13.5420343,6.65025974 C13.6591619,6.65025974 13.7541126,6.75206955 13.7541126,6.86974026 C13.7541126,6.990956 13.6472301,7.08922078 13.5420343,7.08922078 L11.4787449,7.08922078 C11.3616173,7.08922078 11.2666667,6.98741097 11.2666667,6.86974026 Z M14.4125541,6.86974026 C14.4125541,6.74852452 14.5194366,6.65025974 14.6246323,6.65025974 L16.6879218,6.65025974 C16.8050493,6.65025974 16.9,6.75206955 16.9,6.86974026 C16.9,6.990956 16.7931176,7.08922078 16.6879218,7.08922078 L14.6246323,7.08922078 C14.5075048,7.08922078 14.4125541,6.98741097 14.4125541,6.86974026 Z M6.43809524,2.91909091 C6.43809524,2.79787517 6.54497768,2.69961039 6.65017348,2.69961039 L8.71346289,2.69961039 C8.83059046,2.69961039 8.92554113,2.8014202 8.92554113,2.91909091 C8.92554113,3.04030665 8.81865869,3.13857143 8.71346289,3.13857143 L6.65017348,3.13857143 C6.5330459,3.13857143 6.43809524,3.03676162 6.43809524,2.91909091 Z M3.29220779,2.91909091 C3.29220779,2.79787517 3.39909023,2.69961039 3.50428603,2.69961039 L5.56757544,2.69961039 C5.68470302,2.69961039 5.77965368,2.8014202 5.77965368,2.91909091 C5.77965368,3.04030665 5.67277124,3.13857143 5.56757544,3.13857143 L3.50428603,3.13857143 C3.38715845,3.13857143 3.29220779,3.03676162 3.29220779,2.91909091 Z M9.65714286,2.91909091 C9.65714286,2.79787517 9.7640253,2.69961039 9.86922109,2.69961039 L11.9325105,2.69961039 C12.0496381,2.69961039 12.1445887,2.8014202 12.1445887,2.91909091 C12.1445887,3.04030665 12.0377063,3.13857143 11.9325105,3.13857143 L9.86922109,3.13857143 C9.75209352,3.13857143 9.65714286,3.03676162 9.65714286,2.91909091 Z M12.8761905,2.91909091 C12.8761905,2.79787517 12.9830729,2.69961039 13.0882687,2.69961039 L15.1515581,2.69961039 C15.2686857,2.69961039 15.3636364,2.8014202 15.3636364,2.91909091 C15.3636364,3.04030665 15.2567539,3.13857143 15.1515581,3.13857143 L13.0882687,3.13857143 C12.9711411,3.13857143 12.8761905,3.03676162 12.8761905,2.91909091 Z M16.0220779,2.91909091 C16.0220779,2.79787517 16.1289604,2.69961039 16.2341562,2.69961039 L18.2974456,2.69961039 C18.4145731,2.69961039 18.5095238,2.8014202 18.5095238,2.91909091 C18.5095238,3.04030665 18.4026414,3.13857143 18.2974456,3.13857143 L16.2341562,3.13857143 C16.1170286,3.13857143 16.0220779,3.03676162 16.0220779,2.91909091 Z M4.68225108,4.23597403 C4.68225108,4.11475828 4.78913352,4.01649351 4.89432932,4.01649351 L6.95761873,4.01649351 C7.07474631,4.01649351 7.16969697,4.11830332 7.16969697,4.23597403 C7.16969697,4.35718977 7.06281453,4.45545455 6.95761873,4.45545455 L4.89432932,4.45545455 C4.77720174,4.45545455 4.68225108,4.35364473 4.68225108,4.23597403 Z M1.46320346,4.23597403 C1.46320346,4.11475828 1.5700859,4.01649351 1.6752817,4.01649351 L3.73857111,4.01649351 C3.85569869,4.01649351 3.95064935,4.11830332 3.95064935,4.23597403 C3.95064935,4.35718977 3.84376691,4.45545455 3.73857111,4.45545455 L1.6752817,4.45545455 C1.55815412,4.45545455 1.46320346,4.35364473 1.46320346,4.23597403 Z M7.82813853,4.23597403 C7.82813853,4.11475828 7.93502097,4.01649351 8.04021677,4.01649351 L10.1035062,4.01649351 C10.2206338,4.01649351 10.3155844,4.11830332 10.3155844,4.23597403 C10.3155844,4.35718977 10.208702,4.45545455 10.1035062,4.45545455 L8.04021677,4.45545455 C7.92308919,4.45545455 7.82813853,4.35364473 7.82813853,4.23597403 Z M11.0471861,4.23597403 C11.0471861,4.11475828 11.1540686,4.01649351 11.2592644,4.01649351 L13.3225538,4.01649351 C13.4396814,4.01649351 13.534632,4.11830332 13.534632,4.23597403 C13.534632,4.35718977 13.4277496,4.45545455 13.3225538,4.45545455 L11.2592644,4.45545455 C11.1421368,4.45545455 11.0471861,4.35364473 11.0471861,4.23597403 Z M14.1930736,4.23597403 C14.1930736,4.11475828 14.299956,4.01649351 14.4051518,4.01649351 L16.4684412,4.01649351 C16.5855688,4.01649351 16.6805195,4.11830332 16.6805195,4.23597403 C16.6805195,4.35718977 16.573637,4.45545455 16.4684412,4.45545455 L14.4051518,4.45545455 C14.2880243,4.45545455 14.1930736,4.35364473 14.1930736,4.23597403 Z M6.43809524,0.285324675 C6.43809524,0.164108932 6.54497768,0.0658441558 6.65017348,0.0658441558 L8.71346289,0.0658441558 C8.83059046,0.0658441558 8.92554113,0.167653967 8.92554113,0.285324675 C8.92554113,0.406540419 8.81865869,0.504805195 8.71346289,0.504805195 L6.65017348,0.504805195 C6.5330459,0.504805195 6.43809524,0.402995384 6.43809524,0.285324675 Z M3.29220779,0.285324675 C3.29220779,0.164108932 3.39909023,0.0658441558 3.50428603,0.0658441558 L5.56757544,0.0658441558 C5.68470302,0.0658441558 5.77965368,0.167653967 5.77965368,0.285324675 C5.77965368,0.406540419 5.67277124,0.504805195 5.56757544,0.504805195 L3.50428603,0.504805195 C3.38715845,0.504805195 3.29220779,0.402995384 3.29220779,0.285324675 Z M9.65714286,0.285324675 C9.65714286,0.164108932 9.7640253,0.0658441558 9.86922109,0.0658441558 L11.9325105,0.0658441558 C12.0496381,0.0658441558 12.1445887,0.167653967 12.1445887,0.285324675 C12.1445887,0.406540419 12.0377063,0.504805195 11.9325105,0.504805195 L9.86922109,0.504805195 C9.75209352,0.504805195 9.65714286,0.402995384 9.65714286,0.285324675 Z M12.8761905,0.285324675 C12.8761905,0.164108932 12.9830729,0.0658441558 13.0882687,0.0658441558 L15.1515581,0.0658441558 C15.2686857,0.0658441558 15.3636364,0.167653967 15.3636364,0.285324675 C15.3636364,0.406540419 15.2567539,0.504805195 15.1515581,0.504805195 L13.0882687,0.504805195 C12.9711411,0.504805195 12.8761905,0.402995384 12.8761905,0.285324675 Z M16.0220779,0.285324675 C16.0220779,0.164108932 16.1289604,0.0658441558 16.2341562,0.0658441558 L18.2974456,0.0658441558 C18.4145731,0.0658441558 18.5095238,0.167653967 18.5095238,0.285324675 C18.5095238,0.406540419 18.4026414,0.504805195 18.2974456,0.504805195 L16.2341562,0.504805195 C16.1170286,0.504805195 16.0220779,0.402995384 16.0220779,0.285324675 Z M4.68225108,1.60220779 C4.68225108,1.48099205 4.78913352,1.38272727 4.89432932,1.38272727 L6.95761873,1.38272727 C7.07474631,1.38272727 7.16969697,1.48453708 7.16969697,1.60220779 C7.16969697,1.72342354 7.06281453,1.82168831 6.95761873,1.82168831 L4.89432932,1.82168831 C4.77720174,1.82168831 4.68225108,1.7198785 4.68225108,1.60220779 Z M1.46320346,1.60220779 C1.46320346,1.48099205 1.5700859,1.38272727 1.6752817,1.38272727 L3.73857111,1.38272727 C3.85569869,1.38272727 3.95064935,1.48453708 3.95064935,1.60220779 C3.95064935,1.72342354 3.84376691,1.82168831 3.73857111,1.82168831 L1.6752817,1.82168831 C1.55815412,1.82168831 1.46320346,1.7198785 1.46320346,1.60220779 Z M7.82813853,1.60220779 C7.82813853,1.48099205 7.93502097,1.38272727 8.04021677,1.38272727 L10.1035062,1.38272727 C10.2206338,1.38272727 10.3155844,1.48453708 10.3155844,1.60220779 C10.3155844,1.72342354 10.208702,1.82168831 10.1035062,1.82168831 L8.04021677,1.82168831 C7.92308919,1.82168831 7.82813853,1.7198785 7.82813853,1.60220779 Z M11.0471861,1.60220779 C11.0471861,1.48099205 11.1540686,1.38272727 11.2592644,1.38272727 L13.3225538,1.38272727 C13.4396814,1.38272727 13.534632,1.48453708 13.534632,1.60220779 C13.534632,1.72342354 13.4277496,1.82168831 13.3225538,1.82168831 L11.2592644,1.82168831 C11.1421368,1.82168831 11.0471861,1.7198785 11.0471861,1.60220779 Z M14.1930736,1.60220779 C14.1930736,1.48099205 14.299956,1.38272727 14.4051518,1.38272727 L16.4684412,1.38272727 C16.5855688,1.38272727 16.6805195,1.48453708 16.6805195,1.60220779 C16.6805195,1.72342354 16.573637,1.82168831 16.4684412,1.82168831 L14.4051518,1.82168831 C14.2880243,1.82168831 14.1930736,1.7198785 14.1930736,1.60220779 Z M3.36536797,5.55285714 C3.36536797,5.4316414 3.47225041,5.33337662 3.5774462,5.33337662 L5.64073562,5.33337662 C5.75786319,5.33337662 5.85281385,5.43518643 5.85281385,5.55285714 C5.85281385,5.67407289 5.74593141,5.77233766 5.64073562,5.77233766 L3.5774462,5.77233766 C3.46031863,5.77233766 3.36536797,5.67052785 3.36536797,5.55285714 Z M0.0731601732,5.55285714 C0.0731601732,5.4316414 0.180042614,5.33337662 0.28523841,5.33337662 L2.34852782,5.33337662 C2.4656554,5.33337662 2.56060606,5.43518643 2.56060606,5.55285714 C2.56060606,5.67407289 2.45372362,5.77233766 2.34852782,5.77233766 L0.28523841,5.77233766 C0.168110834,5.77233766 0.0731601732,5.67052785 0.0731601732,5.55285714 Z M6.43809524,5.55285714 C6.43809524,5.4316414 6.54497768,5.33337662 6.65017348,5.33337662 L8.71346289,5.33337662 C8.83059046,5.33337662 8.92554113,5.43518643 8.92554113,5.55285714 C8.92554113,5.67407289 8.81865869,5.77233766 8.71346289,5.77233766 L6.65017348,5.77233766 C6.5330459,5.77233766 6.43809524,5.67052785 6.43809524,5.55285714 Z M9.65714286,5.55285714 C9.65714286,5.4316414 9.7640253,5.33337662 9.86922109,5.33337662 L11.9325105,5.33337662 C12.0496381,5.33337662 12.1445887,5.43518643 12.1445887,5.55285714 C12.1445887,5.67407289 12.0377063,5.77233766 11.9325105,5.77233766 L9.86922109,5.77233766 C9.75209352,5.77233766 9.65714286,5.67052785 9.65714286,5.55285714 Z M12.8030303,5.55285714 C12.8030303,5.4316414 12.9099127,5.33337662 13.0151085,5.33337662 L15.078398,5.33337662 C15.1955255,5.33337662 15.2904762,5.43518643 15.2904762,5.55285714 C15.2904762,5.67407289 15.1835937,5.77233766 15.078398,5.77233766 L13.0151085,5.77233766 C12.897981,5.77233766 12.8030303,5.67052785 12.8030303,5.55285714 Z M3.36536797,8.18662338 C3.36536797,8.06540763 3.47225041,7.96714286 3.5774462,7.96714286 L5.64073562,7.96714286 C5.75786319,7.96714286 5.85281385,8.06895267 5.85281385,8.18662338 C5.85281385,8.30783912 5.74593141,8.4061039 5.64073562,8.4061039 L3.5774462,8.4061039 C3.46031863,8.4061039 3.36536797,8.30429408 3.36536797,8.18662338 Z M0.0731601732,8.18662338 C0.0731601732,8.06540763 0.180042614,7.96714286 0.28523841,7.96714286 L2.34852782,7.96714286 C2.4656554,7.96714286 2.56060606,8.06895267 2.56060606,8.18662338 C2.56060606,8.30783912 2.45372362,8.4061039 2.34852782,8.4061039 L0.28523841,8.4061039 C0.168110834,8.4061039 0.0731601732,8.30429408 0.0731601732,8.18662338 Z M6.43809524,8.18662338 C6.43809524,8.06540763 6.54497768,7.96714286 6.65017348,7.96714286 L8.71346289,7.96714286 C8.83059046,7.96714286 8.92554113,8.06895267 8.92554113,8.18662338 C8.92554113,8.30783912 8.81865869,8.4061039 8.71346289,8.4061039 L6.65017348,8.4061039 C6.5330459,8.4061039 6.43809524,8.30429408 6.43809524,8.18662338 Z M9.65714286,8.18662338 C9.65714286,8.06540763 9.7640253,7.96714286 9.86922109,7.96714286 L11.9325105,7.96714286 C12.0496381,7.96714286 12.1445887,8.06895267 12.1445887,8.18662338 C12.1445887,8.30783912 12.0377063,8.4061039 11.9325105,8.4061039 L9.86922109,8.4061039 C9.75209352,8.4061039 9.65714286,8.30429408 9.65714286,8.18662338 Z M12.8030303,8.18662338 C12.8030303,8.06540763 12.9099127,7.96714286 13.0151085,7.96714286 L15.078398,7.96714286 C15.1955255,7.96714286 15.2904762,8.06895267 15.2904762,8.18662338 C15.2904762,8.30783912 15.1835938,8.4061039 15.078398,8.4061039 L13.0151085,8.4061039 C12.897981,8.4061039 12.8030303,8.30429408 12.8030303,8.18662338 Z M4.82857143,9.50350649 C4.82857143,9.38229075 4.93545387,9.28402597 5.04064967,9.28402597 L7.10393908,9.28402597 C7.22106665,9.28402597 7.31601732,9.38583579 7.31601732,9.50350649 C7.31601732,9.62472224 7.20913488,9.72298701 7.10393908,9.72298701 L5.04064967,9.72298701 C4.92352209,9.72298701 4.82857143,9.6211772 4.82857143,9.50350649 Z M1.68268398,9.50350649 C1.68268398,9.38229075 1.78956642,9.28402597 1.89476222,9.28402597 L3.95805163,9.28402597 C4.07517921,9.28402597 4.17012987,9.38583579 4.17012987,9.50350649 C4.17012987,9.62472224 4.06324743,9.72298701 3.95805163,9.72298701 L1.89476222,9.72298701 C1.77763464,9.72298701 1.68268398,9.6211772 1.68268398,9.50350649 Z M8.04761905,9.50350649 C8.04761905,9.38229075 8.15450149,9.28402597 8.25969728,9.28402597 L10.3229867,9.28402597 C10.4401143,9.28402597 10.5350649,9.38583579 10.5350649,9.50350649 C10.5350649,9.62472224 10.4281825,9.72298701 10.3229867,9.72298701 L8.25969728,9.72298701 C8.14256971,9.72298701 8.04761905,9.6211772 8.04761905,9.50350649 Z M11.2666667,9.50350649 C11.2666667,9.38229075 11.3735491,9.28402597 11.4787449,9.28402597 L13.5420343,9.28402597 C13.6591619,9.28402597 13.7541126,9.38583579 13.7541126,9.50350649 C13.7541126,9.62472224 13.6472301,9.72298701 13.5420343,9.72298701 L11.4787449,9.72298701 C11.3616173,9.72298701 11.2666667,9.6211772 11.2666667,9.50350649 Z M14.4125541,9.50350649 C14.4125541,9.38229075 14.5194366,9.28402597 14.6246323,9.28402597 L16.6879218,9.28402597 C16.8050493,9.28402597 16.9,9.38583579 16.9,9.50350649 C16.9,9.62472224 16.7931176,9.72298701 16.6879218,9.72298701 L14.6246323,9.72298701 C14.5075048,9.72298701 14.4125541,9.6211772 14.4125541,9.50350649 Z M3.36536797,10.8203896 C3.36536797,10.6991739 3.47225041,10.6009091 3.5774462,10.6009091 L5.64073562,10.6009091 C5.75786319,10.6009091 5.85281385,10.7027189 5.85281385,10.8203896 C5.85281385,10.9416054 5.74593141,11.0398701 5.64073562,11.0398701 L3.5774462,11.0398701 C3.46031863,11.0398701 3.36536797,10.9380603 3.36536797,10.8203896 Z M0.0731601732,10.8203896 C0.0731601732,10.6991739 0.180042614,10.6009091 0.28523841,10.6009091 L2.34852782,10.6009091 C2.4656554,10.6009091 2.56060606,10.7027189 2.56060606,10.8203896 C2.56060606,10.9416054 2.45372362,11.0398701 2.34852782,11.0398701 L0.28523841,11.0398701 C0.168110834,11.0398701 0.0731601732,10.9380603 0.0731601732,10.8203896 Z M6.43809524,10.8203896 C6.43809524,10.6991739 6.54497768,10.6009091 6.65017348,10.6009091 L8.71346289,10.6009091 C8.83059046,10.6009091 8.92554113,10.7027189 8.92554113,10.8203896 C8.92554113,10.9416054 8.81865869,11.0398701 8.71346289,11.0398701 L6.65017348,11.0398701 C6.5330459,11.0398701 6.43809524,10.9380603 6.43809524,10.8203896 Z M9.65714286,10.8203896 C9.65714286,10.6991739 9.7640253,10.6009091 9.86922109,10.6009091 L11.9325105,10.6009091 C12.0496381,10.6009091 12.1445887,10.7027189 12.1445887,10.8203896 C12.1445887,10.9416054 12.0377063,11.0398701 11.9325105,11.0398701 L9.86922109,11.0398701 C9.75209352,11.0398701 9.65714286,10.9380603 9.65714286,10.8203896 Z M12.8030303,10.8203896 C12.8030303,10.6991739 12.9099127,10.6009091 13.0151085,10.6009091 L15.078398,10.6009091 C15.1955255,10.6009091 15.2904762,10.7027189 15.2904762,10.8203896 C15.2904762,10.9416054 15.1835937,11.0398701 15.078398,11.0398701 L13.0151085,11.0398701 C12.897981,11.0398701 12.8030303,10.9380603 12.8030303,10.8203896 Z M4.82857143,12.1372727 C4.82857143,12.016057 4.93545387,11.9177922 5.04064967,11.9177922 L7.10393908,11.9177922 C7.22106665,11.9177922 7.31601732,12.019602 7.31601732,12.1372727 C7.31601732,12.2584885 7.20913488,12.3567532 7.10393908,12.3567532 L5.04064967,12.3567532 C4.92352209,12.3567532 4.82857143,12.2549434 4.82857143,12.1372727 Z M1.68268398,12.1372727 C1.68268398,12.016057 1.78956642,11.9177922 1.89476222,11.9177922 L3.95805163,11.9177922 C4.07517921,11.9177922 4.17012987,12.019602 4.17012987,12.1372727 C4.17012987,12.2584885 4.06324743,12.3567532 3.95805163,12.3567532 L1.89476222,12.3567532 C1.77763464,12.3567532 1.68268398,12.2549434 1.68268398,12.1372727 Z M8.04761905,12.1372727 C8.04761905,12.016057 8.15450149,11.9177922 8.25969728,11.9177922 L10.3229867,11.9177922 C10.4401143,11.9177922 10.5350649,12.019602 10.5350649,12.1372727 C10.5350649,12.2584885 10.4281825,12.3567532 10.3229867,12.3567532 L8.25969728,12.3567532 C8.14256971,12.3567532 8.04761905,12.2549434 8.04761905,12.1372727 Z M11.2666667,12.1372727 C11.2666667,12.016057 11.3735491,11.9177922 11.4787449,11.9177922 L13.5420343,11.9177922 C13.6591619,11.9177922 13.7541126,12.019602 13.7541126,12.1372727 C13.7541126,12.2584885 13.6472301,12.3567532 13.5420343,12.3567532 L11.4787449,12.3567532 C11.3616173,12.3567532 11.2666667,12.2549434 11.2666667,12.1372727 Z M14.4125541,12.1372727 C14.4125541,12.016057 14.5194366,11.9177922 14.6246323,11.9177922 L16.6879218,11.9177922 C16.8050493,11.9177922 16.9,12.019602 16.9,12.1372727 C16.9,12.2584885 16.7931176,12.3567532 16.6879218,12.3567532 L14.6246323,12.3567532 C14.5075048,12.3567532 14.4125541,12.2549434 14.4125541,12.1372727 Z M3.36536797,13.4541558 C3.36536797,13.3329401 3.47225041,13.2346753 3.5774462,13.2346753 L5.64073562,13.2346753 C5.75786319,13.2346753 5.85281385,13.3364851 5.85281385,13.4541558 C5.85281385,13.5753716 5.74593141,13.6736364 5.64073562,13.6736364 L3.5774462,13.6736364 C3.46031863,13.6736364 3.36536797,13.5718266 3.36536797,13.4541558 Z M0.0731601732,13.4541558 C0.0731601732,13.3329401 0.180042614,13.2346753 0.28523841,13.2346753 L2.34852782,13.2346753 C2.4656554,13.2346753 2.56060606,13.3364851 2.56060606,13.4541558 C2.56060606,13.5753716 2.45372362,13.6736364 2.34852782,13.6736364 L0.28523841,13.6736364 C0.168110834,13.6736364 0.0731601732,13.5718266 0.0731601732,13.4541558 Z M6.43809524,13.4541558 C6.43809524,13.3329401 6.54497768,13.2346753 6.65017348,13.2346753 L8.71346289,13.2346753 C8.83059046,13.2346753 8.92554113,13.3364851 8.92554113,13.4541558 C8.92554113,13.5753716 8.81865869,13.6736364 8.71346289,13.6736364 L6.65017348,13.6736364 C6.5330459,13.6736364 6.43809524,13.5718266 6.43809524,13.4541558 Z M9.65714286,13.4541558 C9.65714286,13.3329401 9.7640253,13.2346753 9.86922109,13.2346753 L11.9325105,13.2346753 C12.0496381,13.2346753 12.1445887,13.3364851 12.1445887,13.4541558 C12.1445887,13.5753716 12.0377063,13.6736364 11.9325105,13.6736364 L9.86922109,13.6736364 C9.75209352,13.6736364 9.65714286,13.5718266 9.65714286,13.4541558 Z M12.8030303,13.4541558 C12.8030303,13.3329401 12.9099127,13.2346753 13.0151085,13.2346753 L15.078398,13.2346753 C15.1955255,13.2346753 15.2904762,13.3364851 15.2904762,13.4541558 C15.2904762,13.5753716 15.1835938,13.6736364 15.078398,13.6736364 L13.0151085,13.6736364 C12.897981,13.6736364 12.8030303,13.5718266 12.8030303,13.4541558 Z M4.82857143,14.771039 C4.82857143,14.6498232 4.93545387,14.5515584 5.04064967,14.5515584 L7.10393908,14.5515584 C7.22106665,14.5515584 7.31601732,14.6533683 7.31601732,14.771039 C7.31601732,14.8922547 7.20913488,14.9905195 7.10393908,14.9905195 L5.04064967,14.9905195 C4.92352209,14.9905195 4.82857143,14.8887097 4.82857143,14.771039 Z M1.68268398,14.771039 C1.68268398,14.6498232 1.78956642,14.5515584 1.89476222,14.5515584 L3.95805163,14.5515584 C4.07517921,14.5515584 4.17012987,14.6533683 4.17012987,14.771039 C4.17012987,14.8922547 4.06324743,14.9905195 3.95805163,14.9905195 L1.89476222,14.9905195 C1.77763464,14.9905195 1.68268398,14.8887097 1.68268398,14.771039 Z M8.04761905,14.771039 C8.04761905,14.6498232 8.15450149,14.5515584 8.25969728,14.5515584 L10.3229867,14.5515584 C10.4401143,14.5515584 10.5350649,14.6533683 10.5350649,14.771039 C10.5350649,14.8922547 10.4281825,14.9905195 10.3229867,14.9905195 L8.25969728,14.9905195 C8.14256971,14.9905195 8.04761905,14.8887097 8.04761905,14.771039 Z M11.2666667,14.771039 C11.2666667,14.6498232 11.3735491,14.5515584 11.4787449,14.5515584 L13.5420343,14.5515584 C13.6591619,14.5515584 13.7541126,14.6533683 13.7541126,14.771039 C13.7541126,14.8922547 13.6472301,14.9905195 13.5420343,14.9905195 L11.4787449,14.9905195 C11.3616173,14.9905195 11.2666667,14.8887097 11.2666667,14.771039 Z M14.4125541,14.771039 C14.4125541,14.6498232 14.5194366,14.5515584 14.6246323,14.5515584 L16.6879218,14.5515584 C16.8050493,14.5515584 16.9,14.6533683 16.9,14.771039 C16.9,14.8922547 16.7931176,14.9905195 16.6879218,14.9905195 L14.6246323,14.9905195 C14.5075048,14.9905195 14.4125541,14.8887097 14.4125541,14.771039 Z M3.36536797,16.0879221 C3.36536797,15.9667063 3.47225041,15.8684416 3.5774462,15.8684416 L5.64073562,15.8684416 C5.75786319,15.8684416 5.85281385,15.9702514 5.85281385,16.0879221 C5.85281385,16.2091378 5.74593141,16.3074026 5.64073562,16.3074026 L3.5774462,16.3074026 C3.46031863,16.3074026 3.36536797,16.2055928 3.36536797,16.0879221 Z M0.0731601732,16.0879221 C0.0731601732,15.9667063 0.180042614,15.8684416 0.28523841,15.8684416 L2.34852782,15.8684416 C2.4656554,15.8684416 2.56060606,15.9702514 2.56060606,16.0879221 C2.56060606,16.2091378 2.45372362,16.3074026 2.34852782,16.3074026 L0.28523841,16.3074026 C0.168110834,16.3074026 0.0731601732,16.2055928 0.0731601732,16.0879221 Z M6.43809524,16.0879221 C6.43809524,15.9667063 6.54497768,15.8684416 6.65017348,15.8684416 L8.71346289,15.8684416 C8.83059046,15.8684416 8.92554113,15.9702514 8.92554113,16.0879221 C8.92554113,16.2091378 8.81865869,16.3074026 8.71346289,16.3074026 L6.65017348,16.3074026 C6.5330459,16.3074026 6.43809524,16.2055928 6.43809524,16.0879221 Z M9.65714286,16.0879221 C9.65714286,15.9667063 9.7640253,15.8684416 9.86922109,15.8684416 L11.9325105,15.8684416 C12.0496381,15.8684416 12.1445887,15.9702514 12.1445887,16.0879221 C12.1445887,16.2091378 12.0377063,16.3074026 11.9325105,16.3074026 L9.86922109,16.3074026 C9.75209352,16.3074026 9.65714286,16.2055928 9.65714286,16.0879221 Z M12.8030303,16.0879221 C12.8030303,15.9667063 12.9099127,15.8684416 13.0151085,15.8684416 L15.078398,15.8684416 C15.1955255,15.8684416 15.2904762,15.9702514 15.2904762,16.0879221 C15.2904762,16.2091378 15.1835938,16.3074026 15.078398,16.3074026 L13.0151085,16.3074026 C12.897981,16.3074026 12.8030303,16.2055928 12.8030303,16.0879221 Z" id="path-11"></path>
        <linearGradient x1="78.8725142%" y1="10.1740057%" x2="19.1796875%" y2="85.9943182%" id="linearGradient-13">
            <stop stop-color="#6E94A1" offset="0%"></stop>
            <stop stop-color="#538794" offset="52.598852%"></stop>
            <stop stop-color="#395E7D" offset="100%"></stop>
        </linearGradient>
        <circle id="path-14" cx="8.12809524" cy="7.96714286" r="6.43809524"></circle>
        <linearGradient x1="78.8725142%" y1="10.1740057%" x2="19.1796875%" y2="85.9943182%" id="linearGradient-15">
            <stop stop-color="#A2ABB8" offset="0%"></stop>
            <stop stop-color="#BBCDDA" offset="52.598852%"></stop>
            <stop stop-color="#90A1B4" offset="100%"></stop>
        </linearGradient>
        <linearGradient x1="78.8725142%" y1="10.1740057%" x2="19.1796875%" y2="85.9943182%" id="linearGradient-16">
            <stop stop-color="#8EA1B1" offset="0%"></stop>
            <stop stop-color="#C1ECDE" offset="52.598852%"></stop>
            <stop stop-color="#95A6CA" offset="100%"></stop>
        </linearGradient>
        <circle id="path-17" cx="8.04761905" cy="8.04761905" r="8.04761905"></circle>
        <radialGradient cx="100%" cy="0%" fx="100%" fy="0%" r="130.65317%" id="radialGradient-18">
            <stop stop-color="#D4B7CD" offset="0%"></stop>
            <stop stop-color="#DED0C7" offset="25.6503043%"></stop>
            <stop stop-color="#DBFAD7" offset="51.203473%"></stop>
            <stop stop-color="#A6D5EF" offset="72.955717%"></stop>
            <stop stop-color="#BCB6E0" offset="100%"></stop>
        </radialGradient>
        <filter x="-50%" y="-50%" width="200%" height="200%" filterUnits="objectBoundingBox" id="filter-19">
            <feOffset dx="0" dy="0" in="SourceAlpha" result="shadowOffsetOuter1"></feOffset>
            <feGaussianBlur stdDeviation="0" in="shadowOffsetOuter1" result="shadowBlurOuter1"></feGaussianBlur>
            <feColorMatrix values="0 0 0 0 0   0 0 0 0 0   0 0 0 0 0  0 0 0 0.106759511 0" in="shadowBlurOuter1" type="matrix" result="shadowMatrixOuter1"></feColorMatrix>
            <feMerge>
                <feMergeNode in="shadowMatrixOuter1"></feMergeNode>
                <feMergeNode in="SourceGraphic"></feMergeNode>
            </feMerge>
        </filter>
        <path d="M5.85338542,11.787247 C9.08612092,11.787247 11.7067708,9.16659711 11.7067708,5.93386161 C11.7067708,2.70112611 9.08612092,0.0804761905 5.85338542,0.0804761905 C2.62064992,0.0804761905 0,2.70112611 0,5.93386161 C0,9.16659711 2.62064992,11.787247 5.85338542,11.787247 Z M7.57322419,7.56904323 C7.12926051,8.05391277 6.49776993,8.33205267 5.84067569,8.33205267 C4.84053224,8.33205267 3.95600537,7.69836178 3.62705819,6.76952855 L5.92698807,6.76952855 C6.06510788,6.76952855 6.17702393,6.6576125 6.17702393,6.51949269 C6.17702393,6.38137288 6.06510788,6.26945683 5.92698807,6.26945683 L2.60071098,6.26945683 C2.46259117,6.26945683 2.3505751,6.38137288 2.3505751,6.51949269 C2.3505751,6.6576125 2.46259117,6.76952855 2.60071098,6.76952855 L3.10378313,6.76952855 C3.45263317,7.98640309 4.56879326,8.83212439 5.84067569,8.83212439 C6.63769,8.83212439 7.40359986,8.49487602 7.94197708,7.90679167 C8.03529046,7.80487705 8.02838947,7.64675437 7.92657487,7.553541 C7.82466025,7.46032763 7.66653757,7.46732864 7.57322419,7.56904323 Z M8.05499329,4.11051564 C7.51091525,3.43911934 6.7038995,3.05416413 5.84067569,3.05416413 C4.51388538,3.05416413 3.36462055,3.97619637 3.06777797,5.25898036 L2.60071098,5.25898036 C2.46259117,5.25898036 2.3505751,5.37089642 2.3505751,5.50901623 C2.3505751,5.64703602 2.46259117,5.75905209 2.60071098,5.75905209 L6.85402103,5.75905209 C6.99204083,5.75905209 7.10405689,5.64703602 7.10405689,5.50901623 C7.10405689,5.37089642 6.99204083,5.25898036 6.85402103,5.25898036 L3.58195172,5.25898036 C3.8655924,4.26033713 4.78572437,3.55423585 5.84067569,3.55423585 C6.55227775,3.55423585 7.2177732,3.87168138 7.66643756,4.4253608 C7.75325001,4.53257617 7.91087262,4.54917856 8.01818801,4.46216608 C8.12540339,4.37525361 8.14190575,4.21773102 8.05499329,4.11051564 Z" id="path-20"></path>
        <linearGradient x1="100%" y1="-9.203125%" x2="8.17578125%" y2="105.777344%" id="linearGradient-22">
            <stop stop-color="#8EA1B1" stop-opacity="0" offset="0%"></stop>
            <stop stop-color="#C1ECDE" offset="52.598852%"></stop>
            <stop stop-color="#95A6CA" stop-opacity="0" offset="100%"></stop>
        </linearGradient>
        <circle id="path-23" cx="8.04761905" cy="8.04761905" r="8.04761905"></circle>
    </defs>
    <g id="Page-1" stroke="none" stroke-width="1" fill="none" fill-rule="evenodd" sketch:type="MSPage">
        <g id="UI/Payment/Promo/Small" sketch:type="MSLayerGroup" transform="translate(1.000000, 3.000000)">
            <rect id="Mask-Copy-2" stroke="url(#linearGradient-2)" fill="url(#linearGradient-1)" sketch:type="MSShapeGroup" x="0" y="0" width="42.0952381" height="26" rx="1"></rect>
            <g id="badge-copy-5" transform="translate(13.000000, 4.952381)">
                <g id="Rectangle-2">
                    <mask id="mask-7" sketch:name="Mask" fill="white">
                        <use xlink:href="#path-6"></use>
                    </mask>
                    <g id="Mask" filter="url(#filter-5)">
                        <use stroke="url(#linearGradient-4)" stroke-width="1.6" fill="url(#linearGradient-3)" fill-rule="evenodd" sketch:type="MSShapeGroup" xlink:href="#path-6"></use>
                        <use stroke="none" fill="none" xlink:href="#path-6"></use>
                    </g>
                    <mask id="mask-9" sketch:name="Mask Copy" fill="white">
                        <use xlink:href="#path-8"></use>
                    </mask>
                    <g id="Mask-Copy" opacity="0.575967817">
                        <use sketch:type="MSShapeGroup" xlink:href="#path-8"></use>
                        <use xlink:href="#path-8"></use>
                    </g>
                    <g mask="url(#mask-9)" id="Oval-58">
                        <g transform="translate(8.233474, 7.277218) rotate(-45.000000) translate(-8.233474, -7.277218) translate(-1.061526, -0.931353)">
                            <g transform="translate(0.000000, 0.000000)">
                                <mask id="mask-12" sketch:name="Mask" fill="white">
                                    <use xlink:href="#path-11"></use>
                                </mask>
                                <use id="Mask" fill="url(#linearGradient-10)" sketch:type="MSShapeGroup" xlink:href="#path-11"></use>
                            </g>
                        </g>
                    </g>
                    <g id="Oval-58">
                        <use fill="url(#linearGradient-13)" fill-rule="evenodd" sketch:type="MSShapeGroup" mask="url(#mask-9)" xlink:href="#path-14"></use>
                        <use fill="none" xlink:href="#path-14"></use>
                    </g>
                    <g id="Mask-Copy-2" opacity="0.575967817">
                        <use fill="url(#linearGradient-15)" sketch:type="MSShapeGroup" mask="url(#mask-9)" xlink:href="#path-17"></use>
                        <use fill="url(#linearGradient-16)" xlink:href="#path-17"></use>
                    </g>
                    <circle id="Oval-100" fill="#6D88A0" sketch:type="MSShapeGroup" mask="url(#mask-9)" cx="8.04761905" cy="7.88666667" r="4.82857143"></circle>
                </g>
                <g id="Imported-Layers" transform="translate(5.552857, 7.484286)"></g>
                <g id="Imported-Layers" transform="translate(2.266905, 2.041086)">
                    <mask id="mask-21" sketch:name="Mask" fill="white">
                        <use xlink:href="#path-20"></use>
                    </mask>
                    <use id="Mask" fill="url(#radialGradient-18)" filter="url(#filter-19)" sketch:type="MSShapeGroup" xlink:href="#path-20"></use>
                </g>
                <g id="Oval-57" opacity="0.474696828">
                    <use fill="none" sketch:type="MSShapeGroup" xlink:href="#path-23"></use>
                    <use fill="url(#linearGradient-22)" fill-rule="evenodd" xlink:href="#path-23"></use>
                </g>
                <g id="Imported-Layers" transform="translate(8.208571, 6.840476)"></g>
            </g>
        </g>
    </g>
</svg>