<?xml version="1.0" encoding="UTF-8" standalone="no"?>
<svg width="70px" height="44px" viewBox="0 0 70 44" version="1.1" xmlns="http://www.w3.org/2000/svg" xmlns:xlink="http://www.w3.org/1999/xlink" xmlns:sketch="http://www.bohemiancoding.com/sketch/ns">
    <!-- Generator: Sketch 3.4.1 (15681) - http://www.bohemiancoding.com/sketch -->
    <title>Untitled</title>
    <desc>Created with Sketch.</desc>
    <defs>
        <linearGradient x1="2.14084935%" y1="6.58001078%" x2="96.562566%" y2="93.5109106%" id="linearGradient-1">
            <stop stop-color="#505A64" offset="0%"></stop>
            <stop stop-color="#1B1C1D" offset="100%"></stop>
        </linearGradient>
        <linearGradient x1="5.07668888%" y1="6.59179688%" x2="96.9094669%" y2="92.6432292%" id="linearGradient-2">
            <stop stop-color="#505A63" offset="0%"></stop>
            <stop stop-color="#1B1C1D" offset="100%"></stop>
        </linearGradient>
        <linearGradient x1="78.8725142%" y1="10.1740057%" x2="19.1796875%" y2="85.9943182%" id="linearGradient-3">
            <stop stop-color="#6E94A1" offset="0%"></stop>
            <stop stop-color="#538794" offset="52.598852%"></stop>
            <stop stop-color="#315271" offset="100%"></stop>
        </linearGradient>
        <linearGradient x1="84.2329545%" y1="8.06285511%" x2="16.7027699%" y2="92.4254261%" id="linearGradient-4">
            <stop stop-color="#DED3ED" offset="0%"></stop>
            <stop stop-color="#CFF5FA" offset="41.0495057%"></stop>
            <stop stop-color="#E8F4F7" offset="100%"></stop>
        </linearGradient>
        <filter x="-50%" y="-50%" width="200%" height="200%" filterUnits="objectBoundingBox" id="filter-5">
            <feOffset dx="0" dy="0" in="SourceAlpha" result="shadowOffsetInner1"></feOffset>
            <feGaussianBlur stdDeviation="0" in="shadowOffsetInner1" result="shadowBlurInner1"></feGaussianBlur>
            <feComposite in="shadowBlurInner1" in2="SourceAlpha" operator="arithmetic" k2="-1" k3="1" result="shadowInnerInner1"></feComposite>
            <feColorMatrix values="0 0 0 0 0.552941176   0 0 0 0 0.596078431   0 0 0 0 0.654901961  0 0 0 0.7 0" in="shadowInnerInner1" type="matrix" result="shadowMatrixInner1"></feColorMatrix>
            <feMerge>
                <feMergeNode in="SourceGraphic"></feMergeNode>
                <feMergeNode in="shadowMatrixInner1"></feMergeNode>
            </feMerge>
        </filter>
        <circle id="path-6" cx="13" cy="13" r="13"></circle>
        <circle id="path-8" cx="13" cy="13" r="13"></circle>
        <linearGradient x1="89.6421301%" y1="45.9856093%" x2="5.21393992%" y2="54.9440086%" id="linearGradient-10">
            <stop stop-color="#CBC5D7" offset="0%"></stop>
            <stop stop-color="#D7B2C9" offset="17.8172832%"></stop>
            <stop stop-color="#E5F1C6" offset="34.3451052%"></stop>
            <stop stop-color="#BFF0C6" offset="50.9885204%"></stop>
            <stop stop-color="#A5D5EF" offset="68.9951371%"></stop>
            <stop stop-color="#DEC0F1" offset="85.5050223%"></stop>
            <stop stop-color="#A1AFD3" offset="100%"></stop>
        </linearGradient>
        <path d="M7.8,11.0972727 C7.8,10.9014627 7.95261087,10.7427273 8.15658683,10.7427273 L11.461595,10.7427273 C11.6585325,10.7427273 11.8181818,10.9071893 11.8181818,11.0972727 C11.8181818,11.2930828 11.665571,11.4518182 11.461595,11.4518182 L8.15658683,11.4518182 C7.95964936,11.4518182 7.8,11.2873562 7.8,11.0972727 Z M2.71818182,11.0972727 C2.71818182,10.9014627 2.87079268,10.7427273 3.07476865,10.7427273 L6.37977681,10.7427273 C6.57671427,10.7427273 6.73636364,10.9071893 6.73636364,11.0972727 C6.73636364,11.2930828 6.58375277,11.4518182 6.37977681,11.4518182 L3.07476865,11.4518182 C2.87783118,11.4518182 2.71818182,11.2873562 2.71818182,11.0972727 Z M13,11.0972727 C13,10.9014627 13.1526109,10.7427273 13.3565868,10.7427273 L16.661595,10.7427273 C16.8585325,10.7427273 17.0181818,10.9071893 17.0181818,11.0972727 C17.0181818,11.2930828 16.865571,11.4518182 16.661595,11.4518182 L13.3565868,11.4518182 C13.1596494,11.4518182 13,11.2873562 13,11.0972727 Z M18.2,11.0972727 C18.2,10.9014627 18.3526109,10.7427273 18.5565868,10.7427273 L21.861595,10.7427273 C22.0585325,10.7427273 22.2181818,10.9071893 22.2181818,11.0972727 C22.2181818,11.2930828 22.065571,11.4518182 21.861595,11.4518182 L18.5565868,11.4518182 C18.3596494,11.4518182 18.2,11.2873562 18.2,11.0972727 Z M23.2818182,11.0972727 C23.2818182,10.9014627 23.434429,10.7427273 23.638405,10.7427273 L26.9434132,10.7427273 C27.1403506,10.7427273 27.3,10.9071893 27.3,11.0972727 C27.3,11.2930828 27.1473891,11.4518182 26.9434132,11.4518182 L23.638405,11.4518182 C23.4414675,11.4518182 23.2818182,11.2873562 23.2818182,11.0972727 Z M10.4,4.71545455 C10.4,4.5196445 10.5526109,4.36090909 10.7565868,4.36090909 L14.061595,4.36090909 C14.2585325,4.36090909 14.4181818,4.52537109 14.4181818,4.71545455 C14.4181818,4.91126459 14.265571,5.07 14.061595,5.07 L10.7565868,5.07 C10.5596494,5.07 10.4,4.905538 10.4,4.71545455 Z M5.31818182,4.71545455 C5.31818182,4.5196445 5.47079268,4.36090909 5.67476865,4.36090909 L8.97977681,4.36090909 C9.17671427,4.36090909 9.33636364,4.52537109 9.33636364,4.71545455 C9.33636364,4.91126459 9.18375277,5.07 8.97977681,5.07 L5.67476865,5.07 C5.47783118,5.07 5.31818182,4.905538 5.31818182,4.71545455 Z M15.6,4.71545455 C15.6,4.5196445 15.7526109,4.36090909 15.9565868,4.36090909 L19.261595,4.36090909 C19.4585325,4.36090909 19.6181818,4.52537109 19.6181818,4.71545455 C19.6181818,4.91126459 19.465571,5.07 19.261595,5.07 L15.9565868,5.07 C15.7596494,5.07 15.6,4.905538 15.6,4.71545455 Z M20.8,4.71545455 C20.8,4.5196445 20.9526109,4.36090909 21.1565868,4.36090909 L24.461595,4.36090909 C24.6585325,4.36090909 24.8181818,4.52537109 24.8181818,4.71545455 C24.8181818,4.91126459 24.665571,5.07 24.461595,5.07 L21.1565868,5.07 C20.9596494,5.07 20.8,4.905538 20.8,4.71545455 Z M25.8818182,4.71545455 C25.8818182,4.5196445 26.034429,4.36090909 26.238405,4.36090909 L29.5434132,4.36090909 C29.7403506,4.36090909 29.9,4.52537109 29.9,4.71545455 C29.9,4.91126459 29.7473891,5.07 29.5434132,5.07 L26.238405,5.07 C26.0414675,5.07 25.8818182,4.905538 25.8818182,4.71545455 Z M7.56363636,6.84272727 C7.56363636,6.64691723 7.71624723,6.48818182 7.92022319,6.48818182 L11.2252314,6.48818182 C11.4221688,6.48818182 11.5818182,6.65264382 11.5818182,6.84272727 C11.5818182,7.03853732 11.4292073,7.19727273 11.2252314,7.19727273 L7.92022319,7.19727273 C7.72328573,7.19727273 7.56363636,7.03281072 7.56363636,6.84272727 Z M2.36363636,6.84272727 C2.36363636,6.64691723 2.51624723,6.48818182 2.72022319,6.48818182 L6.02523135,6.48818182 C6.22216882,6.48818182 6.38181818,6.65264382 6.38181818,6.84272727 C6.38181818,7.03853732 6.22920732,7.19727273 6.02523135,7.19727273 L2.72022319,7.19727273 C2.52328573,7.19727273 2.36363636,7.03281072 2.36363636,6.84272727 Z M12.6454545,6.84272727 C12.6454545,6.64691723 12.7980654,6.48818182 13.0020414,6.48818182 L16.3070495,6.48818182 C16.503987,6.48818182 16.6636364,6.65264382 16.6636364,6.84272727 C16.6636364,7.03853732 16.5110255,7.19727273 16.3070495,7.19727273 L13.0020414,7.19727273 C12.8051039,7.19727273 12.6454545,7.03281072 12.6454545,6.84272727 Z M17.8454545,6.84272727 C17.8454545,6.64691723 17.9980654,6.48818182 18.2020414,6.48818182 L21.5070495,6.48818182 C21.703987,6.48818182 21.8636364,6.65264382 21.8636364,6.84272727 C21.8636364,7.03853732 21.7110255,7.19727273 21.5070495,7.19727273 L18.2020414,7.19727273 C18.0051039,7.19727273 17.8454545,7.03281072 17.8454545,6.84272727 Z M22.9272727,6.84272727 C22.9272727,6.64691723 23.0798836,6.48818182 23.2838596,6.48818182 L26.5888677,6.48818182 C26.7858052,6.48818182 26.9454545,6.65264382 26.9454545,6.84272727 C26.9454545,7.03853732 26.7928437,7.19727273 26.5888677,7.19727273 L23.2838596,7.19727273 C23.0869221,7.19727273 22.9272727,7.03281072 22.9272727,6.84272727 Z M10.4,0.460909091 C10.4,0.265099043 10.5526109,0.106363636 10.7565868,0.106363636 L14.061595,0.106363636 C14.2585325,0.106363636 14.4181818,0.270825639 14.4181818,0.460909091 C14.4181818,0.656719139 14.265571,0.815454545 14.061595,0.815454545 L10.7565868,0.815454545 C10.5596494,0.815454545 10.4,0.650992543 10.4,0.460909091 Z M5.31818182,0.460909091 C5.31818182,0.265099043 5.47079268,0.106363636 5.67476865,0.106363636 L8.97977681,0.106363636 C9.17671427,0.106363636 9.33636364,0.270825639 9.33636364,0.460909091 C9.33636364,0.656719139 9.18375277,0.815454545 8.97977681,0.815454545 L5.67476865,0.815454545 C5.47783118,0.815454545 5.31818182,0.650992543 5.31818182,0.460909091 Z M15.6,0.460909091 C15.6,0.265099043 15.7526109,0.106363636 15.9565868,0.106363636 L19.261595,0.106363636 C19.4585325,0.106363636 19.6181818,0.270825639 19.6181818,0.460909091 C19.6181818,0.656719139 19.465571,0.815454545 19.261595,0.815454545 L15.9565868,0.815454545 C15.7596494,0.815454545 15.6,0.650992543 15.6,0.460909091 Z M20.8,0.460909091 C20.8,0.265099043 20.9526109,0.106363636 21.1565868,0.106363636 L24.461595,0.106363636 C24.6585325,0.106363636 24.8181818,0.270825639 24.8181818,0.460909091 C24.8181818,0.656719139 24.665571,0.815454545 24.461595,0.815454545 L21.1565868,0.815454545 C20.9596494,0.815454545 20.8,0.650992543 20.8,0.460909091 Z M25.8818182,0.460909091 C25.8818182,0.265099043 26.034429,0.106363636 26.238405,0.106363636 L29.5434132,0.106363636 C29.7403506,0.106363636 29.9,0.270825639 29.9,0.460909091 C29.9,0.656719139 29.7473891,0.815454545 29.5434132,0.815454545 L26.238405,0.815454545 C26.0414675,0.815454545 25.8818182,0.650992543 25.8818182,0.460909091 Z M7.56363636,2.58818182 C7.56363636,2.39237177 7.71624723,2.23363636 7.92022319,2.23363636 L11.2252314,2.23363636 C11.4221688,2.23363636 11.5818182,2.39809837 11.5818182,2.58818182 C11.5818182,2.78399187 11.4292073,2.94272727 11.2252314,2.94272727 L7.92022319,2.94272727 C7.72328573,2.94272727 7.56363636,2.77826527 7.56363636,2.58818182 Z M2.36363636,2.58818182 C2.36363636,2.39237177 2.51624723,2.23363636 2.72022319,2.23363636 L6.02523135,2.23363636 C6.22216882,2.23363636 6.38181818,2.39809837 6.38181818,2.58818182 C6.38181818,2.78399187 6.22920732,2.94272727 6.02523135,2.94272727 L2.72022319,2.94272727 C2.52328573,2.94272727 2.36363636,2.77826527 2.36363636,2.58818182 Z M12.6454545,2.58818182 C12.6454545,2.39237177 12.7980654,2.23363636 13.0020414,2.23363636 L16.3070495,2.23363636 C16.503987,2.23363636 16.6636364,2.39809837 16.6636364,2.58818182 C16.6636364,2.78399187 16.5110255,2.94272727 16.3070495,2.94272727 L13.0020414,2.94272727 C12.8051039,2.94272727 12.6454545,2.77826527 12.6454545,2.58818182 Z M17.8454545,2.58818182 C17.8454545,2.39237177 17.9980654,2.23363636 18.2020414,2.23363636 L21.5070495,2.23363636 C21.703987,2.23363636 21.8636364,2.39809837 21.8636364,2.58818182 C21.8636364,2.78399187 21.7110255,2.94272727 21.5070495,2.94272727 L18.2020414,2.94272727 C18.0051039,2.94272727 17.8454545,2.77826527 17.8454545,2.58818182 Z M22.9272727,2.58818182 C22.9272727,2.39237177 23.0798836,2.23363636 23.2838596,2.23363636 L26.5888677,2.23363636 C26.7858052,2.23363636 26.9454545,2.39809837 26.9454545,2.58818182 C26.9454545,2.78399187 26.7928437,2.94272727 26.5888677,2.94272727 L23.2838596,2.94272727 C23.0869221,2.94272727 22.9272727,2.77826527 22.9272727,2.58818182 Z M5.43636364,8.97 C5.43636364,8.77418995 5.5889745,8.61545455 5.79295047,8.61545455 L9.09795862,8.61545455 C9.29489609,8.61545455 9.45454545,8.77991655 9.45454545,8.97 C9.45454545,9.16581005 9.30193459,9.32454545 9.09795862,9.32454545 L5.79295047,9.32454545 C5.596013,9.32454545 5.43636364,9.16008345 5.43636364,8.97 Z M0.118181818,8.97 C0.118181818,8.77418995 0.270792684,8.61545455 0.474768649,8.61545455 L3.77977681,8.61545455 C3.97671427,8.61545455 4.13636364,8.77991655 4.13636364,8.97 C4.13636364,9.16581005 3.98375277,9.32454545 3.77977681,9.32454545 L0.474768649,9.32454545 C0.277831181,9.32454545 0.118181818,9.16008345 0.118181818,8.97 Z M10.4,8.97 C10.4,8.77418995 10.5526109,8.61545455 10.7565868,8.61545455 L14.061595,8.61545455 C14.2585325,8.61545455 14.4181818,8.77991655 14.4181818,8.97 C14.4181818,9.16581005 14.265571,9.32454545 14.061595,9.32454545 L10.7565868,9.32454545 C10.5596494,9.32454545 10.4,9.16008345 10.4,8.97 Z M15.6,8.97 C15.6,8.77418995 15.7526109,8.61545455 15.9565868,8.61545455 L19.261595,8.61545455 C19.4585325,8.61545455 19.6181818,8.77991655 19.6181818,8.97 C19.6181818,9.16581005 19.465571,9.32454545 19.261595,9.32454545 L15.9565868,9.32454545 C15.7596494,9.32454545 15.6,9.16008345 15.6,8.97 Z M20.6818182,8.97 C20.6818182,8.77418995 20.834429,8.61545455 21.038405,8.61545455 L24.3434132,8.61545455 C24.5403506,8.61545455 24.7,8.77991655 24.7,8.97 C24.7,9.16581005 24.5473891,9.32454545 24.3434132,9.32454545 L21.038405,9.32454545 C20.8414675,9.32454545 20.6818182,9.16008345 20.6818182,8.97 Z M5.43636364,13.2245455 C5.43636364,13.0287354 5.5889745,12.87 5.79295047,12.87 L9.09795862,12.87 C9.29489609,12.87 9.45454545,13.034462 9.45454545,13.2245455 C9.45454545,13.4203555 9.30193459,13.5790909 9.09795862,13.5790909 L5.79295047,13.5790909 C5.596013,13.5790909 5.43636364,13.4146289 5.43636364,13.2245455 Z M0.118181818,13.2245455 C0.118181818,13.0287354 0.270792684,12.87 0.474768649,12.87 L3.77977681,12.87 C3.97671427,12.87 4.13636364,13.034462 4.13636364,13.2245455 C4.13636364,13.4203555 3.98375277,13.5790909 3.77977681,13.5790909 L0.474768649,13.5790909 C0.277831181,13.5790909 0.118181818,13.4146289 0.118181818,13.2245455 Z M10.4,13.2245455 C10.4,13.0287354 10.5526109,12.87 10.7565868,12.87 L14.061595,12.87 C14.2585325,12.87 14.4181818,13.034462 14.4181818,13.2245455 C14.4181818,13.4203555 14.265571,13.5790909 14.061595,13.5790909 L10.7565868,13.5790909 C10.5596494,13.5790909 10.4,13.4146289 10.4,13.2245455 Z M15.6,13.2245455 C15.6,13.0287354 15.7526109,12.87 15.9565868,12.87 L19.261595,12.87 C19.4585325,12.87 19.6181818,13.034462 19.6181818,13.2245455 C19.6181818,13.4203555 19.465571,13.5790909 19.261595,13.5790909 L15.9565868,13.5790909 C15.7596494,13.5790909 15.6,13.4146289 15.6,13.2245455 Z M20.6818182,13.2245455 C20.6818182,13.0287354 20.834429,12.87 21.038405,12.87 L24.3434132,12.87 C24.5403506,12.87 24.7,13.034462 24.7,13.2245455 C24.7,13.4203555 24.5473891,13.5790909 24.3434132,13.5790909 L21.038405,13.5790909 C20.8414675,13.5790909 20.6818182,13.4146289 20.6818182,13.2245455 Z M7.8,15.3518182 C7.8,15.1560081 7.95261087,14.9972727 8.15658683,14.9972727 L11.461595,14.9972727 C11.6585325,14.9972727 11.8181818,15.1617347 11.8181818,15.3518182 C11.8181818,15.5476282 11.665571,15.7063636 11.461595,15.7063636 L8.15658683,15.7063636 C7.95964936,15.7063636 7.8,15.5419016 7.8,15.3518182 Z M2.71818182,15.3518182 C2.71818182,15.1560081 2.87079268,14.9972727 3.07476865,14.9972727 L6.37977681,14.9972727 C6.57671427,14.9972727 6.73636364,15.1617347 6.73636364,15.3518182 C6.73636364,15.5476282 6.58375277,15.7063636 6.37977681,15.7063636 L3.07476865,15.7063636 C2.87783118,15.7063636 2.71818182,15.5419016 2.71818182,15.3518182 Z M13,15.3518182 C13,15.1560081 13.1526109,14.9972727 13.3565868,14.9972727 L16.661595,14.9972727 C16.8585325,14.9972727 17.0181818,15.1617347 17.0181818,15.3518182 C17.0181818,15.5476282 16.865571,15.7063636 16.661595,15.7063636 L13.3565868,15.7063636 C13.1596494,15.7063636 13,15.5419016 13,15.3518182 Z M18.2,15.3518182 C18.2,15.1560081 18.3526109,14.9972727 18.5565868,14.9972727 L21.861595,14.9972727 C22.0585325,14.9972727 22.2181818,15.1617347 22.2181818,15.3518182 C22.2181818,15.5476282 22.065571,15.7063636 21.861595,15.7063636 L18.5565868,15.7063636 C18.3596494,15.7063636 18.2,15.5419016 18.2,15.3518182 Z M23.2818182,15.3518182 C23.2818182,15.1560081 23.434429,14.9972727 23.638405,14.9972727 L26.9434132,14.9972727 C27.1403506,14.9972727 27.3,15.1617347 27.3,15.3518182 C27.3,15.5476282 27.1473891,15.7063636 26.9434132,15.7063636 L23.638405,15.7063636 C23.4414675,15.7063636 23.2818182,15.5419016 23.2818182,15.3518182 Z M5.43636364,17.4790909 C5.43636364,17.2832809 5.5889745,17.1245455 5.79295047,17.1245455 L9.09795862,17.1245455 C9.29489609,17.1245455 9.45454545,17.2890075 9.45454545,17.4790909 C9.45454545,17.674901 9.30193459,17.8336364 9.09795862,17.8336364 L5.79295047,17.8336364 C5.596013,17.8336364 5.43636364,17.6691744 5.43636364,17.4790909 Z M0.118181818,17.4790909 C0.118181818,17.2832809 0.270792684,17.1245455 0.474768649,17.1245455 L3.77977681,17.1245455 C3.97671427,17.1245455 4.13636364,17.2890075 4.13636364,17.4790909 C4.13636364,17.674901 3.98375277,17.8336364 3.77977681,17.8336364 L0.474768649,17.8336364 C0.277831181,17.8336364 0.118181818,17.6691744 0.118181818,17.4790909 Z M10.4,17.4790909 C10.4,17.2832809 10.5526109,17.1245455 10.7565868,17.1245455 L14.061595,17.1245455 C14.2585325,17.1245455 14.4181818,17.2890075 14.4181818,17.4790909 C14.4181818,17.674901 14.265571,17.8336364 14.061595,17.8336364 L10.7565868,17.8336364 C10.5596494,17.8336364 10.4,17.6691744 10.4,17.4790909 Z M15.6,17.4790909 C15.6,17.2832809 15.7526109,17.1245455 15.9565868,17.1245455 L19.261595,17.1245455 C19.4585325,17.1245455 19.6181818,17.2890075 19.6181818,17.4790909 C19.6181818,17.674901 19.465571,17.8336364 19.261595,17.8336364 L15.9565868,17.8336364 C15.7596494,17.8336364 15.6,17.6691744 15.6,17.4790909 Z M20.6818182,17.4790909 C20.6818182,17.2832809 20.834429,17.1245455 21.038405,17.1245455 L24.3434132,17.1245455 C24.5403506,17.1245455 24.7,17.2890075 24.7,17.4790909 C24.7,17.674901 24.5473891,17.8336364 24.3434132,17.8336364 L21.038405,17.8336364 C20.8414675,17.8336364 20.6818182,17.6691744 20.6818182,17.4790909 Z M7.8,19.6063636 C7.8,19.4105536 7.95261087,19.2518182 8.15658683,19.2518182 L11.461595,19.2518182 C11.6585325,19.2518182 11.8181818,19.4162802 11.8181818,19.6063636 C11.8181818,19.8021737 11.665571,19.9609091 11.461595,19.9609091 L8.15658683,19.9609091 C7.95964936,19.9609091 7.8,19.7964471 7.8,19.6063636 Z M2.71818182,19.6063636 C2.71818182,19.4105536 2.87079268,19.2518182 3.07476865,19.2518182 L6.37977681,19.2518182 C6.57671427,19.2518182 6.73636364,19.4162802 6.73636364,19.6063636 C6.73636364,19.8021737 6.58375277,19.9609091 6.37977681,19.9609091 L3.07476865,19.9609091 C2.87783118,19.9609091 2.71818182,19.7964471 2.71818182,19.6063636 Z M13,19.6063636 C13,19.4105536 13.1526109,19.2518182 13.3565868,19.2518182 L16.661595,19.2518182 C16.8585325,19.2518182 17.0181818,19.4162802 17.0181818,19.6063636 C17.0181818,19.8021737 16.865571,19.9609091 16.661595,19.9609091 L13.3565868,19.9609091 C13.1596494,19.9609091 13,19.7964471 13,19.6063636 Z M18.2,19.6063636 C18.2,19.4105536 18.3526109,19.2518182 18.5565868,19.2518182 L21.861595,19.2518182 C22.0585325,19.2518182 22.2181818,19.4162802 22.2181818,19.6063636 C22.2181818,19.8021737 22.065571,19.9609091 21.861595,19.9609091 L18.5565868,19.9609091 C18.3596494,19.9609091 18.2,19.7964471 18.2,19.6063636 Z M23.2818182,19.6063636 C23.2818182,19.4105536 23.434429,19.2518182 23.638405,19.2518182 L26.9434132,19.2518182 C27.1403506,19.2518182 27.3,19.4162802 27.3,19.6063636 C27.3,19.8021737 27.1473891,19.9609091 26.9434132,19.9609091 L23.638405,19.9609091 C23.4414675,19.9609091 23.2818182,19.7964471 23.2818182,19.6063636 Z M5.43636364,21.7336364 C5.43636364,21.5378263 5.5889745,21.3790909 5.79295047,21.3790909 L9.09795862,21.3790909 C9.29489609,21.3790909 9.45454545,21.5435529 9.45454545,21.7336364 C9.45454545,21.9294464 9.30193459,22.0881818 9.09795862,22.0881818 L5.79295047,22.0881818 C5.596013,22.0881818 5.43636364,21.9237198 5.43636364,21.7336364 Z M0.118181818,21.7336364 C0.118181818,21.5378263 0.270792684,21.3790909 0.474768649,21.3790909 L3.77977681,21.3790909 C3.97671427,21.3790909 4.13636364,21.5435529 4.13636364,21.7336364 C4.13636364,21.9294464 3.98375277,22.0881818 3.77977681,22.0881818 L0.474768649,22.0881818 C0.277831181,22.0881818 0.118181818,21.9237198 0.118181818,21.7336364 Z M10.4,21.7336364 C10.4,21.5378263 10.5526109,21.3790909 10.7565868,21.3790909 L14.061595,21.3790909 C14.2585325,21.3790909 14.4181818,21.5435529 14.4181818,21.7336364 C14.4181818,21.9294464 14.265571,22.0881818 14.061595,22.0881818 L10.7565868,22.0881818 C10.5596494,22.0881818 10.4,21.9237198 10.4,21.7336364 Z M15.6,21.7336364 C15.6,21.5378263 15.7526109,21.3790909 15.9565868,21.3790909 L19.261595,21.3790909 C19.4585325,21.3790909 19.6181818,21.5435529 19.6181818,21.7336364 C19.6181818,21.9294464 19.465571,22.0881818 19.261595,22.0881818 L15.9565868,22.0881818 C15.7596494,22.0881818 15.6,21.9237198 15.6,21.7336364 Z M20.6818182,21.7336364 C20.6818182,21.5378263 20.834429,21.3790909 21.038405,21.3790909 L24.3434132,21.3790909 C24.5403506,21.3790909 24.7,21.5435529 24.7,21.7336364 C24.7,21.9294464 24.5473891,22.0881818 24.3434132,22.0881818 L21.038405,22.0881818 C20.8414675,22.0881818 20.6818182,21.9237198 20.6818182,21.7336364 Z M7.8,23.8609091 C7.8,23.665099 7.95261087,23.5063636 8.15658683,23.5063636 L11.461595,23.5063636 C11.6585325,23.5063636 11.8181818,23.6708256 11.8181818,23.8609091 C11.8181818,24.0567191 11.665571,24.2154545 11.461595,24.2154545 L8.15658683,24.2154545 C7.95964936,24.2154545 7.8,24.0509925 7.8,23.8609091 Z M2.71818182,23.8609091 C2.71818182,23.665099 2.87079268,23.5063636 3.07476865,23.5063636 L6.37977681,23.5063636 C6.57671427,23.5063636 6.73636364,23.6708256 6.73636364,23.8609091 C6.73636364,24.0567191 6.58375277,24.2154545 6.37977681,24.2154545 L3.07476865,24.2154545 C2.87783118,24.2154545 2.71818182,24.0509925 2.71818182,23.8609091 Z M13,23.8609091 C13,23.665099 13.1526109,23.5063636 13.3565868,23.5063636 L16.661595,23.5063636 C16.8585325,23.5063636 17.0181818,23.6708256 17.0181818,23.8609091 C17.0181818,24.0567191 16.865571,24.2154545 16.661595,24.2154545 L13.3565868,24.2154545 C13.1596494,24.2154545 13,24.0509925 13,23.8609091 Z M18.2,23.8609091 C18.2,23.665099 18.3526109,23.5063636 18.5565868,23.5063636 L21.861595,23.5063636 C22.0585325,23.5063636 22.2181818,23.6708256 22.2181818,23.8609091 C22.2181818,24.0567191 22.065571,24.2154545 21.861595,24.2154545 L18.5565868,24.2154545 C18.3596494,24.2154545 18.2,24.0509925 18.2,23.8609091 Z M23.2818182,23.8609091 C23.2818182,23.665099 23.434429,23.5063636 23.638405,23.5063636 L26.9434132,23.5063636 C27.1403506,23.5063636 27.3,23.6708256 27.3,23.8609091 C27.3,24.0567191 27.1473891,24.2154545 26.9434132,24.2154545 L23.638405,24.2154545 C23.4414675,24.2154545 23.2818182,24.0509925 23.2818182,23.8609091 Z M5.43636364,25.9881818 C5.43636364,25.7923718 5.5889745,25.6336364 5.79295047,25.6336364 L9.09795862,25.6336364 C9.29489609,25.6336364 9.45454545,25.7980984 9.45454545,25.9881818 C9.45454545,26.1839919 9.30193459,26.3427273 9.09795862,26.3427273 L5.79295047,26.3427273 C5.596013,26.3427273 5.43636364,26.1782653 5.43636364,25.9881818 Z M0.118181818,25.9881818 C0.118181818,25.7923718 0.270792684,25.6336364 0.474768649,25.6336364 L3.77977681,25.6336364 C3.97671427,25.6336364 4.13636364,25.7980984 4.13636364,25.9881818 C4.13636364,26.1839919 3.98375277,26.3427273 3.77977681,26.3427273 L0.474768649,26.3427273 C0.277831181,26.3427273 0.118181818,26.1782653 0.118181818,25.9881818 Z M10.4,25.9881818 C10.4,25.7923718 10.5526109,25.6336364 10.7565868,25.6336364 L14.061595,25.6336364 C14.2585325,25.6336364 14.4181818,25.7980984 14.4181818,25.9881818 C14.4181818,26.1839919 14.265571,26.3427273 14.061595,26.3427273 L10.7565868,26.3427273 C10.5596494,26.3427273 10.4,26.1782653 10.4,25.9881818 Z M15.6,25.9881818 C15.6,25.7923718 15.7526109,25.6336364 15.9565868,25.6336364 L19.261595,25.6336364 C19.4585325,25.6336364 19.6181818,25.7980984 19.6181818,25.9881818 C19.6181818,26.1839919 19.465571,26.3427273 19.261595,26.3427273 L15.9565868,26.3427273 C15.7596494,26.3427273 15.6,26.1782653 15.6,25.9881818 Z M20.6818182,25.9881818 C20.6818182,25.7923718 20.834429,25.6336364 21.038405,25.6336364 L24.3434132,25.6336364 C24.5403506,25.6336364 24.7,25.7980984 24.7,25.9881818 C24.7,26.1839919 24.5473891,26.3427273 24.3434132,26.3427273 L21.038405,26.3427273 C20.8414675,26.3427273 20.6818182,26.1782653 20.6818182,25.9881818 Z" id="path-11"></path>
        <linearGradient x1="78.8725142%" y1="10.1740057%" x2="19.1796875%" y2="85.9943182%" id="linearGradient-13">
            <stop stop-color="#6E94A1" offset="0%"></stop>
            <stop stop-color="#538794" offset="52.598852%"></stop>
            <stop stop-color="#395E7D" offset="100%"></stop>
        </linearGradient>
        <circle id="path-14" cx="13.13" cy="12.87" r="10.4"></circle>
        <linearGradient x1="78.8725142%" y1="10.1740057%" x2="19.1796875%" y2="85.9943182%" id="linearGradient-15">
            <stop stop-color="#A2ABB8" offset="0%"></stop>
            <stop stop-color="#BBCDDA" offset="52.598852%"></stop>
            <stop stop-color="#90A1B4" offset="100%"></stop>
        </linearGradient>
        <linearGradient x1="78.8725142%" y1="10.1740057%" x2="19.1796875%" y2="85.9943182%" id="linearGradient-16">
            <stop stop-color="#8EA1B1" offset="0%"></stop>
            <stop stop-color="#C1ECDE" offset="52.598852%"></stop>
            <stop stop-color="#95A6CA" offset="100%"></stop>
        </linearGradient>
        <circle id="path-17" cx="13" cy="13" r="13"></circle>
        <radialGradient cx="100%" cy="0%" fx="100%" fy="0%" r="130.65317%" id="radialGradient-18">
            <stop stop-color="#D4B7CD" offset="0%"></stop>
            <stop stop-color="#DED0C7" offset="25.6503043%"></stop>
            <stop stop-color="#DBFAD7" offset="51.203473%"></stop>
            <stop stop-color="#A6D5EF" offset="72.955717%"></stop>
            <stop stop-color="#BCB6E0" offset="100%"></stop>
        </radialGradient>
        <filter x="-50%" y="-50%" width="200%" height="200%" filterUnits="objectBoundingBox" id="filter-19">
            <feOffset dx="0" dy="0" in="SourceAlpha" result="shadowOffsetOuter1"></feOffset>
            <feGaussianBlur stdDeviation="0" in="shadowOffsetOuter1" result="shadowBlurOuter1"></feGaussianBlur>
            <feColorMatrix values="0 0 0 0 0   0 0 0 0 0   0 0 0 0 0  0 0 0 0.106759511 0" in="shadowBlurOuter1" type="matrix" result="shadowMatrixOuter1"></feColorMatrix>
            <feMerge>
                <feMergeNode in="shadowMatrixOuter1"></feMergeNode>
                <feMergeNode in="SourceGraphic"></feMergeNode>
            </feMerge>
        </filter>
        <path d="M9.45546875,19.0409375 C14.6775799,19.0409375 18.9109375,14.8075799 18.9109375,9.58546875 C18.9109375,4.36335756 14.6775799,0.13 9.45546875,0.13 C4.23335756,0.13 0,4.36335756 0,9.58546875 C0,14.8075799 4.23335756,19.0409375 9.45546875,19.0409375 Z M12.2336698,12.226916 C11.5164977,13.0101668 10.4963976,13.4594697 9.43493765,13.4594697 C7.8193213,13.4594697 6.39047021,12.4358152 5.85909399,10.9353923 L9.57436534,10.9353923 C9.79748196,10.9353923 9.97826942,10.7546048 9.97826942,10.5314882 C9.97826942,10.3083716 9.79748196,10.1275841 9.57436534,10.1275841 L4.2011485,10.1275841 C3.97803189,10.1275841 3.79708285,10.3083716 3.79708285,10.5314882 C3.79708285,10.7546048 3.97803189,10.9353923 4.2011485,10.9353923 L5.01380352,10.9353923 C5.5773305,12.9011127 7.38035834,14.2672779 9.43493765,14.2672779 C10.7224223,14.2672779 11.9596613,13.722492 12.8293476,12.7725096 C12.9800846,12.6078783 12.9689368,12.3524494 12.8044671,12.2018739 C12.6398358,12.0512985 12.3844068,12.0626078 12.2336698,12.226916 Z M13.0119122,6.64006372 C12.1330169,5.55550047 10.8293761,4.93364974 9.43493765,4.93364974 C7.29166101,4.93364974 5.43515627,6.42308645 4.95564133,8.49527597 L4.2011485,8.49527597 C3.97803189,8.49527597 3.79708285,8.67606344 3.79708285,8.89918006 C3.79708285,9.12213511 3.97803189,9.30308414 4.2011485,9.30308414 L11.0718801,9.30308414 C11.2948352,9.30308414 11.4757842,9.12213511 11.4757842,8.89918006 C11.4757842,8.67606344 11.2948352,8.49527597 11.0718801,8.49527597 L5.7862297,8.49527597 C6.24441849,6.88208305 7.73078553,5.74145791 9.43493765,5.74145791 C10.5844487,5.74145791 11.6594798,6.25425454 12.3842453,7.14865975 C12.5244808,7.32185382 12.7791019,7.34867305 12.9524576,7.20811443 C13.1256516,7.06771737 13.1523093,6.8132578 13.0119122,6.64006372 Z" id="path-20"></path>
        <linearGradient x1="100%" y1="-9.203125%" x2="8.17578125%" y2="105.777344%" id="linearGradient-22">
            <stop stop-color="#8EA1B1" stop-opacity="0" offset="0%"></stop>
            <stop stop-color="#C1ECDE" offset="52.598852%"></stop>
            <stop stop-color="#95A6CA" stop-opacity="0" offset="100%"></stop>
        </linearGradient>
        <circle id="path-23" cx="13" cy="13" r="13"></circle>
    </defs>
    <g id="Page-1" stroke="none" stroke-width="1" fill="none" fill-rule="evenodd" sketch:type="MSPage">
        <g id="UI/Payment/Promo/Big" sketch:type="MSLayerGroup" transform="translate(1.000000, 1.000000)">
            <rect id="Mask-Copy-2" stroke="url(#linearGradient-2)" fill="url(#linearGradient-1)" sketch:type="MSShapeGroup" x="0" y="0" width="68" height="42" rx="3"></rect>
            <g id="badge-copy-5" transform="translate(21.000000, 8.000000)">
                <g id="Rectangle-2">
                    <mask id="mask-7" sketch:name="Mask" fill="white">
                        <use xlink:href="#path-6"></use>
                    </mask>
                    <g id="Mask" filter="url(#filter-5)">
                        <use stroke="url(#linearGradient-4)" stroke-width="2" fill="url(#linearGradient-3)" fill-rule="evenodd" sketch:type="MSShapeGroup" xlink:href="#path-6"></use>
                        <use stroke="none" fill="none" xlink:href="#path-6"></use>
                    </g>
                    <mask id="mask-9" sketch:name="Mask Copy" fill="white">
                        <use xlink:href="#path-8"></use>
                    </mask>
                    <g id="Mask-Copy" opacity="0.575967817">
                        <use sketch:type="MSShapeGroup" xlink:href="#path-8"></use>
                        <use xlink:href="#path-8"></use>
                    </g>
                    <g mask="url(#mask-9)" id="Oval-58">
                        <g transform="translate(13.300227, 11.755506) rotate(-45.000000) translate(-13.300227, -11.755506) translate(-1.714773, -1.504494)">
                            <g transform="translate(0.000000, 0.000000)">
                                <mask id="mask-12" sketch:name="Mask" fill="white">
                                    <use xlink:href="#path-11"></use>
                                </mask>
                                <use id="Mask" fill="url(#linearGradient-10)" sketch:type="MSShapeGroup" xlink:href="#path-11"></use>
                            </g>
                        </g>
                    </g>
                    <g id="Oval-58">
                        <use fill="url(#linearGradient-13)" fill-rule="evenodd" sketch:type="MSShapeGroup" mask="url(#mask-9)" xlink:href="#path-14"></use>
                        <use fill="none" xlink:href="#path-14"></use>
                    </g>
                    <g id="Mask-Copy-2" opacity="0.575967817">
                        <use fill="url(#linearGradient-15)" sketch:type="MSShapeGroup" mask="url(#mask-9)" xlink:href="#path-17"></use>
                        <use fill="url(#linearGradient-16)" xlink:href="#path-17"></use>
                    </g>
                    <circle id="Oval-100" fill="#6D88A0" sketch:type="MSShapeGroup" mask="url(#mask-9)" cx="13" cy="12.74" r="7.8"></circle>
                </g>
                <g id="Imported-Layers" transform="translate(8.970000, 12.090000)"></g>
                <g id="Imported-Layers" transform="translate(3.661924, 3.297139)">
                    <mask id="mask-21" sketch:name="Mask" fill="white">
                        <use xlink:href="#path-20"></use>
                    </mask>
                    <use id="Mask" fill="url(#radialGradient-18)" filter="url(#filter-19)" sketch:type="MSShapeGroup" xlink:href="#path-20"></use>
                </g>
                <g id="Oval-57" opacity="0.474696828">
                    <use fill="none" sketch:type="MSShapeGroup" xlink:href="#path-23"></use>
                    <use fill="url(#linearGradient-22)" fill-rule="evenodd" xlink:href="#path-23"></use>
                </g>
                <g id="Imported-Layers" transform="translate(13.260000, 11.050000)"></g>
            </g>
        </g>
    </g>
</svg>