<?xml version="1.0" encoding="UTF-8" standalone="no"?>
<svg width="70px" height="44px" viewBox="0 0 70 44" version="1.1" xmlns="http://www.w3.org/2000/svg" xmlns:xlink="http://www.w3.org/1999/xlink" xmlns:sketch="http://www.bohemiancoding.com/sketch/ns">
    <!-- Generator: Sketch 3.4.1 (15681) - http://www.bohemiancoding.com/sketch -->
    <title>Untitled</title>
    <desc>Created with Sketch.</desc>
    <defs></defs>
    <g id="Page-1" stroke="none" stroke-width="1" fill="none" fill-rule="evenodd" sketch:type="MSPage">
        <g id="UI/Payment/JCB/Big" sketch:type="MSLayerGroup" transform="translate(1.000000, 1.000000)">
            <rect id="Mask-Copy-2" stroke="#D2D3DE" fill="#FFFFFF" sketch:type="MSShapeGroup" x="0" y="0" width="68" height="42" rx="3"></rect>
            <path d="M20.3108233,36 L20.360976,36 L20.4053969,35.9941205 L20.4512507,35.9941205 C20.467013,35.9941205 20.4842082,35.9941205 20.5014034,35.9897109 L20.5458243,35.9897109 L20.5902452,35.9838315 C20.6074404,35.9838315 20.6246356,35.977952 20.6403979,35.977952 C20.6575931,35.977952 20.6747883,35.977952 20.6862517,35.9720725 C20.702014,35.9720725 20.7192092,35.9720725 20.7364044,35.966193 C20.7535996,35.966193 20.7636301,35.966193 20.7808253,35.9603136 L20.8309779,35.9544341 C20.8481731,35.9485546 20.8596366,35.9485546 20.8753989,35.9485546 C20.8925941,35.9426752 20.9097892,35.9426752 20.9212527,35.9367957 C20.937015,35.9367957 20.9542102,35.9309162 20.9714054,35.9309162 L21.0158263,35.9265066 C21.0330215,35.9206271 21.0502167,35.9206271 21.0659789,35.9147477 C21.0831741,35.9088682 21.0946376,35.9088682 21.1118328,35.9029887 C21.127595,35.9029887 21.1447902,35.8971093 21.1619854,35.8912298 L21.2064063,35.8853503 L21.256559,35.8735914 C21.2737542,35.8691818 21.2852176,35.8633023 21.3009799,35.8574228 C21.3181751,35.8574228 21.3353703,35.8515434 21.3468338,35.8456639 C21.362596,35.8456639 21.3797912,35.8397844 21.3969864,35.8339049 C21.4127487,35.8280255 21.4299439,35.8280255 21.4414073,35.822146 L21.49156,35.8103871 L21.5359809,35.7942185 C21.5531761,35.788339 21.5703713,35.788339 21.5875665,35.7824596 C21.6033287,35.7765801 21.6147922,35.7707006 21.6319874,35.7648212 C21.6491826,35.7589417 21.6649448,35.7530622 21.68214,35.7471828 L21.7709819,35.7133758 C21.7939088,35.7074963 21.8053723,35.7016169 21.8225675,35.6957374 C21.8383297,35.6898579 21.8555249,35.6854483 21.8669884,35.6795688 C21.8899153,35.6736894 21.8999458,35.6678099 21.917141,35.6619304 C21.9343362,35.656051 21.9500985,35.6501715 21.9615619,35.6384125 C21.9787571,35.6325331 21.9959523,35.6266536 22.0117146,35.622244 L22.0575684,35.5987261 L22.1077211,35.5810877 C22.1249163,35.5693288 22.1349468,35.5634493 22.152142,35.5590397 C22.1693372,35.5531602 22.1865324,35.5414013 22.2022947,35.5355218 C22.2137581,35.5296423 22.2309533,35.5178834 22.2481485,35.5120039 C22.2639108,35.5061244 22.281106,35.4958354 22.2925694,35.4899559 C22.3083317,35.478197 22.3255269,35.4723175 22.3427221,35.466438 C22.3599173,35.4546791 22.3756795,35.4487996 22.387143,35.4385105 L22.4372956,35.4149927 C22.4544908,35.4091132 22.471686,35.3973542 22.4831495,35.3855953 C22.4989118,35.3797158 22.516107,35.3694268 22.5333021,35.3635473 C22.5447656,35.3517883 22.5605279,35.3459089 22.5777231,35.3341499 C22.5949183,35.3282705 22.6106805,35.3179814 22.6278757,35.3062224 C22.6393392,35.300343 22.6565344,35.288584 22.6722966,35.2768251 C22.6894918,35.2650661 22.706687,35.2591867 22.7181505,35.2488976 C22.7339127,35.2371387 22.7511079,35.2253797 22.7683031,35.2195002 C22.7840654,35.2077413 22.8012606,35.1959824 22.812724,35.1856933 L22.8628767,35.1562959 C22.8800719,35.144537 22.8915354,35.1342479 22.9072976,35.122489 C22.9244928,35.11073 22.941688,35.0989711 22.9588832,35.0872122 C22.9689137,35.0754532 22.9861089,35.0651641 23.0033041,35.0534052 C23.0204993,35.0416463 23.0362616,35.0298873 23.047725,35.0181284 C23.0649202,35.0078393 23.0821154,34.9960804 23.0978777,34.9843214 C23.1150729,34.9725625 23.1322681,34.9549241 23.1422986,34.944635 C23.1594938,34.932876 23.176689,34.9211171 23.1938842,34.9093582 C23.2096464,34.8917197 23.2211099,34.8814307 23.2383051,34.8696717 C23.2555003,34.8520333 23.2712626,34.8402744 23.2884577,34.8285154 C23.2999212,34.8123469 23.3171164,34.8005879 23.3328787,34.788829 C23.3500739,34.7711906 23.3672691,34.7609015 23.3787325,34.7432631 C23.3944948,34.7256247 23.41169,34.7138658 23.4288852,34.7035767 C23.4446474,34.6859383 23.4561109,34.6682999 23.4733061,34.6565409 C23.4905013,34.6403724 23.5062635,34.622734 23.5234587,34.610975 C23.5349222,34.5933366 23.5521174,34.5771681 23.5678797,34.5595296 L23.6137335,34.5139637 C23.6294958,34.4963253 23.646691,34.4786869 23.6638862,34.4610485 C23.6810813,34.4507594 23.6968436,34.433121 23.7083071,34.4154826 C23.7255023,34.3993141 23.7412645,34.3816756 23.7584597,34.3640372 C23.7756549,34.3405194 23.7871184,34.3243508 23.8028806,34.3067124 C23.8200758,34.289074 23.837271,34.2729054 23.8544662,34.2493876 C23.8702285,34.2317491 23.8816919,34.2155806 23.8988871,34.1920627 C23.9160823,34.1744243 23.9318446,34.1567859 23.9490398,34.1347379 C23.9605032,34.1170995 23.9776984,34.0935816 23.9934607,34.0715336 C24.0106559,34.0538951 24.0221194,34.0318471 24.0393146,34.0142087 C24.0550768,33.9906908 24.072272,33.9686428 24.0894672,33.9451249 C24.1052295,33.9216071 24.1166929,33.899559 24.1338881,33.8760412 C24.1510833,33.8525233 24.1668456,33.8304753 24.1840408,33.8069574 C24.1955042,33.7849094 24.2126994,33.7613915 24.2284617,33.7378736 C24.2456569,33.7099461 24.2628521,33.6864282 24.2786143,33.6643802 C24.2900778,33.6349829 24.307273,33.611465 24.3244682,33.5835375 C24.3402304,33.5541401 24.3574256,33.5320921 24.3688891,33.5026948 C24.3860843,33.4747673 24.4018466,33.4453699 24.4190418,33.4174424 C24.4362369,33.3880451 24.4477004,33.3586477 24.4634627,33.3248408 C24.4806579,33.2969133 24.4978531,33.2616365 24.5150483,33.233709 C24.5250788,33.1984321 24.542274,33.1705047 24.5594692,33.1352278 C24.5752314,33.1014209 24.5924266,33.066144 24.6038901,33.0323371 C24.6210853,32.9911808 24.6368475,32.9514944 24.6540427,32.9176874 C24.6712379,32.8765311 24.6884331,32.8368447 24.6984637,32.7971583 C24.7156589,32.7501225 24.732854,32.7104361 24.7500492,32.6648702 C24.7658115,32.6193043 24.777275,32.566389 24.7944702,32.5208231 C24.8116654,32.4693778 24.8274276,32.4120529 24.8388911,32.3606075 C24.861818,32.2974032 24.8732815,32.2341989 24.8890437,32.1709946 C24.9062389,32.0960314 24.9234341,32.0210681 24.9334646,31.9475747 C24.9563916,31.8490936 24.9735868,31.7520823 24.9850502,31.6477217 C25.0122759,31.4360608 25.0237394,31.2229299 25.0237394,31.0053895 L25.0466663,6 L17.7587699,6 C17.7415747,6.00587947 17.7301113,6.00587947 17.7129161,6.00587947 L17.6627634,6.00587947 L17.6183425,6.00587947 C17.6011473,6.00587947 17.5911168,6.01175894 17.5739216,6.01175894 L17.523769,6.01175894 C17.5065738,6.01763841 17.4951103,6.01763841 17.4779151,6.01763841 L17.4277625,6.02351788 L17.3833415,6.02939735 L17.3331889,6.02939735 L17.288768,6.03527683 L17.2371824,6.0411563 C17.2271519,6.0455659 17.2099567,6.0455659 17.1927615,6.05144537 C17.1755663,6.05144537 17.159804,6.05144537 17.1483406,6.05732484 C17.1311454,6.05732484 17.1139502,6.06320431 17.0981879,6.06320431 L17.0523341,6.06908378 C17.0365718,6.07496325 17.0193766,6.07496325 17.0021814,6.08084272 C16.9864191,6.0867222 16.9749557,6.0867222 16.9577605,6.09260167 C16.9405653,6.09260167 16.924803,6.09848114 16.9076078,6.09848114 L16.8631869,6.10877021 L16.8130343,6.12052915 C16.7958391,6.12640862 16.7843756,6.12640862 16.7671804,6.13228809 C16.7514182,6.13228809 16.734223,6.13816756 16.7170278,6.14404704 C16.7055643,6.14404704 16.689802,6.14992651 16.6726069,6.15580598 C16.6554117,6.15580598 16.6382165,6.16168545 16.6281859,6.16609505 L16.5766004,6.17785399 C16.5608381,6.18373346 16.5493746,6.18961293 16.5321794,6.19549241 C16.5164172,6.19549241 16.499222,6.20137188 16.4820268,6.20725135 C16.4648316,6.21313082 16.4548011,6.21901029 16.4376059,6.22488976 C16.4204107,6.22929936 16.4032155,6.23517883 16.3874532,6.23517883 L16.3415994,6.25281725 L16.2914467,6.27045566 C16.2799833,6.27633513 16.264221,6.2822146 16.2470258,6.28809407 C16.2298306,6.29250367 16.2140683,6.29838315 16.2026049,6.30426262 C16.1854097,6.31014209 16.1682145,6.31602156 16.1524522,6.32190103 L16.1065984,6.33953944 L16.02922,6.37922587 C16.0120248,6.38510534 15.9948296,6.39098481 15.9833662,6.39686428 C15.9676039,6.40862322 15.9504087,6.41303283 15.9332135,6.4189123 C15.9174513,6.42479177 15.9002561,6.43655071 15.8887926,6.44243018 C15.8715974,6.44830965 15.8558351,6.45418912 15.8386399,6.46594806 C15.8214448,6.47182754 15.8099813,6.47623714 15.794219,6.48799608 C15.7770238,6.49387555 15.7598286,6.50563449 15.7426334,6.51151396 L15.6982125,6.53356198 C15.6810173,6.54532092 15.6652551,6.55120039 15.6537916,6.55707986 C15.6365964,6.5688388 15.6194012,6.57471828 15.603639,6.58647722 C15.5864438,6.59235669 15.5692486,6.60264576 15.559218,6.60852523 C15.5420228,6.62028417 15.5248277,6.63204312 15.5076325,6.63792259 C15.4918702,6.64380206 15.4804067,6.655561 15.4632115,6.66585007 C15.4460163,6.67172954 15.4302541,6.68348849 15.4130589,6.68936796 C15.3958637,6.7011269 15.3844002,6.71288584 15.368638,6.71729544 C15.3514428,6.72905439 15.3342476,6.74081333 15.3184853,6.7466928 C15.3070219,6.75845174 15.2898267,6.77021068 15.2726315,6.78049976 C15.2568692,6.78637923 15.239674,6.79813817 15.2282106,6.80989711 C15.2110154,6.82165605 15.1952531,6.83341499 15.1780579,6.83929446 C15.1608627,6.84958354 15.1436675,6.86134248 15.133637,6.87310142 C15.1164418,6.88486036 15.0992466,6.8966193 15.0834843,6.90690838 C15.0662891,6.91866732 15.049094,6.93042626 15.0376305,6.9421852 L14.9874778,6.97599216 C14.9760144,6.9877511 14.9602521,6.99951004 14.9430569,7.01714846 C14.9258617,7.02743753 14.9086665,7.03919647 14.8929043,7.05095541 C14.8814408,7.06271436 14.8642456,7.0744733 14.8470504,7.09064184 C14.8312882,7.10240078 14.8198247,7.11415973 14.8026295,7.12591867 C14.7854343,7.14355708 14.7696721,7.15384615 14.7524769,7.17148457 C14.7352817,7.18324351 14.7252511,7.19500245 14.7080559,7.21117099 C14.6908607,7.22292994 14.6736656,7.23468888 14.6579033,7.25232729 C14.6407081,7.26408623 14.6292446,7.28025478 14.6120494,7.29201372 C14.5962872,7.30965213 14.579092,7.32141107 14.5618968,7.33757962 C14.5447016,7.35521803 14.5346711,7.36697697 14.5174759,7.38461538 L14.4673232,7.43018128 L14.4229023,7.48162665 C14.4057071,7.49926507 14.3942436,7.51102401 14.3770485,7.52719255 C14.3612862,7.54483097 14.344091,7.56246938 14.3268958,7.57863792 C14.3097006,7.59627634 14.2996701,7.61391475 14.2824749,7.63155316 C14.2652797,7.64772171 14.2480845,7.66536012 14.2323222,7.68299853 C14.215127,7.70504655 14.2036636,7.72268496 14.1864684,7.74032337 C14.1707061,7.75796178 14.1535109,7.77413033 14.1363157,7.79764821 C14.1205535,7.81528662 14.10909,7.83145517 14.0918948,7.85497305 C14.0746996,7.87261146 14.0589374,7.89465948 14.0417422,7.91229789 C14.0302787,7.93581578 14.0130835,7.95786379 13.9973213,7.9755022 C13.9801261,7.99902009 13.9629309,8.0210681 13.9471686,8.04458599 C13.9357051,8.0622244 13.9185099,8.08427242 13.9013148,8.1077903 C13.8855525,8.12983831 13.874089,8.1533562 13.8568938,8.17687408 C13.8396986,8.1989221 13.8239364,8.22243998 13.8067412,8.25036747 C13.789546,8.27388535 13.7780825,8.29740323 13.7623203,8.31945125 C13.7451251,8.3488486 13.7279299,8.37089662 13.7107347,8.40029397 C13.6949724,8.42969133 13.683509,8.45173934 13.6663138,8.4811367 C13.6505515,8.50906418 13.6333563,8.53846154 13.6161611,8.56638902 C13.6046977,8.59578638 13.5889354,8.62371387 13.5717402,8.65311122 C13.554545,8.68103871 13.5373498,8.71631553 13.5273193,8.74424302 C13.5101241,8.77951984 13.4929289,8.80744733 13.4757337,8.84272415 C13.4599714,8.87653111 13.448508,8.91180794 13.4313128,8.94561489 C13.4141176,8.98089172 13.3983553,9.02057815 13.3811601,9.05438511 C13.3639649,9.0955414 13.3525015,9.13522783 13.3367392,9.17491426 C13.319544,9.21607055 13.3023488,9.26163645 13.2923183,9.30132288 C13.2693914,9.34835865 13.2579279,9.39980402 13.2407327,9.44536992 C13.2249705,9.49681529 13.2077753,9.54826066 13.1963118,9.59970603 C13.1791166,9.65703087 13.1633543,9.71582558 13.1461591,9.77902989 C13.128964,9.8466438 13.1117688,9.91572758 13.1017382,9.98481137 C13.0343904,10.3184713 13,10.6565409 13,11.0019598 L13,23.3517883 C13.0343904,23.3694268 13.0673478,23.3855953 13.1017382,23.4032337 L13.1461591,23.4267516 L13.1963118,23.4487996 L13.2407327,23.4723175 L13.319544,23.5061244 L13.3639649,23.5296423 L13.4141176,23.5531602 L13.4599714,23.5752082 L13.5101241,23.5928466 L13.5989659,23.6384125 L13.6505515,23.656051 L13.6949724,23.6795688 L13.7451251,23.6957374 L13.789546,23.7192553 L13.8396986,23.7368937 L13.8855525,23.7589417 L13.9299734,23.7765801 L13.9801261,23.800098 L14.024547,23.8162665 L14.0746996,23.8339049 L14.1205535,23.8515434 L14.1707061,23.8677119 L14.215127,23.8912298 L14.2652797,23.9088682 L14.3097006,23.9265066 L14.3612862,23.9426752 L14.4057071,23.9603136 L14.450128,23.9720725 L14.5002807,23.9882411 L14.5447016,24.0058795 L14.5962872,24.0235179 L14.6407081,24.0411563 L14.6908607,24.0514454 L14.7352817,24.0690838 L14.7854343,24.0808427 L14.8312882,24.0984811 L14.8757091,24.1102401 L14.9258617,24.1264086 L14.9702826,24.1381676 L15.0218682,24.1499265 L15.0662891,24.1675649 L15.1164418,24.177854 L15.1608627,24.1896129 L15.2110154,24.2013719 L15.2568692,24.2131308 L15.3012901,24.2307692 L15.3514428,24.2410583 L15.3958637,24.2528172 L15.4460163,24.2645762 L15.4918702,24.2763351 L15.5420228,24.2822146 L15.5864438,24.2939735 L15.6365964,24.3042626 L15.6810173,24.3160216 L15.7268712,24.321901 L15.7770238,24.33366 L15.8214448,24.3395394 L15.8715974,24.3512984 L15.9174513,24.355708 L15.9676039,24.3674669 L16.0120248,24.3733464 L16.0564457,24.3851053 L16.1065984,24.3909848 L16.179678,24.3968643 L16.2298306,24.4027438 L16.2756845,24.4086232 L16.3258371,24.4145027 L16.370258,24.4189123 L16.4204107,24.4247918 L16.5106854,24.4365507 L16.5608381,24.4365507 L16.605259,24.4424302 L16.6554117,24.4483097 L16.6998326,24.4483097 L16.7514182,24.4541891 L16.7958391,24.4541891 L16.8459917,24.4600686 L16.9405653,24.4600686 L16.9864191,24.4659481 L17.3159937,24.4659481 L17.3604146,24.4659481 C17.3776098,24.4600686 17.394805,24.4600686 17.4105673,24.4600686 L17.4564211,24.4600686 C17.4721834,24.4600686 17.4893786,24.4541891 17.5065738,24.4541891 L17.5509947,24.4541891 C17.5681899,24.4483097 17.5853851,24.4483097 17.6011473,24.4483097 L17.6470012,24.4424302 C17.6627634,24.4424302 17.6799586,24.4365507 17.6971538,24.4365507 C17.7086173,24.4365507 17.7243796,24.4306712 17.7415747,24.4306712 L17.7859957,24.4247918 C17.8031909,24.4189123 17.8203861,24.4189123 17.8361483,24.4145027 C17.8533435,24.4145027 17.864807,24.4086232 17.8820022,24.4086232 C17.8977644,24.4027438 17.9149596,24.4027438 17.9321548,24.3968643 C17.94935,24.3909848 17.9593805,24.3909848 17.9765757,24.3851053 C17.9937709,24.3851053 18.0095332,24.3792259 18.0267284,24.3733464 C18.0381918,24.3733464 18.055387,24.3674669 18.0711493,24.3615875 C18.0883445,24.355708 18.099808,24.355708 18.1170032,24.3512984 C18.1327654,24.3454189 18.1499606,24.3395394 18.1671558,24.3395394 C18.184351,24.33366 18.1943815,24.3277805 18.2115767,24.321901 C18.2287719,24.3160216 18.2459671,24.3101421 18.2617294,24.3042626 C18.2789246,24.2983831 18.290388,24.2939735 18.3075832,24.2880941 C18.3233455,24.2822146 18.3405407,24.2763351 18.3577359,24.2704557 C18.3677664,24.2645762 18.3849616,24.2586967 18.4021568,24.2528172 C18.419352,24.2469378 18.4351142,24.2410583 18.4523094,24.2351788 C18.4637729,24.2248898 18.4809681,24.2190103 18.4967304,24.2131308 C18.5139255,24.2072513 18.525389,24.1954924 18.5425842,24.1896129 C18.5583465,24.1837335 18.5755417,24.1719745 18.5927369,24.1675649 C18.6084991,24.1616854 18.6199626,24.1499265 18.6371578,24.144047 C18.654353,24.1322881 18.6701152,24.1264086 18.6873104,24.1146497 C18.7045056,24.1102401 18.7159691,24.0984811 18.7317313,24.0867222 C18.7489265,24.0808427 18.7661217,24.0690838 18.7833169,24.0573248 C18.7933474,24.0514454 18.8105426,24.0411563 18.8277378,24.0293974 C18.8435001,24.0176384 18.8549636,24.0058795 18.8721588,23.9941205 C18.8893539,23.9838315 18.9051162,23.9720725 18.9223114,23.9603136 C18.9395066,23.9485546 18.9509701,23.9367957 18.9667323,23.9265066 C18.9839275,23.9147477 19.0011227,23.9029887 19.0125862,23.8853503 C19.0283484,23.8735914 19.0455436,23.8633023 19.0627388,23.8456639 C19.079934,23.8339049 19.0956963,23.8162665 19.1071597,23.8045076 C19.1243549,23.788339 19.1415501,23.7765801 19.1573124,23.7589417 C19.1745076,23.7427732 19.1917028,23.7251347 19.2017333,23.7074963 C19.2189285,23.6898579 19.2361237,23.6736894 19.2533189,23.656051 C19.2690811,23.6384125 19.2862763,23.6207741 19.2977398,23.5987261 C19.314935,23.5810877 19.3306973,23.5590397 19.3478925,23.5414013 C19.3650876,23.5237629 19.3765511,23.500245 19.3923134,23.478197 C19.4095086,23.4546791 19.4267038,23.4326311 19.442466,23.4091132 C19.4596612,23.3797158 19.4711247,23.3576678 19.4883199,23.3282705 C19.5040821,23.300343 19.5212773,23.2768251 19.5327408,23.2488976 C19.549936,23.2136208 19.5656982,23.1856933 19.5828934,23.1504165 C19.6000886,23.1166095 19.6172838,23.0813327 19.6273144,23.0475257 C19.6445096,23.0078393 19.6617047,22.966683 19.6788999,22.9269966 C19.6946622,22.8755512 19.7118574,22.8285154 19.7233209,22.7770701 C19.7405161,22.7138658 19.7562783,22.6506614 19.7677418,22.5874571 C19.7964004,22.4786869 19.806431,22.3699167 19.8178944,22.2611465 C19.8236262,22.1685448 19.8293579,22.0832925 19.8293579,21.9906908 L19.8293579,16.1861832 L24.0780037,16.1861832 L24.0780037,21.9906908 C24.0780037,22.1567859 24.072272,22.3243508 24.0550768,22.4904459 C24.0436134,22.6050955 24.0278511,22.7197452 24.0106559,22.8343949 C23.9934607,22.9093582 23.9776984,22.9843214 23.9605032,23.0592847 C23.9490398,23.1166095 23.9318446,23.1798138 23.9160823,23.2371387 C23.8988871,23.288584 23.8816919,23.3400294 23.8644967,23.3855953 C23.8544662,23.4326311 23.837271,23.4723175 23.8200758,23.5178834 C23.8028806,23.5531602 23.7871184,23.5928466 23.7699232,23.6325331 C23.7584597,23.6678099 23.7412645,23.7016169 23.7255023,23.7368937 C23.7083071,23.7707006 23.6911119,23.800098 23.6753496,23.8339049 C23.6638862,23.8633023 23.646691,23.8912298 23.6294958,23.9206271 C23.6137335,23.9485546 23.5965383,23.977952 23.5850748,24.0058795 C23.5678797,24.0293974 23.5521174,24.0573248 23.5349222,24.0808427 C23.5234587,24.1043606 23.5062635,24.1322881 23.4905013,24.155806 C23.4733061,24.177854 23.4561109,24.2013719 23.4403486,24.2248898 C23.4288852,24.2410583 23.41169,24.2645762 23.3944948,24.2880941 C23.3787325,24.3101421 23.3672691,24.3277805 23.3500739,24.3512984 C23.3328787,24.3674669 23.3171164,24.3851053 23.2999212,24.4086232 C23.2884577,24.4247918 23.2712626,24.4424302 23.2555003,24.4659481 C23.2383051,24.4821166 23.2211099,24.499755 23.2039147,24.5173934 C23.1881525,24.5350318 23.176689,24.5512004 23.1594938,24.5688388 C23.1422986,24.5805977 23.1265363,24.5982362 23.1093411,24.6144047 C23.0978777,24.6320431 23.0821154,24.6496815 23.0649202,24.6614405 C23.047725,24.677609 23.0305298,24.6952474 23.0204993,24.7070064 C23.0033041,24.7231749 22.9861089,24.7349339 22.9689137,24.7525723 C22.9531515,24.7643312 22.941688,24.7819696 22.9244928,24.7922587 C22.9072976,24.8040176 22.8915354,24.8216561 22.8743402,24.833415 C22.857145,24.8451739 22.8456815,24.8613425 22.8299192,24.8731014 C22.812724,24.8848604 22.7955289,24.8966193 22.7797666,24.9069084 C22.7683031,24.9186673 22.7511079,24.9304263 22.7339127,24.9480647 C22.7181505,24.9539441 22.7009553,24.9701127 22.6894918,24.9759922 C22.6722966,24.9936306 22.6565344,25.0053895 22.6393392,25.011269 C22.622144,25.0230279 22.6106805,25.033317 22.5949183,25.0450759 C22.5777231,25.0568349 22.5605279,25.0685938 22.5447656,25.0744733 C22.5333021,25.0862322 22.516107,25.0965213 22.4989118,25.1082803 C22.4831495,25.1141597 22.4659543,25.1259187 22.4487591,25.1376776 C22.4372956,25.1494366 22.4215334,25.1538462 22.4043382,25.1656051 C22.387143,25.1714846 22.3756795,25.1832435 22.3541855,25.1950024 C22.3427221,25.2008819 22.3255269,25.2126409 22.3083317,25.2170505 C22.2925694,25.2288094 22.281106,25.2405683 22.2639108,25.2464478 C22.2481485,25.2523273 22.2309533,25.2640862 22.2137581,25.2699657 C22.1965629,25.2802548 22.1865324,25.2861342 22.1693372,25.2978932 C22.152142,25.3037727 22.1349468,25.3155316 22.1191846,25.3214111 C22.1077211,25.3272905 22.0905259,25.3375796 22.0733307,25.3434591 C22.0575684,25.3493386 22.0403733,25.3610975 22.0231781,25.366977 L21.9343362,25.4125429 C21.917141,25.4184223 21.8999458,25.4301813 21.8841836,25.4360608 C21.8669884,25.4419402 21.8497932,25.4478197 21.8383297,25.4536992 L21.7881771,25.4757472 L21.7437562,25.4933856 C21.726561,25.4992651 21.7093658,25.5051445 21.6936035,25.511024 C21.6764083,25.5169035 21.6649448,25.5271926 21.6491826,25.533072 C21.6319874,25.5389515 21.6147922,25.544831 21.6033287,25.5507104 L21.5531761,25.5683488 C21.5359809,25.5742283 21.5202186,25.5801078 21.5087552,25.5845174 C21.49156,25.5903969 21.4743648,25.5962763 21.4586025,25.6021558 L21.4127487,25.6197942 L21.362596,25.6374326 C21.3468338,25.6418422 21.3296386,25.6418422 21.3181751,25.6477217 L21.2680225,25.6653601 L21.2236015,25.6771191 C21.2064063,25.6829985 21.1892111,25.688878 21.1734489,25.6947575 L21.127595,25.7050465 C21.1118328,25.710926 21.0946376,25.7168055 21.0831741,25.7168055 C21.0602472,25.722685 21.0502167,25.7285644 21.0330215,25.7344439 L20.9886005,25.7462028 C20.9714054,25.7520823 20.9542102,25.7579618 20.937015,25.7579618 C20.9212527,25.7638413 20.9040575,25.7682509 20.8925941,25.7741303 L20.8424414,25.7858893 C20.8252462,25.7858893 20.8152157,25.7917687 20.7980205,25.7976482 L20.7478678,25.8035277 L20.702014,25.8152866 C20.6862517,25.8211661 20.6690565,25.8255757 20.6575931,25.8255757 L20.6074404,25.8373346 L20.5630195,25.8432141 C20.5458243,25.8490936 20.5286291,25.8549731 20.5128668,25.8549731 L20.4225921,25.8784909 L20.3724394,25.8843704 C20.3552442,25.88878 20.3437808,25.88878 20.3280185,25.8946595 C20.3108233,25.8946595 20.2936281,25.900539 20.2764329,25.900539 L20.232012,25.9064184 C20.2162498,25.9122979 20.1990546,25.9122979 20.1818594,25.9181774 L20.0930175,25.9299363 L20.0414319,25.9416952 C20.0256697,25.9416952 20.0084745,25.9475747 19.997011,25.9475747 L19.9468584,25.9519843 L19.9024375,25.9578638 L19.8522848,25.9637433 L19.806431,25.9696227 L19.7562783,25.9755022 L19.6674365,25.9872611 L19.6172838,25.9931406 L19.57143,25.9990201 L19.5212773,26.0048996 L19.4768564,26.0093092 L19.4324355,26.0093092 L19.3822828,26.0151886 L19.336429,26.0210681 L19.2862763,26.0269476 L19.2418554,26.0269476 L19.1917028,26.032827 L19.1458489,26.032827 L19.0956963,26.0387065 L19.0512754,26.0387065 L19.0011227,26.044586 L18.9567018,26.044586 L18.9108479,26.0504655 L18.8162744,26.0504655 L18.7661217,26.0563449 L18.6701152,26.0563449 L18.6256943,26.0622244 L18.4852669,26.0622244 L18.4351142,26.0681039 L17.4951103,26.0681039 L17.4449577,26.0622244 L17.3045302,26.0622244 L17.2601093,26.0563449 L17.1139502,26.0563449 L17.0695292,26.0504655 L17.0193766,26.0504655 L16.9749557,26.044586 L16.8789492,26.044586 L16.8345283,26.0387065 L16.7843756,26.0387065 L16.7399547,26.032827 L16.689802,26.032827 L16.6439482,26.0269476 L16.5937955,26.0269476 L16.5493746,26.0210681 L16.499222,26.0210681 L16.4089472,26.0093092 L16.3587946,26.0093092 L16.3143736,26.0048996 L16.264221,25.9990201 L16.2183671,25.9990201 L16.1682145,25.9931406 L16.1237936,25.9872611 L16.0736409,25.9872611 L15.9833662,25.9755022 L15.9332135,25.9696227 L15.8887926,25.9696227 L15.8386399,25.9578638 L15.794219,25.9578638 L15.7426334,25.9519843 L15.6537916,25.9416952 L15.603639,25.9358158 L15.559218,25.9299363 L15.5076325,25.9240568 L15.4632115,25.9181774 L15.4130589,25.9122979 L15.368638,25.9064184 L15.3184853,25.900539 L15.2282106,25.88878 L15.1780579,25.8843704 L15.133637,25.8784909 L15.0834843,25.8726115 L15.0376305,25.8608525 L14.9874778,25.8549731 L14.9430569,25.8490936 L14.8929043,25.8432141 L14.8026295,25.8314552 L14.7524769,25.8211661 L14.7080559,25.8152866 L14.6579033,25.8094072 L14.6120494,25.7976482 L14.5618968,25.7917687 L14.5174759,25.7858893 L14.4673232,25.7741303 L14.4229023,25.7682509 L14.3770485,25.7579618 L14.3268958,25.7520823 L14.2824749,25.7462028 L14.2323222,25.7344439 L14.1864684,25.7285644 L14.1363157,25.7168055 L14.0918948,25.710926 L14.0417422,25.7006369 L13.9973213,25.6947575 L13.9471686,25.6829985 L13.9013148,25.6712396 L13.8568938,25.6653601 L13.8067412,25.6536012 L13.7623203,25.6418422 L13.7107347,25.6315532 L13.6663138,25.6256737 L13.6161611,25.6139147 L13.5273193,25.5903969 L13.4757337,25.5845174 L13.4313128,25.5742283 L13.3811601,25.5624694 L13.2923183,25.5389515 L13.2407327,25.5271926 L13.1963118,25.5169035 L13.1461591,25.5051445 L13.1017382,25.4933856 C13.0343904,25.4757472 13,25.4639882 13,25.4639882 L13,36 L20.2162498,36 L20.2664024,36 L20.3108233,36 Z" id="Imported-Layers" fill="#0099CC" sketch:type="MSShapeGroup"></path>
            <path d="M28.1886163,17.3855953 C28.2057633,17.3738364 28.2229102,17.3635473 28.2400572,17.3517883 C28.2557752,17.3400294 28.2672065,17.3282705 28.2843534,17.3165115 C28.3015004,17.3062224 28.3172184,17.2944635 28.3343653,17.2827046 C28.3457966,17.2709456 28.3629436,17.2591867 28.3786616,17.2488976 L28.4243868,17.2136208 C28.4401048,17.2018618 28.4572517,17.1901029 28.4743987,17.1856933 L28.5186949,17.1504165 C28.5358419,17.1386575 28.5515599,17.1283684 28.5687068,17.122489 C28.5858538,17.11073 28.5972851,17.0989711 28.6130031,17.0930916 C28.63015,17.0813327 28.647297,17.0695737 28.663015,17.0651641 C28.6801619,17.0534052 28.6915932,17.0416463 28.7087402,17.0357668 C28.7244582,17.0240078 28.7416051,17.0122489 28.7587521,17.0063694 C28.7701834,16.9960804 28.7859014,16.9902009 28.8030483,16.9784419 L28.8473446,16.9549241 L28.8987854,16.9269966 C28.9145035,16.9211171 28.9259347,16.9093582 28.9430817,16.8975992 C28.9587997,16.8917197 28.9759467,16.8858403 28.9930936,16.8755512 L29.0373899,16.8520333 L29.0874018,16.8285154 L29.1331269,16.8005879 C29.148845,16.7947085 29.1659919,16.788829 29.1831388,16.7829495 L29.2717314,16.7373836 L29.3217433,16.7138658 L29.3674684,16.6918177 L29.4117647,16.6741793 L29.4617766,16.6506614 L29.5060729,16.6344929 L29.5560848,16.6168545 L29.60181,16.5933366 C29.617528,16.5874571 29.6346749,16.5815777 29.6518219,16.5771681 L29.6961181,16.5595296 C29.7132651,16.5536502 29.730412,16.5477707 29.7404144,16.5418912 C29.7575613,16.5360118 29.7747083,16.5301323 29.7918552,16.5242528 L29.8361515,16.5080843 L29.8861634,16.4904459 C29.9033103,16.4845664 29.9133127,16.4786869 29.9304596,16.4728074 L29.9804715,16.455169 C29.9976185,16.4507594 30.0090498,16.44488 30.0261967,16.4390005 L30.070493,16.4272415 L30.1205049,16.4096031 L30.1648011,16.3978442 L30.2148131,16.3816756 L30.2605382,16.3699167 L30.3105501,16.3522783 L30.3548464,16.3405194 L30.4048583,16.3302303 L30.4491546,16.3125919 L30.5834723,16.277315 L30.6334842,16.267026 L30.7235056,16.2435081 L30.7735175,16.2317491 L30.8178138,16.2199902 L30.8678257,16.2097011 L30.9135508,16.1979422 L30.9635628,16.1920627 L31.0521553,16.1685448 L31.1021672,16.1626654 L31.1478924,16.1509064 L31.1979043,16.1406173 L31.2422005,16.1347379 L31.2922124,16.1288584 L31.3379376,16.1170995 L31.3879495,16.11122 L31.4322458,16.099461 L31.4822577,16.0935816 L31.5265539,16.0877021 L31.5722791,16.077413 L31.622291,16.0715336 L31.6665873,16.0656541 L31.7051679,16.0480157 L31.7566087,16.0421362 L31.8452012,16.0303773 L31.8952131,16.0259677 L31.9395094,16.0200882 L31.9909502,16.0142087 L32.0795427,16.0024498 L32.1295547,15.9965703 L32.1738509,15.9906908 L32.2252917,15.9906908 L32.3138843,15.9789319 L32.3638962,15.9730524 L32.4096213,15.9730524 L32.4596332,15.967173 L32.5039295,15.9627634 L32.5539414,15.9627634 L32.5982377,15.9568839 L32.6439628,15.9568839 L32.6939748,15.9510044 L32.738271,15.9510044 L32.7882829,15.9451249 L32.88402,15.9451249 L32.9283163,15.9392455 L32.9726125,15.9392455 L33.0226244,15.933366 L33.1626578,15.933366 L33.2126697,15.9274865 L33.4470112,15.9274865 L33.4913075,15.9216071 L34.1957609,15.9216071 L34.2457728,15.9274865 L34.3343653,15.9274865 L34.3843772,15.933366 L34.6187187,15.933366 L34.6644439,15.9392455 L34.7144558,15.9392455 L34.7587521,15.9451249 L34.8544892,15.9451249 L34.8987854,15.9510044 L34.9430817,15.9510044 L34.9930936,15.9568839 L35.0373899,15.9568839 L35.083115,15.9627634 L35.1331269,15.9627634 L35.1774232,15.967173 L35.2274351,15.9730524 L35.2717314,15.9730524 L35.3174565,15.9789319 L35.3674684,15.9789319 L35.4117647,15.9848114 L35.4617766,15.9906908 L35.5075018,15.9965703 L35.551798,15.9965703 L35.60181,16.0024498 L35.6461062,16.0083293 L35.6861157,16.0200882 L35.730412,16.0259677 L35.7747083,16.0259677 L35.8247202,16.0303773 L35.8690164,16.0362567 L35.9204573,16.0421362 L35.9647535,16.0480157 L36.0147654,16.0538951 L36.1033579,16.0656541 L36.1547988,16.0715336 L36.199095,16.077413 L36.2491069,16.0832925 L36.2934032,16.0877021 L36.3434151,16.0935816 L36.3891403,16.099461 L36.4391522,16.11122 L36.5277447,16.1229789 L36.5791855,16.1347379 L36.6234818,16.1406173 L36.6734937,16.1464968 L36.7177899,16.1509064 L36.7678019,16.1567859 L36.813527,16.1685448 L36.8635389,16.1744243 L36.9078352,16.1803038 L36.9521315,16.1920627 L37.0021434,16.1979422 L37.0478685,16.2038217 L37.0978804,16.2141107 L37.1421767,16.2199902 L37.1921886,16.2317491 L37.2364849,16.2376286 L37.2822101,16.2493876 L37.332222,16.255267 L37.3765182,16.267026 L37.4265301,16.2714356 L37.4722553,16.2831945 L37.5222672,16.289074 L37.6108597,16.3125919 L37.6608716,16.3243508 L37.7065968,16.3302303 L37.7566087,16.3405194 L37.800905,16.3463988 L37.8452012,16.3581578 L37.8952131,16.3699167 L37.9409383,16.3816756 L37.9909502,16.3875551 L38.0352465,16.3978442 L38.0852584,16.4096031 L38.1295547,16.4213621 L38.1967135,16.44488 L38.2424387,16.455169 L38.2924506,16.466928 L38.3367468,16.4786869 L38.3867588,16.4845664 L38.4767802,16.5080843 L38.5267921,16.5183733 L38.5710884,16.5301323 L38.6211003,16.5418912 L38.6653965,16.5536502 L38.6653965,18.6717295 L38.6211003,18.6496815 L38.5710884,18.6261636 L38.5267921,18.5982362 L38.4767802,18.5747183 L38.3867588,18.5291524 L38.3367468,18.5056345 L38.2924506,18.4821166 L38.2424387,18.4600686 L38.1967135,18.4365507 L38.1467016,18.4145027 L38.1024053,18.3909848 L38.0523934,18.3674669 L38.0080972,18.3512984 L37.962372,18.3277805 L37.9123601,18.3042626 L37.8680638,18.2880941 L37.8180519,18.2645762 L37.7723267,18.2469378 L37.7223148,18.2248898 L37.6780186,18.2072513 L37.6280067,18.1837335 L37.5379852,18.1499265 L37.4879733,18.1322881 L37.4436771,18.1087702 L37.3936652,18.0926017 L37.3493689,18.0749633 L37.2979281,18.0573248 L37.2093356,18.0235179 L37.1593236,18.0117589 L37.1150274,17.9941205 L37.0635866,17.977952 L37.0192903,17.966193 L36.9692784,17.9485546 L36.9249821,17.9309162 L36.879257,17.9206271 L36.8292451,17.9029887 L36.7849488,17.8912298 L36.7349369,17.8735914 L36.6906406,17.8633023 L36.6406287,17.8515434 L36.5949035,17.8339049 L36.5448916,17.822146 L36.4562991,17.800098 L36.4048583,17.788339 L36.360562,17.7765801 L36.3105501,17.7648212 L36.2662539,17.7530622 L36.216242,17.7413033 L36.1705168,17.7310142 L36.1205049,17.7251347 L36.0319124,17.7016169 L35.9819005,17.6957374 L35.9361753,17.6839784 L35.8861634,17.6795688 L35.8418671,17.6678099 L35.7918552,17.6619304 L35.74613,17.6501715 L35.7018338,17.644292 L35.6518219,17.6384125 L35.6075256,17.6266536 L35.5575137,17.6207741 L35.5117885,17.6163645 L35.4617766,17.6104851 L35.4174804,17.6046056 L35.3674684,17.5987261 L35.277447,17.5869672 L35.2274351,17.5810877 L35.1388426,17.5693288 L35.0888307,17.5693288 L35.0431055,17.5634493 L34.9930936,17.5575698 L34.9487973,17.5575698 L34.9045011,17.5531602 L34.8544892,17.5531602 L34.808764,17.5472807 L34.7144558,17.5472807 L34.6644439,17.5414013 L34.2400572,17.5414013 L34.1957609,17.5414013 C34.178614,17.5472807 34.161467,17.5472807 34.1443201,17.5472807 L34.1000238,17.5472807 L34.0557276,17.5531602 L34.0057156,17.5531602 L33.9599905,17.5575698 L33.9099786,17.5575698 C33.8999762,17.5634493 33.8828292,17.5634493 33.8656823,17.5634493 L33.821386,17.5693288 L33.7713741,17.5752082 L33.725649,17.5810877 L33.6756371,17.5869672 L33.6313408,17.5928466 L33.5870445,17.6046056 C33.5698976,17.6046056 33.5527507,17.6046056 33.5370326,17.6104851 C33.5198857,17.6104851 33.5027387,17.6163645 33.4913075,17.6163645 C33.4755894,17.6207741 33.4584425,17.6207741 33.4412955,17.6266536 C33.4255775,17.6266536 33.4084306,17.6325331 33.3969993,17.6325331 C33.3798523,17.6384125 33.3641343,17.644292 33.3469874,17.644292 C33.3298404,17.6501715 33.3184091,17.6501715 33.3026911,17.656051 C33.2855442,17.6619304 33.2683972,17.6619304 33.2512503,17.6678099 L33.206954,17.6795688 C33.1898071,17.6795688 33.1740891,17.6839784 33.1626578,17.6898579 C33.1455108,17.6957374 33.1283639,17.6957374 33.1126459,17.7016169 C33.0954989,17.7074963 33.078352,17.7133758 33.0683496,17.7133758 L33.0169088,17.7310142 C33.0011908,17.7368937 32.9840438,17.7413033 32.9726125,17.7413033 C32.9554656,17.7471828 32.9397476,17.7530622 32.9226006,17.7589417 C32.9111693,17.7648212 32.8940224,17.7707006 32.8783044,17.7765801 C32.8611574,17.7824596 32.8440105,17.788339 32.8325792,17.7942185 C32.8168612,17.800098 32.7997142,17.8045076 32.7825673,17.8103871 C32.7668492,17.8162665 32.755418,17.822146 32.738271,17.8280255 C32.7211241,17.8339049 32.705406,17.8397844 32.6882591,17.8456639 C32.6711122,17.8515434 32.6596809,17.8574228 32.6439628,17.8633023 C32.6268159,17.8735914 32.609669,17.8794708 32.592522,17.8853503 C32.5825196,17.8912298 32.5653727,17.9029887 32.5482258,17.9088682 C32.5310788,17.9147477 32.5153608,17.9206271 32.5039295,17.9309162 C32.4867826,17.9367957 32.4710645,17.9426752 32.4539176,17.9544341 C32.4367707,17.9603136 32.4253394,17.966193 32.4096213,17.977952 C32.3924744,17.9838315 32.3753275,17.9941205 32.3581805,18 C32.3424625,18.0117589 32.3310312,18.0176384 32.3138843,18.0235179 C32.2967373,18.0352768 32.2810193,18.0470358 32.2638724,18.0514454 C32.2524411,18.0632043 32.2352941,18.0690838 32.2195761,18.0808427 C32.2024291,18.0926017 32.1909979,18.0984811 32.1738509,18.1087702 C32.1581329,18.1205292 32.1409859,18.1322881 32.123839,18.1381676 C32.108121,18.1499265 32.0966897,18.1616854 32.0795427,18.1719745 C32.0623958,18.1837335 32.0466778,18.1954924 32.0295308,18.2013719 C32.0180995,18.2131308 32.0009526,18.2248898 31.9852346,18.2351788 C31.9680876,18.2469378 31.9509407,18.2586967 31.9352227,18.2704557 C31.9237914,18.2880941 31.9066444,18.2983831 31.8894975,18.3101421 C31.8737795,18.321901 31.8566325,18.3395394 31.8452012,18.3512984 C31.8280543,18.3615875 31.8123363,18.3733464 31.7951893,18.3909848 C31.7780424,18.4027438 31.7666111,18.4145027 31.7508931,18.4306712 C31.7337461,18.4483097 31.7165992,18.4600686 31.6994523,18.4762371 C31.6894499,18.4938756 31.6723029,18.5056345 31.655156,18.5232729 C31.639438,18.5394415 31.622291,18.5512004 31.6108597,18.5688388 C31.5937128,18.5864772 31.5779948,18.6026458 31.5608478,18.6202842 C31.5437009,18.6379226 31.5322696,18.655561 31.5165516,18.6717295 C31.4994046,18.6952474 31.4822577,18.7128858 31.4708264,18.7290544 C31.4551084,18.7466928 31.4379614,18.7702107 31.4208145,18.7863792 C31.4036675,18.8098971 31.3879495,18.833415 31.3765182,18.8495835 C31.3593713,18.8731014 31.3422243,18.8966193 31.3265063,18.9186673 C31.3093594,18.9421852 31.2922124,18.9657031 31.2822101,18.9877511 C31.2650631,19.0171485 31.2479162,19.0391965 31.2307692,19.0627144 C31.2150512,19.0906418 31.1979043,19.1200392 31.186473,19.1435571 C31.169326,19.1714846 31.153608,19.2008819 31.1364611,19.2288094 C31.1193141,19.2640862 31.1021672,19.2920137 31.0921648,19.3272905 C31.0750179,19.3610975 31.0578709,19.3949045 31.0421529,19.4301813 C31.025006,19.4698677 31.0135747,19.5051445 30.9964277,19.544831 C30.9807097,19.5845174 30.9635628,19.6315532 30.9521315,19.6712396 C30.9349845,19.722685 30.9192665,19.7682509 30.9021196,19.8211661 C30.8849726,19.8784909 30.8678257,19.9358158 30.8578233,19.9990201 C30.8349607,20.0725135 30.8235294,20.1474767 30.8063825,20.22244 C30.7849488,20.3370897 30.7735175,20.4576188 30.7620862,20.578148 C30.7449393,20.7163155 30.7406525,20.8647722 30.7406525,21.0088192 C30.7406525,21.1587457 30.7449393,21.3013229 30.7620862,21.4453699 C30.7735175,21.5658991 30.7906644,21.6805488 30.8063825,21.7951984 C30.8235294,21.8760412 30.8349607,21.9510044 30.8578233,22.0259677 C30.8678257,22.089172 30.8849726,22.1464968 30.9021196,22.2038217 C30.9192665,22.255267 30.9349845,22.3008329 30.9521315,22.3522783 C30.9635628,22.3934346 30.9807097,22.433121 30.9964277,22.4786869 C31.0135747,22.5183733 31.025006,22.5536502 31.0421529,22.5933366 C31.0578709,22.6286134 31.0750179,22.6624204 31.0921648,22.6976972 C31.1078828,22.7256247 31.1193141,22.7609015 31.1364611,22.788829 C31.153608,22.8182264 31.169326,22.8461538 31.186473,22.8755512 C31.2036199,22.9034787 31.2150512,22.932876 31.2307692,22.9549241 C31.2479162,22.9843214 31.2650631,23.0078393 31.2822101,23.0357668 C31.2979281,23.0592847 31.3093594,23.0813327 31.3265063,23.1048506 C31.3422243,23.1283684 31.3593713,23.144537 31.3765182,23.1680549 C31.3936652,23.1915728 31.4036675,23.2077413 31.4208145,23.2312592 C31.4379614,23.2533072 31.4551084,23.2709456 31.4708264,23.288584 C31.4822577,23.3121019 31.4994046,23.3282705 31.5165516,23.3459089 C31.5322696,23.3635473 31.5437009,23.3797158 31.5608478,23.3973542 C31.5779948,23.4149927 31.5937128,23.4326311 31.6108597,23.4487996 C31.622291,23.466438 31.639438,23.4840764 31.655156,23.500245 C31.6723029,23.5120039 31.6894499,23.5296423 31.6994523,23.5472807 C31.7165992,23.5590397 31.7337461,23.5752082 31.7508931,23.5869672 C31.7666111,23.6046056 31.7780424,23.6163645 31.7951893,23.6325331 C31.8123363,23.644292 31.8280543,23.656051 31.8452012,23.6736894 C31.8566325,23.6839784 31.8737795,23.6957374 31.8894975,23.7074963 C31.9066444,23.7251347 31.9237914,23.7368937 31.9352227,23.7471828 L31.9852346,23.7824596 C32.0009526,23.7942185 32.0180995,23.8045076 32.0295308,23.8162665 C32.0466778,23.8280255 32.0623958,23.8397844 32.0795427,23.8515434 C32.0966897,23.8574228 32.108121,23.8677119 32.123839,23.8794708 C32.1409859,23.8912298 32.1581329,23.8971093 32.1738509,23.9088682 C32.1909979,23.9206271 32.2024291,23.9309162 32.2195761,23.9367957 C32.2352941,23.9485546 32.2524411,23.9544341 32.2638724,23.966193 C32.2810193,23.9720725 32.2967373,23.9838315 32.3138843,23.9941205 C32.3310312,24 32.3424625,24.0117589 32.3581805,24.0176384 C32.3753275,24.0235179 32.3924744,24.0352768 32.4096213,24.0411563 C32.4253394,24.0514454 32.4367707,24.0573248 32.4539176,24.0632043 C32.4710645,24.0749633 32.4867826,24.0808427 32.5039295,24.0867222 C32.5210764,24.0984811 32.5310788,24.1043606 32.5482258,24.1102401 C32.5653727,24.1205292 32.5825196,24.1264086 32.592522,24.1322881 C32.609669,24.1381676 32.6268159,24.144047 32.6439628,24.155806 C32.6596809,24.1616854 32.6768278,24.1675649 32.6882591,24.1719745 C32.705406,24.177854 32.7211241,24.1837335 32.738271,24.1896129 C32.755418,24.1954924 32.7668492,24.2013719 32.7825673,24.2072513 C32.7997142,24.2131308 32.8168612,24.2190103 32.8325792,24.2248898 C32.8440105,24.2307692 32.8611574,24.2351788 32.8783044,24.2410583 C32.8940224,24.2469378 32.9111693,24.2528172 32.9226006,24.2586967 C32.9397476,24.2645762 32.9554656,24.2704557 32.9726125,24.2763351 C32.9897595,24.2763351 33.0069064,24.2822146 33.0169088,24.2880941 C33.0340557,24.2939735 33.0512027,24.2983831 33.0683496,24.3042626 C33.0840676,24.3042626 33.0954989,24.3101421 33.1126459,24.3160216 C33.1283639,24.3160216 33.1455108,24.321901 33.1626578,24.3277805 C33.1740891,24.3277805 33.1898071,24.33366 33.206954,24.3395394 L33.2512503,24.3512984 C33.2683972,24.355708 33.2855442,24.355708 33.3026911,24.3615875 C33.3184091,24.3674669 33.3298404,24.3674669 33.3469874,24.3733464 C33.3641343,24.3733464 33.3798523,24.3792259 33.3969993,24.3792259 C33.4084306,24.3851053 33.4255775,24.3851053 33.4412955,24.3909848 C33.4584425,24.3909848 33.4755894,24.3968643 33.4913075,24.4027438 C33.5027387,24.4027438 33.5198857,24.4027438 33.5370326,24.4086232 C33.5527507,24.4086232 33.5698976,24.4145027 33.5870445,24.4145027 C33.5984758,24.4189123 33.6141939,24.4189123 33.6313408,24.4189123 L33.6756371,24.4306712 L33.725649,24.4365507 L33.7713741,24.4424302 L33.821386,24.4483097 L33.8656823,24.4541891 L33.9099786,24.4541891 C33.9271255,24.4600686 33.9442724,24.4600686 33.9599905,24.4600686 L34.0057156,24.4659481 L34.0557276,24.4659481 L34.1000238,24.4718275 L34.1443201,24.4718275 L34.1957609,24.4718275 C34.2114789,24.477707 34.2229102,24.477707 34.2400572,24.477707 L34.6187187,24.477707 L34.6644439,24.4718275 L34.7587521,24.4718275 L34.8030483,24.4659481 L34.8544892,24.4659481 L34.8987854,24.4600686 L34.9659443,24.4600686 L35.0373899,24.4541891 L35.0888307,24.4483097 L35.1774232,24.4365507 L35.2560133,24.4365507 L35.3060252,24.4306712 L35.3946178,24.4189123 L35.4460586,24.4145027 L35.4903548,24.4086232 L35.5403668,24.4027438 L35.584663,24.3968643 L35.6346749,24.3851053 L35.6804001,24.3792259 L35.730412,24.3733464 L35.7747083,24.3674669 L35.8190045,24.355708 L35.8690164,24.3512984 L35.9147416,24.3395394 L35.9647535,24.33366 L36.0090498,24.321901 L36.0590617,24.3160216 L36.1490831,24.2939735 L36.199095,24.2822146 L36.2433913,24.2763351 L36.2934032,24.2645762 L36.3391284,24.2528172 L36.3891403,24.2410583 L36.4334365,24.2307692 L36.4834484,24.2190103 L36.5734699,24.1954924 L36.6234818,24.177854 L36.667778,24.1675649 L36.7177899,24.155806 L36.7620862,24.1381676 L36.813527,24.1264086 L36.8578233,24.1146497 L36.9078352,24.0984811 L36.9521315,24.0867222 L36.9978566,24.0690838 L37.0478685,24.0573248 L37.0921648,24.0411563 L37.1421767,24.0235179 L37.186473,24.0058795 L37.2364849,23.9882411 L37.2822101,23.977952 L37.3265063,23.9603136 L37.3765182,23.9426752 L37.4208145,23.9265066 L37.4722553,23.9088682 L37.5165516,23.8853503 L37.5665635,23.8677119 L37.655156,23.8339049 L37.7065968,23.8162665 L37.7508931,23.7942185 L37.7951893,23.7765801 L37.8452012,23.7530622 L37.8894975,23.7368937 L37.9409383,23.7133758 L37.9852346,23.6957374 L38.0352465,23.6736894 L38.0795427,23.6501715 L38.1295547,23.6325331 L38.1752798,23.6104851 L38.2252917,23.5869672 L38.269588,23.5634493 L38.3195999,23.5414013 L38.4096213,23.4958354 L38.4596332,23.4723175 L38.5039295,23.4487996 L38.5539414,23.4267516 L38.5996666,23.4032337 L38.6496785,23.3797158 L38.6939748,23.3517883 L38.6939748,25.4698677 L38.6496785,25.4816267 L38.5996666,25.4933856 L38.5539414,25.5051445 L38.5039295,25.5169035 L38.4596332,25.5271926 L38.4096213,25.5389515 L38.3653251,25.5507104 L38.3195999,25.5565899 L38.269588,25.5683488 L38.2252917,25.5801078 L38.1752798,25.5903969 L38.1295547,25.6021558 L38.0795427,25.6080353 L38.0352465,25.6197942 L37.9852346,25.6315532 L37.9409383,25.6418422 L37.8894975,25.6536012 L37.8452012,25.6594806 L37.7951893,25.6712396 L37.7508931,25.6829985 L37.7065968,25.688878 L37.655156,25.7006369 L37.6108597,25.7050465 L37.5665635,25.7168055 L37.5165516,25.7285644 L37.4722553,25.7344439 L37.4208145,25.7462028 L37.3765182,25.7520823 L37.3265063,25.7638413 L37.2822101,25.7682509 L37.2364849,25.7800098 L37.186473,25.7858893 L37.1421767,25.7976482 L37.0921648,25.8035277 L37.0478685,25.8094072 L36.9978566,25.8211661 L36.9521315,25.8255757 L36.9078352,25.8373346 L36.8578233,25.8432141 L36.813527,25.8490936 L36.7620862,25.8549731 L36.7177899,25.866732 L36.667778,25.8726115 L36.6234818,25.8784909 L36.5734699,25.88878 L36.4834484,25.900539 L36.4334365,25.9064184 L36.3891403,25.9122979 L36.3391284,25.9240568 L36.2934032,25.9299363 L36.2433913,25.9358158 L36.199095,25.9416952 L36.1490831,25.9475747 L36.0590617,25.9578638 L36.0090498,25.9637433 L35.9647535,25.9696227 L35.9147416,25.9755022 L35.8690164,25.9813817 L35.8190045,25.9872611 L35.7747083,25.9872611 L35.730412,25.9931406 L35.6804001,25.9990201 L35.6346749,26.0048996 L35.584663,26.0048996 L35.5403668,26.0093092 L35.4903548,26.0151886 L35.4460586,26.0210681 L35.3946178,26.0210681 L35.3060252,26.032827 L35.2560133,26.032827 L35.2117171,26.0387065 L35.1602763,26.0387065 L35.11598,26.044586 L35.0716837,26.044586 L35.0216718,26.0504655 L34.9759467,26.0504655 L34.9259347,26.0563449 L34.7873303,26.0563449 L34.7358895,26.0622244 L34.647297,26.0622244 L34.5972851,26.0681039 L34.4572517,26.0681039 L34.4072398,26.0725135 L33.3298404,26.0725135 L33.2798285,26.0681039 L33.1397952,26.0681039 L33.0897833,26.0622244 L33.045487,26.0622244 L33.0011908,26.0563449 L32.9054537,26.0563449 L32.8554418,26.0504655 L32.8111455,26.0504655 L32.7668492,26.044586 L32.7154084,26.044586 L32.6711122,26.0387065 L32.6211003,26.0387065 L32.576804,26.032827 L32.5267921,26.032827 L32.4810669,26.0269476 L32.431055,26.0269476 L32.3424625,26.0151886 L32.2924506,26.0093092 L32.2467254,26.0093092 L32.1967135,26.0048996 L32.108121,25.9931406 L32.0566802,25.9872611 L32.0123839,25.9813817 L31.962372,25.9755022 L31.9180757,25.9696227 L31.8680638,25.9637433 L31.7780424,25.9519843 L31.7280305,25.9475747 L31.6837342,25.9416952 L31.6337223,25.9358158 L31.5879971,25.9299363 L31.5437009,25.9181774 L31.493689,25.9122979 L31.4493927,25.9064184 L31.3993808,25.8946595 L31.3536556,25.88878 L31.3036437,25.8784909 L31.2593475,25.8726115 L31.2093356,25.8608525 L31.1636104,25.8549731 L31.1193141,25.8432141 L31.0693022,25.8373346 L31.025006,25.8255757 L30.974994,25.8152866 L30.9292689,25.8094072 L30.879257,25.7976482 L30.8349607,25.7858893 L30.7849488,25.7741303 L30.7406525,25.7638413 L30.6949274,25.7579618 L30.6449155,25.7462028 L30.6006192,25.7344439 L30.5506073,25.7168055 L30.506311,25.7050465 L30.4548702,25.6947575 L30.4105739,25.6829985 L30.360562,25.6653601 L30.2705406,25.6418422 L30.2205287,25.6256737 L30.1762324,25.6139147 L30.1262205,25.5962763 L30.0819243,25.5845174 L30.0304834,25.5683488 C30.0204811,25.5624694 30.0033341,25.5565899 29.9861872,25.5507104 C29.9704692,25.544831 29.9590379,25.5389515 29.9418909,25.533072 L29.891879,25.5169035 L29.8475828,25.5051445 C29.8304358,25.4933856 29.8132889,25.4933856 29.7961419,25.4875061 C29.7804239,25.4816267 29.7689926,25.4698677 29.7518457,25.4639882 L29.7075494,25.4478197 C29.6904025,25.4419402 29.6732555,25.4360608 29.6575375,25.4301813 L29.6132412,25.4125429 L29.5618004,25.3963743 L29.5175042,25.3728564 L29.4674923,25.355218 L29.3774708,25.3096521 L29.3274589,25.2920137 L29.2831627,25.2699657 L29.2331508,25.2464478 L29.1888545,25.2229299 C29.1717075,25.2170505 29.1545606,25.2126409 29.1388426,25.2008819 L29.0931174,25.177364 L29.0431055,25.1538462 L28.9988092,25.1317981 C28.9816623,25.1200392 28.9645154,25.1141597 28.954513,25.1024008 C28.937366,25.0965213 28.9202191,25.0862322 28.9030722,25.0803528 L28.8587759,25.0509554 L28.808764,25.0289074 L28.7644677,24.99951 C28.7473208,24.9936306 28.7301739,24.9818716 28.7201715,24.9701127 C28.7030245,24.9657031 28.6858776,24.9539441 28.6687307,24.9421852 L28.6244344,24.9127878 C28.6072874,24.9069084 28.5915694,24.8966193 28.5744225,24.8848604 C28.5572755,24.8731014 28.5458442,24.8613425 28.5301262,24.855463 L28.4801143,24.8216561 C28.4629674,24.8098971 28.4515361,24.7981382 28.4343891,24.7922587 L28.3843772,24.7584517 C28.3729459,24.7466928 28.3572279,24.7349339 28.340081,24.7231749 C28.322934,24.7128858 28.3057871,24.7011269 28.2957847,24.689368 C28.2786378,24.677609 28.2614908,24.6658501 28.2443439,24.655561 C28.2286259,24.6438021 28.2171946,24.6320431 28.2000476,24.6202842 C28.1843296,24.6026458 28.1671827,24.5923567 28.1500357,24.5805977 C28.1386044,24.5688388 28.1228864,24.5570799 28.1057395,24.5394415 C28.0714456,24.511514 28.0385806,24.4821166 28.0057156,24.4541891 L28.0057156,36 L35.2060014,36 L35.2502977,36 L35.294594,36 L35.3446059,36 L35.3889021,35.9941205 L35.4403429,35.9941205 C35.4503453,35.9897109 35.4674923,35.9897109 35.4846392,35.9897109 L35.5289355,35.9897109 L35.5789474,35.9838315 C35.5960943,35.977952 35.6132412,35.977952 35.6246725,35.977952 C35.6403906,35.977952 35.6575375,35.9720725 35.6746844,35.9720725 C35.6904025,35.9720725 35.7018338,35.966193 35.7189807,35.966193 C35.7361276,35.966193 35.7518457,35.9603136 35.7689926,35.9603136 L35.8132889,35.9544341 C35.8304358,35.9485546 35.8475828,35.9485546 35.8647297,35.9485546 C35.8804477,35.9426752 35.891879,35.9426752 35.909026,35.9367957 C35.9261729,35.9367957 35.9418909,35.9309162 35.9590379,35.9309162 L36.0033341,35.9206271 L36.0476304,35.9147477 C36.0647773,35.9088682 36.0819243,35.9088682 36.0990712,35.9029887 C36.1147892,35.8971093 36.1262205,35.8971093 36.1433675,35.8912298 L36.1933794,35.8794708 L36.2376756,35.8691818 C36.2548226,35.8691818 36.2719695,35.8633023 36.2876875,35.8574228 C36.2991188,35.8574228 36.3162658,35.8515434 36.3334127,35.8456639 C36.3491307,35.8397844 36.360562,35.8397844 36.3834246,35.8339049 C36.3948559,35.8280255 36.4105739,35.8280255 36.4277209,35.822146 L36.4720171,35.8059775 L36.5220291,35.7942185 C36.539176,35.788339 36.5506073,35.7824596 36.5677542,35.7765801 C36.5834723,35.7765801 36.6006192,35.7707006 36.6177661,35.7648212 C36.6349131,35.7589417 36.6449155,35.7530622 36.6620624,35.7471828 L36.7120743,35.7310142 L36.7577995,35.7133758 C36.7735175,35.7074963 36.7906644,35.7016169 36.8020957,35.6957374 C36.8178138,35.6898579 36.8349607,35.6854483 36.8521076,35.6795688 C36.8692546,35.6736894 36.879257,35.6678099 36.8964039,35.6619304 C36.9135508,35.6501715 36.9306978,35.644292 36.9464158,35.6384125 L36.992141,35.622244 L37.0421529,35.5987261 L37.0864492,35.5810877 C37.1035961,35.5693288 37.1193141,35.5634493 37.1307454,35.5590397 C37.1478924,35.5472807 37.1650393,35.5414013 37.1807573,35.5355218 C37.1979043,35.5237629 37.2150512,35.5178834 37.2264825,35.5120039 C37.2422005,35.5017148 37.2593475,35.4958354 37.2764944,35.4840764 C37.2936413,35.478197 37.3036437,35.4723175 37.3207907,35.4605585 C37.3379376,35.4546791 37.3550845,35.4429201 37.3708026,35.4385105 L37.4150988,35.4091132 L37.460824,35.3855953 L37.5108359,35.3576678 C37.5279829,35.3517883 37.5379852,35.3400294 37.5551322,35.3341499 C37.5722791,35.322391 37.5894261,35.3121019 37.6051441,35.3062224 C37.622291,35.2944635 37.6337223,35.2827046 37.6508693,35.2709456 C37.6665873,35.2650661 37.6837342,35.2547771 37.6951655,35.2430181 C37.7123125,35.2371387 37.7280305,35.2253797 37.7451774,35.2136208 C37.7623244,35.2018618 37.7780424,35.1959824 37.7894737,35.1856933 C37.8066206,35.1739343 37.8237676,35.1621754 37.8394856,35.1504165 C37.8566325,35.1386575 37.8737795,35.1283684 37.8852108,35.1166095 C37.9009288,35.1048506 37.9180757,35.0989711 37.9352227,35.0872122 C37.9509407,35.0754532 37.962372,35.0651641 37.9795189,35.0534052 C37.9966659,35.0416463 38.0123839,35.0240078 38.0295308,35.0122489 C38.0466778,35.0019598 38.0581091,34.9902009 38.0738271,34.9784419 C38.090974,34.966683 38.108121,34.9549241 38.1252679,34.944635 C38.1409859,34.9269966 38.1524172,34.9152376 38.1695642,34.9034787 C38.1867111,34.8917197 38.2024291,34.8755512 38.2138604,34.8637923 C38.236723,34.8520333 38.2467254,34.8343949 38.2638724,34.8241058 C38.2810193,34.8123469 38.2981662,34.7947085 38.3081686,34.7829495 C38.3253156,34.766781 38.3424625,34.755022 38.3596094,34.7432631 C38.3753275,34.7256247 38.3924744,34.7138658 38.4039057,34.6976972 C38.4210526,34.6800588 38.4367707,34.6682999 38.4539176,34.6506614 C38.4710645,34.6344929 38.4824958,34.622734 38.4982139,34.6050955 C38.5153608,34.5933366 38.5325077,34.5771681 38.5482258,34.5595296 C38.5596571,34.5418912 38.576804,34.5242528 38.5939509,34.5139637 C38.609669,34.4963253 38.6268159,34.4786869 38.6382472,34.4610485 C38.6553941,34.44488 38.6711122,34.4272415 38.6882591,34.4096031 C38.705406,34.3934346 38.722553,34.3757962 38.7325554,34.3581578 C38.7497023,34.3405194 38.7668492,34.3243508 38.7839962,34.3067124 C38.7997142,34.2831945 38.8168612,34.267026 38.8282925,34.2493876 C38.8440105,34.2317491 38.8611574,34.2097011 38.8783044,34.1920627 C38.8897357,34.1744243 38.9054537,34.1523763 38.9226006,34.1347379 C38.9397476,34.11122 38.9568945,34.0935816 38.9668969,34.0715336 C38.9840438,34.0538951 39.0011908,34.0318471 39.0183377,34.0083293 C39.0340557,33.9906908 39.0512027,33.9686428 39.062634,33.9451249 C39.0797809,33.9216071 39.0954989,33.899559 39.1126459,33.8760412 C39.1297928,33.8525233 39.1412241,33.8304753 39.1569421,33.8069574 C39.1740891,33.7849094 39.191236,33.7613915 39.206954,33.7319941 C39.2183853,33.7099461 39.2355323,33.6864282 39.2526792,33.6585007 C39.2683972,33.6349829 39.2855442,33.6055855 39.2969755,33.5835375 C39.3141224,33.5541401 39.3298404,33.5320921 39.3469874,33.5026948 C39.3641343,33.4747673 39.3798523,33.4453699 39.3912836,33.4174424 C39.4084306,33.3880451 39.4255775,33.3542381 39.4412955,33.3248408 C39.4584425,33.2969133 39.4755894,33.2616365 39.4870207,33.233709 C39.5027387,33.1984321 39.5198857,33.1646252 39.5370326,33.1352278 C39.5484639,33.1014209 39.5641819,33.0602646 39.5813289,33.0264576 C39.5984758,32.9911808 39.6156228,32.9514944 39.6256251,32.9176874 C39.6427721,32.8765311 39.659919,32.8368447 39.6756371,32.7971583 C39.692784,32.7501225 39.7099309,32.7045566 39.7213622,32.6648702 C39.7370803,32.6134248 39.7542272,32.566389 39.7713741,32.5208231 C39.7885211,32.4634983 39.8042391,32.4120529 39.8156704,32.3606075 C39.8328173,32.2974032 39.8499643,32.2341989 39.8656823,32.1709946 C39.8828292,32.0960314 39.8999762,32.0210681 39.9114075,31.9475747 C39.9271255,31.8490936 39.9442724,31.7520823 39.9614194,31.6477217 C39.9828531,31.4360608 40,31.2229299 40,31.0053895 L40,6 L32.755418,6 C32.738271,6 32.7211241,6.00587947 32.7111217,6.00587947 L32.6596809,6.00587947 L32.6153846,6.00587947 C32.5982377,6.00587947 32.5825196,6.01175894 32.5653727,6.01175894 L32.5210764,6.01175894 C32.5039295,6.01175894 32.4867826,6.01763841 32.4753513,6.01763841 L32.4253394,6.02351788 L32.3810431,6.02351788 C32.3638962,6.02939735 32.3481781,6.02939735 32.3310312,6.02939735 L32.2867349,6.03527683 L32.2352941,6.0411563 C32.2195761,6.0455659 32.2081448,6.0455659 32.1909979,6.0455659 C32.1738509,6.05144537 32.1581329,6.05144537 32.1467016,6.05144537 C32.1295547,6.05732484 32.1138366,6.05732484 32.0966897,6.06320431 L32.0523934,6.06908378 L32.0009526,6.08084272 C31.9852346,6.08084272 31.9738033,6.0867222 31.9566563,6.0867222 C31.9395094,6.09260167 31.9237914,6.09260167 31.9066444,6.09848114 C31.8894975,6.09848114 31.8780662,6.10436061 31.8623482,6.10877021 L31.816623,6.11464968 C31.800905,6.12052915 31.783758,6.12640862 31.7666111,6.12640862 C31.7508931,6.13228809 31.7394618,6.13816756 31.7223148,6.13816756 C31.7051679,6.14404704 31.6894499,6.14992651 31.6723029,6.14992651 C31.6608716,6.15580598 31.6437247,6.16168545 31.6280067,6.16168545 L31.5822815,6.17785399 C31.5665635,6.18373346 31.5494165,6.18373346 31.5322696,6.18961293 C31.5165516,6.19549241 31.5051203,6.20137188 31.4879733,6.20725135 C31.4708264,6.20725135 31.4551084,6.21313082 31.4379614,6.21901029 C31.4265301,6.22488976 31.4093832,6.22929936 31.3936652,6.23517883 L31.3422243,6.25281725 C31.332222,6.25869672 31.315075,6.26457619 31.2979281,6.26457619 C31.2822101,6.27633513 31.2650631,6.2822146 31.2479162,6.28809407 C31.2364849,6.29250367 31.2207668,6.29838315 31.2036199,6.30426262 C31.186473,6.30426262 31.169326,6.31602156 31.1593236,6.32190103 C31.1421767,6.3277805 31.1250298,6.33365997 31.1078828,6.33953944 C31.0921648,6.34541891 31.0750179,6.34982852 31.0635866,6.35570799 L31.0135747,6.37922587 C30.9964277,6.38510534 30.9849964,6.39098481 30.9692784,6.39686428 C30.9521315,6.40274375 30.9349845,6.41303283 30.9192665,6.4189123 C30.9078352,6.42479177 30.8906883,6.43067124 30.8735413,6.44243018 C30.8578233,6.44830965 30.8406764,6.45418912 30.8292451,6.46006859 C30.8120981,6.47182754 30.7963801,6.47623714 30.7792332,6.48799608 C30.7620862,6.49387555 30.7449393,6.49975502 30.7349369,6.51151396 L30.684925,6.53356198 L30.6391998,6.55707986 C30.6234818,6.5688388 30.6063348,6.57471828 30.5891879,6.58647722 C30.572041,6.59235669 30.5620386,6.59676629 30.5448916,6.60852523 C30.5277447,6.6144047 30.5105978,6.62616365 30.4948797,6.63792259 C30.4834484,6.64380206 30.4663015,6.64968153 30.4491546,6.6599706 C30.4334365,6.67172954 30.4162896,6.67760902 30.4048583,6.68936796 C30.3877114,6.7011269 30.3719933,6.70700637 30.3548464,6.71729544 C30.3376995,6.72905439 30.3276971,6.73493386 30.3105501,6.7466928 C30.2934032,6.75845174 30.2762563,6.77021068 30.2605382,6.77609015 C30.2433913,6.78637923 30.23196,6.79813817 30.2148131,6.80989711 C30.199095,6.82165605 30.1819481,6.82753552 30.1648011,6.83929446 C30.1533698,6.84958354 30.1376518,6.86134248 30.1205049,6.87310142 C30.1033579,6.88486036 30.0876399,6.8966193 30.070493,6.90690838 C30.0590617,6.91866732 30.0419147,6.93042626 30.0261967,6.9421852 C30.0090498,6.95394415 29.9919028,6.96423322 29.9804715,6.97599216 C29.9647535,6.9877511 29.9476066,6.99951004 29.9304596,7.01126899 C29.9133127,7.02302793 29.9033103,7.033317 29.8861634,7.04507594 C29.8690164,7.06271436 29.8532984,7.0744733 29.8361515,7.08476237 C29.8190045,7.09652131 29.8075732,7.11415973 29.7918552,7.12591867 C29.7747083,7.13767761 29.7575613,7.15384615 29.7404144,7.1656051 C29.730412,7.17736404 29.7132651,7.19500245 29.6961181,7.20676139 C29.6789712,7.22292994 29.6689688,7.23468888 29.6518219,7.24644782 C29.6346749,7.26408623 29.617528,7.28025478 29.60181,7.29201372 C29.584663,7.30965213 29.5732317,7.32141107 29.5560848,7.33757962 C29.5403668,7.35521803 29.5232198,7.36697697 29.5060729,7.38461538 L29.4617766,7.43018128 L29.4117647,7.47574718 C29.4003334,7.4933856 29.3831865,7.51102401 29.3674684,7.52719255 C29.3503215,7.54483097 29.3388902,7.56246938 29.3217433,7.57863792 C29.3060252,7.59627634 29.2888783,7.61391475 29.2717314,7.63155316 C29.2560133,7.64772171 29.244582,7.66536012 29.2274351,7.68299853 C29.2102882,7.69916707 29.1945701,7.71680549 29.1831388,7.74032337 C29.1602763,7.75796178 29.148845,7.77413033 29.1331269,7.79764821 C29.11598,7.81528662 29.0988331,7.83145517 29.0874018,7.85497305 C29.0659681,7.87261146 29.0545368,7.89465948 29.0373899,7.91229789 C29.0202429,7.93581578 29.0045249,7.95198432 28.9930936,7.9755022 C28.9759467,7.99902009 28.9587997,8.0210681 28.9430817,8.04458599 C28.9259347,8.0622244 28.9087878,8.08427242 28.8987854,8.1077903 C28.8816385,8.12983831 28.8644915,8.1533562 28.8473446,8.17687408 C28.8316266,8.1989221 28.8201953,8.22243998 28.8030483,8.25036747 C28.7859014,8.27388535 28.7701834,8.29740323 28.7587521,8.32533072 C28.7416051,8.3488486 28.7244582,8.37677609 28.7087402,8.40029397 C28.6915932,8.42969133 28.6801619,8.45761881 28.663015,8.4811367 C28.647297,8.50906418 28.63015,8.53846154 28.6130031,8.56638902 C28.5972851,8.59578638 28.5858538,8.62371387 28.5687068,8.65311122 C28.5515599,8.68691818 28.5358419,8.71631553 28.5186949,8.75012249 C28.501548,8.77951984 28.4901167,8.8133268 28.4743987,8.84860363 C28.4572517,8.88241058 28.4401048,8.91180794 28.4243868,8.95149437 C28.4072398,8.98530132 28.3958085,9.02057815 28.3786616,9.06026458 C28.3629436,9.10142087 28.3457966,9.1411073 28.3343653,9.18079373 C28.3172184,9.22195002 28.3015004,9.26163645 28.2843534,9.30720235 C28.2672065,9.35276825 28.2500595,9.39980402 28.2400572,9.44536992 C28.2229102,9.49681529 28.2057633,9.54826066 28.1886163,9.59970603 C28.1728983,9.66291034 28.161467,9.72023518 28.1443201,9.77902989 C28.1271731,9.8466438 28.1114551,9.91572758 28.1000238,9.99069084 C28.032865,10.3184713 28,10.6565409 28,11.0063694 L28,17.5531602 C28.0271493,17.5237629 28.0614432,17.4958354 28.1000238,17.466438 C28.1114551,17.4546791 28.1271731,17.4370407 28.1443201,17.4267516 C28.161467,17.4149927 28.1728983,17.4032337 28.1886163,17.3855953 Z" id="Imported-Layers" fill="#EB1450" sketch:type="MSShapeGroup"></path>
            <g id="Imported-Layers" transform="translate(43.000000, 6.000000)" sketch:type="MSShapeGroup">
                <g>
                    <path d="M7.31174089,29.9941205 L7.3617528,29.9941205 C7.37889974,29.9941205 7.39461777,29.9941205 7.40604906,29.9882411 L7.45606097,29.9882411 C7.47320791,29.9882411 7.4846392,29.9882411 7.50178614,29.9838315 L7.55179805,29.9838315 C7.56751608,29.977952 7.57894737,29.977952 7.59609431,29.977952 C7.61324125,29.977952 7.62895928,29.9720725 7.64610622,29.9720725 C7.65753751,29.9720725 7.67468445,29.966193 7.69040248,29.966193 C7.70754942,29.966193 7.72469636,29.966193 7.7418433,29.9603136 C7.75184568,29.9603136 7.76899262,29.9603136 7.78613956,29.9544341 L7.83043582,29.9485546 L7.88044773,29.9426752 L7.92474399,29.9367957 L7.97618481,29.9250367 C7.99190283,29.9250367 8.00333413,29.9206271 8.02048107,29.9206271 L8.07049297,29.9088682 L8.11478924,29.8971093 C8.13193618,29.8971093 8.14908312,29.8912298 8.16480114,29.8853503 C8.18194808,29.8853503 8.19337938,29.8794708 8.21052632,29.8794708 L8.26053822,29.8677119 L8.30483448,29.8515434 L8.34913075,29.8397844 C8.36627769,29.8397844 8.38342462,29.8339049 8.40057156,29.8280255 C8.41628959,29.822146 8.42772089,29.822146 8.44486783,29.8162665 C8.46058585,29.8103871 8.47773279,29.8045076 8.49487973,29.800098 L8.53917599,29.788339 L8.5891879,29.7707006 L8.63491307,29.7589417 C8.6506311,29.7530622 8.66777804,29.7471828 8.68492498,29.7413033 C8.70064301,29.7368937 8.7120743,29.7310142 8.72922124,29.7251347 C8.74636818,29.7192553 8.76208621,29.7133758 8.77923315,29.7074963 L8.82352941,29.6898579 C8.84067635,29.6839784 8.85782329,29.6795688 8.86925458,29.6736894 C8.88497261,29.6678099 8.90211955,29.656051 8.91926649,29.6501715 C8.93498452,29.644292 8.94641581,29.6384125 8.96356275,29.6325331 C8.98070969,29.6266536 8.99642772,29.6207741 9.01357466,29.6104851 C9.02500595,29.6046056 9.04215289,29.5987261 9.05787092,29.5928466 C9.07501786,29.5810877 9.0921648,29.5752082 9.10359609,29.5693288 L9.153608,29.5472807 L9.19790426,29.5237629 C9.2150512,29.5178834 9.23219814,29.5061244 9.24791617,29.500245 C9.26506311,29.4958354 9.2764944,29.4840764 9.29221243,29.478197 C9.30935937,29.466438 9.32650631,29.4605585 9.34365325,29.4487996 C9.35937128,29.4429201 9.37080257,29.4326311 9.38794951,29.4267516 C9.40509645,29.4208721 9.42081448,29.4091132 9.43224577,29.4032337 C9.45510836,29.3914748 9.46653965,29.3855953 9.48225768,29.3738364 C9.49940462,29.3694268 9.51655156,29.3576678 9.52798285,29.3459089 C9.54370088,29.3400294 9.56084782,29.3282705 9.57799476,29.322391 L9.61657538,29.288584 C9.63372231,29.2768251 9.64944034,29.2650661 9.66087164,29.2591867 C9.67801858,29.2488976 9.69516552,29.2371387 9.71088354,29.2312592 C9.72803048,29.2195002 9.73946178,29.2077413 9.75660872,29.1959824 C9.77232674,29.1901029 9.78947368,29.1798138 9.80662062,29.1680549 C9.81805192,29.1562959 9.83376995,29.144537 9.85091688,29.132778 C9.86806382,29.1283684 9.88521076,29.11073 9.89521315,29.0989711 C9.91236009,29.0930916 9.92950703,29.0813327 9.94665397,29.0695737 C9.96237199,29.0592847 9.97951893,29.0475257 9.99095023,29.0357668 L10.0409621,28.9960804 C10.0581091,28.9843214 10.0738271,28.9725625 10.0852584,28.9608035 C10.1024053,28.9490446 10.1195523,28.9387555 10.1352703,28.9211171 C10.1524172,28.9093582 10.1695642,28.8975992 10.1809955,28.8858403 C10.1967135,28.8696717 10.2138604,28.8579128 10.2310074,28.8461538 C10.2467254,28.8285154 10.2638724,28.8182264 10.2753036,28.8064674 C10.2924506,28.788829 10.3081686,28.7770701 10.3253156,28.7609015 C10.3367468,28.7491426 10.3538938,28.7373836 10.3696118,28.7197452 C10.3867588,28.7021068 10.4039057,28.6918177 10.4210526,28.6741793 C10.431055,28.6624204 10.448202,28.644782 10.4653489,28.6286134 C10.4824958,28.6168545 10.4982139,28.5992161 10.5096452,28.5815777 C10.5267921,28.5654091 10.543939,28.5536502 10.5596571,28.5360118 C10.576804,28.5183733 10.5882353,28.5022048 10.6039533,28.4904459 C10.6211003,28.4728074 10.6382472,28.455169 10.6553941,28.4390005 C10.6711122,28.4213621 10.6825435,28.4037237 10.6996904,28.3875551 C10.7168373,28.3699167 10.7325554,28.3522783 10.7497023,28.3346399 C10.7611336,28.3184713 10.7782805,28.3008329 10.7939986,28.277315 C10.8111455,28.2611465 10.8282925,28.2435081 10.8397237,28.2199902 C10.8554418,28.2038217 10.8725887,28.1861832 10.8897357,28.1626654 C10.9054537,28.1464968 10.9226006,28.1229789 10.9340319,28.1053405 C10.9511789,28.0832925 10.9668969,28.0656541 10.9840438,28.0421362 C11.0011908,28.0200882 11.0183377,28.0024498 11.0283401,27.9789319 C11.045487,27.9568839 11.062634,27.933366 11.078352,27.9157276 C11.0954989,27.8878001 11.1069302,27.8642822 11.1240772,27.8422342 C11.1397952,27.8187163 11.1569421,27.7951984 11.1740891,27.7731504 C11.1855204,27.7496325 11.2012384,27.7261146 11.2183853,27.6981872 C11.2355323,27.6746693 11.2526792,27.6467418 11.2626816,27.6232239 C11.2798285,27.5952964 11.2969755,27.5717785 11.3141224,27.5423812 C11.3298404,27.5144537 11.3412717,27.4850563 11.3584187,27.4630083 C11.3755656,27.433611 11.3912836,27.399804 11.4084306,27.3704067 C11.4255775,27.3424792 11.4355799,27.3130818 11.4527268,27.2851543 C11.4698738,27.2498775 11.4870207,27.2160706 11.5027387,27.1866732 C11.51417,27.1528662 11.531317,27.1175894 11.5484639,27.0837825 C11.5641819,27.0485056 11.5813289,27.0088192 11.5927602,26.9750122 C11.6099071,26.933856 11.6256251,26.900049 11.6427721,26.8603626 C11.659919,26.8192063 11.6713503,26.7795198 11.6870683,26.7339539 C11.7042153,26.6869182 11.7213622,26.6413523 11.7370803,26.5957864 C11.7542272,26.5502205 11.7656585,26.4973052 11.7828054,26.4458599 C11.7985235,26.388535 11.8156704,26.3312102 11.8328173,26.2738854 C11.8499643,26.210681 11.8599667,26.1415973 11.8771136,26.0725135 C11.8942605,25.9931406 11.9114075,25.9064184 11.9271255,25.8255757 C11.9442724,25.6991671 11.9614194,25.5742283 11.9728507,25.4419402 C11.9828531,25.2978932 11.9885687,25.1479667 11.9885687,24.99951 L12,0 L4.76684925,0 C4.74970231,0 4.73827102,0.00587947085 4.72112408,0.00587947085 L4.67111217,0.00587947085 L4.62681591,0.00587947085 L4.576804,0.00587947085 C4.56537271,0.0117589417 4.54822577,0.0117589417 4.53107883,0.0117589417 L4.48106692,0.0117589417 L4.43677066,0.0176384125 C4.41962372,0.0235178834 4.40962134,0.0235178834 4.3924744,0.0235178834 C4.37532746,0.0235178834 4.35818052,0.0293973542 4.34246249,0.0293973542 L4.29673732,0.0352768251 C4.28101929,0.0352768251 4.26387235,0.0352768251 4.24672541,0.0396864282 C4.23100738,0.0396864282 4.21957609,0.0396864282 4.20242915,0.0455658991 C4.18528221,0.0455658991 4.16956418,0.0514453699 4.15241724,0.0514453699 C4.1352703,0.0514453699 4.12383901,0.0573248408 4.10812098,0.0573248408 L4.05668016,0.0690837825 C4.04096213,0.0690837825 4.02953084,0.0749632533 4.0123839,0.0749632533 C3.99523696,0.0808427242 3.97951893,0.0808427242 3.96808764,0.086722195 C3.9509407,0.086722195 3.93379376,0.0926016659 3.91807573,0.0926016659 L3.87377947,0.10289074 L3.82233865,0.114649682 C3.80662062,0.114649682 3.79518933,0.120529152 3.77804239,0.126408623 C3.76089545,0.126408623 3.74517742,0.132288094 3.72803048,0.138167565 C3.71088354,0.138167565 3.69945225,0.144047036 3.68373422,0.149926507 L3.63800905,0.160215581 C3.61657538,0.166095051 3.60514408,0.171974522 3.58799714,0.171974522 C3.57227911,0.177853993 3.55513217,0.183733464 3.54370088,0.189612935 C3.52655394,0.189612935 3.51083591,0.195492406 3.49368897,0.201371877 C3.47654203,0.207251347 3.45939509,0.213130818 3.44939271,0.219010289 C3.43224577,0.219010289 3.41509883,0.223419892 3.3993808,0.229299363 L3.35365563,0.246937776 C3.3379376,0.252817246 3.32079066,0.258696717 3.30364372,0.264576188 L3.25934746,0.282214601 C3.24220052,0.286624204 3.22505358,0.292503675 3.20933556,0.298383146 C3.19218862,0.304262616 3.18075732,0.310142087 3.16361038,0.316021558 L3.11359848,0.333659971 L3.06930221,0.349828515 C3.05215528,0.355707986 3.03643725,0.367466928 3.01929031,0.373346399 C3.00214337,0.37922587 2.99071207,0.385105341 2.97499405,0.390984811 C2.95784711,0.396864282 2.94070017,0.407153356 2.92926887,0.413032827 C2.9078352,0.418912298 2.89640391,0.424791769 2.87925697,0.43655071 C2.86211003,0.442430181 2.846392,0.448309652 2.8349607,0.454189123 C2.81781377,0.465948065 2.80209574,0.470357668 2.7849488,0.48211661 L2.74065254,0.505634493 C2.7235056,0.511513964 2.70635866,0.523272905 2.68921172,0.527682509 C2.67349369,0.533561979 2.6620624,0.545320921 2.64491546,0.551200392 C2.62776852,0.562959334 2.61205049,0.568838805 2.59490355,0.580597746 C2.57775661,0.586477217 2.56632532,0.596766291 2.55060729,0.602645762 C2.53346035,0.614404704 2.51631341,0.620284174 2.50488211,0.632043116 C2.48916409,0.637922587 2.47201715,0.649681529 2.45487021,0.654091132 C2.43915218,0.665850073 2.42772089,0.677609015 2.41057395,0.683488486 L2.36056204,0.711415973 C2.3434151,0.723174914 2.33198381,0.734933856 2.31626578,0.740813327 L2.26625387,0.774620284 L2.2205287,0.804017638 L2.17051679,0.833414993 L2.12622053,0.86722195 C2.10907359,0.878980892 2.09192665,0.890739833 2.07620862,0.901028907 L2.03048345,0.936305732 C2.01476542,0.948064674 1.99761848,0.958353748 1.98618719,0.97011269 C1.97046916,0.981871632 1.95332222,0.993630573 1.93617528,1.00538951 L1.89187902,1.04507594 L1.84186711,1.0788829 C1.83043582,1.09652131 1.81328888,1.10828025 1.79614194,1.1200392 C1.78042391,1.13767761 1.76327697,1.14796668 1.75184568,1.15972562 C1.73469874,1.17736404 1.71898071,1.18912298 1.70183377,1.20088192 L1.65753751,1.24644782 C1.64039057,1.25820676 1.62324363,1.27437531 1.6075256,1.28613425 C1.59037866,1.30377266 1.57323172,1.3155316 1.56180043,1.33170015 C1.5460824,1.34933856 1.52893546,1.3610975 1.51178852,1.37873591 C1.49464158,1.38902499 1.47892355,1.4066634 1.46749226,1.42430181 C1.45034532,1.44194023 1.43319838,1.4522293 1.41748035,1.46986771 C1.40033341,1.48750612 1.38890212,1.50514454 1.37318409,1.52131308 C1.35603715,1.53895149 1.33889021,1.55658991 1.32174327,1.57275845 C1.31174089,1.59039686 1.29459395,1.60803528 1.27744701,1.62567369 C1.26030007,1.64184223 1.24458204,1.65948065 1.23315075,1.67711906 C1.21600381,1.6932876 1.19885687,1.71092602 1.18313884,1.72856443 C1.1659919,1.75208231 1.14884496,1.76825086 1.13741367,1.79176874 C1.12169564,1.80940715 1.1045487,1.8255757 1.08740176,1.84909358 C1.07168373,1.86673199 1.06025244,1.88878001 1.0431055,1.90641842 C1.02595856,1.92993631 1.01024053,1.94610485 0.993093594,1.96962273 C0.981662301,1.99314062 0.964515361,2.00930916 0.948797333,2.03282705 C0.931650393,2.05634493 0.914503453,2.07839294 0.90307216,2.10191083 C0.887354132,2.12395884 0.870207192,2.14747673 0.853060252,2.17099461 C0.837342224,2.19304263 0.820195285,2.21656051 0.808763991,2.24007839 C0.791617052,2.26800588 0.775899024,2.29152376 0.758752084,2.31357178 C0.741605144,2.34296913 0.730173851,2.36501715 0.714455823,2.3944145 C0.697308883,2.42381186 0.680161943,2.44585987 0.663015004,2.47525723 C0.647296975,2.50318471 0.635865682,2.53258207 0.618718743,2.55463008 C0.601571803,2.58990691 0.585853775,2.61783439 0.568706835,2.64723175 C0.557275542,2.67515924 0.541557514,2.71043606 0.524410574,2.73836355 C0.507263634,2.77364037 0.490116694,2.80156786 0.474398666,2.83684468 C0.462967373,2.87065164 0.445820433,2.90592847 0.428673494,2.93973542 C0.412955466,2.97501225 0.401524172,3.01469868 0.384377233,3.04850563 C0.367230293,3.08966193 0.351512265,3.12934836 0.334365325,3.16903479 C0.317218385,3.21019108 0.305787092,3.25575698 0.290069064,3.29544341 C0.272922124,3.34247918 0.255775185,3.39392455 0.240057156,3.43949045 C0.222910217,3.49093582 0.211478924,3.54238119 0.194331984,3.59382656 C0.178613956,3.6511514 0.161467016,3.7099461 0.144320076,3.77315042 C0.127173136,3.84076433 0.117170755,3.90984811 0.100023815,3.9789319 C0.0328649678,4.31259187 0,4.65066144 0,5.00048996 L0,10 L6.99309359,10 L7.0431055,10.1979422 L7.13884258,10.1979422 L7.18313884,10.2038217 L7.27744701,10.2038217 L7.32317218,10.2082313 L7.37318409,10.2141107 L7.41748035,10.2141107 L7.46749226,10.2199902 L7.51178852,10.2199902 L7.56322934,10.2258697 L7.65182186,10.2376286 L7.70183377,10.2435081 L7.74613003,10.2493876 L7.7918552,10.2493876 L7.84186711,10.255267 C7.8532984,10.2611465 7.86901643,10.2611465 7.88616337,10.2655561 L7.93045963,10.2714356 C7.94760657,10.277315 7.96475351,10.277315 7.98190045,10.2831945 C7.99761848,10.2831945 8.00904977,10.289074 8.02619671,10.2949535 L8.07620862,10.3008329 C8.09335556,10.3067124 8.10335794,10.3125919 8.12050488,10.3125919 C8.13765182,10.3184713 8.15479876,10.3243508 8.17051679,10.3243508 L8.21624196,10.3346399 C8.23195999,10.3405194 8.24910693,10.3463988 8.26625387,10.3463988 C8.2819719,10.3522783 8.29340319,10.3581578 8.31055013,10.3640372 C8.32769707,10.3699167 8.3434151,10.3757962 8.36056204,10.3816756 C8.37199333,10.3816756 8.38914027,10.3875551 8.4048583,10.3919647 C8.42200524,10.3978442 8.43343653,10.4037237 8.45058347,10.4096031 C8.4663015,10.4154826 8.48344844,10.4213621 8.50059538,10.4272415 C8.51774232,10.433121 8.5277447,10.4390005 8.54489164,10.44488 L8.59490355,10.4610485 C8.61205049,10.466928 8.62348178,10.4728074 8.63919981,10.4786869 C8.65634675,10.4904459 8.67349369,10.4963253 8.69064063,10.5022048 C8.70635866,10.5080843 8.71778995,10.5124939 8.73493689,10.5242528 C8.75208383,10.5301323 8.76780186,10.5360118 8.7849488,10.5418912 C8.80209574,10.5536502 8.81352703,10.5595296 8.82924506,10.5712886 C8.846392,10.5756982 8.86353894,10.5815777 8.87925697,10.5933366 C8.89068826,10.5992161 8.9078352,10.610975 8.92498214,10.6168545 C8.94070017,10.6286134 8.95784711,10.633023 8.97499405,10.644782 C8.98642534,10.6506614 9.00214337,10.6624204 9.01929031,10.6741793 C9.03643725,10.6800588 9.05358419,10.6918177 9.06358657,10.7021068 C9.08073351,10.7079863 9.09788045,10.7197452 9.11502739,10.7315042 C9.13074542,10.7432631 9.14217671,10.755022 9.15932365,10.7653111 C9.17504168,10.7711906 9.19218862,10.7829495 9.20933556,10.7947085 C9.2264825,10.8123469 9.23648488,10.822636 9.25363182,10.8343949 C9.27077876,10.8461538 9.2879257,10.8579128 9.30364372,10.8696717 C9.31507502,10.8858403 9.33222196,10.8975992 9.3493689,10.9093582 C9.36508693,10.9269966 9.38223387,10.9387555 9.39366516,10.9549241 C9.4108121,10.966683 9.42653013,10.9843214 9.44367707,11.00049 C9.46082401,11.0122489 9.4722553,11.0298873 9.48797333,11.0475257 C9.50512027,11.0636943 9.52226721,11.0813327 9.53798523,11.0989711 C9.55513217,11.1166095 9.56656347,11.132778 9.58371041,11.1504165 C9.59942844,11.1680549 9.61657538,11.1842234 9.63372231,11.2077413 C9.64944034,11.2253797 9.66087164,11.2474277 9.67801858,11.2709456 C9.69516552,11.2944635 9.71088354,11.3165115 9.72803048,11.3400294 C9.74517742,11.3635473 9.75660872,11.3855953 9.77232674,11.4149927 C9.78947368,11.4429201 9.80662062,11.466438 9.81805192,11.4943655 C9.83376995,11.5237629 9.85091688,11.5575698 9.86806382,11.5928466 C9.88521076,11.6266536 9.90092879,11.6619304 9.91236009,11.7016169 C9.93522267,11.7413033 9.94665397,11.788339 9.96237199,11.8339049 C9.97951893,11.8853503 9.99666587,11.9426752 10.0066683,12 C10.0295308,12.0984811 10.0466778,12.1954924 10.0581091,12.2925037 C10.0638247,12.3733464 10.0681115,12.4541891 10.0681115,12.533562 C10.0681115,12.6144047 10.0638247,12.6952474 10.0581091,12.7702107 C10.0466778,12.867222 10.0295308,12.9598236 10.0066683,13.0568349 C9.99666587,13.1141597 9.97951893,13.1714846 9.96237199,13.2229299 C9.94665397,13.2684958 9.92950703,13.3155316 9.91236009,13.355218 C9.90092879,13.3949045 9.88521076,13.4301813 9.86806382,13.4698677 C9.85091688,13.4992651 9.83376995,13.533072 9.81805192,13.5624694 C9.80662062,13.5903969 9.78947368,13.6197942 9.77232674,13.6477217 C9.75660872,13.6771191 9.74517742,13.6991671 9.72803048,13.722685 C9.71088354,13.7520823 9.69516552,13.7741303 9.67801858,13.7976482 C9.66087164,13.8152866 9.64944034,13.8373346 9.63372231,13.8608525 C9.61657538,13.8784909 9.59942844,13.900539 9.58371041,13.9181774 C9.56656347,13.9402254 9.55513217,13.9578638 9.53798523,13.9755022 C9.52226721,13.9931406 9.50512027,14.0093092 9.48797333,14.0269476 L9.44367707,14.0783929 C9.42653013,14.0960314 9.4108121,14.1077903 9.39366516,14.1239588 C9.38223387,14.1415973 9.36508693,14.1533562 9.3493689,14.1709946 C9.33222196,14.1827536 9.31507502,14.1989221 9.30364372,14.210681 C9.2879257,14.22244 9.27077876,14.2400784 9.25363182,14.2503675 C9.23648488,14.2621264 9.22076685,14.2738854 9.20933556,14.2856443 C9.19218862,14.2974032 9.17504168,14.3076923 9.15932365,14.3194512 C9.14217671,14.3312102 9.13074542,14.3429691 9.11502739,14.3547281 C9.09788045,14.366487 9.08073351,14.3767761 9.06358657,14.388535 C9.05358419,14.400294 9.03643725,14.4061734 9.01929031,14.4179324 C9.00214337,14.4296913 8.98642534,14.4341009 8.97499405,14.4458599 C8.95784711,14.4576188 8.94070017,14.4634983 8.92498214,14.4752572 C8.9078352,14.4811367 8.89068826,14.4914258 8.87925697,14.4973052 C8.86353894,14.5090642 8.846392,14.5149437 8.82924506,14.5267026 C8.81352703,14.5325821 8.80209574,14.5384615 8.7849488,14.5502205 C8.76780186,14.5546301 8.75208383,14.566389 8.73493689,14.5722685 C8.71778995,14.578148 8.70635866,14.5840274 8.69064063,14.5957864 C8.67349369,14.6016659 8.65634675,14.6075453 8.63919981,14.6134248 C8.62348178,14.6237139 8.61205049,14.6295933 8.59490355,14.6354728 C8.57775661,14.6413523 8.56203858,14.6472317 8.54489164,14.6531112 C8.5277447,14.6589907 8.51774232,14.6648702 8.50059538,14.6707496 C8.48344844,14.6751592 8.4663015,14.6810387 8.45058347,14.6869182 C8.43343653,14.6927976 8.42200524,14.6986771 8.4048583,14.7045566 C8.38914027,14.7104361 8.37199333,14.7163155 8.36056204,14.722195 C8.3434151,14.7280745 8.32769707,14.7280745 8.31055013,14.7339539 C8.29340319,14.7383635 8.2819719,14.744243 8.26625387,14.744243 C8.24910693,14.7501225 8.23195999,14.756002 8.21624196,14.7618814 C8.19909502,14.7618814 8.18766373,14.7677609 8.17051679,14.7736404 C8.15479876,14.7736404 8.13765182,14.7795198 8.12050488,14.7853993 L8.07620862,14.7912788 C8.05906168,14.7971583 8.04334365,14.8015679 8.02619671,14.8015679 L7.98190045,14.8133268 C7.96475351,14.8192063 7.94760657,14.8192063 7.93045963,14.8192063 L7.88616337,14.8309652 L7.84186711,14.8368447 L7.88616337,14.8941695 L7.93045963,14.900049 L7.98190045,14.9059285 L8.02619671,14.9118079 L8.07620862,14.9176874 L8.12050488,14.922097 L8.17051679,14.9279765 C8.18766373,14.9279765 8.19909502,14.9279765 8.21624196,14.933856 L8.26625387,14.9397354 C8.2819719,14.9456149 8.29340319,14.9456149 8.31055013,14.9514944 L8.36056204,14.9573738 L8.4048583,14.9691328 C8.42200524,14.9691328 8.43343653,14.9750122 8.45058347,14.9750122 C8.4663015,14.9808917 8.48344844,14.9808917 8.50059538,14.9853013 C8.51774232,14.9911808 8.5277447,14.9911808 8.54489164,14.9970603 C8.56203858,15.0029397 8.57775661,15.0029397 8.59490355,15.0088192 C8.61205049,15.0146987 8.62348178,15.0205781 8.63919981,15.0205781 C8.65634675,15.0264576 8.67349369,15.0323371 8.69064063,15.0323371 C8.70635866,15.0382166 8.71778995,15.0426262 8.73493689,15.0485056 L8.7849488,15.0602646 C8.79638009,15.066144 8.81352703,15.0720235 8.82924506,15.077903 C8.846392,15.0837825 8.86353894,15.0896619 8.87925697,15.0955414 C8.89068826,15.1014209 8.9078352,15.1014209 8.92498214,15.1117099 C8.94070017,15.1117099 8.95784711,15.1234689 8.97499405,15.1234689 C8.98642534,15.1293484 9.00214337,15.1352278 9.01929031,15.1411073 C9.03643725,15.1528662 9.04786854,15.1587457 9.06358657,15.1646252 C9.08073351,15.1690348 9.09788045,15.1749143 9.11502739,15.1807937 C9.13074542,15.1866732 9.14217671,15.1984321 9.15932365,15.2043116 C9.17504168,15.2101911 9.19218862,15.2160706 9.20933556,15.22195 C9.2264825,15.2322391 9.23648488,15.2381186 9.25363182,15.243998 C9.27077876,15.255757 9.2879257,15.2616365 9.30364372,15.2675159 C9.31507502,15.2792749 9.33222196,15.2851543 9.3493689,15.2954434 C9.36508693,15.3013229 9.37651822,15.3130818 9.39366516,15.3189613 C9.4108121,15.3248408 9.42653013,15.3365997 9.44367707,15.3424792 C9.46082401,15.3527683 9.4722553,15.3645272 9.48797333,15.3704067 C9.50512027,15.3821656 9.52226721,15.3880451 9.53798523,15.399804 C9.55513217,15.4100931 9.56656347,15.421852 9.58371041,15.4277315 C9.59942844,15.4394904 9.61657538,15.4512494 9.63372231,15.4630083 C9.64944034,15.4688878 9.66087164,15.4791769 9.67801858,15.4909358 C9.69516552,15.5026948 9.71088354,15.5144537 9.72803048,15.5262126 C9.74517742,15.5365017 9.75660872,15.5482607 9.77232674,15.5600196 C9.78947368,15.5717785 9.80662062,15.589417 9.81805192,15.599706 C9.83376995,15.611465 9.85091688,15.6232239 9.86806382,15.6408623 C9.88521076,15.6526213 9.90092879,15.6629103 9.91236009,15.6805488 C9.92950703,15.6923077 9.94665397,15.7099461 9.96237199,15.7202352 C9.97951893,15.7378736 9.99095023,15.755512 10.0066683,15.7672709 C10.0238152,15.7834395 10.0409621,15.8010779 10.0581091,15.8187163 C10.0738271,15.8363547 10.090974,15.8525233 10.1024053,15.8701617 C10.1195523,15.8878001 10.1352703,15.9039686 10.1524172,15.9216071 C10.1695642,15.9451249 10.1809955,15.9612935 10.1967135,15.9789319 C10.2138604,16.0024498 10.2310074,16.0244978 10.2467254,16.0480157 C10.2638724,16.0656541 10.2753036,16.0877021 10.2924506,16.11122 C10.3081686,16.1406173 10.3253156,16.1626654 10.3367468,16.1861832 C10.3596094,16.2141107 10.3696118,16.2435081 10.3867588,16.267026 C10.4039057,16.3008329 10.4210526,16.3287604 10.431055,16.3640372 C10.448202,16.3978442 10.4653489,16.433121 10.4824958,16.466928 C10.4982139,16.5080843 10.5153608,16.5477707 10.5267921,16.5933366 C10.543939,16.644782 10.5596571,16.6962273 10.576804,16.7491426 C10.5939509,16.8285154 10.609669,16.9093582 10.6211003,16.9960804 C10.6382472,17.0930916 10.6439628,17.2018618 10.6439628,17.3062224 C10.6439628,17.4208721 10.6382472,17.5237629 10.6211003,17.6266536 C10.609669,17.7133758 10.5939509,17.7986281 10.576804,17.8794708 C10.5596571,17.9367957 10.543939,17.9882411 10.5267921,18.0455659 C10.5153608,18.0867222 10.4982139,18.1322881 10.4824958,18.1719745 C10.4653489,18.2131308 10.4539176,18.2469378 10.431055,18.2822146 C10.4210526,18.3160216 10.4039057,18.3498285 10.3867588,18.3792259 C10.3696118,18.4086232 10.3596094,18.4365507 10.3367468,18.4659481 C10.3253156,18.4879961 10.3081686,18.5173934 10.2924506,18.5394415 C10.2753036,18.5629593 10.2638724,18.5923567 10.2467254,18.6144047 C10.2310074,18.6320431 10.2138604,18.655561 10.1967135,18.677609 C10.1809955,18.7011269 10.1695642,18.7172954 10.1524172,18.7408133 C10.1352703,18.7584517 10.1195523,18.7760902 10.1024053,18.7981382 C10.0852584,18.8157766 10.0738271,18.833415 10.0581091,18.8495835 C10.0409621,18.867222 10.0238152,18.8789809 10.0066683,18.9010289 C9.99095023,18.9127878 9.97951893,18.9304263 9.96237199,18.9480647 C9.94665397,18.9598236 9.92950703,18.9759922 9.91236009,18.9936306 C9.90092879,19.0053895 9.88521076,19.0171485 9.86806382,19.033317 C9.85091688,19.0450759 9.83376995,19.0627144 9.81805192,19.0744733 C9.80662062,19.0847624 9.78947368,19.1024008 9.77232674,19.1141597 C9.75660872,19.1259187 9.74517742,19.1376776 9.72803048,19.1479667 C9.71088354,19.1597256 9.69516552,19.1714846 9.67801858,19.1832435 C9.66087164,19.1950024 9.64944034,19.2067614 9.63372231,19.2170505 C9.61657538,19.2288094 9.59942844,19.2405683 9.58371041,19.2523273 C9.56656347,19.2582068 9.55513217,19.2684958 9.53798523,19.2802548 C9.52226721,19.2920137 9.50512027,19.2978932 9.48797333,19.3096521 C9.4722553,19.3155316 9.46082401,19.3272905 9.44367707,19.3375796 C9.42653013,19.3434591 9.4108121,19.355218 9.39366516,19.3610975 C9.37651822,19.3728564 9.36508693,19.3846154 9.3493689,19.3904949 C9.33222196,19.3949045 9.31507502,19.4066634 9.30364372,19.4125429 C9.2879257,19.4243018 9.27077876,19.4301813 9.25363182,19.4360608 C9.23648488,19.4478197 9.22076685,19.4522293 9.20933556,19.4581088 C9.19218862,19.4698677 9.17504168,19.4757472 9.15932365,19.4816267 C9.14217671,19.4933856 9.13074542,19.4992651 9.11502739,19.5051445 C9.09788045,19.511024 9.08073351,19.5154336 9.06358657,19.5213131 C9.04786854,19.533072 9.03643725,19.5389515 9.01929031,19.544831 C9.00214337,19.5507104 8.98642534,19.5565899 8.97499405,19.5624694 L8.92498214,19.5786379 C8.9078352,19.5845174 8.89068826,19.5903969 8.87925697,19.5962763 C8.86353894,19.6021558 8.846392,19.6080353 8.82924506,19.6139147 L8.7849488,19.6256737 C8.76780186,19.6315532 8.75208383,19.6359628 8.73493689,19.6418422 C8.71778995,19.6418422 8.70635866,19.6477217 8.69064063,19.6536012 C8.67349369,19.6594806 8.65634675,19.6653601 8.63919981,19.6653601 C8.62348178,19.6712396 8.61205049,19.6771191 8.59490355,19.6771191 C8.57775661,19.6829985 8.56203858,19.688878 8.54489164,19.6947575 C8.5277447,19.6947575 8.51774232,19.6991671 8.50059538,19.6991671 C8.46058585,19.7168055 8.44486783,19.722685 8.42772089,19.722685 C8.41057395,19.7285644 8.40057156,19.7285644 8.38342462,19.7344439 L8.33341272,19.7403234 L8.28768754,19.7462028 C8.27196952,19.7520823 8.25482258,19.7520823 8.23767564,19.7579618 C8.2205287,19.7579618 8.21052632,19.7579618 8.19337938,19.7623714 C8.17623244,19.7623714 8.16051441,19.7682509 8.14336747,19.7682509 L8.09907121,19.7741303 C8.08192427,19.7741303 8.06477733,19.7800098 8.04763039,19.7800098 C8.03762801,19.7800098 8.02048107,19.7800098 8.00333413,19.7858893 L7.95332222,19.7858893 L7.90902596,19.7917687 L7.86330079,19.7917687 L7.81328888,19.7976482 L7.76899262,19.7976482 C7.75184568,19.7976482 7.73612765,19.8035277 7.71898071,19.8035277 C7.70183377,19.8035277 7.69040248,19.8035277 7.67468445,20 L0,20 L0,30 L7.12741129,30 L7.17170755,29.9941205 L7.31174089,29.9941205 Z" id="Fill-2" fill="#3FBC11"></path>
                    <path d="M5.42065868,14 L5.48615269,14 C5.50860778,14 5.52919162,13.995172 5.54416168,13.995172 C5.56661677,13.995172 5.58907186,13.995172 5.60965569,13.990344 L5.66953593,13.990344 C5.69011976,13.985516 5.70508982,13.985516 5.72005988,13.985516 L5.73502994,13.980688 C5.75,13.980688 5.77058383,13.97586 5.79303892,13.97586 C5.81549401,13.971032 5.83607784,13.971032 5.8510479,13.966204 L5.91654192,13.952927 C5.93899701,13.948099 5.9614521,13.943271 5.97642216,13.943271 C5.99700599,13.938443 6.01946108,13.928787 6.04191617,13.923959 C6.06437126,13.919131 6.08495509,13.914303 6.09992515,13.909475 C6.12238024,13.904647 6.14483533,13.8961979 6.16541916,13.8913699 C6.18787425,13.8817139 6.20284431,13.8768859 6.22342814,13.8672299 C6.24588323,13.8624019 6.26833832,13.8527459 6.29079341,13.8442969 C6.30389222,13.8394689 6.32634731,13.8298129 6.3488024,13.8201569 C6.37125749,13.8105009 6.39184132,13.8020519 6.40681138,13.7923959 C6.42926647,13.7827399 6.45172156,13.7730839 6.47230539,13.7585999 C6.49476048,13.7501509 6.51721557,13.7356669 6.53218563,13.7260109 C6.55276946,13.7115269 6.57522455,13.6982498 6.59767964,13.6837658 C6.61826347,13.6692818 6.64071856,13.6547978 6.65568862,13.6415208 C6.67814371,13.6222088 6.69872754,13.6077248 6.72118263,13.5896198 C6.74363772,13.5703078 6.75860778,13.5509958 6.77919162,13.5280628 C6.80164671,13.5039228 6.8241018,13.4809897 6.84468563,13.4568497 C6.86714072,13.4290887 6.88959581,13.3964997 6.90456587,13.3675317 C6.9251497,13.3252867 6.94760479,13.2782136 6.96257485,13.2311406 C6.99251497,13.1599276 7,13.0802655 7,12.9993965 C7,12.9197345 6.99251497,12.8449004 6.96257485,12.7688594 C6.94760479,12.7266144 6.9251497,12.6795413 6.90456587,12.6372963 C6.88211078,12.6035003 6.86714072,12.5757393 6.84468563,12.5431503 C6.8241018,12.5190103 6.80164671,12.4948702 6.77919162,12.4719372 C6.75860778,12.4526252 6.74363772,12.4345202 6.72118263,12.4152082 C6.69872754,12.3958962 6.67814371,12.3777912 6.65568862,12.3633072 C6.64071856,12.3439952 6.61826347,12.3307182 6.59767964,12.3162342 C6.57522455,12.3017502 6.55276946,12.2933011 6.53218563,12.2788171 C6.51721557,12.2643331 6.49476048,12.2546771 6.47230539,12.2414001 C6.45172156,12.2317441 6.42926647,12.2220881 6.40681138,12.2124321 C6.39184132,12.2027761 6.37125749,12.1894991 6.3488024,12.1798431 C6.32634731,12.1701871 6.30389222,12.1653591 6.29079341,12.1557031 C6.26833832,12.1460471 6.24588323,12.1424261 6.22342814,12.1327701 C6.20284431,12.1279421 6.18787425,12.1182861 6.16541916,12.1134581 C6.14483533,12.1038021 6.12238024,12.098974 6.09992515,12.094146 C6.08495509,12.085697 6.06437126,12.080869 6.04191617,12.076041 C6.01946108,12.071213 5.99700599,12.066385 5.97642216,12.061557 C5.9614521,12.056729 5.93899701,12.051901 5.91654192,12.047073 C5.89595808,12.042245 5.87350299,12.038624 5.8510479,12.038624 C5.83607784,12.033796 5.81549401,12.028968 5.79303892,12.028968 C5.77058383,12.02414 5.75,12.019312 5.73502994,12.019312 L5.72005988,12.014484 L5.66953593,12.014484 C5.65456587,12.009656 5.63211078,12.009656 5.60965569,12.009656 C5.58907186,12.004828 5.56661677,12.004828 5.54416168,12.004828 C5.52919162,12.004828 5.50860778,12.004828 5.48615269,12 L5.42065868,12 L2,12 L2,14 L5.3626497,14 L5.42065868,14" id="Fill-3" fill="#3FBB11"></path>
                    <path d="M5.42065868,18 L5.48615269,18 C5.50860778,18 5.52919162,17.995172 5.54416168,17.995172 C5.56661677,17.995172 5.58907186,17.995172 5.60965569,17.990344 L5.66953593,17.990344 C5.69011976,17.985516 5.70508982,17.985516 5.72005988,17.985516 L5.73502994,17.980688 C5.75,17.980688 5.77058383,17.97586 5.79303892,17.97586 C5.81549401,17.971032 5.83607784,17.971032 5.8510479,17.966204 L5.91654192,17.952927 C5.93899701,17.948099 5.9614521,17.943271 5.97642216,17.943271 C5.99700599,17.938443 6.01946108,17.928787 6.04191617,17.923959 C6.06437126,17.919131 6.08495509,17.914303 6.09992515,17.909475 C6.12238024,17.904647 6.14483533,17.8961979 6.16541916,17.8913699 C6.18787425,17.8817139 6.20284431,17.8768859 6.22342814,17.8672299 C6.24588323,17.8624019 6.26833832,17.8527459 6.29079341,17.8442969 C6.30389222,17.8394689 6.32634731,17.8298129 6.3488024,17.8201569 C6.37125749,17.8105009 6.39184132,17.8020519 6.40681138,17.7923959 C6.42926647,17.7827399 6.45172156,17.7730839 6.47230539,17.7585999 C6.49476048,17.7501509 6.51721557,17.7356669 6.53218563,17.7260109 C6.55276946,17.7115269 6.57522455,17.6982498 6.59767964,17.6837658 C6.61826347,17.6692818 6.64071856,17.6547978 6.65568862,17.6415208 C6.67814371,17.6222088 6.69872754,17.6077248 6.72118263,17.5896198 C6.74363772,17.5703078 6.75860778,17.5509958 6.77919162,17.5280628 C6.80164671,17.5039228 6.8241018,17.4809897 6.84468563,17.4568497 C6.86714072,17.4290887 6.88959581,17.3964997 6.90456587,17.3675317 C6.9251497,17.3252867 6.94760479,17.2782136 6.96257485,17.2311406 C6.99251497,17.1599276 7,17.0802655 7,16.9993965 C7,16.9197345 6.99251497,16.8449004 6.96257485,16.7688594 C6.94760479,16.7266144 6.9251497,16.6795413 6.90456587,16.6372963 C6.88211078,16.6035003 6.86714072,16.5757393 6.84468563,16.5431503 C6.8241018,16.5190103 6.80164671,16.4948702 6.77919162,16.4719372 C6.75860778,16.4526252 6.74363772,16.4345202 6.72118263,16.4152082 C6.69872754,16.3958962 6.67814371,16.3777912 6.65568862,16.3633072 C6.64071856,16.3439952 6.61826347,16.3307182 6.59767964,16.3162342 C6.57522455,16.3017502 6.55276946,16.2933011 6.53218563,16.2788171 C6.51721557,16.2643331 6.49476048,16.2546771 6.47230539,16.2414001 C6.45172156,16.2317441 6.42926647,16.2220881 6.40681138,16.2124321 C6.39184132,16.2027761 6.37125749,16.1894991 6.3488024,16.1798431 C6.32634731,16.1701871 6.30389222,16.1653591 6.29079341,16.1557031 C6.26833832,16.1460471 6.24588323,16.1424261 6.22342814,16.1327701 C6.20284431,16.1279421 6.18787425,16.1182861 6.16541916,16.1134581 C6.14483533,16.1038021 6.12238024,16.098974 6.09992515,16.094146 C6.08495509,16.085697 6.06437126,16.080869 6.04191617,16.076041 C6.01946108,16.071213 5.99700599,16.066385 5.97642216,16.061557 C5.9614521,16.056729 5.93899701,16.051901 5.91654192,16.047073 C5.89595808,16.042245 5.87350299,16.038624 5.8510479,16.038624 C5.83607784,16.033796 5.81549401,16.028968 5.79303892,16.028968 C5.77058383,16.02414 5.75,16.019312 5.73502994,16.019312 L5.72005988,16.014484 L5.66953593,16.014484 C5.65456587,16.009656 5.63211078,16.009656 5.60965569,16.009656 C5.58907186,16.004828 5.56661677,16.004828 5.54416168,16.004828 C5.52919162,16.004828 5.50860778,16.004828 5.48615269,16 L5.42065868,16 L2,16 L2,18 L5.3626497,18 L5.42065868,18" id="Fill-3-Copy" fill="#3FBB11"></path>
                </g>
            </g>
        </g>
    </g>
</svg>