<?xml version="1.0" encoding="UTF-8" standalone="no"?>
<svg width="45px" height="28px" viewBox="0 0 45 28" version="1.1" xmlns="http://www.w3.org/2000/svg" xmlns:xlink="http://www.w3.org/1999/xlink" xmlns:sketch="http://www.bohemiancoding.com/sketch/ns">
    <!-- Generator: Sketch 3.4.1 (15681) - http://www.bohemiancoding.com/sketch -->
    <title>Untitled</title>
    <desc>Created with Sketch.</desc>
    <defs></defs>
    <g id="Page-1" stroke="none" stroke-width="1" fill="none" fill-rule="evenodd" sketch:type="MSPage">
        <g id="UI/Payment/Mastercard/Small" sketch:type="MSLayerGroup" transform="translate(1.000000, 1.000000)">
            <rect id="Mask-Copy-3" stroke="#D2D3DE" fill="#FFFFFF" sketch:type="MSShapeGroup" x="0" y="0" width="42.0952381" height="26" rx="1"></rect>
            <path d="M26,22 C30.9705627,22 35,17.9705627 35,13 C35,8.02943725 30.9705627,4 26,4 C21.0294373,4 17,8.02943725 17,13 C17,17.9705627 21.0294373,22 26,22 Z" id="Oval-1-Copy-5" fill="#FFBF10" sketch:type="MSShapeGroup"></path>
            <circle id="Oval-1-Copy-3" fill="#D41A1A" sketch:type="MSShapeGroup" cx="16" cy="13" r="9"></circle>
            <rect id="Rectangle-8" fill="#FFBF10" sketch:type="MSShapeGroup" x="18" y="7.9" width="7" height="1" rx="2"></rect>
            <rect id="Rectangle-8-Copy-5" fill="#FFBF10" sketch:type="MSShapeGroup" x="20" y="6" width="7" height="1" rx="2"></rect>
            <rect id="Rectangle-8-Copy-4" fill="#FFBF10" sketch:type="MSShapeGroup" x="18" y="17" width="7" height="1" rx="2"></rect>
            <rect id="Rectangle-8-Copy-6" fill="#FFBF10" sketch:type="MSShapeGroup" x="20" y="19" width="7" height="1" rx="2"></rect>
            <rect id="Rectangle-8-Copy" fill="#FFBF10" sketch:type="MSShapeGroup" x="16.5714286" y="9.9047619" width="9.3851144" height="1.23809524" rx="2"></rect>
            <rect id="Rectangle-8-Copy-3" fill="#FFBF10" sketch:type="MSShapeGroup" x="16.5714286" y="14.8571429" width="9.3851144" height="1.23809524" rx="2"></rect>
            <rect id="Rectangle-8-Copy-2" fill="#FFBF10" sketch:type="MSShapeGroup" x="17.5809675" y="12.3809524" width="8.04761905" height="1.23809524" rx="2"></rect>
            <rect id="Rectangle-12" fill="#FFFFFF" sketch:type="MSShapeGroup" x="11" y="12" width="20" height="2" rx="2"></rect>
        </g>
    </g>
</svg>