<?xml version="1.0" encoding="UTF-8" standalone="no"?>
<svg width="44px" height="42px" viewBox="0 0 44 42" version="1.1" xmlns="http://www.w3.org/2000/svg" xmlns:xlink="http://www.w3.org/1999/xlink" xmlns:sketch="http://www.bohemiancoding.com/sketch/ns">
    <!-- Generator: Sketch 3.4.1 (15681) - http://www.bohemiancoding.com/sketch -->
    <title>Untitled</title>
    <desc>Created with Sketch.</desc>
    <defs></defs>
    <g id="Page-1" stroke="none" stroke-width="1" fill="none" fill-rule="evenodd" sketch:type="MSPage">
        <g id="UI/General/Help" sketch:type="MSLayerGroup" transform="translate(2.000000, 1.000000)" stroke="#11A3EB" stroke-width="2">
            <path d="M20.0006667,0 C14.882,0 9.76333333,1.95266667 5.858,5.858 C-1.95266667,13.668 -1.95266667,26.3313333 5.858,34.142 C9.76333333,38.0473333 14.882,40 20.0006667,40 C25.1186667,40 30.2373333,38.0473333 34.142,34.142 C41.9526667,26.3313333 41.9526667,13.668 34.142,5.858 C30.2373333,1.95266667 25.1186667,0 20.0006667,0" id="Fill-1" sketch:type="MSShapeGroup"></path>
            <path d="M26.4283706,26.4280931 C22.8776418,29.9781197 17.1216807,29.9781197 13.5716294,26.4280931 C10.0215781,22.8780665 10.0215781,17.1221455 13.5716294,13.572119 C17.1216807,10.0214149 22.8776418,10.0214149 26.4283706,13.572119 C29.9784219,17.1221455 29.9784219,22.8780665 26.4283706,26.4280931 L26.4283706,26.4280931 Z" id="Path" stroke-linecap="round" stroke-linejoin="round" sketch:type="MSShapeGroup"></path>
            <path d="M6.36363636,33.6363636 L13.4181449,26.6638822 L6.36363636,33.6363636 Z M26.681189,13.3372808 L33.6363636,6.47439123 L26.681189,13.3372808 Z M6.71200257,6.36363636 L13.5470241,13.3466782 L6.71200257,6.36363636 Z M26.9295501,26.5537986 L33.0939966,32.8655988 L26.9295501,26.5537986 Z" id="Stroke-2" stroke-linecap="round" stroke-linejoin="round" sketch:type="MSShapeGroup"></path>
        </g>
    </g>
</svg>