<?xml version="1.0" encoding="UTF-8" standalone="no"?>
<svg width="65px" height="45px" viewBox="0 0 65 45" version="1.1" xmlns="http://www.w3.org/2000/svg" xmlns:xlink="http://www.w3.org/1999/xlink" xmlns:sketch="http://www.bohemiancoding.com/sketch/ns">
    <!-- Generator: Sketch 3.4.1 (15681) - http://www.bohemiancoding.com/sketch -->
    <title>Untitled</title>
    <desc>Created with Sketch.</desc>
    <defs></defs>
    <g id="Page-1" stroke="none" stroke-width="1" fill="none" fill-rule="evenodd" sketch:type="MSPage">
        <path d="M54.1920285,22.1832296 C54.1920285,22.1832296 44.4691071,8.08800528 44.306663,7.86989206 L46.830023,7.45830604 L46.6237737,2.56672932 L44.255557,2 L39.6797425,4.73115666 L34.7817775,4.74119534 M49.2675979,24.6262802 C47.4980518,25.443064 41.5086081,35.7883837 41.5086081,35.7883837 L5.02894461,35.515514 L2,30.1393426 L10.6095401,20.7423612 L22.3155577,20.7423612 M40.9218014,11.1598425 L44.6397648,19.72649 L37.9695158,29.7256535 L24.0513374,29.7484687 L30.2506808,21.2569329 L32.4071725,21.3098641 C32.4071725,21.3098641 34.2150482,16.8374222 28.5002994,13.6971395 L9.35014159,13.6067913 M44.9244983,32.8415737 L48.9919904,32.8415737 C48.9919904,32.8415737 50.9486211,28.7251877 54.6045271,28.7251877 C58.2595205,28.7251877 60.1650452,29.1376863 60.1650452,29.1376863 L62.7906173,28.5167263 C62.7906173,28.5167263 61.6580712,24.0887543 54.1920285,22.1832296 M62.6071831,32.6852699 C63.1520099,33.7302056 63.4604712,34.9193333 63.4604712,36.1796444 C63.4604712,40.3593872 60.0719592,43.7478992 55.8913038,43.7478992 C52.0784293,43.7478992 48.9244574,40.9288544 48.3987955,37.2610844 M21.6639559,39.3268412 C20.3707909,42.276389 17.2743134,44.1791758 13.9031409,43.8086571 C9.7480385,43.3514407 6.74920994,40.2065949 7.20642634,36.0514925" id="Motorbike-Blue-62px" stroke="#11A3EB" stroke-width="2" stroke-linecap="round" stroke-linejoin="round" sketch:type="MSShapeGroup"></path>
    </g>
</svg>