<?xml version="1.0" encoding="UTF-8" standalone="no"?>
<svg width="51px" height="36px" viewBox="0 0 51 36" version="1.1" xmlns="http://www.w3.org/2000/svg" xmlns:xlink="http://www.w3.org/1999/xlink" xmlns:sketch="http://www.bohemiancoding.com/sketch/ns">
    <!-- Generator: Sketch 3.4.1 (15681) - http://www.bohemiancoding.com/sketch -->
    <title>Untitled</title>
    <desc>Created with Sketch.</desc>
    <defs></defs>
    <g id="Page-1" stroke="none" stroke-width="1" fill="none" fill-rule="evenodd" sketch:type="MSPage">
        <g id="Icons/Vehicles/Motorbike/48" sketch:type="MSLayerGroup" transform="translate(1.000000, 1.000000)" stroke="#11A3EB" stroke-width="2" stroke-linecap="round" stroke-linejoin="round">
            <path d="M40.3490566,16.0833333 C40.3490566,16.0833333 33.0906652,5.19984555 32.9693363,5.03210653 L34.8526771,4.71365463 L34.6990345,0.937004289 L32.9309257,0.5 L29.516037,2.91708144 L25.8584906,2.92464862 M36.2735849,18.8333333 C34.8832573,19.4717148 31.2924528,25.9540854 31.2924528,25.9540854 L2.87901919,25.9540856 L0.5,21.7509821 L7.26365166,14.25 L16.4595746,14.25 M29.0283019,7.83333333 L32.6509434,14.25 L27.6698113,21.125 L17.7075472,21.125 L22.0259508,15.4764037 L23.6860208,15.5176924 C23.6860208,15.5176924 25.0782158,12.2223373 20.6777728,9.74178918 L5.93396226,9.67017907 M34.009434,25.25 L37.1021348,25.25 C37.1021348,25.25 38.5901089,21.7961686 41.3698135,21.7961686 C44.1495181,21.7961686 45.5977466,22.1501916 45.5977466,22.1501916 L47.5943396,21.5306513 C47.5943396,21.5306513 46.732979,17.7220945 41.0561962,16.0833333 M47.8328238,24.3333333 C48.2593058,25.1995177 48.5,26.1848024 48.5,27.2289606 C48.5,30.6923446 45.851087,33.5 42.5835198,33.5 C39.6026149,33.5 37.1369359,31.1640091 36.7264151,28.1255967 M15.8962264,29.7764293 C14.9268388,32.2022305 12.6067956,33.7670468 10.0811248,33.4621427 C6.96733432,33.0860495 4.72011761,30.5004087 5.0628304,27.0833333" id="Motorbike-Blue-48px" sketch:type="MSShapeGroup"></path>
        </g>
    </g>
</svg>