<?xml version="1.0" encoding="UTF-8" standalone="no"?>
<svg width="64px" height="45px" viewBox="0 0 64 45" version="1.1" xmlns="http://www.w3.org/2000/svg" xmlns:xlink="http://www.w3.org/1999/xlink" xmlns:sketch="http://www.bohemiancoding.com/sketch/ns">
    <!-- Generator: Sketch 3.4.1 (15681) - http://www.bohemiancoding.com/sketch -->
    <title>Untitled</title>
    <desc>Created with Sketch.</desc>
    <defs></defs>
    <g id="Page-1" stroke="none" stroke-width="1" fill="none" fill-rule="evenodd" sketch:type="MSPage">
        <g id="Icons/Vehicles/Motorbike/62-Grey" sketch:type="MSLayerGroup" transform="translate(1.000000, 1.000000)" stroke="#D2D9DC" stroke-width="2" stroke-linecap="round" stroke-linejoin="round">
            <path d="M52.5920285,20.4832296 C52.5920285,20.4832296 42.8691071,6.38800528 42.706663,6.16989206 L45.230023,5.75830604 L45.0237737,0.866729318 L42.655557,0.3 L38.0797425,3.03115666 L33.1817775,3.04119534 M47.6675979,22.9262802 C45.8980518,23.743064 39.9086081,34.0883837 39.9086081,34.0883837 L3.42894461,33.815514 L0.4,28.4393426 L9.00954007,19.0423612 L20.7155577,19.0423612 M39.3218014,9.45984245 L43.0397648,18.02649 L36.3695158,28.0256535 L22.4513374,28.0484687 L28.6506808,19.5569329 L30.8071725,19.6098641 C30.8071725,19.6098641 32.6150482,15.1374222 26.9002994,11.9971395 L7.75014159,11.9067913 M43.3244983,31.1415737 L47.3919904,31.1415737 C47.3919904,31.1415737 49.3486211,27.0251877 53.0045271,27.0251877 C56.6595205,27.0251877 58.5650452,27.4376863 58.5650452,27.4376863 L61.1906173,26.8167263 C61.1906173,26.8167263 60.0580712,22.3887543 52.5920285,20.4832296 M61.0071831,31.08527 C61.5520099,32.1302056 61.8604712,33.3193333 61.8604712,34.5796444 C61.8604712,38.7593872 58.4719592,42.1478992 54.2913038,42.1478992 C50.4784293,42.1478992 47.3244574,39.3288544 46.7987955,35.6610844 M20.0639559,37.6268412 C18.7707909,40.576389 15.6743134,42.4791758 12.3031409,42.1086571 C8.1480385,41.6514407 5.14920994,38.5065949 5.60642634,34.3514925" id="Motorbike-Light-Grey-62px" sketch:type="MSShapeGroup"></path>
        </g>
    </g>
</svg>