<?xml version="1.0" encoding="UTF-8" standalone="no"?>
<svg width="36px" height="70px" viewBox="0 0 36 70" version="1.1" xmlns="http://www.w3.org/2000/svg" xmlns:xlink="http://www.w3.org/1999/xlink" xmlns:sketch="http://www.bohemiancoding.com/sketch/ns">
    <!-- Generator: Sketch 3.4.1 (15681) - http://www.bohemiancoding.com/sketch -->
    <title>Untitled</title>
    <desc>Created with Sketch.</desc>
    <defs></defs>
    <g id="Page-1" stroke="none" stroke-width="1" fill="none" fill-rule="evenodd" sketch:type="MSPage">
        <g id="Icons/Vehicles/Walking/32" sketch:type="MSLayerGroup" transform="translate(2.000000, 2.000000)" stroke="#11A3EB" stroke-width="3" stroke-linecap="round" stroke-linejoin="round">
            <path d="M20.5248924,19.7875 L22.2508695,27.2058913 L32,37.5459023 L28.9808343,41.05 L17.0222046,31.6493374 L14.675,26.6931465 M3.78873541,37.1125 L0.5,36.433047 L4.56756445,25.3132427 L12.6154645,13.4875 L16.25,14.8881716 M9.60429652,18.2125 L9.60429652,35.6573392 L0.5,64.1875966 L4.74294373,66.25 L17.825,40.1255361 M18.6125,50.8073386 L26.8675645,66.25 L31.2125,64.9486229 L21.9147344,35.5375 M24.125,4.825 C24.125,7.43425 22.00925,9.55 19.4,9.55 C16.79075,9.55 14.675,7.43425 14.675,4.825 C14.675,2.21575 16.79075,0.1 19.4,0.1 C22.00925,0.1 24.125,2.21575 24.125,4.825 L24.125,4.825 Z" id="Walking-Blue-32px" sketch:type="MSShapeGroup"></path>
        </g>
    </g>
</svg>