<?xml version="1.0" encoding="UTF-8" standalone="no"?>
<svg width="24px" height="48px" viewBox="0 0 24 48" version="1.1" xmlns="http://www.w3.org/2000/svg" xmlns:xlink="http://www.w3.org/1999/xlink" xmlns:sketch="http://www.bohemiancoding.com/sketch/ns">
    <!-- Generator: Sketch 3.4.1 (15681) - http://www.bohemiancoding.com/sketch -->
    <title>Untitled</title>
    <desc>Created with Sketch.</desc>
    <defs></defs>
    <g id="Page-1" stroke="none" stroke-width="1" fill="none" fill-rule="evenodd" sketch:type="MSPage">
        <g id="Icons/Vehicles/Walking/22" sketch:type="MSLayerGroup" transform="translate(1.000000, 1.000000)" stroke="#11A3EB" stroke-width="2" stroke-linecap="round" stroke-linejoin="round">
            <path d="M13.85398,14.2131021 L15.0176605,19.2629309 L21.5906751,26.3015574 L19.5551069,28.686858 L11.4924137,22.2876625 L9.90989197,18.9138966 M2.80145863,25.952523 L0.590675133,25.4869112 L3.32501014,17.8667935 L8.73504238,9.76291427 L11.1782828,10.7227587 M6.69877605,13.0961922 L6.69877605,24.90542 L0.707252602,44.2188861 L3.49952731,45.6150234 L12.1088083,27.9301516 M12.6902995,35.1439933 L18.2169092,45.498446 L21.1257614,44.6258601 L14.901083,24.90542 M16.5764478,4.06807001 C16.5764478,5.80277067 15.1698394,7.20937905 13.4351388,7.20937905 C11.7004381,7.20937905 10.2938297,5.80277067 10.2938297,4.06807001 C10.2938297,2.33336934 11.7004381,0.926760961 13.4351388,0.926760961 C15.1698394,0.926760961 16.5764478,2.33336934 16.5764478,4.06807001 L16.5764478,4.06807001 Z" id="Walking-Blue-22px" sketch:type="MSShapeGroup"></path>
        </g>
    </g>
</svg>