<?xml version="1.0" encoding="UTF-8" standalone="no"?>
<svg width="30px" height="61px" viewBox="0 0 30 61" version="1.1" xmlns="http://www.w3.org/2000/svg" xmlns:xlink="http://www.w3.org/1999/xlink" xmlns:sketch="http://www.bohemiancoding.com/sketch/ns">
    <!-- Generator: Sketch 3.4.1 (15681) - http://www.bohemiancoding.com/sketch -->
    <title>Untitled</title>
    <desc>Created with Sketch.</desc>
    <defs></defs>
    <g id="Page-1" stroke="none" stroke-width="1" fill="none" fill-rule="evenodd" sketch:type="MSPage">
        <g id="Icons/Vehicles/Walking/28" sketch:type="MSLayerGroup" transform="translate(1.000000, 1.000000)" stroke="#11A3EB" stroke-width="2" stroke-linecap="round" stroke-linejoin="round">
            <path d="M17.4173889,17.6868289 L18.9268802,24.2364092 L27.4531968,33.367609 L24.812719,36.4608437 L14.3540362,28.1609054 L12.3012367,23.7836524 M3.08039106,32.9148522 L0.212629288,32.3108746 L3.75952631,22.4253819 L10.7772572,11.9141793 L13.946555,13.1592606 M8.13587385,16.238007 L8.13587385,31.5565817 L0.36385007,56.6085227 L3.98590472,58.41955 L15.1536047,35.4801724 M15.9078976,44.8368451 L23.0768493,58.2692348 L26.8501247,57.1373427 L18.7756594,31.5565817 M16.8740807,8.60181031 C14.6238792,8.60181031 12.7992692,6.77720027 12.7992692,4.52699882 C12.7992692,2.27589185 14.6238792,0.452187333 16.8740807,0.452187333 C19.1242822,0.452187333 20.9488922,2.27589185 20.9488922,4.52699882 C20.9488922,6.77720027 19.1242822,8.60181031 16.8740807,8.60181031 Z" id="Walking-Blue-28px" sketch:type="MSShapeGroup"></path>
        </g>
    </g>
</svg>