<?xml version="1.0" encoding="UTF-8" standalone="no"?>
<svg width="68px" height="45px" viewBox="0 0 68 45" version="1.1" xmlns="http://www.w3.org/2000/svg" xmlns:xlink="http://www.w3.org/1999/xlink" xmlns:sketch="http://www.bohemiancoding.com/sketch/ns">
    <!-- Generator: Sketch 3.4.1 (15681) - http://www.bohemiancoding.com/sketch -->
    <title>Untitled</title>
    <desc>Created with Sketch.</desc>
    <defs></defs>
    <g id="Page-1" stroke="none" stroke-width="1" fill="none" fill-rule="evenodd" sketch:type="MSPage">
        <g id="Icons/Vehicles/Bycicle/66" sketch:type="MSLayerGroup" transform="translate(1.000000, 2.000000)" stroke="#11A3EB" stroke-width="2" stroke-linecap="round" stroke-linejoin="round">
            <path d="M29.6606327,32.0893023 C31.8454107,32.0893023 33.6173643,30.3785121 33.6173643,28.2691473 C33.6173643,26.1597824 31.8454107,24.4489922 29.6606327,24.4489922 L24.6289625,25.0757364 L13.3072058,26.4861515 C12.2881081,26.4861515 11.4604651,27.2842636 11.4604651,28.2691473 C11.4604651,29.2530683 12.2881081,30.0511803 13.3072058,30.0511803 L29.6606327,32.0893023 L29.6606327,32.0893023 Z M24.4489922,32.3100897 C23.765472,34.4783756 22.5444829,36.3964359 20.9505761,37.8947628 C18.7257276,39.9843488 15.7735434,41.2576744 12.5341249,41.2576744 C5.61129201,41.2576744 0,35.4429551 0,28.2691473 C0,21.0963485 5.61129201,15.2806202 12.5341249,15.2806202 C13.0638044,15.2806202 13.5876418,15.3149253 14.1007688,15.3815176 M55.1889991,16.0446512 C61.1568451,17.046467 65.7066667,22.2705029 65.7066667,28.5643913 C65.7066667,35.5751303 60.0629685,41.2576744 53.1011343,41.2576744 C46.1383209,41.2576744 40.4936434,35.5751303 40.4936434,28.5643913 C40.4936434,22.9577722 44.1052969,18.1991469 49.1134302,16.518936 M39.4392147,0 L45.198275,2.22647362 L46.6058915,7.50567879 L30.5612403,24.4489922 M48.8979845,13.7525581 L52.7181395,28.2691473 L48.8979845,13.7525581 Z M17.5727132,7.64031008 L25.2130233,24.4489922 L17.5727132,7.64031008 Z M14.5165891,6.87627907 L22.9209302,6.87627907 L14.5165891,6.87627907 Z" id="Bicycle-Blue-65-px" sketch:type="MSShapeGroup"></path>
        </g>
    </g>
</svg>