<?xml version="1.0" encoding="UTF-8" standalone="no"?>
<svg width="60px" height="48px" viewBox="0 0 60 48" version="1.1" xmlns="http://www.w3.org/2000/svg" xmlns:xlink="http://www.w3.org/1999/xlink" xmlns:sketch="http://www.bohemiancoding.com/sketch/ns">
    <!-- Generator: Sketch 3.4.1 (15681) - http://www.bohemiancoding.com/sketch -->
    <title>Untitled</title>
    <desc>Created with Sketch.</desc>
    <defs></defs>
    <g id="Page-1" stroke="none" stroke-width="1" fill="none" fill-rule="evenodd" sketch:type="MSPage">
        <g id="Icons/Vehicle/Car/58-grey" sketch:type="MSLayerGroup" transform="translate(1.000000, 1.000000)" stroke="#D2D9DC" stroke-width="2" stroke-linecap="round" stroke-linejoin="round">
            <path d="M11.7994971,42.4802549 L10.6739489,45.6372549 L3.64052311,45.6372549 L3.64052311,23.6742549 L10.587907,7.8522549 C10.587907,7.8522549 13.2502037,0.677254902 19.7923902,0.677254902 L38.6015516,0.677254902 C45.4718979,0.677254902 48.3202853,7.7042549 48.3202853,7.7042549 L54.7264055,23.6742549 L54.7264055,45.6372549 L47.4238487,45.6372549 L46.5874413,42.0472549 M9.12919648,36.7392549 L13.7984707,37.7272549 L44.0582094,37.7272549 L49.9870972,36.5832549 M6.81707031,15.6012549 L0.509998322,15.6012549 M51.692928,15.6012549 L58,15.6012549 M9.30828371,24.2202549 L15.6583766,25.2392549 L16.4707723,28.9162549 M49.6209188,24.2202549 L43.2718263,25.2392549 L42.316361,29.2502549 M21.3101295,28.7552549 L37.6851052,28.7552549 L39.0127519,23.7542549 L20.1545666,23.7542549 C20.1545666,24.0432549 21.3101295,28.7552549 21.3101295,28.7552549 Z" id="Car-Light-Grey-57px" sketch:type="MSShapeGroup"></path>
        </g>
    </g>
</svg>