<?xml version="1.0" encoding="UTF-8" standalone="no"?>
<svg width="51px" height="43px" viewBox="0 0 51 43" version="1.1" xmlns="http://www.w3.org/2000/svg" xmlns:xlink="http://www.w3.org/1999/xlink" xmlns:sketch="http://www.bohemiancoding.com/sketch/ns">
    <!-- Generator: Sketch 3.4.1 (15681) - http://www.bohemiancoding.com/sketch -->
    <title>Untitled</title>
    <desc>Created with Sketch.</desc>
    <defs></defs>
    <g id="Page-1" stroke="none" stroke-width="1" fill="none" fill-rule="evenodd" sketch:type="MSPage">
        <g id="Icons/Menu/Intern/Bug" sketch:type="MSLayerGroup" transform="translate(1.000000, 1.000000)" stroke="#292C31" stroke-width="2" stroke-linecap="round" stroke-linejoin="round">
            <path d="M12.4678576,5.23606754 C15.561695,1.98233842 19.6678663,0 24.1735348,0 C29.0721107,0 33.4987034,2.34321714 36.6650269,6.11581336 C36.958266,6.46671387 37.2416207,6.82925563 37.5134434,7.20343863 C37.7877373,7.58177923 38.0504993,7.97176107 38.3017295,8.37338417 C38.482121,8.66358388 38.6567465,8.95960421 38.8247824,9.26061365 L9.43167953,9.42359114 C9.22410577,9.80525781 9.02641648,10.1952397 8.84025907,10.5935367 C7.50503264,13.4514633 7.14557629,16.7259804 7.14557629,20.2058824 C7.14557629,31.3648511 14.5485374,40.4117647 24.1735348,40.4117647 C33.7985322,40.4117647 41.6006695,31.3648511 41.6006695,20.2058824 C41.6006695,17.6813943 41.2011724,15.2658351 40.4721932,13.038199 M0.4,20.4 L7.4,20.4 M41.7,13.2699999 C45.4939403,12.5627015 48.0512837,8.59156182 47.4109461,4.4 M41.6006695,29.5695839 C45.3946099,30.2777668 47.9519532,34.248902 47.3116156,38.4404591 M6.74557628,13.1134864 C2.9509802,12.4061182 -0.406265025,8.43458664 0.634849419,4.24261119 M6.74557628,29.5695839 C2.9509802,30.2777668 -0.406265025,34.248902 0.634849419,38.4404591 M48.3780488,20.313056 L41.4183046,20.313056 M24.360726,40.4117647 L24.360726,17.2436817" id="Imported-Layers-Copy-51" sketch:type="MSShapeGroup"></path>
        </g>
    </g>
</svg>