<?xml version="1.0" encoding="UTF-8" standalone="no"?>
<svg width="50px" height="42px" viewBox="0 0 50 42" version="1.1" xmlns="http://www.w3.org/2000/svg" xmlns:xlink="http://www.w3.org/1999/xlink" xmlns:sketch="http://www.bohemiancoding.com/sketch/ns">
    <!-- Generator: Sketch 3.4.1 (15681) - http://www.bohemiancoding.com/sketch -->
    <title>Untitled</title>
    <desc>Created with Sketch.</desc>
    <defs></defs>
    <g id="Page-1" stroke="none" stroke-width="1" fill="none" fill-rule="evenodd" sketch:type="MSPage">
        <g id="Icons/Menu/Intern/Legal" sketch:type="MSLayerGroup" transform="translate(1.000000, 1.000000)" stroke="#292C31" stroke-width="2" stroke-linecap="round" stroke-linejoin="round">
            <path d="M2.15189873,26.5602252 L2.15189873,36.0102398 C2.15189873,37.6613701 3.53187342,39.0125 5.21940506,39.0125 L42.7817468,39.0125 C44.4681266,39.0125 45.8481013,37.6613701 45.8481013,36.0102398 L45.8826582,19.539538 L47,19.5474327 L47,11.034638 C47,9.38237985 45.6200253,8.03125 43.9336456,8.03125 L4.06750633,8.03125 C2.38112658,8.03125 1,9.38237985 1,11.034638 L1,20.0549523 L18.9431266,20.0549523 M15.8666667,2.94375 L15.8666667,0.1 L31.0333333,0.1 L31.0333333,2.94375 M19.9583333,16.0145833 L26.99375,16.0145833 L26.99375,25.09375 L19.9583333,25.09375 L19.9583333,16.0145833 Z M27.5416667,20.00625 L44.6041667,20.00625 L27.5416667,20.00625 Z" id="Imported-Layers-Copy-26" sketch:type="MSShapeGroup"></path>
        </g>
    </g>
</svg>