<?xml version="1.0" encoding="UTF-8" standalone="no"?>
<svg width="39px" height="49px" viewBox="0 0 39 49" version="1.1" xmlns="http://www.w3.org/2000/svg" xmlns:xlink="http://www.w3.org/1999/xlink" xmlns:sketch="http://www.bohemiancoding.com/sketch/ns">
    <!-- Generator: Sketch 3.4.1 (15681) - http://www.bohemiancoding.com/sketch -->
    <title>Untitled</title>
    <desc>Created with Sketch.</desc>
    <defs></defs>
    <g id="Page-1" stroke="none" stroke-width="1" fill="none" fill-rule="evenodd" sketch:type="MSPage">
        <g id="Icons/Menu/Intern/Lock" sketch:type="MSLayerGroup" transform="translate(1.000000, 1.000000)" stroke="#292C31" stroke-width="2">
            <path d="M6.9705376,12.952649 L6.9705376,11.1761246 C6.9705376,5.00372049 11.8960027,0 17.9701519,0 C24.045072,0 28.9705371,5.00372049 28.9705371,11.1761246 L28.9705376,20" id="Stroke-1" stroke-linecap="round" stroke-linejoin="round" sketch:type="MSShapeGroup"></path>
            <path d="M31.3347246,20 L4.81194203,20 C2.20570724,20 0.0733333333,22.1198639 0.0733333333,24.7108087 L0.0733333333,42.2891913 C0.0733333333,44.8801361 2.20570724,47 4.81194203,47 L31.3347246,47 C33.9409594,47 36.0733333,44.8801361 36.0733333,42.2891913 L36.0733333,24.7108087 C36.0733333,22.1198639 33.9409594,20 31.3347246,20" id="Fill-3" sketch:type="MSShapeGroup"></path>
            <path d="M17.9733333,30.9 L17.9733333,36.9" id="Stroke-4" stroke-linecap="round" stroke-linejoin="round" sketch:type="MSShapeGroup"></path>
        </g>
    </g>
</svg>