<?xml version="1.0" encoding="UTF-8" standalone="no"?>
<svg width="47px" height="47px" viewBox="0 0 47 47" version="1.1" xmlns="http://www.w3.org/2000/svg" xmlns:xlink="http://www.w3.org/1999/xlink" xmlns:sketch="http://www.bohemiancoding.com/sketch/ns">
    <!-- Generator: Sketch 3.4.1 (15681) - http://www.bohemiancoding.com/sketch -->
    <title>Untitled</title>
    <desc>Created with Sketch.</desc>
    <defs></defs>
    <g id="Page-1" stroke="none" stroke-width="1" fill="none" fill-rule="evenodd" sketch:type="MSPage">
        <g id="Icons/Menu/Intern/Steering-Wheel" sketch:type="MSLayerGroup" transform="translate(1.000000, 1.000000)" stroke="#292C31" stroke-width="2">
            <path d="M22.6004456,27.2636188 C20.8134542,27.2636188 19.3651444,25.8494928 19.3651444,24.1046789 C19.3651444,22.3607351 20.8134542,20.9466091 22.6004456,20.9466091 C24.3865458,20.9466091 25.8348556,22.3607351 25.8348556,24.1046789 C25.8348556,25.8494928 24.3865458,27.2636188 22.6004456,27.2636188 Z M22.5384584,15 C11.1941652,15.044617 10.5942266,21.2952345 12.9549186,28.061912 C15.2013717,34.501158 21.9097758,34.2312969 22.6003685,34.1859602 C23.2902242,34.2312969 29.9986283,34.501158 32.2450814,28.061912 C34.6057734,21.2952345 34.0058348,15.044617 22.6615416,15.0014393 C22.5797318,15.0007196 22.5590951,15 22.5384584,15 Z M13.1021189,27.0884242 L7.14032142,27.0884242 C7.14032142,27.0884242 5,27.1632657 5,25.1483027 L5,22.6857301 C5,22.6857301 5.07665063,21.3421815 7.36953629,20.5959256 C9.66242195,19.8496697 12.7962535,19.0285723 12.7962535,19.0285723 M32.097881,27.0884242 L38.0596786,27.0884242 C38.0596786,27.0884242 40.2,27.1632657 40.2,25.1483027 L40.2,22.6857301 C40.2,22.6857301 40.1233494,21.3421815 37.8304637,20.5959256 C35.537578,19.8496697 32.4037465,19.0285723 32.4037465,19.0285723" id="Stroke-2-Copy" stroke-linecap="round" stroke-linejoin="round" sketch:type="MSShapeGroup"></path>
            <circle id="Oval-202-Copy" sketch:type="MSShapeGroup" cx="22.5" cy="22.5" r="22.5"></circle>
        </g>
    </g>
</svg>