<?xml version="1.0" encoding="UTF-8" standalone="no"?>
<svg width="54px" height="54px" viewBox="0 0 54 54" version="1.1" xmlns="http://www.w3.org/2000/svg" xmlns:xlink="http://www.w3.org/1999/xlink" xmlns:sketch="http://www.bohemiancoding.com/sketch/ns">
    <!-- Generator: Sketch 3.4.1 (15681) - http://www.bohemiancoding.com/sketch -->
    <title>Untitled</title>
    <desc>Created with Sketch.</desc>
    <defs></defs>
    <g id="Page-1" stroke="none" stroke-width="1" fill="none" fill-rule="evenodd" sketch:type="MSPage">
        <g id="Icons/Menu/Aside/Profile" sketch:type="MSLayerGroup" transform="translate(1.000000, 1.000000)" stroke="#6E7F8F" stroke-width="2">
            <path d="M25.7986371,0.508128068 C11.7149871,0.508128068 0.298637096,11.9244781 0.298637096,26.0081281 C0.298637096,40.0909281 11.7149871,51.5081281 25.7986371,51.5081281 C39.8814371,51.5081281 51.2986371,40.0909281 51.2986371,26.0081281 C51.2986371,11.9244781 39.8814371,0.508128068 25.7986371,0.508128068" id="Fill-1" sketch:type="MSShapeGroup"></path>
            <path d="M33.6641984,21.9863659 C33.6641984,26.4114253 30.1423703,29.9975857 25.7986371,29.9975857 C21.4549039,29.9975857 17.9330758,26.4114253 17.9330758,21.9863659 C17.9330758,17.5621932 21.4549039,13.9760328 25.7986371,13.9760328 C30.1423703,13.9760328 33.6641984,17.5621932 33.6641984,21.9863659 L33.6641984,21.9863659 Z M41.21458,46.0900815 L41.21458,43.5308186 C41.21458,39.9969786 38.4014708,37.1317748 34.9318824,37.1317748 L16.6645211,37.1317748 C13.1949327,37.1317748 10.3826942,39.9969786 10.3826942,43.5308186 L10.3826942,46.0900815" id="Stroke-2" stroke-linecap="round" stroke-linejoin="round" sketch:type="MSShapeGroup"></path>
        </g>
    </g>
</svg>