<?xml version="1.0" encoding="UTF-8" standalone="no"?>
<svg width="55px" height="54px" viewBox="0 0 55 54" version="1.1" xmlns="http://www.w3.org/2000/svg" xmlns:xlink="http://www.w3.org/1999/xlink" xmlns:sketch="http://www.bohemiancoding.com/sketch/ns">
    <!-- Generator: Sketch 3.4.1 (15681) - http://www.bohemiancoding.com/sketch -->
    <title>Untitled</title>
    <desc>Created with Sketch.</desc>
    <defs></defs>
    <g id="Page-1" stroke="none" stroke-width="1" fill="none" fill-rule="evenodd" sketch:type="MSPage">
        <g id="Icons/Menu/Aside/Support" sketch:type="MSLayerGroup" transform="translate(2.000000, 1.000000)" stroke="#6E7F8F" stroke-width="2">
            <path d="M25.7208573,0 C19.138252,0 12.5556467,2.51112933 7.533388,7.533388 C-2.51112933,17.577048 -2.51112933,33.8620947 7.533388,43.906612 C12.5556467,48.9288707 19.138252,51.44 25.7208573,51.44 C32.3026053,51.44 38.8852107,48.9288707 43.906612,43.906612 C53.9511293,33.8620947 53.9511293,17.577048 43.906612,7.533388 C38.8852107,2.51112933 32.3026053,0 25.7208573,0" id="Fill-1" sketch:type="MSShapeGroup"></path>
            <path d="M34.3205435,33.8685769 C29.6335815,38.4970576 22.0357129,38.4970576 17.3496451,33.8685769 C12.6635774,29.2400963 12.6635774,21.7355979 17.3496451,17.1071173 C22.0357129,12.4777534 29.6335815,12.4777534 34.3205435,17.1071173 C39.0066113,21.7355979 39.0066113,29.2400963 34.3205435,33.8685769 L34.3205435,33.8685769 Z M8.2830113,43.6928602 L17.4378131,34.7556399 L8.2830113,43.6928602 Z M34.6495778,17.6738055 L43.6754717,8.87705824 L34.6495778,17.6738055 Z M8.73509434,8.73509434 L17.6050628,17.6858509 L8.73509434,8.73509434 Z M34.9718819,34.6145364 L42.9716292,42.7049057 L34.9718819,34.6145364 Z" id="Stroke-2" stroke-linecap="round" stroke-linejoin="round" sketch:type="MSShapeGroup"></path>
        </g>
    </g>
</svg>