<?xml version="1.0" encoding="UTF-8" standalone="no"?>
<svg width="85px" height="85px" viewBox="0 0 85 85" version="1.1" xmlns="http://www.w3.org/2000/svg" xmlns:xlink="http://www.w3.org/1999/xlink" xmlns:sketch="http://www.bohemiancoding.com/sketch/ns">
    <!-- Generator: Sketch 3.4.1 (15681) - http://www.bohemiancoding.com/sketch -->
    <title>Untitled</title>
    <desc>Created with Sketch.</desc>
    <defs>
        <linearGradient x1="50%" y1="100%" x2="50%" y2="-43.4604779%" id="linearGradient-1">
            <stop stop-color="#11A3EB" offset="0%"></stop>
            <stop stop-color="#24BDFD" offset="100%"></stop>
        </linearGradient>
    </defs>
    <g id="Page-1" stroke="none" stroke-width="1" fill="none" fill-rule="evenodd" sketch:type="MSPage">
        <g id="UI/Pin/Moped" sketch:type="MSLayerGroup">
            <ellipse id="Oval-128" fill="url(#linearGradient-1)" sketch:type="MSShapeGroup" cx="42.5" cy="42.5" rx="42.5" ry="42.5"></ellipse>
            <path d="M59,39 C59,39 50.9855261,27.1271042 50.8515589,26.9441162 L52.9310809,26.5967141 L52.7614339,22.476732 L50.8091471,22 L47.0385408,24.6368161 L43,24.6450712 M54.5,42 C52.9648467,42.6964161 49,49.7680931 49,49.7680931 L17.6268337,49.7680934 L15,45.1828896 L22.4681987,37 L32.6220302,37 M46.5,30 L50.5,37 L45,44.5 L34,44.5 L38.7682374,38.3378949 L40.6012313,38.3829371 C40.6012313,38.3829371 42.1384466,34.7880044 37.2796241,32.0819518 L21,32.0038317 M52,49 L55.4148571,49 C55.4148571,49 57.0578286,45.2321839 60.1270857,45.2321839 C63.1963429,45.2321839 64.7954286,45.6183908 64.7954286,45.6183908 L67,44.9425287 C67,44.9425287 66.0489143,40.7877395 59.7808,39 M67.2633263,48 C67.7342335,48.9449284 68,50.0197844 68,51.1588661 C68,54.9371032 65.0751586,58 61.4672198,58 C58.1758039,58 55.4532834,55.4516462 55,52.1370146 M32,53.9379229 C30.9296345,56.5842514 28.3679202,58.2913238 25.5791586,57.9587011 C22.141015,57.5484176 19.6597132,54.7277186 20.0381252,51" id="Imported-Layers" stroke="#FFFFFF" stroke-width="2.5" stroke-linecap="round" stroke-linejoin="round" sketch:type="MSShapeGroup"></path>
        </g>
    </g>
</svg>