<?xml version="1.0" encoding="UTF-8" standalone="no"?>
<svg width="97px" height="67px" viewBox="0 0 97 67" version="1.1" xmlns="http://www.w3.org/2000/svg" xmlns:xlink="http://www.w3.org/1999/xlink" xmlns:sketch="http://www.bohemiancoding.com/sketch/ns">
    <!-- Generator: Sketch 3.4.1 (15681) - http://www.bohemiancoding.com/sketch -->
    <title>Untitled</title>
    <desc>Created with Sketch.</desc>
    <defs>
        <path d="M74.0847458,28.35 C74.0847458,28.35 60.2674193,8.55020031 60.0364535,8.24504087 L63.6216464,7.66569683 L63.3291671,0.795020638 L59.9633336,0 L53.4626326,4.39727865 L46.5,4.41104524 M66.9915254,32.4702108 C64.4831775,33.609253 55.9950763,48.0375 55.9950763,48.0375 L4.29208771,47.658199 L0,40.1587454 L12.2025859,26.775 L28.7933338,26.775 M56.0321943,10.2375 L61.4745763,25.2304211 L51.9416524,40.1297388 L32.0469562,40.1625 L40.9086296,27.4242503 L43.9905448,27.499133 C43.9905448,27.499133 46.5751509,21.5225573 38.4057409,17.0237449 L11.0338983,16.8938702 M60.6864407,43.3125 L66.6074557,43.3125 C66.6074557,43.3125 69.4562011,37.6749052 74.7779808,37.6749052 C80.0997606,37.6749052 82.8724126,38.2527672 82.8724126,38.2527672 L86.6949153,37.2415086 C86.6949153,37.2415086 85.0458293,31.0249052 74.1775566,28.35 M86.2771919,43.3125 C87.0480185,44.8007622 87.4830508,46.4936605 87.4830508,48.2877141 C87.4830508,54.2384375 82.6953868,59.0625 76.7895625,59.0625 C71.4018537,59.0625 66.9453681,55.0488428 66.2033898,49.828298 M27.5847458,52.9952448 C25.7569607,57.4609242 21.3825078,60.3416089 16.6203429,59.7803081 C10.7492756,59.0879547 6.51213736,54.3280251 7.15832402,48.0375" id="path-1"></path>
    </defs>
    <g id="Page-1" stroke="none" stroke-width="1" fill="none" fill-rule="evenodd" sketch:type="MSPage">
        <g id="Icons/Vehicles/Motorbike/94" sketch:type="MSLayerGroup" transform="translate(2.000000, 2.000000)">
            <g id="Motorbike-Blue-94px">
                <use stroke="none" sketch:type="MSShapeGroup" xlink:href="#path-1"></use>
                <use stroke="#11A3EB" stroke-width="3" stroke-linecap="round" stroke-linejoin="round" xlink:href="#path-1"></use>
            </g>
        </g>
    </g>
</svg>