<?xml version="1.0" encoding="UTF-8" standalone="no"?>
<svg width="65px" height="75px" viewBox="0 0 65 75" version="1.1" xmlns="http://www.w3.org/2000/svg" xmlns:xlink="http://www.w3.org/1999/xlink" xmlns:sketch="http://www.bohemiancoding.com/sketch/ns">
    <!-- Generator: Sketch 3.4.1 (15681) - http://www.bohemiancoding.com/sketch -->
    <title>Untitled</title>
    <desc>Created with Sketch.</desc>
    <defs></defs>
    <g id="Page-1" stroke="none" stroke-width="1" fill="none" fill-rule="evenodd" sketch:type="MSPage">
        <g id="Icons/Vehicles/Truck/62" sketch:type="MSLayerGroup" transform="translate(1.000000, 2.000000)" stroke="#11A3EB" stroke-width="3" stroke-linecap="round" stroke-linejoin="round">
            <path d="M12.3963841,67.6570967 L11.2100411,71 L3.79869265,71 L3.79869265,47.9495282 L6.70852842,31.9137457 L8.50232298,7.59851087 C8.50232298,7.59851087 8.68906216,0 15.5830332,0 L45.8732262,0 C53.1110171,0 53.4954801,7.44289867 53.4954801,7.44289867 L55.3936289,32.216141 L58.261723,47.9495282 L58.261723,71 L50.5669704,71 L49.6849024,67.1990891 M9.58211482,62.5991072 L14.5032414,63.645351 L46.3873082,63.645351 L52.6342829,62.4335623 M6.41523806,30.1953896 L0.5,30.1953896 L0.5,25.1352339 M55.5847619,30.1953896 L61.5,30.1953896 L61.5,25.1352339 M9.77105093,48.4373339 L16.4618058,49.5166866 L16.6847944,52.5538837 M52.2498199,48.4373339 L45.5579666,49.5166866 L45.2229345,52.7580557 M22.5187459,49.4913031 C22.5187459,49.7539676 23.0536988,56.1782134 23.0536988,56.1782134 L38.9517936,56.1782134 L39.5416697,49.4913031 L22.5187459,49.4913031 L22.5187459,49.4913031 Z M53.9612296,16.4772356 C53.9612296,16.4772356 46.8354822,13.7490557 31.1076496,13.7490557 C15.8642404,13.7490557 8.82307498,16.4772356 8.82307498,16.4772356 M16.5771447,37.819284 L45.5458835,37.819284 L16.5771447,37.819284 Z" id="Truck-Blue-62px" sketch:type="MSShapeGroup"></path>
        </g>
    </g>
</svg>