<?xml version="1.0" encoding="UTF-8" standalone="no"?>
<svg width="39px" height="45px" viewBox="0 0 39 45" version="1.1" xmlns="http://www.w3.org/2000/svg" xmlns:xlink="http://www.w3.org/1999/xlink" xmlns:sketch="http://www.bohemiancoding.com/sketch/ns">
    <!-- Generator: Sketch 3.4.1 (15681) - http://www.bohemiancoding.com/sketch -->
    <title>Untitled</title>
    <desc>Created with Sketch.</desc>
    <defs></defs>
    <g id="Page-1" stroke="none" stroke-width="1" fill="none" fill-rule="evenodd" sketch:type="MSPage">
        <g id="Icons/Vehicles/Truck/37" sketch:type="MSLayerGroup" transform="translate(1.000000, 1.000000)" stroke="#11A3EB" stroke-width="2" stroke-linecap="round" stroke-linejoin="round">
            <path d="M7.11832817,40.8179577 L6.40846719,42.8088549 L1.97380789,42.8088549 L1.97380789,29.0809322 L3.71493913,19.5306729 L4.78827523,5.0495089 C4.78827523,5.0495089 4.90001261,0.524145142 9.02509364,0.524145142 L27.1495534,0.524145142 C31.4803627,0.524145142 31.7104102,4.9568326 31.7104102,4.9568326 L32.8461878,19.7107673 L34.5623424,29.0809322 L34.5623424,42.8088549 L29.9581052,42.8088549 L29.4303105,40.5451871 M5.43438018,37.0675337 L8.37898869,37.6906338 L27.4571598,37.6906338 L31.1951037,36.9689419 M3.53944572,18.0409111 L0,18.0409111 L0,15.0272883 M32.9605543,18.0409111 L36.5,18.0409111 L36.5,15.0272883 M5.54743211,27.9723127 L9.55091659,28.6151312 L9.68434416,30.4239622 M30.9650562,27.9723127 L26.9609144,28.6151312 L26.7604444,30.5455587 M13.1751513,28.6000138 C13.1751513,28.7564462 13.495246,32.5824654 13.495246,32.5824654 L23.0080404,32.5824654 L23.3609991,28.6000138 L13.1751513,28.6000138 L13.1751513,28.6000138 Z M31.9890964,9.87093702 C31.9890964,9.87093702 27.7253295,8.24614411 18.3144133,8.24614411 C9.19335698,8.24614411 4.98020061,9.87093702 4.98020061,9.87093702 M9.38880082,21.9775747 L26.7225543,21.9775747 L9.38880082,21.9775747 Z" id="Truck-Blue-37px" sketch:type="MSShapeGroup"></path>
        </g>
    </g>
</svg>