<?xml version="1.0" encoding="UTF-8" standalone="no"?>
<svg width="54px" height="64px" viewBox="0 0 54 64" version="1.1" xmlns="http://www.w3.org/2000/svg" xmlns:xlink="http://www.w3.org/1999/xlink" xmlns:sketch="http://www.bohemiancoding.com/sketch/ns">
    <!-- Generator: Sketch 3.4.1 (15681) - http://www.bohemiancoding.com/sketch -->
    <title>Untitled</title>
    <desc>Created with Sketch.</desc>
    <defs></defs>
    <g id="Page-1" stroke="none" stroke-width="1" fill="none" fill-rule="evenodd" sketch:type="MSPage">
        <g id="Icons/Vehicles/Truck/52-Grey" sketch:type="MSLayerGroup" transform="translate(1.000000, 1.000000)" stroke="#D2D9DC" stroke-width="2" stroke-linecap="round" stroke-linejoin="round">
            <path d="M10.346072,58.1482585 L9.32834753,61.0018576 L2.97331657,61.0018576 L2.97331657,41.626548 L5.46851781,27.9384675 L6.70555341,7.48482973 C6.70555341,7.48482973 6.86646672,0.998142419 12.7784636,0.998142419 L38.7555147,0.998142419 C44.9621711,0.998142419 45.2923568,7.3510836 45.2923568,7.3510836 L46.520298,28.1976006 L48.978928,41.626548 L48.978928,61.0018576 L42.3793924,61.0018576 L41.6239358,57.757469 M7.63237229,53.1161765 L11.8526896,54.0095588 L39.1954141,54.0095588 L44.5536184,52.9751161 M5.11669892,26.0714396 L0.043750003,26.0714396 L0.043750003,21.7529025 M46.884346,25.9714396 L51.95625,25.9714396 L51.95625,21.6529025 M8.2943305,42.0434598 L14.0318305,42.9650542 L14.0318305,45.5563854 M43.7234327,42.0434598 L37.9848878,42.9650542 L37.9848878,45.7308824 M18.9934791,47.9503096 L32.8194853,47.9503096 L33.3252128,42.9431115 L18.7270317,42.9431115 C18.7270317,43.1667183 18.9934791,47.9503096 18.9934791,47.9503096 Z M45.6915054,14.7634288 C45.6915054,14.7634288 39.5799342,12.4333204 26.0924729,12.4333204 C13.0198336,12.4333204 6.9814048,14.7634288 6.9814048,14.7634288 M13.6310952,32.9790248 L38.4744389,32.9790248" id="Truck-Light-Grey-52px" sketch:type="MSShapeGroup"></path>
        </g>
    </g>
</svg>