<?xml version="1.0" encoding="UTF-8" standalone="no"?>
<svg width="178px" height="165px" viewBox="0 0 178 165" version="1.1" xmlns="http://www.w3.org/2000/svg" xmlns:xlink="http://www.w3.org/1999/xlink" xmlns:sketch="http://www.bohemiancoding.com/sketch/ns">
    <!-- Generator: Sketch 3.4.1 (15681) - http://www.bohemiancoding.com/sketch -->
    <title>Untitled</title>
    <desc>Created with Sketch.</desc>
    <defs></defs>
    <g id="Page-1" stroke="none" stroke-width="1" fill="none" fill-rule="evenodd" sketch:type="MSPage">
        <g id="UI/Alert/No-Stuart" sketch:type="MSLayerGroup" transform="translate(3.000000, 2.000000)" stroke="#787F87" stroke-width="5" stroke-linecap="round" stroke-linejoin="round">
            <path d="M0.00866166684,155.671136 C5.89143447,158.059006 13.0432832,159.970703 20.8655403,159.970703 L133.889983,159.970703 C140.910718,159.970703 146.919656,158.875971 151.926693,157.312068 M112.227188,141.339246 C131.228051,119.320579 130.423962,94.828664 130.423962,94.828664 L130.423962,65.380231 L21.5113503,65.380231 L21.5113503,94.828664 C21.5113503,94.828664 20.7096982,119.320579 39.7105605,141.339246 L112.227188,141.339246 L112.227188,141.339246 Z M50.6593567,0.970703125 L54.6135235,6.63491123 C54.6135235,6.63491123 59.447473,12.3480949 54.5863337,18.3099235 L47.0780779,28.9263108 C47.0780779,28.9263108 41.8634718,33.9783249 50.6593567,42.4492074 M76.7543214,0.970703125 L80.7108275,6.63491123 C80.7108275,6.63491123 85.5433199,12.3480949 80.6816927,18.3099235 L73.1746254,28.9263108 C73.1746254,28.9263108 67.959496,33.9783249 76.7543214,42.4492074 M101.728249,0.970703125 L105.684547,6.63491123 C105.684547,6.63491123 110.518728,12.3480949 105.657356,18.3099235 L98.1506825,28.9263108 C98.1506825,28.9263108 92.9338844,33.9783249 101.728249,42.4492074 M130.428858,91.8942269 C130.428858,80.4184988 139.73437,71.1129868 151.210098,71.1129868 C162.685826,71.1129868 171.991338,80.4184988 171.991338,91.8942269 C171.991338,103.369955 162.685826,112.675467 151.210098,112.675467 L142.445289,112.675467" id="No-Stuart" sketch:type="MSShapeGroup"></path>
        </g>
    </g>
</svg>